<svg width="106" height="27" viewBox="0 0 106 27" fill="none" xmlns="http://www.w3.org/2000/svg">
<path d="M16.7013 12.6772C16.7131 11.7635 16.9554 10.8677 17.4056 10.0731C17.8559 9.27841 18.4995 8.61076 19.2765 8.13222C18.7829 7.42601 18.1316 6.84483 17.3745 6.43483C16.6174 6.02484 15.7753 5.79732 14.9151 5.77036C13.0801 5.57742 11.3011 6.87028 10.366 6.87028C9.41278 6.87028 7.97305 5.78952 6.4227 5.82147C5.41989 5.85392 4.44257 6.14603 3.58597 6.66932C2.72937 7.19262 2.0227 7.92926 1.53482 8.80747C-0.578553 12.4727 0.997834 17.8595 3.0223 20.8222C4.03519 22.273 5.21896 23.8935 6.76792 23.8361C8.28366 23.7731 8.84976 22.8679 10.6794 22.8679C12.492 22.8679 13.0231 23.8361 14.6035 23.7995C16.23 23.7731 17.2547 22.3423 18.2321 20.8778C18.9599 19.8441 19.5199 18.7016 19.8914 17.4926C18.9465 17.0923 18.1401 16.4222 17.5728 15.5659C17.0055 14.7095 16.7024 13.7049 16.7013 12.6772Z" fill="#262626"/>
<path d="M13.7157 3.82362C14.6025 2.75723 15.0394 1.38655 14.9336 0.00268555C13.5788 0.145228 12.3273 0.793858 11.4285 1.81934C10.989 2.32031 10.6525 2.90313 10.438 3.53448C10.2236 4.16583 10.1354 4.83333 10.1787 5.49881C10.8563 5.5058 11.5267 5.35867 12.1394 5.0685C12.7521 4.77833 13.2911 4.35268 13.7157 3.82362Z" fill="#262626"/>
<path d="M34.8848 20.3139H29.9107L28.7162 23.847H26.6094L31.3207 10.7754H33.5097L38.221 23.847H36.0783L34.8848 20.3139ZM30.4259 18.6835H34.3687L32.425 12.9495H32.3706L30.4259 18.6835Z" fill="#262626"/>
<path d="M48.3956 19.08C48.3956 22.0416 46.8132 23.9443 44.4251 23.9443C43.8202 23.976 43.2186 23.8364 42.6892 23.5415C42.1598 23.2467 41.724 22.8084 41.4317 22.2769H41.3865V26.9973H39.4336V14.3144H41.3239V15.8995H41.3598C41.6656 15.3706 42.1087 14.9346 42.6422 14.6379C43.1756 14.3412 43.7794 14.1949 44.3892 14.2146C46.8039 14.2147 48.3956 16.1267 48.3956 19.08ZM46.3883 19.08C46.3883 17.1505 45.3929 15.882 43.8741 15.882C42.3819 15.882 41.3783 17.1772 41.3783 19.08C41.3783 21.0002 42.3819 22.2862 43.8741 22.2862C45.3929 22.2862 46.3883 21.027 46.3883 19.08Z" fill="#262626"/>
<path d="M58.8688 19.08C58.8688 22.0416 57.2858 23.9443 54.8978 23.9443C54.2929 23.976 53.6913 23.8364 53.1619 23.5415C52.6324 23.2467 52.1966 22.8084 51.9043 22.2769H51.8591V26.9973H49.9062V14.3144H51.7965V15.8995H51.8325C52.1382 15.3706 52.5814 14.9346 53.1148 14.6379C53.6483 14.3412 54.252 14.1949 54.8619 14.2146C57.2766 14.2147 58.8688 16.1267 58.8688 19.08ZM56.861 19.08C56.861 17.1505 55.8655 15.882 54.3467 15.882C52.8546 15.882 51.851 17.1772 51.851 19.08C51.851 21.0002 52.8546 22.2862 54.3467 22.2862C55.8655 22.2862 56.861 21.027 56.861 19.08Z" fill="#262626"/>
<path d="M65.7882 20.2012C65.9329 21.4974 67.19 22.3485 68.9079 22.3485C70.5539 22.3485 71.7382 21.4974 71.7382 20.3286C71.7382 19.314 71.0239 18.7065 69.3327 18.2902L67.6415 17.882C65.2453 17.3023 64.1329 16.1797 64.1329 14.3582C64.1329 12.1028 66.095 10.5537 68.8802 10.5537C71.6387 10.5537 73.529 12.1028 73.5926 14.3582H71.6212C71.5032 13.0537 70.4267 12.2663 68.8535 12.2663C67.2803 12.2663 66.2038 13.063 66.2038 14.2225C66.2038 15.1466 66.8914 15.6904 68.5733 16.1067L70.0111 16.4603C72.6885 17.0946 73.7999 18.1719 73.7999 20.0839C73.7999 22.5294 71.8562 24.0611 68.7631 24.0611C65.8692 24.0611 63.9153 22.5654 63.7891 20.2011L65.7882 20.2012Z" fill="#262626"/>
<path d="M78.0134 12.0586V14.3139H79.8227V15.8631H78.0134V21.117C78.0134 21.9332 78.3757 22.3135 79.171 22.3135C79.3858 22.3098 79.6002 22.2947 79.8134 22.2683V23.8082C79.4558 23.8751 79.0924 23.9054 78.7287 23.8986C76.8025 23.8986 76.0513 23.1739 76.0513 21.3256V15.8631H74.668V14.3139H76.0513V12.0586H78.0134Z" fill="#262626"/>
<path d="M80.8711 19.0801C80.8711 16.0815 82.6341 14.1973 85.3834 14.1973C88.1419 14.1973 89.8967 16.0815 89.8967 19.0801C89.8967 22.0869 88.1511 23.9629 85.3834 23.9629C82.6167 23.9629 80.8711 22.0869 80.8711 19.0801ZM87.9068 19.0801C87.9068 17.0231 86.9658 15.8091 85.3834 15.8091C83.8009 15.8091 82.8599 17.0324 82.8599 19.0801C82.8599 21.1452 83.8009 22.35 85.3834 22.35C86.9658 22.35 87.9068 21.1452 87.9068 19.0801Z" fill="#262626"/>
<path d="M91.5078 14.3143H93.3704V15.9364H93.4156C93.5416 15.4298 93.8379 14.982 94.2547 14.6685C94.6714 14.3549 95.1832 14.1946 95.7041 14.2145C95.9291 14.2138 96.1535 14.2382 96.3732 14.2875V16.1173C96.089 16.0303 95.7927 15.9904 95.4957 15.9991C95.212 15.9876 94.9292 16.0377 94.6666 16.146C94.4041 16.2543 94.168 16.4182 93.9747 16.6265C93.7814 16.8348 93.6353 17.0826 93.5466 17.3527C93.4579 17.6229 93.4286 17.9091 93.4607 18.1917V23.8445H91.5078L91.5078 14.3143Z" fill="#262626"/>
<path d="M105.375 21.0455C105.113 22.7756 103.431 23.9629 101.279 23.9629C98.5108 23.9629 96.793 22.1054 96.793 19.1253C96.793 16.136 98.5201 14.1973 101.196 14.1973C103.829 14.1973 105.484 16.0085 105.484 18.8981V19.5684H98.7643V19.6866C98.7333 20.0373 98.7772 20.3906 98.8929 20.7231C99.0087 21.0556 99.1938 21.3596 99.4359 21.6149C99.6779 21.8702 99.9715 22.071 100.297 22.2039C100.622 22.3369 100.972 22.3989 101.324 22.386C101.785 22.4293 102.248 22.3222 102.644 22.0807C103.04 21.8392 103.348 21.4761 103.521 21.0455L105.375 21.0455ZM98.7736 18.2012H103.53C103.548 17.8858 103.5 17.5702 103.39 17.2742C103.28 16.9782 103.11 16.7082 102.891 16.481C102.672 16.2539 102.408 16.0746 102.117 15.9544C101.825 15.8342 101.512 15.7756 101.196 15.7824C100.878 15.7805 100.563 15.8417 100.269 15.9625C99.9746 16.0832 99.7072 16.2612 99.4819 16.4861C99.2566 16.711 99.0781 16.9783 98.9565 17.2727C98.8349 17.567 98.7727 17.8826 98.7736 18.2012Z" fill="#262626"/>
<path d="M29.0384 3.59163H29.8768C30.0212 3.60963 30.1677 3.59749 30.3071 3.55597C30.4465 3.51445 30.5758 3.44445 30.6869 3.35039C30.7979 3.25632 30.8884 3.14023 30.9524 3.00943C31.0165 2.87863 31.0528 2.73595 31.059 2.59039C31.059 2.01114 30.6239 1.63696 29.8861 1.63696C29.7382 1.61627 29.5877 1.62546 29.4434 1.66399C29.2992 1.70253 29.1641 1.76963 29.0461 1.86133C28.9282 1.95303 28.8298 2.06747 28.7567 2.1979C28.6837 2.32833 28.6374 2.4721 28.6208 2.62072H27.7002C27.7161 2.35093 27.7872 2.0873 27.9091 1.84623C28.0311 1.60517 28.2013 1.39184 28.4091 1.21952C28.617 1.0472 28.858 0.919578 29.1172 0.844609C29.3764 0.76964 29.6483 0.748925 29.9158 0.783753C31.1504 0.783753 32.0196 1.47608 32.0196 2.47269C32.0225 2.80656 31.911 3.13133 31.7037 3.39277C31.4964 3.65422 31.2058 3.83653 30.8805 3.90927V3.98328C31.2662 4.00041 31.6294 4.1698 31.8907 4.45441C32.152 4.73902 32.2902 5.11569 32.2751 5.50209C32.2466 5.77987 32.163 6.04915 32.0292 6.29414C31.8954 6.53914 31.7142 6.75491 31.4961 6.92883C31.2779 7.10274 31.0274 7.23129 30.759 7.30694C30.4907 7.38259 30.2099 7.40382 29.9333 7.36938C29.6561 7.40724 29.3741 7.3888 29.1041 7.31516C28.8342 7.24152 28.5818 7.11419 28.362 6.94075C28.1422 6.76731 27.9595 6.55132 27.8249 6.30566C27.6902 6.05999 27.6063 5.78968 27.5781 5.51084H28.513C28.5695 6.11168 29.1205 6.49926 29.9333 6.49926C30.7461 6.49926 31.2766 6.06392 31.2766 5.45023C31.2766 4.82779 30.7768 4.44436 29.9035 4.44436H29.0384V3.59163Z" fill="#262626"/>
<path d="M33.3359 5.8784C33.3359 5.02519 33.9712 4.53331 35.0959 4.46341L36.3776 4.3894V3.98027C36.3776 3.47965 36.0482 3.19697 35.4089 3.19697C34.8876 3.19697 34.5274 3.38868 34.4227 3.7238H33.5186C33.614 2.90965 34.3796 2.38745 35.453 2.38745C36.6393 2.38745 37.3084 2.97903 37.3084 3.98027V7.21886H36.4084V6.55275H36.3346C36.1846 6.79169 35.974 6.98647 35.7243 7.11722C35.4746 7.24797 35.1947 7.30999 34.9132 7.29696C34.7146 7.31765 34.5138 7.29643 34.3239 7.23464C34.1339 7.17285 33.959 7.07187 33.8104 6.93822C33.6618 6.80457 33.5428 6.64121 33.4611 6.45867C33.3793 6.27612 33.3367 6.07845 33.3359 5.8784ZM36.3776 5.47338V5.0771L35.2221 5.15111C34.5704 5.1948 34.2749 5.41684 34.2749 5.8347C34.2749 6.2613 34.6443 6.50956 35.1523 6.50956C35.3012 6.52466 35.4515 6.50961 35.5945 6.4653C35.7374 6.421 35.87 6.34835 35.9843 6.25167C36.0986 6.155 36.1923 6.03627 36.2599 5.90257C36.3275 5.76886 36.3675 5.6229 36.3776 5.47338Z" fill="#262626"/>
<path d="M39.7893 3.26569V7.2182H38.8555V2.47827H41.9711V3.26564L39.7893 3.26569Z" fill="#262626"/>
<path d="M47.6298 4.84228C47.6298 6.34824 46.8694 7.29243 45.6749 7.29243C45.3817 7.31249 45.0888 7.24821 44.8308 7.10716C44.5728 6.96611 44.3605 6.75416 44.2187 6.49627H44.1448V8.79016H43.2109V2.47437H44.1099V3.25771H44.1797C44.324 2.99081 44.5392 2.76906 44.8014 2.61695C45.0636 2.46484 45.3627 2.38829 45.6657 2.39576C46.8694 2.39573 47.6298 3.33579 47.6298 4.84228ZM46.6693 4.84228C46.6693 3.84105 46.1962 3.23609 45.405 3.23609C44.619 3.23609 44.1274 3.85389 44.1274 4.84639C44.1274 5.83427 44.6189 6.45258 45.4009 6.45258C46.1962 6.45257 46.6693 5.84762 46.6693 4.84228Z" fill="#262626"/>
<path d="M48.873 8.91588V8.11047C48.974 8.12333 49.0759 8.12917 49.1777 8.12794C49.3767 8.14271 49.5741 8.08335 49.732 7.96127C49.89 7.83919 49.9974 7.66298 50.0336 7.46645L50.1034 7.23567L48.3906 2.47827H49.4076L50.594 6.24318H50.6678L51.85 2.47827H52.8403L51.0763 7.41403C50.672 8.5674 50.2245 8.93747 49.2599 8.93747C49.1819 8.93746 48.9602 8.92872 48.873 8.91588Z" fill="#262626"/>
<path d="M53.5664 5.87271H54.4962C54.5875 6.2906 54.9785 6.50849 55.5255 6.50849C56.1474 6.50849 56.5291 6.23403 56.5291 5.80744C56.5291 5.35052 56.1863 5.13259 55.5255 5.13259H54.8174V4.40582H55.5131C56.0776 4.40582 56.3649 4.18841 56.3649 3.79214C56.3649 3.44417 56.0868 3.17845 55.5131 3.17845C54.9908 3.17845 54.609 3.4005 54.5485 3.77467H53.6485C53.7158 3.34472 53.9488 2.95838 54.2975 2.69877C54.6462 2.43915 55.0827 2.32699 55.5131 2.38641C56.6379 2.38641 57.2813 2.89577 57.2813 3.69655C57.2866 3.91954 57.2152 4.13758 57.0793 4.31422C56.9433 4.49085 56.7509 4.61537 56.5342 4.66695V4.74096C56.7922 4.77428 57.0289 4.90129 57.1995 5.09789C57.3702 5.29448 57.4628 5.54698 57.4599 5.80746C57.4599 6.70852 56.6943 7.30468 55.5255 7.30468C54.4921 7.30465 53.6526 6.83025 53.5664 5.87271Z" fill="#262626"/>
<path d="M58.8086 7.2182V2.47827H59.7342V5.73846H59.8081L61.9888 2.47828H62.9145V7.21821H61.9888V3.94057H61.9191L59.7342 7.21822L58.8086 7.2182Z" fill="#262626"/>
<path d="M68.0088 3.26564H66.5187V7.21815H65.5839V3.26564H64.0938V2.47827H68.0088V3.26564Z" fill="#262626"/>
<path d="M73.0387 5.93914C72.9114 6.37232 72.6363 6.74695 72.2614 6.9976C71.8864 7.24824 71.4354 7.35897 70.9873 7.31044C70.6755 7.31868 70.3657 7.25887 70.0794 7.13515C69.793 7.01144 69.5369 6.82678 69.329 6.59401C69.121 6.36123 68.9661 6.0859 68.875 5.78714C68.7839 5.48838 68.7588 5.17334 68.8014 4.86389C68.7599 4.55348 68.7855 4.23776 68.8764 3.93811C68.9672 3.63845 69.1213 3.36186 69.3282 3.12704C69.5351 2.89223 69.7899 2.70468 70.0754 2.57709C70.361 2.44951 70.6705 2.38486 70.9832 2.38753C72.2998 2.38753 73.0951 3.28858 73.0951 4.77701V5.10343H69.7538V5.15585C69.739 5.32983 69.7607 5.50498 69.8175 5.67006C69.8743 5.83513 69.965 5.98648 70.0836 6.11437C70.2023 6.24225 70.3464 6.34385 70.5066 6.41263C70.6668 6.48141 70.8397 6.51585 71.014 6.51374C71.2372 6.54048 71.4633 6.50012 71.6636 6.3978C71.8639 6.29548 72.0292 6.13582 72.1387 5.93911L73.0387 5.93914ZM69.7537 4.41159H72.1428C72.1546 4.25259 72.133 4.09288 72.0796 3.9427C72.0261 3.79253 71.9419 3.65522 71.8323 3.53959C71.7227 3.42396 71.5902 3.33256 71.4432 3.27127C71.2963 3.20998 71.1382 3.18015 70.979 3.1837C70.8175 3.1815 70.6571 3.21176 70.5074 3.27269C70.3577 3.33363 70.2218 3.424 70.1076 3.53847C69.9933 3.65294 69.9032 3.78918 69.8424 3.93915C69.7816 4.08911 69.7515 4.24976 69.7537 4.41159Z" fill="#262626"/>
<path d="M77 2.47827H79.1335C80.0592 2.47827 80.602 2.94805 80.602 3.68353C80.6035 3.91691 80.5248 4.1437 80.3793 4.32596C80.2338 4.50822 80.0302 4.63489 79.8026 4.68477V4.75878C80.0789 4.77627 80.338 4.89941 80.5263 5.10276C80.7147 5.30612 80.8178 5.57415 80.8145 5.8515C80.8145 6.67849 80.1936 7.21818 79.1551 7.21818H77V2.47827ZM77.9257 3.1963V4.42367H78.8513C79.4157 4.42367 79.6856 4.20626 79.6856 3.80536C79.6856 3.43581 79.4506 3.19629 78.955 3.19629L77.9257 3.1963ZM77.9257 5.1114V6.50018H79.033C79.5851 6.50018 79.8806 6.25604 79.8806 5.80785C79.8806 5.33345 79.5461 5.11141 78.916 5.11141L77.9257 5.1114Z" fill="#262626"/>
</svg>
