<svg width="150" height="64" viewBox="0 0 150 64" fill="none" xmlns="http://www.w3.org/2000/svg">
<path d="M20.8781 18.3415C20.683 16.7805 20.0976 15.4147 19.3171 14.2439C18.5366 13.0732 17.561 12.0976 16 11.3171C15.6098 11.122 15.2195 10.9268 14.8293 10.7317C14.8293 10.7317 13.6586 10.5366 13.8537 9.36587L14.0488 4.87805H14.2439C14.4391 4.87805 14.6342 4.68294 14.6342 4.48781V1.95122C14.6342 1.75609 14.4391 1.56098 14.2439 1.56098V0.390246C14.2439 0.195124 14.0488 0 13.8537 0H7.41466C7.21953 0 7.02441 0.195124 7.02441 0.390246V1.56098H6.82928C6.63416 1.56098 6.43904 1.75609 6.43904 1.95122V4.48781C6.43904 4.68294 6.63416 4.87805 6.82928 4.87805H7.21953L7.41466 9.56099C7.41466 10.3415 6.63417 10.7317 6.43904 10.7317C6.0488 10.9268 5.46343 11.122 5.07319 11.3171C3.70733 12.0976 2.53659 12.8781 1.95122 14.2439C1.17073 15.4147 0.585369 16.9756 0.390246 18.5366C0.195124 20.2927 0 22.0488 0 24.0001V50.3416C0 52.2928 0.195124 54.0489 0.390246 55.6099C0.585369 57.1709 1.17073 58.7318 1.95122 59.9026C2.73171 61.0733 3.70733 62.0489 5.26831 62.6343C6.63416 63.2197 8.39027 63.6099 10.5366 63.6099C12.683 63.6099 14.4391 63.2197 15.8049 62.6343C17.1708 62.0489 18.3415 61.0733 19.122 59.9026C19.9025 58.7318 20.4878 57.366 20.683 55.805C20.8781 54.244 21.0732 52.683 21.0732 50.7318V42.7318L14.8293 44.0977V50.7318C14.8293 51.9025 14.8293 52.8782 14.6342 53.6586C14.4391 54.4391 14.2439 55.2196 14.0488 55.805C13.6586 56.3904 13.2683 56.7806 12.683 57.1709C12.0976 57.5611 11.3171 57.5611 10.5366 57.5611C9.561 57.5611 8.78051 57.366 8.19514 56.9757C7.60977 56.5855 7.21953 56.0001 6.82928 55.4148C6.82928 54.8294 6.63416 54.0489 6.63416 53.2684C6.63416 52.2928 6.43904 51.3172 6.43904 50.1465V23.8049C6.43904 22.6342 6.43904 21.6586 6.63416 20.683C6.63416 19.7074 6.82928 18.9269 7.21953 18.3415C7.60977 17.7561 8.00002 17.1708 8.58539 16.9756C9.17076 16.5854 9.95124 16.5854 10.9269 16.5854C11.9025 16.5854 12.683 16.7805 13.2683 17.1708C13.8537 17.561 14.2439 17.9513 14.6342 18.5366C15.0244 19.122 15.2196 19.9025 15.2196 20.683C15.2196 21.4635 15.4147 22.4391 15.4147 23.6098V38.8293L21.6586 37.4635V23.6098C21.2683 21.4635 21.0732 19.9025 20.8781 18.3415Z" fill="white"/>
<path d="M95.61 25.1705C94.8295 23.9997 93.8539 23.0241 92.488 22.2436C91.1222 21.4631 89.3661 21.0729 87.2197 21.0729C85.0734 21.0729 83.3172 21.4631 81.9514 22.0485C80.5855 22.6339 79.6099 23.6095 78.8294 24.7802C78.049 25.9509 77.6587 27.3168 77.2684 29.0729C77.0733 30.829 76.8782 32.5851 76.8782 34.5363V49.951C76.8782 51.9022 77.0733 53.6583 77.2684 55.2193C77.4636 56.7803 78.049 58.3413 78.8294 59.512C79.6099 60.6827 80.5855 61.6583 81.9514 62.4388C83.3172 63.2193 85.0734 63.4144 87.2197 63.4144C89.3661 63.4144 91.1222 63.0242 92.488 62.2437C93.8539 61.4632 94.8295 60.4876 95.61 59.3169C96.3905 58.1461 96.7807 56.5852 96.9758 55.0242C97.171 53.4632 97.3661 51.7071 97.3661 49.951V48.7803H91.3173V50.1461C91.3173 51.1217 91.3173 52.0973 91.1222 52.8778C91.1222 53.6583 90.927 54.4388 90.5368 55.2193C90.3417 55.8047 89.9514 56.39 89.3661 56.7803C88.7807 57.1705 88.0002 57.3656 87.0246 57.3656C86.049 57.3656 85.2685 57.1705 84.6831 56.7803C84.0977 56.39 83.7075 55.9998 83.5124 55.2193C83.3173 54.6339 83.1221 53.8534 82.927 52.8778C82.927 51.9022 82.927 50.9266 82.927 49.7559V45.4632L97.171 42.5363V34.1461C97.171 32.39 96.9758 30.829 96.7807 29.0729C96.9758 27.707 96.3905 26.3412 95.61 25.1705ZM91.3173 38.2437L83.1221 39.9997V34.3412C83.1221 33.1705 83.1221 32.1949 83.3173 31.2192C83.3173 30.2436 83.5124 29.4631 83.9026 28.8778C84.0977 28.2924 84.6831 27.9022 85.0733 27.5119C85.6587 27.1217 86.4392 27.1217 87.4148 27.1217C88.3904 27.1217 89.1709 27.3168 89.7563 27.707C90.3417 28.0973 90.7319 28.6827 90.927 29.268C91.1221 29.8534 91.3173 30.6339 91.3173 31.6095C91.3173 32.39 91.3173 33.3656 91.3173 34.3412V38.2437Z" fill="white"/>
<path d="M114.927 21.0729C113.366 21.0729 112.196 21.4631 111.22 22.2436C110.44 23.0241 109.659 23.9997 109.269 25.3656V21.6583H103.22V63.0242H109.269V35.3168C109.269 34.1461 109.464 32.9753 109.464 31.9997C109.659 31.0241 109.854 30.2436 110.244 29.4632C110.635 28.6827 111.025 28.2924 111.805 27.9022C112.391 27.5119 113.171 27.3168 114.147 27.3168C114.537 27.3168 114.927 27.3168 115.122 27.5119C115.318 27.7071 115.708 27.7071 115.903 27.7071C116.098 27.9022 116.293 27.9022 116.488 28.0973C116.683 28.2924 116.683 28.2924 116.879 28.2924V21.6583C116.488 21.4631 116.098 21.268 115.708 21.268C115.513 21.0729 115.318 21.0729 114.927 21.0729Z" fill="white"/>
<path d="M136.781 45.4634C136.195 44.4878 135.415 43.7073 134.634 42.7317C133.854 41.9512 133.073 41.1707 132.098 40.3902C131.317 39.6097 130.342 39.0243 129.561 38.439C128.781 37.8536 128 37.0731 127.415 36.4878C126.829 35.7073 126.244 35.1219 125.854 34.3414C125.464 33.5609 125.268 32.7804 125.268 31.8048C125.268 30.439 125.464 29.4633 126.049 28.6829C126.634 27.9024 127.61 27.5121 128.781 27.5121C129.561 27.5121 130.146 27.7072 130.537 27.9024C130.927 28.0975 131.317 28.4877 131.707 29.0731C131.903 29.6585 132.098 30.2438 132.293 31.0243C132.488 31.8048 132.488 32.7804 132.488 33.9512H138.537C138.537 31.4146 138.342 29.4633 137.951 27.7072C137.561 26.1463 136.976 24.7804 136.195 23.8048C135.415 22.8292 134.439 22.2438 133.268 21.8536C132.098 21.4633 130.537 21.2682 128.781 21.2682C126.634 21.2682 125.073 21.4633 123.707 22.0487C122.342 22.6341 121.366 23.4145 120.781 24.3902C120 25.3658 119.61 26.5365 119.415 27.7072C119.22 29.0731 119.024 30.4389 119.024 31.9999C119.024 33.5609 119.22 34.7316 119.61 35.9024C120 37.0731 120.585 38.0487 121.171 39.0243C121.756 39.9999 122.537 40.7804 123.317 41.5609C124.098 42.3414 124.878 43.1219 125.854 43.7073C126.634 44.4878 127.415 45.0731 128.39 45.6585C129.171 46.2439 129.951 47.0244 130.537 47.8048C131.122 48.5853 131.707 49.3658 132.098 50.1463C132.488 50.9268 132.683 51.9024 132.683 53.0732C132.683 54.6341 132.488 55.8049 131.903 56.5854C131.317 57.3658 130.342 57.7561 129.171 57.7561C128.39 57.7561 127.61 57.561 127.22 57.3658C126.634 56.9756 126.244 56.5854 126.049 56C125.854 55.4146 125.659 54.6341 125.464 53.6585C125.464 52.6829 125.268 51.7073 125.268 50.5366H119.22C119.22 52.6829 119.415 54.6341 119.61 56.1951C119.805 57.9512 120.39 59.3171 121.171 60.4878C121.951 61.6585 122.927 62.439 124.293 63.0244C125.659 63.6098 127.22 64 129.366 64C131.122 64 132.878 63.8049 134.049 63.4146C135.415 63.0244 136.39 62.2439 137.171 61.4634C137.951 60.4878 138.537 59.5122 138.927 58.1463C139.317 56.7805 139.512 55.2195 139.512 53.2683C139.512 51.7073 139.317 50.3414 138.927 49.1707C137.951 47.4146 137.366 46.439 136.781 45.4634Z" fill="white"/>
<path d="M70.4405 25.1705C69.6601 23.9997 68.6844 23.0241 67.3186 22.2436C65.9527 21.4631 64.1966 21.0729 62.0503 21.0729C59.9039 21.0729 58.1478 21.4631 56.782 22.0485C55.4161 22.6339 54.4405 23.6095 53.66 24.7802C52.8795 25.9509 52.4893 27.3168 52.099 29.0729C51.9039 30.829 51.7088 32.5851 51.7088 34.5363V49.951C51.7088 51.9022 51.9039 53.6583 52.099 55.2193C52.2942 56.7803 52.8795 58.3413 53.66 59.512C54.4405 60.6827 55.4161 61.6583 56.782 62.4388C58.1478 63.2193 59.9039 63.4144 62.0503 63.4144C64.1966 63.4144 65.9527 63.0242 67.3186 62.2437C68.6844 61.4632 69.6601 60.4876 70.4405 59.3169C71.221 58.1461 71.6113 56.5852 71.8064 55.0242C72.0015 53.4632 72.1967 51.7071 72.1967 49.951V48.7803H66.1479V50.1461C66.1479 51.1217 66.1479 52.0973 65.9527 52.8778C65.9527 53.6583 65.7576 54.4388 65.3674 55.2193C65.1722 55.8047 64.782 56.39 64.1966 56.7803C63.6113 57.1705 62.8308 57.3656 61.8552 57.3656C60.8796 57.3656 60.0991 57.1705 59.5137 56.7803C58.9283 56.39 58.5381 55.9998 58.343 55.2193C58.1478 54.6339 57.9527 53.8534 57.7576 52.8778C57.7576 51.9022 57.7576 50.9266 57.7576 49.7559V45.4632L72.0015 42.5363V34.1461C72.0015 32.39 71.8064 30.829 71.6113 29.0729C71.6113 27.707 71.221 26.3412 70.4405 25.1705ZM66.1479 38.2437L57.9527 39.9997V34.3412C57.9527 33.1705 57.9527 32.1949 58.1478 31.2192C58.1478 30.2436 58.343 29.4631 58.7332 28.8778C58.9283 28.2924 59.5137 27.9022 59.9039 27.5119C60.4893 27.1217 61.2698 27.1217 62.2454 27.1217C63.221 27.1217 64.0015 27.3168 64.5869 27.707C65.1722 28.0973 65.5625 28.6827 65.7576 29.268C65.9527 29.8534 66.1479 30.6339 66.1479 31.6095C66.1479 32.39 66.1479 33.3656 66.1479 34.3412V38.2437Z" fill="white"/>
<path d="M148.683 49.5614L149.463 10.1467H142.439L143.414 49.5614H148.683Z" fill="white"/>
<path d="M148.878 56.9757C148.293 56.3903 147.317 56.0001 145.951 56.0001C144.585 56.0001 143.805 56.3903 143.219 56.9757C142.634 57.5611 142.439 58.5367 142.439 59.9025C142.439 61.0733 142.634 62.0489 143.219 62.6343C143.805 63.2196 144.78 63.6099 145.951 63.6099C147.317 63.6099 148.293 63.2196 148.878 62.6343C149.463 62.0489 149.658 61.0733 149.658 59.9025C149.658 58.5367 149.463 57.7562 148.878 56.9757Z" fill="white"/>
<path d="M40.9748 63.0245V34.5366C40.9748 33.3659 40.9748 32.3903 40.9748 31.4146C40.9748 30.439 40.7797 29.6585 40.5846 29.0732C40.3895 28.4878 39.9992 27.9024 39.4139 27.5122C38.8285 27.122 38.048 26.9268 37.0724 26.9268C36.0968 26.9268 35.5114 27.122 34.9261 27.5122C34.3407 27.9024 33.9504 28.2927 33.7553 29.0732C33.5602 29.6585 33.3651 30.439 33.1699 31.4146C33.1699 32.3903 32.9748 33.3659 32.9748 34.5366V63.0245H26.7309V8.97558H32.9748V24.5854C33.3651 23.2195 34.1456 22.2439 34.9261 21.6585C35.7065 21.0732 37.0724 20.878 38.4383 20.878C40.3895 20.878 41.7553 21.2683 42.9261 22.0488C44.0968 22.8293 44.8773 23.8049 45.4627 25.1707C46.048 26.5366 46.4383 27.9024 46.6334 29.6585C46.8285 31.4146 46.8285 33.1707 46.8285 35.122V63.0245H40.9748Z" fill="white"/>
</svg>
