<svg width="116" height="29" viewBox="0 0 116 29" fill="none" xmlns="http://www.w3.org/2000/svg">
<path d="M97.1165 24.8926H98.9824V12.3918H97.1165V24.8926ZM113.923 16.8946L111.784 22.3147H111.72L109.5 16.8946H107.49L110.819 24.4697L108.921 28.6837H110.867L115.998 16.8946H113.923ZM103.341 23.4726C102.729 23.4726 101.877 23.1667 101.877 22.4106C101.877 21.4457 102.938 21.0767 103.855 21.0767C104.675 21.0767 105.061 21.2537 105.56 21.4946C105.415 22.6526 104.418 23.4726 103.341 23.4726ZM103.566 16.6217C102.215 16.6217 100.815 17.2167 100.236 18.5347L101.893 19.2266C102.247 18.5347 102.906 18.3096 103.598 18.3096C104.563 18.3096 105.544 18.8887 105.56 19.9177V20.0467C105.222 19.8538 104.498 19.5647 103.614 19.5647C101.829 19.5647 100.011 20.5457 100.011 22.3786C100.011 24.0517 101.475 25.1288 103.115 25.1288C104.37 25.1288 105.061 24.5667 105.496 23.9067H105.56V24.8717H107.361V20.0786C107.361 17.8597 105.705 16.6217 103.566 16.6217ZM92.0344 18.4166H89.3803V14.1307H92.0344C93.4295 14.1307 94.2213 15.2868 94.2213 16.2738C94.2213 17.2428 93.4295 18.4166 92.0344 18.4166ZM91.9865 12.3918H87.5154V24.8926H89.3803V20.1567H91.9865C94.0543 20.1567 96.0875 18.6586 96.0875 16.2738C96.0875 13.8887 94.0543 12.3918 91.9865 12.3918ZM67.6055 23.4748C66.3165 23.4748 65.2376 22.3958 65.2376 20.9137C65.2376 19.4157 66.3165 18.3197 67.6055 18.3197C68.8786 18.3197 69.8764 19.4157 69.8764 20.9137C69.8764 22.3958 68.8786 23.4748 67.6055 23.4748ZM69.7475 17.5947H69.6836C69.2646 17.0957 68.4596 16.6437 67.4446 16.6437C65.3174 16.6437 63.3685 18.5128 63.3685 20.9137C63.3685 23.2977 65.3174 25.1507 67.4446 25.1507C68.4596 25.1507 69.2646 24.6997 69.6836 24.1838H69.7475V24.7957C69.7475 26.4236 68.8786 27.2928 67.4765 27.2928C66.3324 27.2928 65.6235 26.4716 65.3335 25.7787L63.7066 26.4558C64.1734 27.5836 65.4146 28.9688 67.4765 28.9688C69.6675 28.9688 71.5205 27.6798 71.5205 24.5386V16.9017H69.7475V17.5947ZM72.8084 24.8926H74.6775V12.3908H72.8084V24.8926ZM77.4324 20.7687C77.3844 19.1246 78.7055 18.2877 79.6553 18.2877C80.3974 18.2877 81.0254 18.6578 81.2344 19.1896L77.4324 20.7687ZM83.2324 19.3508C82.8774 18.3997 81.7984 16.6437 79.5914 16.6437C77.4005 16.6437 75.5805 18.3677 75.5805 20.8977C75.5805 23.2816 77.3844 25.1507 79.8004 25.1507C81.7503 25.1507 82.8774 23.9587 83.3455 23.2658L81.8954 22.2988C81.4114 23.0077 80.7514 23.4748 79.8004 23.4748C78.8504 23.4748 78.1735 23.0397 77.7384 22.1868L83.4255 19.8337L83.2324 19.3508ZM37.9246 17.9498V19.7537H42.2416C42.1125 20.7687 41.7746 21.5097 41.2594 22.0246C40.6306 22.6536 39.6476 23.3458 37.9246 23.3458C35.2655 23.3458 33.1875 21.2038 33.1875 18.5447C33.1875 15.8867 35.2655 13.7447 37.9246 13.7447C39.3586 13.7447 40.4056 14.3077 41.1786 15.0326L42.4515 13.7608C41.3715 12.7297 39.9385 11.9398 37.9246 11.9398C34.2836 11.9398 31.2227 14.9048 31.2227 18.5447C31.2227 22.1868 34.2836 25.1507 37.9246 25.1507C39.8896 25.1507 41.3715 24.5056 42.5315 23.2977C43.7235 22.1057 44.0946 20.4308 44.0946 19.0768C44.0946 18.6578 44.0625 18.2718 43.9975 17.9498H37.9246ZM49.0025 23.4748C47.7146 23.4748 46.6026 22.4117 46.6026 20.8977C46.6026 19.3666 47.7146 18.3197 49.0025 18.3197C50.2915 18.3197 51.4034 19.3666 51.4034 20.8977C51.4034 22.4117 50.2915 23.4748 49.0025 23.4748ZM49.0025 16.6437C46.6504 16.6437 44.7335 18.4327 44.7335 20.8977C44.7335 23.3458 46.6504 25.1507 49.0025 25.1507C51.3545 25.1507 53.2725 23.3458 53.2725 20.8977C53.2725 18.4327 51.3545 16.6437 49.0025 16.6437ZM58.3164 23.4748C57.0274 23.4748 55.9155 22.4117 55.9155 20.8977C55.9155 19.3666 57.0274 18.3197 58.3164 18.3197C59.6056 18.3197 60.7165 19.3666 60.7165 20.8977C60.7165 22.4117 59.6056 23.4748 58.3164 23.4748ZM58.3164 16.6437C55.9646 16.6437 54.0474 18.4327 54.0474 20.8977C54.0474 23.3458 55.9646 25.1507 58.3164 25.1507C60.6685 25.1507 62.5854 23.3458 62.5854 20.8977C62.5854 18.4327 60.6685 16.6437 58.3164 16.6437Z" fill="#262626"/>
<path d="M10.8969 12.3139L0.25 23.614C0.250982 23.6159 0.250982 23.619 0.251964 23.6209C0.578973 24.848 1.69897 25.751 3.02899 25.751C3.56098 25.751 4.05992 25.607 4.48801 25.355L4.52197 25.3349L16.506 18.42L10.8969 12.3139Z" fill="#EB3131"/>
<path d="M21.6691 10.3939L21.6593 10.3868L16.4852 7.38778L10.6562 12.5748L16.5061 18.4229L21.6522 15.4539C22.5541 14.9657 23.1673 14.0149 23.1673 12.9188C23.1673 11.8288 22.5631 10.8827 21.6691 10.3939Z" fill="#F6B60B"/>
<path d="M0.250292 2.17115C0.186303 2.40709 0.152344 2.65514 0.152344 2.91114V22.8792C0.152344 23.1352 0.186303 23.3831 0.251358 23.6182L11.2633 12.6071L0.250292 2.17115Z" fill="#5778C5"/>
<path d="M10.976 12.8916L16.4859 7.38253L4.51601 0.442585C4.081 0.181571 3.573 0.0315266 3.02999 0.0315266C1.69995 0.0315266 0.578011 0.936608 0.250982 2.16456C0.250982 2.16561 0.25 2.16665 0.25 2.1677L10.976 12.8916Z" fill="#3BAD49"/>
<path d="M33.2487 7.73775C32.7528 7.45375 32.3627 7.06233 32.0787 6.56329C31.7942 6.06446 31.6523 5.5136 31.6523 4.91007C31.6523 4.30717 31.7942 3.7561 32.0787 3.25747C32.3627 2.75865 32.7528 2.36702 33.2487 2.08281C33.7446 1.7986 34.294 1.6565 34.8974 1.6565C35.8313 1.6565 36.5995 1.99567 37.2028 2.67443L36.533 3.32685C36.3184 3.07169 36.0791 2.88048 35.8152 2.75279C35.5512 2.62511 35.2482 2.56116 34.9061 2.56116C34.4827 2.56116 34.097 2.65834 33.749 2.85268C33.4011 3.04724 33.1254 3.32247 32.9225 3.67919C32.7194 4.03592 32.618 4.44635 32.618 4.91007C32.618 5.37421 32.7194 5.78464 32.9225 6.14137C33.1254 6.49788 33.4011 6.77373 33.749 6.96766C34.097 7.16222 34.4827 7.2594 34.9061 7.2594C35.6137 7.2594 36.2081 6.96641 36.6895 6.38065L37.3769 7.04185C37.0753 7.39565 36.7125 7.67129 36.2894 7.86836C35.866 8.06522 35.402 8.16406 34.8974 8.16406C34.294 8.16406 33.7446 8.02196 33.2487 7.73775Z" fill="#262626"/>
<path d="M38.4453 1.7952H39.4024V4.8141H39.4545L41.9342 1.7952H43.1348V1.84745L40.5073 4.96184L43.2739 7.97217V8.02441H42.0211L39.4545 5.17082H39.4024V8.02441H38.4453V1.7952Z" fill="#262626"/>
<path d="M47.729 5.53632L47.0331 3.62648L46.7982 2.91323H46.7459L46.511 3.62648L45.8151 5.53632H47.729ZM46.2239 1.7952H47.3114L49.6691 8.02441H48.6165L48.0422 6.42364H45.5019L44.9276 8.02441H43.875L46.2239 1.7952Z" fill="#262626"/>
<path d="M53.2726 5.24919C52.8839 5.59128 52.4053 5.76244 51.8371 5.76244C51.4599 5.76244 51.1193 5.68574 50.8148 5.53173C50.5103 5.37834 50.271 5.1564 50.097 4.86634C49.9229 4.57628 49.8359 4.23418 49.8359 3.83984V1.7952H50.8016V3.67454C50.8016 4.05154 50.912 4.34306 51.1324 4.54869C51.3527 4.75454 51.6484 4.85777 52.0198 4.85777C52.5244 4.85777 52.942 4.6605 53.2726 4.26595V1.7952H54.2209V8.02441H53.2726V5.24919Z" fill="#262626"/>
<path d="M58.9165 5.53632L58.2206 3.62648L57.9857 2.91323H57.9334L57.6985 3.62648L57.0027 5.53632H58.9165ZM57.4114 1.7952H58.4989L60.8566 8.02441H59.804L59.2297 6.42364H56.6894L56.1151 8.02441H55.0625L57.4114 1.7952Z" fill="#262626"/>
<path d="M62.4753 2.70008H60.7266V1.7952H65.1724V2.70008H63.4324V8.02441H62.4753V2.70008Z" fill="#262626"/>
<path d="M68.513 7.12832C68.7393 7.12832 68.9393 7.07607 69.1134 6.97179C69.2874 6.8673 69.4208 6.72959 69.5136 6.55843C69.6063 6.38749 69.6527 6.2061 69.6527 6.01467C69.6527 5.82346 69.6063 5.64228 69.5136 5.47091C69.4208 5.29997 69.2874 5.16079 69.1134 5.05338C68.9393 4.94596 68.7393 4.89246 68.513 4.89246H67.1212V7.12832H68.513ZM66.1641 1.7952H67.1212V4.01371H68.4434C68.8321 4.01371 69.1917 4.09333 69.5223 4.25299C69.8529 4.41265 70.1167 4.64441 70.3139 4.94889C70.5112 5.25337 70.6096 5.60863 70.6096 6.01467C70.6096 6.42072 70.5112 6.77598 70.3139 7.08046C70.1167 7.38494 69.8529 7.61858 69.5223 7.78075C69.1917 7.94312 68.8321 8.02441 68.4434 8.02441H66.1641V1.7952Z" fill="#262626"/>
<path d="M73.6914 1.7952H74.6395V5.24041L74.5875 6.44099H74.6395L77.4323 1.7952H78.5198V8.02441H77.5715V4.49206L77.6237 3.29169H77.5715L74.7352 8.02441H73.6914V1.7952Z" fill="#262626"/>
<path d="M80.3946 7.76387C80.0032 7.49701 79.7349 7.10267 79.5898 6.58064L80.4684 6.23269C80.5438 6.55744 80.6903 6.81261 80.9079 6.99839C81.1254 7.18396 81.3822 7.27674 81.6779 7.27674C81.9968 7.27674 82.2696 7.17664 82.4957 6.97644C82.722 6.77645 82.8351 6.5286 82.8351 6.23269C82.8351 6.04127 82.7797 5.86593 82.6698 5.70628C82.5594 5.54683 82.4087 5.42081 82.2173 5.32803C82.0259 5.23524 81.8171 5.18885 81.591 5.18885H81.0776V4.35335H81.5388C81.852 4.35335 82.1128 4.26788 82.3218 4.09673C82.5306 3.92578 82.6349 3.69528 82.6349 3.40522C82.6349 3.15006 82.5377 2.93836 82.3433 2.76993C82.149 2.60191 81.9068 2.51769 81.6171 2.51769C81.3561 2.51769 81.1354 2.59606 80.9557 2.75279C80.7758 2.90911 80.6512 3.09489 80.5817 3.3093L79.7376 2.96135C79.8594 2.61946 80.0814 2.31645 80.4034 2.0523C80.7252 1.78836 81.1325 1.6565 81.6257 1.6565C82.0025 1.6565 82.3377 1.73047 82.6305 1.87843C82.9235 2.02618 83.1525 2.2293 83.3178 2.48739C83.4831 2.74548 83.5659 3.037 83.5659 3.36155C83.5659 3.96486 83.3017 4.41145 82.774 4.70151V4.75376C83.07 4.88708 83.3105 5.08143 83.4963 5.33659C83.6816 5.59176 83.7746 5.90209 83.7746 6.26759C83.7746 6.62139 83.6831 6.94322 83.5004 7.23328C83.3178 7.52313 83.0668 7.7507 82.7481 7.91601C82.4288 8.08131 82.0721 8.16406 81.6779 8.16406C81.2138 8.16406 80.786 8.03053 80.3946 7.76387Z" fill="#262626"/>
</svg>
