<svg width="98" height="28" viewBox="0 0 98 28" fill="none" xmlns="http://www.w3.org/2000/svg">
<path d="M2.41376 25.6186C4.34323 27.5193 7.44866 27.5193 13.6595 27.5193H14.7574C20.9683 27.5193 24.0737 27.5193 26.0031 25.6186C27.9325 23.718 27.9325 20.6589 27.9325 14.5406V13.4591C27.9325 7.34085 27.9325 4.28177 26.0031 2.38108C24.0737 0.480469 20.9683 0.480469 14.7574 0.480469H13.6595C7.44866 0.480469 4.34323 0.480469 2.41376 2.38108C0.484376 4.28177 0.484375 7.34085 0.484375 13.4591V14.5406C0.484375 20.6589 0.484376 23.718 2.41376 25.6186Z" fill="#0077FF"/>
<path fill-rule="evenodd" clip-rule="evenodd" d="M21.6753 18.4494L19.8207 17.993C19.5973 17.9299 19.4396 17.732 19.4317 17.5019L19.2003 10.7777C19.1333 9.88775 18.4626 9.17985 17.7618 8.97142C17.7225 8.9597 17.6805 8.97548 17.6571 9.00882C17.6334 9.04276 17.6426 9.08966 17.6756 9.11479C17.8487 9.24683 18.325 9.67748 18.325 10.4203L18.3237 19.212C18.3237 20.0609 17.5093 20.6835 16.6694 20.4769L14.7861 20.0134C14.5773 19.9415 14.4322 19.7499 14.4246 19.5289L14.1932 12.8042C14.1263 11.9143 13.4556 11.2064 12.7548 10.9979C12.7154 10.9863 12.6734 11.002 12.6501 11.0353C12.6265 11.0693 12.6356 11.1162 12.6686 11.1414C12.8417 11.2733 13.318 11.704 13.318 12.4468L13.3166 19.7752L13.3177 19.7753V21.2394C13.3177 22.0883 12.5033 22.711 11.6633 22.5042L6.34397 21.1953C5.60443 21.0133 5.08594 20.3616 5.08594 19.6142V10.8087C5.08594 9.95985 5.90026 9.33725 6.7402 9.54391L10.092 10.3687V8.78138C10.092 7.9325 10.9063 7.30981 11.7463 7.51656L15.0978 8.34131V6.75395C15.0978 5.90506 15.9121 5.28238 16.7522 5.48912L22.0715 6.79809C22.8111 6.98008 23.3296 7.63173 23.3296 8.37916V17.1846C23.3296 18.0335 22.5152 18.6561 21.6753 18.4494Z" fill="white"/>
<path d="M44.0055 25.387H41.9079L38.5794 20.8104H36.8285V25.387H35.043V13.3477H39.3422C40.1743 13.3477 40.9198 13.507 41.5786 13.8258C42.2373 14.1446 42.7458 14.5886 43.1041 15.1578C43.4739 15.7157 43.6588 16.3589 43.6588 17.0876C43.6588 17.9984 43.3757 18.7782 42.8094 19.4271C42.2431 20.0647 41.4861 20.4859 40.5384 20.6909L44.0055 25.387ZM36.8285 14.97V19.2051H39.3422C40.0818 19.2051 40.6771 19.0116 41.1278 18.6245C41.5901 18.226 41.8213 17.7137 41.8213 17.0876C41.8213 16.4614 41.5901 15.9548 41.1278 15.5677C40.6771 15.1693 40.0818 14.97 39.3422 14.97H36.8285Z" fill="#262626"/>
<path d="M48.7442 25.5505C48.1086 25.5505 47.5365 25.3968 47.028 25.0894C46.5195 24.7706 46.1207 24.338 45.8318 23.7915C45.5429 23.2337 45.3984 22.6075 45.3984 21.913V16.5508H47.0973V21.7765C47.0973 22.4481 47.288 22.9946 47.6694 23.4158C48.0508 23.8371 48.542 24.0477 49.1429 24.0477C49.767 24.0477 50.2871 23.8314 50.7032 23.3988C51.1192 22.9661 51.3273 22.4253 51.3273 21.7765V16.5508H53.0262V25.3797H51.8126L51.4139 24.0477C51.125 24.5259 50.7436 24.8958 50.2697 25.1577C49.8075 25.4195 49.2989 25.5505 48.7442 25.5505Z" fill="#262626"/>
<path d="M59.3614 25.5489C58.2403 25.5489 57.2637 25.2643 56.4316 24.695C55.611 24.1144 55.0505 23.3289 54.75 22.3384L56.4662 22.0651C56.8014 22.7027 57.2002 23.1752 57.6625 23.4825C58.1247 23.7785 58.691 23.9266 59.3614 23.9266C60.0432 23.9266 60.5979 23.7785 61.0256 23.4825C61.4532 23.1752 61.667 22.7596 61.667 22.2359C61.667 21.8488 61.5456 21.5244 61.3029 21.2625C61.0718 21.0007 60.7771 20.79 60.4188 20.6307C60.0606 20.4713 59.5925 20.2948 59.0146 20.1013C58.2403 19.8508 57.6046 19.6003 57.1077 19.3499C56.6107 19.0994 56.1889 18.7465 55.8422 18.2911C55.507 17.8243 55.3394 17.2323 55.3394 16.5151C55.3394 15.8434 55.507 15.257 55.8422 14.7561C56.1889 14.2438 56.6627 13.851 57.2637 13.5778C57.8647 13.3045 58.535 13.168 59.2747 13.168C60.3032 13.168 61.1874 13.4355 61.927 13.9706C62.6667 14.4943 63.1925 15.2172 63.5046 16.1394L61.823 16.4126C61.5919 15.8889 61.2625 15.4904 60.8348 15.2172C60.4072 14.9326 59.9045 14.7903 59.3267 14.7903C58.7026 14.7903 58.1883 14.9382 57.7838 15.2343C57.3793 15.5189 57.177 15.9116 57.177 16.4126C57.177 16.7883 57.2926 17.1071 57.5238 17.3689C57.7665 17.6308 58.0611 17.8414 58.4079 18.0008C58.7662 18.1602 59.24 18.3423 59.8294 18.5473C60.5806 18.7977 61.2047 19.0539 61.7016 19.3157C62.2101 19.5662 62.6377 19.9248 62.9845 20.3916C63.3312 20.8584 63.5046 21.4447 63.5046 22.1505C63.5046 22.8336 63.3197 23.4313 62.9498 23.9436C62.5916 24.4559 62.0946 24.8544 61.4589 25.139C60.8348 25.4123 60.1356 25.5489 59.3614 25.5489Z" fill="#262626"/>
<path d="M70.6798 23.9101L70.5241 25.3787H68.9464C68.0099 25.3787 67.2996 25.151 66.8141 24.6956C66.3286 24.2402 66.0855 23.5856 66.0855 22.7318V18.0356H64.543V16.5498H66.0855L66.5541 13.9883H67.7844V16.5498H70.5241V18.0356H67.7844V22.7318C67.7844 23.5173 68.1717 23.9101 68.9464 23.9101H70.6798Z" fill="#262626"/>
<path d="M76.3425 25.5571C75.429 25.5571 74.6145 25.3636 73.8981 24.9765C73.1817 24.5894 72.621 24.0486 72.2161 23.3542C71.8119 22.6597 71.6094 21.8685 71.6094 20.9804C71.6094 20.0925 71.8119 19.3012 72.2161 18.6067C72.621 17.9122 73.1817 17.3715 73.8981 16.9844C74.6145 16.586 75.429 16.3867 76.3425 16.3867C77.2553 16.3867 78.0698 16.586 78.7862 16.9844C79.5033 17.3715 80.0632 17.9122 80.4682 18.6067C80.8724 19.3012 81.0749 20.0925 81.0749 20.9804C81.0749 21.8685 80.8724 22.6597 80.4682 23.3542C80.0632 24.0486 79.5033 24.5894 78.7862 24.9765C78.0698 25.3636 77.2553 25.5571 76.3425 25.5571ZM76.3425 24.0202C77.2207 24.0202 77.931 23.7413 78.4748 23.1834C79.0293 22.6256 79.307 21.8912 79.307 20.9804C79.307 20.0697 79.0293 19.3354 78.4748 18.7775C77.931 18.2083 77.2207 17.9237 76.3425 17.9237C75.4635 17.9237 74.7533 18.2083 74.2103 18.7775C73.6665 19.3354 73.3949 20.0697 73.3949 20.9804C73.3949 21.8798 73.6665 22.6142 74.2103 23.1834C74.7533 23.7413 75.4635 24.0202 76.3425 24.0202Z" fill="#262626"/>
<path d="M82.8984 25.3797V16.5508H84.1295L84.4938 17.8145C84.7592 17.3705 85.089 17.0517 85.4817 16.8582C85.8744 16.6532 86.343 16.5508 86.8861 16.5508H87.3018L87.4406 18.1561H86.4696C85.846 18.1561 85.3774 18.3325 85.066 18.6854C84.7538 19.0384 84.5973 19.5165 84.5973 20.1199V25.3797H82.8984Z" fill="#262626"/>
<path d="M97.1527 20.9122C97.1527 21.1398 97.1474 21.3163 97.1359 21.4415H89.7328C89.8256 22.2271 90.1378 22.8532 90.6693 23.3201C91.2008 23.7868 91.8773 24.0202 92.6972 24.0202C93.2641 24.0202 93.7664 23.912 94.2059 23.6958C94.6562 23.468 94.9975 23.172 95.2283 22.8077L96.8237 23.0639C96.477 23.8608 95.9163 24.4756 95.1417 24.9082C94.3793 25.3408 93.5294 25.5571 92.5937 25.5571C91.704 25.5571 90.9063 25.3636 90.2014 24.9765C89.4965 24.5781 88.9474 24.0315 88.5547 23.3371C88.1612 22.6427 87.9648 21.8571 87.9648 20.9804C87.9648 20.0925 88.1612 19.3012 88.5547 18.6067C88.9474 17.9122 89.4904 17.3715 90.1838 16.9844C90.8771 16.586 91.6687 16.3867 92.5592 16.3867C93.4374 16.3867 94.2228 16.586 94.9162 16.9844C95.6218 17.3715 96.1702 17.9122 96.5637 18.6067C96.9564 19.2898 97.1527 20.0583 97.1527 20.9122ZM92.5592 17.8724C91.8773 17.8724 91.2875 18.0716 90.7905 18.4701C90.305 18.8686 89.9813 19.4037 89.8195 20.0754H95.2981C95.1478 19.4151 94.8241 18.8856 94.3271 18.4872C93.8416 18.0774 93.2525 17.8724 92.5592 17.8724Z" fill="#262626"/>
<path d="M37.5713 8.72526C36.9638 8.72526 36.4177 8.58426 35.933 8.30227C35.4482 8.01415 35.0678 7.61568 34.7917 7.10687C34.5217 6.59806 34.3867 6.02488 34.3867 5.38733C34.3867 4.74978 34.5217 4.17967 34.7917 3.67698C35.0678 3.16817 35.4452 2.77277 35.9238 2.49078C36.4085 2.20266 36.9546 2.05859 37.5621 2.05859C38.2187 2.05859 38.8016 2.22411 39.3109 2.55515C39.8263 2.88005 40.1944 3.32143 40.4153 3.87928L39.4765 4.02641C39.3047 3.68311 39.0501 3.41645 38.7126 3.22641C38.3813 3.03024 38.007 2.93216 37.5897 2.93216C37.1602 2.93216 36.7767 3.03637 36.4392 3.2448C36.1079 3.45323 35.8471 3.74442 35.6569 4.11836C35.4728 4.48618 35.3808 4.90917 35.3808 5.38733C35.3808 5.87162 35.4728 6.30074 35.6569 6.67469C35.8471 7.0425 36.1109 7.33062 36.4484 7.53905C36.7859 7.74748 37.1725 7.8517 37.6081 7.8517C38.0376 7.8517 38.4181 7.75361 38.7494 7.55744C39.0869 7.35514 39.3446 7.07315 39.5225 6.71147L40.4614 6.85859C40.2282 7.42871 39.8508 7.88235 39.3293 8.21951C38.8077 8.55668 38.2217 8.72526 37.5713 8.72526Z" fill="#262626"/>
<path d="M45.2693 8.62512H44.082L42.324 6.6573H42.0387V8.62512H41.1367V3.87109H42.0387V5.79293H42.3148L43.9992 3.87109H45.0852L43.0419 6.16994L45.2693 8.62512Z" fill="#262626"/>
<path d="M47.4155 3.78516C48.0045 3.78516 48.4678 3.97826 48.8053 4.36447C49.1489 4.74454 49.3207 5.27788 49.3207 5.96447V8.63113H48.6764L48.4647 7.88631C48.3113 8.12539 48.1058 8.32462 47.848 8.48401C47.5903 8.64339 47.2805 8.72309 46.9184 8.72309C46.5994 8.72309 46.314 8.65872 46.0625 8.52998C45.8109 8.40125 45.6145 8.22347 45.4734 7.99665C45.3323 7.7637 45.2617 7.50316 45.2617 7.21504C45.2617 6.76753 45.4397 6.40891 45.7955 6.13918C46.1514 5.86945 46.6669 5.73458 47.3418 5.73458H48.4187C48.3941 5.36063 48.2898 5.07251 48.1058 4.87021C47.9217 4.66178 47.6762 4.55757 47.3694 4.55757C47.1363 4.55757 46.9307 4.61274 46.7528 4.72309C46.5748 4.83343 46.4398 4.97749 46.3478 5.15527L45.5102 5.01734C45.6329 4.63726 45.8692 4.33688 46.2189 4.11619C46.5687 3.8955 46.9675 3.78516 47.4155 3.78516ZM47.1117 7.95987C47.4983 7.95987 47.8112 7.8342 48.0505 7.58286C48.296 7.32539 48.4187 6.9729 48.4187 6.52539V6.47021H47.3694C46.5718 6.47021 46.1729 6.70929 46.1729 7.18745C46.1729 7.4204 46.2588 7.60738 46.4306 7.74837C46.6024 7.88937 46.8295 7.95987 47.1117 7.95987Z" fill="#262626"/>
<path d="M52.8524 6.89638C52.7051 6.96381 52.5302 7.01592 52.3278 7.0527C52.1253 7.08949 51.9258 7.10787 51.7295 7.10787C51.1588 7.10787 50.7201 6.94849 50.4133 6.62971C50.1065 6.31094 49.9531 5.86037 49.9531 5.27799V3.87109H50.8551V5.27799C50.8551 5.95845 51.1834 6.29868 51.8399 6.29868C52.2388 6.29868 52.5763 6.22818 52.8524 6.08719V3.87109H53.7544V8.62512H52.8524V6.89638Z" fill="#262626"/>
<path d="M56.6889 3.78516C57.2779 3.78516 57.7412 3.97826 58.0787 4.36447C58.4223 4.74454 58.5941 5.27788 58.5941 5.96447V8.63113H57.9498L57.7381 7.88631C57.5847 8.12539 57.3792 8.32462 57.1215 8.48401C56.8638 8.64339 56.5539 8.72309 56.1919 8.72309C55.8728 8.72309 55.5875 8.65872 55.3359 8.52998C55.0843 8.40125 54.888 8.22347 54.7468 7.99665C54.6057 7.7637 54.5352 7.50316 54.5352 7.21504C54.5352 6.76753 54.7131 6.40891 55.069 6.13918C55.4249 5.86945 55.9403 5.73458 56.6153 5.73458H57.6921C57.6676 5.36063 57.5633 5.07251 57.3792 4.87021C57.1951 4.66178 56.9497 4.55757 56.6429 4.55757C56.4097 4.55757 56.2041 4.61274 56.0262 4.72309C55.8483 4.83343 55.7133 4.97749 55.6212 5.15527L54.7837 5.01734C54.9064 4.63726 55.1426 4.33688 55.4924 4.11619C55.8421 3.8955 56.241 3.78516 56.6889 3.78516ZM56.3852 7.95987C56.7717 7.95987 57.0847 7.8342 57.324 7.58286C57.5694 7.32539 57.6921 6.9729 57.6921 6.52539V6.47021H56.6429C55.8452 6.47021 55.4463 6.70929 55.4463 7.18745C55.4463 7.4204 55.5323 7.60738 55.7041 7.74837C55.8759 7.88937 56.1029 7.95987 56.3852 7.95987Z" fill="#262626"/>
<path d="M60.9322 8.62736H59.5977V3.87334H60.472V7.61587H60.6101L62.5337 3.87334H63.8683V8.62736H62.9939V4.89403H62.8559L60.9322 8.62736ZM61.7422 3.25725C61.3434 3.25725 61.0089 3.15303 60.739 2.9446C60.4751 2.73004 60.3186 2.41127 60.2696 1.98828H61.0059C61.0366 2.18445 61.1132 2.33464 61.236 2.43886C61.3648 2.53694 61.5336 2.58598 61.7422 2.58598C61.9508 2.58598 62.1165 2.53694 62.2392 2.43886C62.3681 2.33464 62.4448 2.18445 62.4693 1.98828H63.2148C63.1596 2.41127 62.997 2.73004 62.727 2.9446C62.4632 3.15303 62.1349 3.25725 61.7422 3.25725Z" fill="#262626"/>
<path d="M67.0025 8.62512H66.1005V4.69868H64.4531V3.87109H68.65V4.69868H67.0025V8.62512Z" fill="#262626"/>
<path d="M73.675 6.22194C73.675 6.34454 73.6719 6.43956 73.6658 6.50699H69.7357C69.7848 6.92998 69.9504 7.26715 70.2327 7.51849C70.5149 7.76983 70.8739 7.8955 71.3096 7.8955C71.6102 7.8955 71.8771 7.83726 72.1103 7.72079C72.3496 7.59818 72.5306 7.4388 72.6533 7.24263L73.5001 7.38056C73.316 7.80968 73.0184 8.14071 72.6073 8.37366C72.2023 8.60661 71.7514 8.72309 71.2543 8.72309C70.7819 8.72309 70.3585 8.61887 69.9842 8.41044C69.6099 8.19588 69.3184 7.90163 69.1098 7.52768C68.9012 7.15374 68.7969 6.73075 68.7969 6.25872C68.7969 5.78056 68.9012 5.35451 69.1098 4.98056C69.3184 4.60661 69.6068 4.31542 69.975 4.10699C70.3431 3.89244 70.7635 3.78516 71.2359 3.78516C71.7023 3.78516 72.1195 3.89244 72.4877 4.10699C72.862 4.31542 73.1534 4.60661 73.3621 4.98056C73.5707 5.34837 73.675 5.76217 73.675 6.22194ZM71.2359 4.58516C70.8739 4.58516 70.561 4.69244 70.2971 4.907C70.0394 5.12155 69.8676 5.40968 69.7817 5.77136H72.6902C72.6104 5.41581 72.4386 5.13075 72.1747 4.91619C71.917 4.6955 71.6041 4.58516 71.2359 4.58516Z" fill="#262626"/>
<path d="M77.7213 8.62512H76.3867V3.87109H77.2611V7.61362H77.3992L79.3228 3.87109H80.6574V8.62512H79.783V4.89178H79.6449L77.7213 8.62512Z" fill="#262626"/>
<path d="M84.3119 6.20355C84.5635 6.27711 84.7721 6.41198 84.9378 6.60814C85.1034 6.79818 85.1863 7.0342 85.1863 7.31619C85.1863 7.57979 85.1096 7.81887 84.9562 8.03343C84.8028 8.24186 84.5819 8.41044 84.2935 8.53918C84.0112 8.66178 83.6829 8.72309 83.3086 8.72309C82.8055 8.72309 82.3729 8.60661 82.0109 8.37366C81.6489 8.13458 81.4096 7.81581 81.293 7.41734L82.1305 7.27941C82.333 7.72079 82.7227 7.94148 83.2994 7.94148C83.6185 7.94148 83.8609 7.88324 84.0266 7.76677C84.1984 7.64416 84.2843 7.47558 84.2843 7.26102C84.2843 7.07098 84.2045 6.91772 84.045 6.80125C83.8916 6.68477 83.6431 6.62653 83.2994 6.62653H82.6736V5.83573H83.2994C83.594 5.83573 83.8179 5.78056 83.9713 5.67021C84.1309 5.55987 84.2106 5.41274 84.2106 5.22883C84.2106 5.03267 84.1247 4.87328 83.9529 4.75067C83.7872 4.62807 83.5817 4.56677 83.3363 4.56677C83.0969 4.56677 82.8822 4.625 82.692 4.74148C82.5018 4.85795 82.3576 5.01734 82.2594 5.21964L81.4218 5.07251C81.563 4.66178 81.8053 4.34608 82.1489 4.12539C82.4987 3.89857 82.9037 3.78516 83.3639 3.78516C83.6952 3.78516 83.9928 3.84339 84.2567 3.95987C84.5266 4.07634 84.7353 4.2388 84.8825 4.44722C85.0359 4.65565 85.1126 4.8886 85.1126 5.14608C85.1126 5.40968 85.039 5.63343 84.8917 5.81734C84.7445 6.00125 84.5512 6.12998 84.3119 6.20355Z" fill="#262626"/>
</svg>
