<svg width="24" height="24" viewBox="0 0 24 24" fill="none" xmlns="http://www.w3.org/2000/svg">
<path fill-rule="evenodd" clip-rule="evenodd" d="M2.67489 10.8879C7.85747 8.62993 11.3133 7.14134 13.0425 6.42212C17.9796 4.36862 19.0055 4.0119 19.6741 4.00013C19.8212 3.99753 20.15 4.03398 20.363 4.20682C20.5429 4.35275 20.5923 4.5499 20.616 4.68826C20.6397 4.82663 20.6692 5.14183 20.6457 5.38811C20.3782 8.1992 19.2206 15.021 18.6316 18.1694C18.3824 19.5017 17.8917 19.9484 17.4167 19.9921C16.3843 20.0871 15.6003 19.3098 14.6004 18.6543C13.0357 17.6287 12.1518 16.9902 10.633 15.9893C8.87777 14.8327 10.0156 14.1969 11.0159 13.158C11.2777 12.8861 15.8264 8.74867 15.9145 8.37335C15.9255 8.32641 15.9357 8.15143 15.8317 8.05904C15.7278 7.96664 15.5744 7.99824 15.4637 8.02337C15.3067 8.05898 12.8071 9.71112 7.96489 12.9798C7.25539 13.467 6.61274 13.7044 6.03696 13.6919C5.4022 13.6782 4.18118 13.333 3.27347 13.038C2.16014 12.6761 1.27528 12.4847 1.35233 11.8701C1.39247 11.55 1.83332 11.2226 2.67489 10.8879Z" fill="white"/>
</svg>
