<svg viewBox="0 0 103 44" fill="none"
	xmlns="http://www.w3.org/2000/svg">
	<path d="M14.3225 12.6098C14.1886 11.5366 13.787 10.5976 13.2516 9.79268C12.7162 8.9878 12.0469 8.31707 10.9761 7.78048C10.7084 7.64634 10.4407 7.51221 10.173 7.37806C10.173 7.37806 9.36983 7.2439 9.50369 6.43902L9.63755 3.35366H9.77141C9.90526 3.35366 10.0391 3.21952 10.0391 3.08537V1.34146C10.0391 1.20732 9.90526 1.07318 9.77141 1.07318V0.268299C9.77141 0.134153 9.63754 0 9.50369 0H5.08649C4.95263 0 4.81878 0.134153 4.81878 0.268299V1.07318H4.68492C4.55106 1.07318 4.41721 1.20732 4.41721 1.34146V3.08537C4.41721 3.21952 4.55106 3.35366 4.68492 3.35366H4.95263L5.08649 6.57318C5.08649 7.10976 4.55107 7.37806 4.41721 7.37806C4.1495 7.51221 3.74794 7.64634 3.48023 7.78048C2.54324 8.31707 1.74011 8.85366 1.33855 9.79268C0.803129 10.5976 0.401565 11.6707 0.267711 12.7439C0.133856 13.9512 0 15.1585 0 16.5V34.6098C0 35.9512 0.133856 37.1586 0.267711 38.2317C0.401565 39.3049 0.803129 40.3781 1.33855 41.1829C1.87397 41.9878 2.54324 42.6586 3.61408 43.061C4.55106 43.4634 5.75576 43.7317 7.22816 43.7317C8.70057 43.7317 9.90525 43.4634 10.8422 43.061C11.7792 42.6586 12.5824 41.9878 13.1178 41.1829C13.6532 40.3781 14.0548 39.439 14.1886 38.3659C14.3225 37.2927 14.4563 36.2195 14.4563 34.8781V29.3781L10.173 30.3171V34.8781C10.173 35.683 10.173 36.3537 10.0391 36.8903C9.90526 37.4269 9.77141 37.9634 9.63755 38.3659C9.36984 38.7683 9.10213 39.0366 8.70056 39.3049C8.299 39.5732 7.76358 39.5732 7.22816 39.5732C6.55889 39.5732 6.02347 39.439 5.6219 39.1708C5.22034 38.9025 4.95263 38.5 4.68492 38.0976C4.55106 37.6951 4.41721 37.1586 4.28336 36.4878C4.28336 35.8171 4.1495 35.1464 4.1495 34.3415V16.2317C4.1495 15.4268 4.1495 14.7561 4.28336 14.0854C4.28336 13.4146 4.41721 12.878 4.68492 12.4756C4.95263 12.0732 5.22034 11.6707 5.6219 11.5366C6.02347 11.2683 6.55889 11.2683 7.22816 11.2683C7.89744 11.2683 8.43285 11.4025 8.83442 11.6707C9.23598 11.939 9.5037 12.2073 9.77141 12.6098C10.0391 13.0122 10.173 13.5488 10.173 14.0854C10.173 14.622 10.3068 15.2927 10.3068 16.0976V26.561L14.5902 25.622V16.0976C14.5902 14.8903 14.4563 13.6829 14.3225 12.6098Z" fill="url(#paint0_linear_716_2161)"/>
	<path d="M65.5887 17.305C65.0533 16.5001 64.384 15.8293 63.4471 15.2928C62.5101 14.7562 61.3054 14.4879 59.833 14.4879C58.3606 14.4879 57.1559 14.7562 56.2189 15.1586C55.2819 15.561 54.6126 16.2318 54.0772 17.0367C53.5418 17.8415 53.2741 18.7806 53.0064 19.9879C52.8725 21.1952 52.7387 22.4025 52.7387 23.744V34.3415C52.7387 35.683 52.8725 36.8903 53.0064 37.9635C53.1402 39.0367 53.5418 40.1098 54.0772 40.9147C54.6126 41.7196 55.2819 42.3903 56.2189 42.9269C57.1559 43.4635 58.3606 43.5976 59.833 43.5976C61.3054 43.5976 62.5101 43.3293 63.4471 42.7928C64.384 42.2562 65.0533 41.5854 65.5887 40.7806C66.1241 39.9757 66.3919 38.9025 66.5257 37.8293C66.6596 36.7562 66.7934 35.5489 66.7934 34.3415V33.5367H62.6439V34.4757C62.6439 35.1464 62.6439 35.8171 62.5101 36.3537C62.5101 36.8903 62.3762 37.4269 62.1085 37.9635C61.9746 38.3659 61.7069 38.7684 61.3054 39.0367C60.9038 39.305 60.3684 39.4391 59.6991 39.4391C59.0298 39.4391 58.4944 39.305 58.0929 39.0367C57.6913 38.7684 57.4236 38.5001 57.2897 37.9635C57.1559 37.561 57.022 37.0245 56.8882 36.3537C56.8882 35.683 56.8882 35.0123 56.8882 34.2074V31.2562L66.6596 29.244V23.4757C66.6596 22.2684 66.5257 21.1952 66.3919 19.9879C66.5257 19.183 66.1241 18.244 65.5887 17.305ZM62.6439 26.4269L57.022 27.6342V23.744C57.022 22.9391 57.022 22.2684 57.1559 21.5976C57.1559 20.9269 57.2897 20.3903 57.5574 19.9879C57.6913 19.5854 58.0929 19.3172 58.3606 19.0489C58.7621 18.7806 59.2976 18.7806 59.9668 18.7806C60.6361 18.7806 61.1715 18.9147 61.5731 19.183C61.9746 19.4513 62.2424 19.8537 62.3762 20.2562C62.5101 20.6586 62.6439 21.1952 62.6439 21.8659C62.6439 22.4025 62.6439 23.0733 62.6439 23.744V26.4269Z" fill="url(#paint1_linear_716_2161)"/>
	<path d="M78.8404 14.622C77.7695 14.622 76.9664 14.8903 76.2971 15.4269C75.7617 15.9635 75.2263 16.6342 74.9586 17.5732V15.0244H70.8091V43.3293H74.9586V24.2805C74.9586 23.4756 75.0924 22.6708 75.0924 22C75.2263 21.3293 75.3601 20.7927 75.6278 20.2561C75.8955 19.7195 76.1633 19.4512 76.6987 19.183C77.1002 18.9147 77.6357 18.7805 78.3049 18.7805C78.5726 18.7805 78.8404 18.7805 78.9742 18.9147C79.1081 19.0488 79.3758 19.0488 79.5096 19.0488C79.6435 19.183 79.7773 19.183 79.9112 19.3171C80.0451 19.4513 80.045 19.4513 80.1789 19.4513V14.8903C79.9112 14.7561 79.6435 14.622 79.3758 14.622C79.2419 14.622 79.1081 14.622 78.8404 14.622Z" fill="url(#paint2_linear_716_2161)"/>
	<path d="M93.8322 31.2561C93.4307 30.5854 92.8952 30.0488 92.3598 29.3781C91.8244 28.8415 91.289 28.3049 90.6197 27.7683C90.0843 27.2318 89.415 26.8293 88.8796 26.4269C88.3442 26.0244 87.8088 25.4878 87.4072 25.0854C87.0056 24.5488 86.6041 24.1464 86.3363 23.6098C86.0686 23.0732 85.9348 22.5366 85.9348 21.8659C85.9348 20.9269 86.0686 20.2561 86.4702 19.7196C86.8718 19.183 87.541 18.9147 88.3442 18.9147C88.8796 18.9147 89.2812 19.0488 89.5489 19.183C89.8166 19.3171 90.0843 19.5854 90.352 19.9878C90.4859 20.3903 90.6197 20.7927 90.7536 21.3293C90.8874 21.8659 90.8874 22.5366 90.8874 23.3415H95.0369C95.0369 21.5976 94.9031 20.2561 94.6354 19.0488C94.3677 17.9757 93.9661 17.0366 93.4306 16.3659C92.8952 15.6952 92.226 15.2927 91.4228 15.0244C90.6197 14.7561 89.5489 14.622 88.3442 14.622C86.8718 14.622 85.8009 14.7561 84.8639 15.1586C83.927 15.561 83.2577 16.0976 82.8561 16.7683C82.3207 17.4391 82.053 18.2439 81.9192 19.0488C81.7853 19.9878 81.6514 20.9269 81.6514 22C81.6514 23.0732 81.7853 23.8781 82.053 24.683C82.3207 25.4878 82.7223 26.1586 83.1238 26.8293C83.5254 27.5 84.0608 28.0366 84.5962 28.5732C85.1317 29.1098 85.6671 29.6464 86.3363 30.0488C86.8718 30.5854 87.4072 30.9878 88.0765 31.3903C88.6119 31.7927 89.1473 32.3293 89.5489 32.8659C89.9504 33.4025 90.352 33.9391 90.6197 34.4757C90.8874 35.0122 91.0213 35.683 91.0213 36.4879C91.0213 37.561 90.8874 38.3659 90.4858 38.9025C90.0843 39.4391 89.415 39.7074 88.6119 39.7074C88.0765 39.7074 87.541 39.5732 87.2733 39.4391C86.8718 39.1708 86.6041 38.9025 86.4702 38.5C86.3363 38.0976 86.2025 37.561 86.0686 36.8903C86.0686 36.2196 85.9348 35.5488 85.9348 34.7439H81.7853C81.7853 36.2196 81.9191 37.561 82.053 38.6342C82.1869 39.8415 82.5884 40.7805 83.1238 41.5854C83.6593 42.3903 84.3285 42.9269 85.2655 43.3293C86.2025 43.7317 87.2733 44 88.7457 44C89.9504 44 91.1551 43.8659 91.9583 43.5976C92.8952 43.3293 93.5645 42.7927 94.0999 42.2561C94.6353 41.5854 95.0369 40.9147 95.3046 39.9756C95.5723 39.0366 95.7062 37.9634 95.7062 36.622C95.7062 35.5488 95.5723 34.6098 95.3046 33.8049C95.0369 33 94.2338 31.9269 93.8322 31.2561Z" fill="url(#paint3_linear_716_2161)"/>
	<path d="M48.3216 17.305C47.7862 16.5001 47.1169 15.8293 46.1799 15.2928C45.2429 14.7562 44.0382 14.4879 42.5658 14.4879C41.0934 14.4879 39.8887 14.7562 38.9518 15.1586C38.0148 15.561 37.3455 16.2318 36.8101 17.0367C36.2747 17.8415 36.007 18.7806 35.7392 19.9879C35.6054 21.1952 35.4715 22.4025 35.4715 23.744V34.3415C35.4715 35.683 35.6054 36.8903 35.7392 37.9635C35.8731 39.0367 36.2747 40.1098 36.8101 40.9147C37.3455 41.7196 38.0148 42.3903 38.9518 42.9269C39.8887 43.4635 41.0934 43.5976 42.5658 43.5976C44.0382 43.5976 45.2429 43.3293 46.1799 42.7928C47.1169 42.2562 47.7862 41.5854 48.3216 40.7806C48.857 39.9757 49.1247 38.9025 49.2586 37.8293C49.3924 36.7562 49.5263 35.5489 49.5263 34.3415V33.5367H45.3768V34.4757C45.3768 35.1464 45.3768 35.8171 45.2429 36.3537C45.2429 36.8903 45.1091 37.4269 44.8414 37.9635C44.7075 38.3659 44.4398 38.7684 44.0382 39.0367C43.6367 39.305 43.1013 39.4391 42.432 39.4391C41.7627 39.4391 41.2273 39.305 40.8257 39.0367C40.4242 38.7684 40.1564 38.5001 40.0226 37.9635C39.8887 37.561 39.7549 37.0245 39.621 36.3537C39.621 35.683 39.621 35.0123 39.621 34.2074V31.2562L49.3924 29.244V23.4757C49.3924 22.2684 49.2586 21.1952 49.1247 19.9879C49.1247 19.183 48.857 18.244 48.3216 17.305ZM45.3768 26.4269L39.7549 27.6342V23.744C39.7549 22.9391 39.7549 22.2684 39.8887 21.5976C39.8887 20.9269 40.0226 20.3903 40.2903 19.9879C40.4242 19.5854 40.8257 19.3172 41.0934 19.0489C41.495 18.7806 42.0304 18.7806 42.6997 18.7806C43.369 18.7806 43.9044 18.9147 44.3059 19.183C44.7075 19.4513 44.9752 19.8537 45.1091 20.2562C45.2429 20.6586 45.3768 21.1952 45.3768 21.8659C45.3768 22.4025 45.3768 23.0733 45.3768 23.744V26.4269Z" fill="url(#paint4_linear_716_2161)"/>
	<path d="M101.997 34.2074L102.533 7.10982H97.714L98.3833 34.2074H101.997Z" fill="url(#paint5_linear_716_2161)"/>
	<path d="M102.131 39.305C101.73 38.9025 101.06 38.6343 100.123 38.6343C99.1863 38.6343 98.6509 38.9025 98.2493 39.305C97.8478 39.7074 97.7139 40.3782 97.7139 41.3172C97.7139 42.1221 97.8478 42.7928 98.2493 43.1952C98.6509 43.5977 99.3202 43.866 100.123 43.866C101.06 43.866 101.73 43.5977 102.131 43.1952C102.533 42.7928 102.667 42.1221 102.667 41.3172C102.667 40.3782 102.533 39.7074 102.131 39.305Z" fill="url(#paint6_linear_716_2161)"/>
	<path d="M28.1094 43.3293V23.7439C28.1094 22.939 28.1094 22.2683 28.1094 21.5976C28.1094 20.9268 27.9756 20.3902 27.8417 19.9878C27.7079 19.5854 27.4402 19.1829 27.0386 18.9146C26.637 18.6463 26.1016 18.5122 25.4323 18.5122C24.7631 18.5122 24.3615 18.6463 23.9599 18.9146C23.5584 19.1829 23.2907 19.4512 23.1568 19.9878C23.023 20.5244 22.8891 20.9268 22.7552 21.5976C22.7552 22.2683 22.6214 22.939 22.6214 23.7439V43.1951H18.338V6.03659H22.6214V16.7683C22.8891 15.8293 23.4245 15.1585 23.9599 14.7561C24.6292 14.3537 25.4324 14.2195 26.3693 14.2195C27.7079 14.2195 28.6449 14.4878 29.448 15.0244C30.2511 15.561 30.7865 16.2317 31.1881 17.1707C31.5897 18.1097 31.8574 19.0488 31.9912 20.2561C32.1251 21.4634 32.1251 22.6707 32.1251 24.0122V43.1951H28.1094V43.3293Z" fill="url(#paint7_linear_716_2161)"/>
	<defs>
		<linearGradient id="paint0_linear_716_2161" x1="0" y1="0" x2="50.4167" y2="77.8415" gradientUnits="userSpaceOnUse">
			<stop stop-color="#FD5E13"/>
			<stop offset="1" stop-color="#F0146F"/>
		</linearGradient>
		<linearGradient id="paint1_linear_716_2161" x1="0" y1="0" x2="50.4167" y2="77.8415" gradientUnits="userSpaceOnUse">
			<stop stop-color="#FD5E13"/>
			<stop offset="1" stop-color="#F0146F"/>
		</linearGradient>
		<linearGradient id="paint2_linear_716_2161" x1="0" y1="0" x2="50.4167" y2="77.8415" gradientUnits="userSpaceOnUse">
			<stop stop-color="#FD5E13"/>
			<stop offset="1" stop-color="#F0146F"/>
		</linearGradient>
		<linearGradient id="paint3_linear_716_2161" x1="0" y1="0" x2="50.4167" y2="77.8415" gradientUnits="userSpaceOnUse">
			<stop stop-color="#FD5E13"/>
			<stop offset="1" stop-color="#F0146F"/>
		</linearGradient>
		<linearGradient id="paint4_linear_716_2161" x1="0" y1="0" x2="50.4167" y2="77.8415" gradientUnits="userSpaceOnUse">
			<stop stop-color="#FD5E13"/>
			<stop offset="1" stop-color="#F0146F"/>
		</linearGradient>
		<linearGradient id="paint5_linear_716_2161" x1="0" y1="0" x2="50.4167" y2="77.8415" gradientUnits="userSpaceOnUse">
			<stop stop-color="#FD5E13"/>
			<stop offset="1" stop-color="#F0146F"/>
		</linearGradient>
		<linearGradient id="paint6_linear_716_2161" x1="0" y1="0" x2="50.4167" y2="77.8415" gradientUnits="userSpaceOnUse">
			<stop stop-color="#FD5E13"/>
			<stop offset="1" stop-color="#F0146F"/>
		</linearGradient>
		<linearGradient id="paint7_linear_716_2161" x1="0" y1="0" x2="50.4167" y2="77.8415" gradientUnits="userSpaceOnUse">
			<stop stop-color="#FD5E13"/>
			<stop offset="1" stop-color="#F0146F"/>
		</linearGradient>
	</defs>
</svg>
