<svg width="12" height="40" viewBox="0 0 12 40" fill="none" xmlns="http://www.w3.org/2000/svg">
<path d="M11.0553 12.227C10.9572 11.4417 10.6627 10.7546 10.27 10.1656C9.8774 9.57669 9.3866 9.08589 8.60133 8.69325C8.40501 8.59509 8.20868 8.49693 8.01236 8.39877C8.01236 8.39877 7.42341 8.30061 7.52157 7.71166L7.61973 5.45398H7.71789C7.81605 5.45398 7.91421 5.35583 7.91421 5.25767V3.98159C7.91421 3.88343 7.81605 3.78528 7.71789 3.78528V3.19632C7.71789 3.09816 7.61973 3 7.52157 3H4.28231C4.18415 3 4.08599 3.09816 4.08599 3.19632V3.78528H3.98783C3.88967 3.78528 3.79151 3.88343 3.79151 3.98159V5.25767C3.79151 5.35583 3.88967 5.45398 3.98783 5.45398H4.18415L4.28231 7.80981C4.28231 8.20245 3.88967 8.39877 3.79151 8.39877C3.59519 8.49693 3.30071 8.59509 3.10439 8.69325C2.41728 9.08589 1.82832 9.47853 1.53384 10.1656C1.1412 10.7546 0.846725 11.5399 0.748566 12.3251C0.650406 13.2086 0.552246 14.092 0.552246 15.0736V28.3252C0.552246 29.3067 0.650406 30.1902 0.748566 30.9755C0.846725 31.7607 1.1412 32.546 1.53384 33.135C1.92648 33.7239 2.41728 34.2147 3.20255 34.5092C3.88967 34.8037 4.7731 35 5.85286 35C6.93261 35 7.81604 34.8037 8.50316 34.5092C9.19028 34.2147 9.77924 33.7239 10.1719 33.135C10.5645 32.546 10.859 31.8589 10.9571 31.0736C11.0553 30.2883 11.1535 29.5031 11.1535 28.5215V24.4969L8.01236 25.184V28.5215C8.01236 29.1104 8.01237 29.6012 7.91421 29.9939C7.81605 30.3865 7.71789 30.7791 7.61973 31.0736C7.42341 31.3681 7.22709 31.5644 6.93261 31.7607C6.63813 31.9571 6.2455 31.9571 5.85286 31.9571C5.36206 31.9571 4.96942 31.8589 4.67494 31.6626C4.38047 31.4663 4.18415 31.1718 3.98783 30.8773C3.98783 30.5828 3.88967 30.1902 3.88967 29.7975C3.88967 29.3067 3.79151 28.816 3.79151 28.227V14.9755C3.79151 14.3865 3.79151 13.8957 3.88967 13.4049C3.88967 12.9141 3.98783 12.5215 4.18415 12.227C4.38047 11.9325 4.57679 11.638 4.87126 11.5399C5.16574 11.3436 5.55838 11.3436 6.04917 11.3436C6.53997 11.3436 6.93261 11.4417 7.22709 11.638C7.52157 11.8344 7.71789 12.0307 7.91421 12.3251C8.11052 12.6196 8.20869 13.0123 8.20869 13.4049C8.20869 13.7975 8.30685 14.2883 8.30685 14.8773V20.7669V22.5337L11.4479 21.8466V20.7669V14.8773C11.2516 13.7975 11.1535 13.0123 11.0553 12.227Z" fill="url(#paint0_linear_531_5534)"/>
<defs>
<linearGradient id="paint0_linear_531_5534" x1="0.552246" y1="3" x2="17.783" y2="6.88212" gradientUnits="userSpaceOnUse">
<stop stop-color="#FD5E13"/>
<stop offset="1" stop-color="#F0146F"/>
</linearGradient>
</defs>
</svg>
