<svg viewBox="0 0 48 48" fill="none"
	xmlns="http://www.w3.org/2000/svg">
	<rect x="1" y="1" width="46" height="46" rx="23" stroke="#262626" stroke-opacity="0.5" stroke-width="2"/>
	<path d="M18.5547 22.1679C18.0952 21.8616 17.4743 21.9858 17.1679 22.4453C16.8616 22.9048 16.9858 23.5257 17.4453 23.832L18.5547 22.1679ZM24 27L23.4453 27.8321C23.7812 28.056 24.2188 28.056 24.5547 27.8321L24 27ZM30.5547 23.8321C31.0142 23.5257 31.1384 22.9048 30.8321 22.4453C30.5257 21.9858 29.9048 21.8616 29.4453 22.1679L30.5547 23.8321ZM17.4453 23.832L23.4453 27.8321L24.5547 26.1679L18.5547 22.1679L17.4453 23.832ZM24.5547 27.8321L30.5547 23.8321L29.4453 22.1679L23.4453 26.1679L24.5547 27.8321Z" fill="#262626" fill-opacity="0.5"/>
</svg>
