<svg viewBox="0 0 48 48" fill="none"
	xmlns="http://www.w3.org/2000/svg">
	<rect width="48" height="48" rx="24" fill="white"/>
	<path d="M27.8773 17.9202C27.8037 17.3313 27.5828 16.8159 27.2883 16.3742C26.9939 15.9325 26.6258 15.5644 26.0368 15.2699C25.8896 15.1963 25.7423 15.1227 25.5951 15.0491C25.5951 15.0491 25.1534 14.9755 25.227 14.5337L25.3006 12.8405H25.3742C25.4479 12.8405 25.5215 12.7669 25.5215 12.6933V11.7362C25.5215 11.6626 25.4479 11.589 25.3742 11.589V11.1472C25.3742 11.0736 25.3006 11 25.227 11H22.7975C22.7239 11 22.6503 11.0736 22.6503 11.1472V11.589H22.5767C22.5031 11.589 22.4294 11.6626 22.4294 11.7362V12.6933C22.4294 12.7669 22.5031 12.8405 22.5767 12.8405H22.7239L22.7975 14.6074C22.7975 14.9018 22.5031 15.0491 22.4294 15.0491C22.2822 15.1227 22.0614 15.1963 21.9141 15.2699C21.3988 15.5644 20.9571 15.8589 20.7362 16.3742C20.4417 16.8159 20.2209 17.4049 20.1472 17.9939C20.0736 18.6564 20 19.319 20 20.0552V29.9939C20 30.7301 20.0736 31.3926 20.1472 31.9816C20.2209 32.5705 20.4417 33.1595 20.7362 33.6012C21.0307 34.0429 21.3988 34.411 21.9877 34.6319C22.5031 34.8528 23.1656 35 23.9755 35C24.7853 35 25.4479 34.8528 25.9632 34.6319C26.4785 34.411 26.9202 34.0429 27.2147 33.6012C27.5092 33.1595 27.7301 32.6442 27.8037 32.0552C27.8773 31.4663 27.9509 30.8773 27.9509 30.1411V27.1227L25.5951 27.638V30.1411C25.5951 30.5828 25.5951 30.9509 25.5215 31.2454C25.4479 31.5399 25.3742 31.8344 25.3006 32.0552C25.1534 32.2761 25.0061 32.4233 24.7853 32.5706C24.5644 32.7178 24.2699 32.7178 23.9755 32.7178C23.6074 32.7178 23.3129 32.6442 23.092 32.4969C22.8712 32.3497 22.7239 32.1288 22.5767 31.908C22.5767 31.6871 22.5031 31.3926 22.5031 31.0982C22.5031 30.7301 22.4294 30.362 22.4294 29.9202V19.9816C22.4294 19.5399 22.4294 19.1718 22.5031 18.8037C22.5031 18.4356 22.5767 18.1411 22.7239 17.9202C22.8712 17.6994 23.0184 17.4785 23.2393 17.4049C23.4601 17.2577 23.7546 17.2577 24.1227 17.2577C24.4908 17.2577 24.7853 17.3313 25.0061 17.4785C25.227 17.6258 25.3742 17.773 25.5215 17.9939C25.6687 18.2147 25.7423 18.5092 25.7423 18.8037C25.7423 19.0982 25.816 19.4663 25.816 19.908V24.3252V25.6503L28.1718 25.135V24.3252V19.908C28.0245 19.0982 27.9509 18.5092 27.8773 17.9202Z" fill="url(#paint0_linear_92_6105)"/>
	<defs>
		<linearGradient id="paint0_linear_92_6105" x1="20" y1="23" x2="28.1715" y2="23" gradientUnits="userSpaceOnUse">
			<stop stop-color="#FF660A"/>
			<stop offset="1" stop-color="#F11969"/>
		</linearGradient>
	</defs>
</svg>