<svg width="16" height="49" viewBox="0 0 16 49" fill="none" xmlns="http://www.w3.org/2000/svg">
<path d="M14.3048 11.1644C13.732 10.2683 12.9401 9.55545 11.9293 9.02617C11.431 8.76559 10.8562 8.57195 10.2111 8.43951L10.4277 4.25064H10.6231C10.7642 4.25064 10.8784 4.13445 10.8784 3.99149V2.06847C10.8784 1.92503 10.7642 1.80932 10.6231 1.80932H10.5542L10.6009 0.903271C10.6089 0.752182 10.49 0.625 10.3404 0.625H5.66056C5.5105 0.625 5.39158 0.753139 5.40007 0.904705L5.45246 1.80932H5.3779C5.2368 1.80932 5.1226 1.92503 5.1226 2.06847V3.99149C5.1226 4.13445 5.2368 4.25064 5.3779 4.25064H5.59403L5.83611 8.42516C5.17262 8.55521 4.5818 8.74981 4.06979 9.01374C3.05898 9.53394 2.27137 10.2468 1.70698 11.1514C1.14259 12.0561 0.755157 13.1275 0.544689 14.3649C0.334221 15.6023 0.228516 16.9468 0.228516 18.3979V38.1135C0.228516 39.5474 0.329974 40.8747 0.531948 42.0949C0.733921 43.3155 1.12182 44.3736 1.69424 45.2701C2.26713 46.1661 3.05898 46.8661 4.06979 47.3696C5.0806 47.873 6.39484 48.125 8.01252 48.125C9.59622 48.125 10.893 47.873 11.9038 47.3696C12.9151 46.8661 13.7069 46.1833 14.2794 45.3213C14.8522 44.4592 15.2439 43.4518 15.4549 42.2995C15.6653 41.1477 15.7706 39.9055 15.7706 38.5744V32.9889C15.7706 32.7656 15.5662 32.6002 15.3515 32.6495L11.3885 33.5569C11.2318 33.5928 11.1209 33.7339 11.1209 33.8964V38.5486C11.1209 39.3681 11.0827 40.0977 11.0072 40.7379C10.9312 41.3777 10.7793 41.9156 10.5518 42.3511C10.3248 42.7862 10.0087 43.119 9.60424 43.3495C9.19982 43.5799 8.6694 43.6952 8.01252 43.6952C7.28768 43.6952 6.71526 43.5589 6.29386 43.2854C5.87245 43.0124 5.55675 42.6285 5.34628 42.1331C5.13534 41.6383 5.00085 41.0449 4.94186 40.354C4.88287 39.6626 4.85314 38.89 4.85314 38.0365V18.3721C4.85314 17.4842 4.88712 16.7035 4.9546 16.0293C5.02161 15.3551 5.16507 14.7876 5.38403 14.3267C5.60299 13.8658 5.91917 13.5158 6.33161 13.2767C6.74452 13.0377 7.29617 12.9181 7.98704 12.9181C8.6779 12.9181 9.22955 13.042 9.64199 13.2896C10.0549 13.5373 10.3711 13.8868 10.59 14.3396C10.809 14.7919 10.952 15.3336 11.0195 15.9652C11.087 16.5968 11.1209 17.3054 11.1209 18.0905V26.7585V28.9315C11.1209 29.1548 11.3253 29.3203 11.54 29.271L15.503 28.3635C15.6592 28.3277 15.7706 28.1871 15.7706 28.0241V26.7585V18.0135C15.7706 16.7164 15.6696 15.4747 15.4676 14.288C15.2652 13.1017 14.8777 12.0604 14.3048 11.1644Z" fill="white"/>
</svg>