<svg viewBox="0 0 24 24" fill="none"
	xmlns="http://www.w3.org/2000/svg">
	<rect x="1" y="1" width="22" height="22" rx="11" stroke="#262626" stroke-width="2"/>
	<path d="M14 12L14.8321 12.5547C15.056 12.2188 15.056 11.7812 14.8321 11.4453L14 12ZM11.8321 6.9453C11.5257 6.48577 10.9048 6.3616 10.4453 6.66795C9.98577 6.9743 9.8616 7.59517 10.1679 8.0547L11.8321 6.9453ZM10.1679 15.9453C9.8616 16.4048 9.98577 17.0257 10.4453 17.3321C10.9048 17.6384 11.5257 17.5142 11.8321 17.0547L10.1679 15.9453ZM14.8321 11.4453L11.8321 6.9453L10.1679 8.0547L13.1679 12.5547L14.8321 11.4453ZM11.8321 17.0547L14.8321 12.5547L13.1679 11.4453L10.1679 15.9453L11.8321 17.0547Z" fill="#262626"/>
</svg>

