<svg width="75" height="32" viewBox="0 0 75 32" fill="none" xmlns="http://www.w3.org/2000/svg">
<path d="M10.439 9.17073C10.3415 8.39024 10.0488 7.70731 9.65854 7.12195C9.26829 6.53658 8.78049 6.04878 8 5.65853C7.80488 5.56097 7.60975 5.46341 7.41463 5.36585C7.41463 5.36585 6.82927 5.26829 6.92683 4.68292L7.02439 2.43902H7.12195C7.21951 2.43902 7.31707 2.34146 7.31707 2.2439V0.975606C7.31707 0.878045 7.21951 0.780487 7.12195 0.780487V0.195123C7.12195 0.0975617 7.02439 0 6.92683 0H3.70732C3.60976 0 3.5122 0.0975617 3.5122 0.195123V0.780487H3.41463C3.31707 0.780487 3.21951 0.878045 3.21951 0.975606V2.2439C3.21951 2.34146 3.31707 2.43902 3.41463 2.43902H3.60976L3.70732 4.78048C3.70732 5.17073 3.31708 5.36585 3.21951 5.36585C3.02439 5.46341 2.73171 5.56097 2.53659 5.65853C1.85366 6.04878 1.26829 6.43902 0.975609 7.12195C0.585366 7.70731 0.292684 8.4878 0.195123 9.26829C0.0975617 10.1463 0 11.0244 0 12V25.1707C0 26.1463 0.0975617 27.0244 0.195123 27.8049C0.292684 28.5854 0.585366 29.3658 0.975609 29.9512C1.36585 30.5366 1.85366 31.0244 2.63415 31.3171C3.31707 31.6097 4.19512 31.8049 5.26829 31.8049C6.34146 31.8049 7.21951 31.6097 7.90244 31.3171C8.58536 31.0244 9.17073 30.5366 9.56098 29.9512C9.95122 29.3658 10.2439 28.6829 10.3415 27.9024C10.439 27.1219 10.5366 26.3415 10.5366 25.3658V21.3658L7.41463 22.0488V25.3658C7.41463 25.9512 7.41463 26.439 7.31707 26.8293C7.21951 27.2195 7.12195 27.6098 7.02439 27.9024C6.82927 28.1951 6.63414 28.3902 6.34146 28.5854C6.04878 28.7805 5.65854 28.7805 5.26829 28.7805C4.78049 28.7805 4.39024 28.6829 4.09756 28.4878C3.80488 28.2927 3.60976 28 3.41463 27.7073C3.41463 27.4146 3.31707 27.0244 3.31707 26.6341C3.31707 26.1463 3.21951 25.6585 3.21951 25.0732V11.9024C3.21951 11.3171 3.21951 10.8293 3.31707 10.3415C3.31707 9.85366 3.41463 9.46341 3.60976 9.17073C3.80488 8.87804 4 8.58536 4.29268 8.4878C4.58537 8.29268 4.97561 8.29268 5.46341 8.29268C5.95122 8.29268 6.34146 8.39024 6.63415 8.58536C6.92683 8.78048 7.12195 8.9756 7.31707 9.26829C7.51219 9.56097 7.60976 9.95122 7.60976 10.3415C7.60976 10.7317 7.70732 11.2195 7.70732 11.8049V17.6585V19.4146L10.8293 18.7317V17.6585V11.8049C10.6341 10.7317 10.5366 9.95121 10.439 9.17073Z" fill="url(#paint0_linear_92_6090)"/>
<path d="M47.8048 12.5849C47.4146 11.9995 46.9268 11.5117 46.2438 11.1215C45.5609 10.7313 44.6829 10.5361 43.6097 10.5361C42.5365 10.5361 41.6585 10.7313 40.9755 11.0239C40.2926 11.3166 39.8048 11.8044 39.4146 12.3898C39.0243 12.9752 38.8292 13.6581 38.6341 14.5361C38.5365 15.4142 38.439 16.2922 38.439 17.2678V24.9752C38.439 25.9508 38.5365 26.8288 38.6341 27.6093C38.7316 28.3898 39.0243 29.1703 39.4146 29.7556C39.8048 30.341 40.2926 30.8288 40.9755 31.219C41.6585 31.6093 42.5365 31.7069 43.6097 31.7069C44.6829 31.7069 45.5609 31.5117 46.2438 31.1215C46.9268 30.7312 47.4146 30.2434 47.8048 29.6581C48.1951 29.0727 48.3902 28.2922 48.4877 27.5117C48.5853 26.7313 48.6829 25.8532 48.6829 24.9752V24.3898H45.6585V25.0727C45.6585 25.5605 45.6585 26.0483 45.5609 26.4386C45.5609 26.8288 45.4634 27.2191 45.2682 27.6093C45.1707 27.902 44.9756 28.1947 44.6829 28.3898C44.3902 28.5849 43.9999 28.6825 43.5121 28.6825C43.0243 28.6825 42.6341 28.5849 42.3414 28.3898C42.0487 28.1947 41.8536 27.9995 41.756 27.6093C41.6585 27.3166 41.5609 26.9264 41.4634 26.4386C41.4634 25.9508 41.4634 25.463 41.4634 24.8776V22.7313L48.5853 21.2678V17.0727C48.5853 16.1947 48.4877 15.4142 48.3902 14.5361C48.4877 13.8532 48.1951 13.1703 47.8048 12.5849ZM45.6585 19.1215L41.5609 19.9995V17.1703C41.5609 16.5849 41.5609 16.0971 41.6585 15.6093C41.6585 15.1215 41.756 14.7313 41.9512 14.4386C42.0487 14.1459 42.3414 13.9508 42.5365 13.7556C42.8292 13.5605 43.2195 13.5605 43.7073 13.5605C44.1951 13.5605 44.5853 13.6581 44.878 13.8532C45.1707 14.0483 45.3658 14.341 45.4634 14.6337C45.5609 14.9264 45.6585 15.3166 45.6585 15.8044C45.6585 16.1947 45.6585 16.6825 45.6585 17.1703V19.1215Z" fill="url(#paint1_linear_92_6090)"/>
<path d="M57.4635 10.5361C56.683 10.5361 56.0977 10.7313 55.6099 11.1215C55.2196 11.5117 54.8294 11.9995 54.6343 12.6825V10.8288H51.6099V31.5117H54.6343V17.6581C54.6343 17.0727 54.7318 16.4874 54.7318 15.9995C54.8294 15.5117 54.9269 15.1215 55.1221 14.7313C55.3172 14.341 55.5123 14.1459 55.9025 13.9508C56.1952 13.7556 56.5855 13.6581 57.0733 13.6581C57.2684 13.6581 57.4635 13.6581 57.5611 13.7556C57.6586 13.8532 57.8538 13.8532 57.9513 13.8532C58.0489 13.9508 58.1464 13.9508 58.244 14.0483C58.3416 14.1459 58.3416 14.1459 58.4391 14.1459V10.8288C58.244 10.7313 58.0489 10.6337 57.8538 10.6337C57.7562 10.5361 57.6586 10.5361 57.4635 10.5361Z" fill="url(#paint2_linear_92_6090)"/>
<path d="M68.3903 22.7313C68.0976 22.2435 67.7073 21.8533 67.3171 21.3655C66.9268 20.9753 66.5366 20.585 66.0488 20.1948C65.6586 19.8045 65.1707 19.5118 64.7805 19.2192C64.3903 18.9265 64 18.5362 63.7073 18.2435C63.4146 17.8533 63.122 17.5606 62.9268 17.1704C62.7317 16.7801 62.6342 16.3899 62.6342 15.9021C62.6342 15.2192 62.7317 14.7314 63.0244 14.3411C63.3171 13.9509 63.8049 13.7557 64.3903 13.7557C64.7805 13.7557 65.0732 13.8533 65.2683 13.9509C65.4634 14.0484 65.6585 14.2435 65.8537 14.5362C65.9512 14.8289 66.0488 15.1216 66.1464 15.5118C66.2439 15.9021 66.2439 16.3899 66.2439 16.9753H69.2683C69.2683 15.707 69.1707 14.7314 68.9756 13.8533C68.7805 13.0728 68.4878 12.3899 68.0976 11.9021C67.7073 11.4143 67.2195 11.1216 66.6342 10.9265C66.0488 10.7314 65.2683 10.6338 64.3903 10.6338C63.3171 10.6338 62.5366 10.7314 61.8537 11.024C61.1707 11.3167 60.6829 11.707 60.3903 12.1948C60 12.6826 59.8049 13.2679 59.7073 13.8533C59.6098 14.5362 59.5122 15.2192 59.5122 15.9996C59.5122 16.7801 59.6098 17.3655 59.8049 17.9509C60 18.5362 60.2927 19.024 60.5854 19.5118C60.8781 19.9996 61.2683 20.3899 61.6586 20.7801C62.0488 21.1704 62.439 21.5606 62.9268 21.8533C63.3171 22.2435 63.7073 22.5362 64.1951 22.8289C64.5854 23.1216 64.9756 23.5118 65.2683 23.9021C65.561 24.2923 65.8537 24.6826 66.0488 25.0728C66.2439 25.4631 66.3415 25.9509 66.3415 26.5362C66.3415 27.3167 66.2439 27.9021 65.9512 28.2923C65.6585 28.6826 65.1707 28.8777 64.5854 28.8777C64.1951 28.8777 63.8049 28.7801 63.6098 28.6826C63.3171 28.4874 63.122 28.2923 63.0244 27.9996C62.9268 27.707 62.8293 27.3167 62.7317 26.8289C62.7317 26.3411 62.6342 25.8533 62.6342 25.2679H59.6098C59.6098 26.3411 59.7073 27.3167 59.8049 28.0972C59.9025 28.9753 60.1951 29.6582 60.5854 30.2435C60.9756 30.8289 61.4634 31.2192 62.1464 31.5118C62.8293 31.8045 63.6098 31.9996 64.6829 31.9996C65.561 31.9996 66.439 31.9021 67.0244 31.707C67.7073 31.5118 68.1951 31.1216 68.5854 30.7313C68.9756 30.2435 69.2683 29.7557 69.4634 29.0728C69.6586 28.3899 69.7561 27.6094 69.7561 26.6338C69.7561 25.8533 69.6586 25.1704 69.4634 24.585C68.9756 23.707 68.6829 23.2192 68.3903 22.7313Z" fill="url(#paint3_linear_92_6090)"/>
<path d="M35.2203 12.5849C34.8301 11.9995 34.3423 11.5117 33.6594 11.1215C32.9764 10.7313 32.0984 10.5361 31.0252 10.5361C29.9521 10.5361 29.074 10.7313 28.3911 11.0239C27.7081 11.3166 27.2203 11.8044 26.8301 12.3898C26.4399 12.9752 26.2447 13.6581 26.0496 14.5361C25.9521 15.4142 25.8545 16.2922 25.8545 17.2678V24.9752C25.8545 25.9508 25.9521 26.8288 26.0496 27.6093C26.1472 28.3898 26.4399 29.1703 26.8301 29.7556C27.2203 30.341 27.7081 30.8288 28.3911 31.219C29.074 31.6093 29.9521 31.7069 31.0252 31.7069C32.0984 31.7069 32.9764 31.5117 33.6594 31.1215C34.3423 30.7312 34.8301 30.2434 35.2203 29.6581C35.6106 29.0727 35.8057 28.2922 35.9033 27.5117C36.0008 26.7313 36.0984 25.8532 36.0984 24.9752V24.3898H33.074V25.0727C33.074 25.5605 33.074 26.0483 32.9764 26.4386C32.9764 26.8288 32.8789 27.2191 32.6838 27.6093C32.5862 27.902 32.3911 28.1947 32.0984 28.3898C31.8057 28.5849 31.4155 28.6825 30.9277 28.6825C30.4399 28.6825 30.0496 28.5849 29.7569 28.3898C29.4642 28.1947 29.2691 27.9995 29.1716 27.6093C29.074 27.3166 28.9764 26.9264 28.8789 26.4386C28.8789 25.9508 28.8789 25.463 28.8789 24.8776V22.7313L36.0008 21.2678V17.0727C36.0008 16.1947 35.9033 15.4142 35.8057 14.5361C35.8057 13.8532 35.6106 13.1703 35.2203 12.5849ZM33.074 19.1215L28.9764 19.9995V17.1703C28.9764 16.5849 28.9764 16.0971 29.074 15.6093C29.074 15.1215 29.1716 14.7313 29.3667 14.4386C29.4642 14.1459 29.7569 13.9508 29.9521 13.7556C30.2447 13.5605 30.635 13.5605 31.1228 13.5605C31.6106 13.5605 32.0008 13.6581 32.2935 13.8532C32.5862 14.0483 32.7813 14.341 32.8789 14.6337C32.9764 14.9264 33.074 15.3166 33.074 15.8044C33.074 16.1947 33.074 16.6825 33.074 17.1703V19.1215Z" fill="url(#paint4_linear_92_6090)"/>
<path d="M74.3412 24.7806L74.7314 5.07324H71.2192L71.707 24.7806H74.3412Z" fill="url(#paint5_linear_92_6090)"/>
<path d="M74.4387 28.4878C74.1461 28.1951 73.6583 28 72.9753 28C72.2924 28 71.9022 28.1951 71.6095 28.4878C71.3168 28.7805 71.2192 29.2683 71.2192 29.9512C71.2192 30.5366 71.3168 31.0244 71.6095 31.3171C71.9022 31.6098 72.39 31.8049 72.9753 31.8049C73.6583 31.8049 74.1461 31.6098 74.4387 31.3171C74.7314 31.0244 74.829 30.5366 74.829 29.9512C74.829 29.2683 74.7314 28.878 74.4387 28.4878Z" fill="url(#paint6_linear_92_6090)"/>
<path d="M20.4872 31.5117V17.2678C20.4872 16.6824 20.4872 16.1946 20.4872 15.7068C20.4872 15.219 20.3896 14.8288 20.2921 14.5361C20.1945 14.2434 19.9994 13.9507 19.7067 13.7556C19.414 13.5605 19.0238 13.4629 18.536 13.4629C18.0482 13.4629 17.7555 13.5605 17.4628 13.7556C17.1701 13.9507 16.975 14.1458 16.8774 14.5361C16.7799 14.8288 16.6823 15.219 16.5847 15.7068C16.5847 16.1946 16.4872 16.6824 16.4872 17.2678V31.5117H13.3652V4.4873H16.4872V12.2922C16.6823 11.6093 17.0725 11.1214 17.4628 10.8288C17.853 10.5361 18.536 10.4385 19.2189 10.4385C20.1945 10.4385 20.8774 10.6336 21.4628 11.0239C22.0482 11.4141 22.4384 11.9019 22.7311 12.5849C23.0238 13.2678 23.2189 13.9507 23.3165 14.8288C23.414 15.7068 23.414 16.5849 23.414 17.5605V31.5117H20.4872Z" fill="url(#paint7_linear_92_6090)"/>
<defs>
<linearGradient id="paint0_linear_92_6090" x1="-5.54975" y1="19.8375" x2="69.6661" y2="-7.75131" gradientUnits="userSpaceOnUse">
<stop stop-color="#FF6904"/>
<stop offset="1" stop-color="#EE0C78"/>
</linearGradient>
<linearGradient id="paint1_linear_92_6090" x1="0.712433" y1="36.9099" x2="75.9282" y2="9.32099" gradientUnits="userSpaceOnUse">
<stop stop-color="#FF6904"/>
<stop offset="1" stop-color="#EE0C78"/>
</linearGradient>
<linearGradient id="paint2_linear_92_6090" x1="1.84422" y1="39.9951" x2="77.0601" y2="12.4062" gradientUnits="userSpaceOnUse">
<stop stop-color="#FF6904"/>
<stop offset="1" stop-color="#EE0C78"/>
</linearGradient>
<linearGradient id="paint3_linear_92_6090" x1="3.18153" y1="43.6415" x2="78.3975" y2="16.0526" gradientUnits="userSpaceOnUse">
<stop stop-color="#FF6904"/>
<stop offset="1" stop-color="#EE0C78"/>
</linearGradient>
<linearGradient id="paint4_linear_92_6090" x1="-0.78443" y1="32.8266" x2="74.4315" y2="5.23778" gradientUnits="userSpaceOnUse">
<stop stop-color="#FF6904"/>
<stop offset="1" stop-color="#EE0C78"/>
</linearGradient>
<linearGradient id="paint5_linear_92_6090" x1="2.15532" y1="40.8443" x2="77.3711" y2="13.2556" gradientUnits="userSpaceOnUse">
<stop stop-color="#FF6904"/>
<stop offset="1" stop-color="#EE0C78"/>
</linearGradient>
<linearGradient id="paint6_linear_92_6090" x1="7.02649" y1="54.125" x2="82.2424" y2="26.5362" gradientUnits="userSpaceOnUse">
<stop stop-color="#FF6904"/>
<stop offset="1" stop-color="#EE0C78"/>
</linearGradient>
<linearGradient id="paint7_linear_92_6090" x1="-3.29242" y1="25.9928" x2="71.9234" y2="-1.59602" gradientUnits="userSpaceOnUse">
<stop stop-color="#FF6904"/>
<stop offset="1" stop-color="#EE0C78"/>
</linearGradient>
</defs>
</svg>
