<svg viewBox="0 0 296 144" fill="none"
	xmlns="http://www.w3.org/2000/svg">
	<path d="M1.90458 34.5793C0.10588 39.0312 0.593998 44.6104 1.57023 55.7689L5.87072 104.924C6.84696 116.082 7.33507 121.661 9.87952 125.733C12.1177 129.315 15.4323 132.096 19.3484 133.679C23.8003 135.477 29.3795 134.989 40.5379 134.013L128.374 126.328C131.413 126.062 134.408 127.198 136.506 129.413L146.643 140.113C151.07 144.787 158.697 144.12 162.246 138.748L170.371 126.45C172.052 123.905 174.804 122.266 177.843 122L265.678 114.316C276.836 113.339 282.416 112.851 286.488 110.307C290.069 108.069 292.851 104.754 294.433 100.838C296.232 96.3861 295.743 90.8069 294.767 79.6485L290.467 30.4937C289.49 19.3353 289.002 13.756 286.458 9.68408C284.22 6.10228 280.905 3.32097 276.989 1.73879C272.537 -0.0599108 266.958 0.428207 255.799 1.40444L30.6595 21.1016C19.5011 22.0779 13.9218 22.566 9.84987 25.1104C6.26807 27.3486 3.48676 30.6632 1.90458 34.5793Z" fill="#262626"/>
	<path d="M210.891 95.7857L207.535 100.56L207.586 101.15L206.199 101.271L205.566 94.0351L206.953 93.9138L207.398 98.9984L210.752 94.1918L210.699 93.5861L212.07 93.4661L212.703 100.703L211.332 100.822L210.891 95.7857Z" fill="white"/>
	<path d="M203.71 101.489L202.451 101.599L201.921 95.5425L199.837 101.828L198.897 101.91L195.753 96.0822L196.283 102.139L195.023 102.249L194.39 95.0129L196.415 94.8358L199.212 100.004L201.069 94.4286L203.077 94.2529L203.71 101.489Z" fill="white"/>
	<path d="M187.948 102.868L186.338 103.009L187.794 100.376C187.534 100.335 187.285 100.249 187.049 100.12C186.823 99.9793 186.626 99.8145 186.46 99.6256C186.292 99.4261 186.155 99.2079 186.049 98.9709C185.942 98.7233 185.877 98.472 185.855 98.217C185.826 97.8876 185.857 97.569 185.948 97.2613C186.038 96.9535 186.186 96.6783 186.389 96.4356C186.593 96.193 186.843 95.9944 187.14 95.8399C187.437 95.6854 187.777 95.5915 188.16 95.558L191.905 95.2303L192.538 102.467L191.184 102.585L190.979 100.242L189.225 100.396L187.948 102.868ZM190.878 99.0945L190.649 96.4805L188.545 96.6646C188.11 96.7027 187.776 96.8657 187.544 97.1537C187.322 97.4301 187.227 97.7436 187.257 98.0943C187.288 98.445 187.437 98.7424 187.705 98.9867C187.982 99.2194 188.339 99.3167 188.774 99.2786L190.878 99.0945Z" fill="white"/>
	<path d="M182.686 98.2533L179.33 103.028L179.381 103.618L177.995 103.739L177.362 96.5027L178.748 96.3814L179.193 101.466L182.547 96.6594L182.494 96.0537L183.865 95.9337L184.498 103.17L183.127 103.29L182.686 98.2533Z" fill="white"/>
	<path d="M173.863 101.001L170.022 101.337L170.291 104.413L168.904 104.534L168.271 97.298L169.658 97.1767L169.92 100.173L173.762 99.8372L173.499 96.8406L174.87 96.7207L175.503 103.957L174.132 104.077L173.863 101.001Z" fill="white"/>
	<path d="M161.074 101.943C161.112 102.25 161.185 102.538 161.294 102.807C161.403 103.065 161.551 103.293 161.74 103.491C161.938 103.677 162.181 103.822 162.468 103.925C162.755 104.018 163.1 104.046 163.504 104.011C164.046 103.964 164.445 103.816 164.702 103.569C164.968 103.31 165.146 103.021 165.236 102.703L166.639 102.58C166.613 102.893 166.521 103.196 166.365 103.488C166.219 103.779 166.017 104.043 165.76 104.279C165.502 104.516 165.193 104.715 164.832 104.875C164.471 105.035 164.062 105.135 163.605 105.175C163 105.228 162.46 105.173 161.985 105.011C161.521 104.848 161.125 104.61 160.798 104.296C160.471 103.982 160.213 103.603 160.024 103.159C159.834 102.705 159.717 102.217 159.671 101.696C159.624 101.154 159.654 100.643 159.762 100.163C159.88 99.681 160.074 99.2573 160.341 98.8912C160.62 98.5242 160.968 98.226 161.387 97.9966C161.817 97.7663 162.319 97.6261 162.892 97.5759C163.36 97.5349 163.803 97.5818 164.222 97.7165C164.65 97.8397 165.026 98.037 165.35 98.3085C165.684 98.5791 165.954 98.9088 166.159 99.2977C166.374 99.6751 166.501 100.092 166.541 100.549C166.551 100.655 166.557 100.783 166.559 100.933C166.572 101.082 166.571 101.259 166.557 101.463L161.074 101.943ZM162.954 98.6466C162.327 98.7014 161.833 98.9267 161.471 99.3224C161.109 99.7074 160.946 100.23 160.982 100.891L165.174 100.524C165.118 99.8866 164.878 99.4044 164.453 99.0775C164.038 98.7391 163.538 98.5954 162.954 98.6466Z" fill="white"/>
	<path d="M158.855 98.1218L158.957 99.2854L156.773 99.4764L157.304 105.549L155.918 105.671L155.386 99.5977L153.235 99.786L153.133 98.6224L158.855 98.1218Z" fill="white"/>
	<path d="M150.983 106.102L150.789 103.887L149.02 104.042C148.212 104.112 147.568 103.965 147.086 103.6C146.614 103.224 146.342 102.622 146.269 101.793L146.046 99.2424L147.433 99.1211L147.653 101.639C147.731 102.532 148.222 102.939 149.125 102.86L150.687 102.723L150.35 98.8659L151.736 98.7446L152.37 105.981L150.983 106.102Z" fill="white"/>
	<path d="M141.537 107.105C140.963 107.156 140.434 107.1 139.949 106.939C139.463 106.778 139.041 106.537 138.681 106.215C138.321 105.893 138.03 105.512 137.81 105.07C137.589 104.629 137.456 104.154 137.412 103.644C137.367 103.134 137.415 102.642 137.556 102.17C137.696 101.686 137.915 101.255 138.214 100.875C138.512 100.496 138.887 100.185 139.337 99.9419C139.786 99.6991 140.298 99.5526 140.872 99.5024C141.456 99.4513 141.991 99.5062 142.477 99.6672C142.962 99.8282 143.384 100.07 143.744 100.391C144.115 100.712 144.411 101.099 144.633 101.55C144.853 101.992 144.986 102.467 145.031 102.977C145.075 103.487 145.027 103.979 144.887 104.451C144.746 104.924 144.521 105.351 144.212 105.731C143.913 106.111 143.539 106.422 143.089 106.664C142.639 106.907 142.122 107.054 141.537 107.105ZM141.428 105.862C141.8 105.83 142.129 105.731 142.414 105.567C142.711 105.402 142.955 105.199 143.148 104.957C143.34 104.704 143.481 104.419 143.571 104.101C143.661 103.782 143.691 103.448 143.66 103.097C143.629 102.746 143.542 102.422 143.398 102.124C143.254 101.826 143.066 101.57 142.833 101.355C142.6 101.139 142.323 100.976 142.003 100.865C141.694 100.753 141.353 100.713 140.981 100.746C140.609 100.778 140.28 100.877 139.995 101.041C139.709 101.205 139.471 101.413 139.279 101.666C139.097 101.917 138.961 102.202 138.871 102.52C138.782 102.839 138.752 103.173 138.783 103.524C138.813 103.874 138.901 104.199 139.044 104.497C139.188 104.795 139.371 105.052 139.594 105.268C139.826 105.472 140.097 105.631 140.406 105.743C140.716 105.855 141.057 105.895 141.428 105.862Z" fill="white"/>
	<path d="M135.826 107.428L134.439 107.55L133.908 101.477L130.13 101.807L130.661 107.88L129.275 108.002L128.641 100.765L135.192 100.192L135.826 107.428Z" fill="white"/>
	<path d="M119.557 110.522L119.316 107.765L119.571 107.742C120.166 107.69 120.593 107.433 120.853 106.972C121.122 106.498 121.224 105.89 121.159 105.146L120.835 101.448L126.175 100.981L126.712 107.118L127.445 107.053L127.686 109.811L126.443 109.92L126.298 108.262L120.655 108.756L120.8 110.413L119.557 110.522ZM125.421 107.23L124.978 102.178L122.221 102.419L122.427 104.778C122.489 105.479 122.449 106.066 122.308 106.539C122.178 107.011 121.914 107.355 121.515 107.572L125.421 107.23Z" fill="white"/>
	<path d="M112.65 106.18C112.687 106.487 112.761 106.775 112.87 107.044C112.978 107.302 113.127 107.53 113.315 107.727C113.513 107.914 113.756 108.058 114.044 108.162C114.33 108.254 114.675 108.283 115.079 108.248C115.621 108.2 116.02 108.053 116.277 107.806C116.544 107.547 116.722 107.258 116.812 106.94L118.214 106.817C118.188 107.13 118.097 107.432 117.94 107.724C117.795 108.015 117.593 108.279 117.335 108.516C117.078 108.753 116.768 108.951 116.408 109.111C116.047 109.271 115.638 109.371 115.181 109.411C114.575 109.464 114.035 109.41 113.561 109.248C113.097 109.085 112.701 108.847 112.374 108.533C112.046 108.219 111.788 107.84 111.6 107.396C111.41 106.941 111.292 106.454 111.247 105.933C111.199 105.391 111.23 104.88 111.338 104.399C111.456 103.918 111.649 103.494 111.917 103.128C112.195 102.761 112.544 102.463 112.963 102.233C113.393 102.003 113.894 101.863 114.468 101.812C114.936 101.772 115.379 101.818 115.797 101.953C116.226 102.076 116.602 102.274 116.925 102.545C117.259 102.816 117.529 103.145 117.735 103.534C117.95 103.912 118.077 104.329 118.117 104.786C118.126 104.892 118.132 105.02 118.135 105.17C118.148 105.318 118.147 105.495 118.133 105.7L112.65 106.18ZM114.53 102.883C113.903 102.938 113.408 103.163 113.047 103.559C112.684 103.944 112.521 104.467 112.558 105.128L116.75 104.761C116.694 104.123 116.454 103.641 116.029 103.314C115.614 102.976 115.114 102.832 114.53 102.883Z" fill="white"/>
	<path d="M103.442 104.223C103.637 103.756 103.951 103.375 104.386 103.08C104.821 102.785 105.304 102.614 105.835 102.568C106.387 102.519 106.901 102.576 107.376 102.738C107.861 102.899 108.278 103.141 108.628 103.464C108.988 103.786 109.279 104.172 109.5 104.624C109.721 105.065 109.853 105.541 109.898 106.051C109.943 106.561 109.895 107.052 109.754 107.525C109.613 107.998 109.393 108.424 109.095 108.803C108.807 109.182 108.438 109.493 107.988 109.735C107.549 109.977 107.053 110.122 106.5 110.171C105.969 110.217 105.463 110.133 104.984 109.918C104.505 109.703 104.129 109.382 103.856 108.957L104.309 114.137L102.923 114.258L101.947 103.101L103.333 102.979L103.442 104.223ZM105.88 103.817C105.508 103.849 105.174 103.948 104.878 104.113C104.592 104.277 104.354 104.485 104.162 104.738C103.97 104.99 103.829 105.276 103.739 105.594C103.649 105.912 103.619 106.247 103.65 106.598C103.68 106.948 103.768 107.272 103.912 107.57C104.055 107.868 104.244 108.125 104.477 108.34C104.709 108.545 104.98 108.703 105.289 108.815C105.61 108.926 105.956 108.966 106.328 108.933C106.689 108.901 107.012 108.804 107.298 108.639C107.583 108.475 107.817 108.273 107.999 108.032C108.191 107.78 108.332 107.494 108.422 107.176C108.512 106.857 108.542 106.523 108.511 106.172C108.481 105.822 108.393 105.497 108.249 105.199C108.106 104.901 107.917 104.645 107.684 104.43C107.462 104.214 107.196 104.049 106.886 103.937C106.577 103.825 106.241 103.785 105.88 103.817Z" fill="white"/>
	<path d="M100.087 110.555L98.7003 110.676L98.169 104.604L94.3915 104.934L94.9228 111.007L93.5361 111.128L92.903 103.892L99.4539 103.319L100.087 110.555Z" fill="white"/>
	<path d="M259.118 69.4823L255.762 74.257L255.813 74.8468L254.426 74.9681L253.793 67.7318L255.18 67.6104L255.625 72.695L258.979 67.8884L258.926 67.2827L260.296 67.1628L260.93 74.3992L259.559 74.5191L259.118 69.4823Z" fill="white"/>
	<path d="M251.937 75.1859L250.678 75.2961L250.148 69.2392L248.064 75.5248L247.124 75.607L243.98 69.7789L244.51 75.8357L243.25 75.9459L242.617 68.7095L244.642 68.5324L247.439 73.7003L249.296 68.1252L251.304 67.9495L251.937 75.1859Z" fill="white"/>
	<path d="M238.767 69.0464L240.137 68.9265L240.771 76.1628L239.4 76.2828L238.767 69.0464ZM232.375 69.6056L233.682 69.4913L233.901 71.9937L235.846 71.8236C236.218 71.791 236.547 71.8264 236.835 71.9298C237.132 72.0216 237.386 72.1707 237.597 72.3771C237.806 72.5729 237.972 72.81 238.092 73.0886C238.224 73.3662 238.304 73.6697 238.333 73.9991C238.361 74.3179 238.334 74.6254 238.253 74.9216C238.182 75.2168 238.061 75.4791 237.888 75.7083C237.715 75.9376 237.491 76.1285 237.215 76.2811C236.94 76.4338 236.616 76.5263 236.244 76.5589L233.008 76.842L232.375 69.6056ZM233.999 73.1094L234.218 75.6119L235.907 75.4641C236.311 75.4287 236.609 75.2849 236.801 75.0325C237.003 74.7686 237.088 74.4613 237.058 74.1106C237.025 73.7387 236.892 73.4452 236.659 73.23C236.426 73.0148 236.108 72.9249 235.704 72.9602L233.999 73.1094Z" fill="white"/>
	<path d="M224.623 70.2838L227.971 69.9909C228.428 69.951 228.81 69.9817 229.119 70.0832C229.427 70.1741 229.674 70.3077 229.861 70.4841C230.057 70.6489 230.197 70.8401 230.28 71.0577C230.363 71.2646 230.413 71.4691 230.43 71.6709C230.468 72.096 230.34 72.4765 230.049 72.8126C229.766 73.1371 229.399 73.3459 228.947 73.439C229.182 73.4292 229.409 73.4574 229.629 73.5239C229.849 73.5903 230.045 73.6909 230.217 73.8257C230.39 73.9605 230.533 74.13 230.647 74.3342C230.762 74.5383 230.83 74.7732 230.854 75.0389C230.871 75.2408 230.848 75.4623 230.783 75.7035C230.728 75.9332 230.614 76.1573 230.441 76.376C230.266 76.584 230.025 76.771 229.719 76.937C229.411 77.0924 229.013 77.1915 228.524 77.2343L225.257 77.5201L224.623 70.2838ZM226.331 74.1978L226.525 76.4134L228.47 76.2433C228.778 76.2163 229.023 76.0877 229.207 75.8575C229.401 75.6264 229.485 75.3621 229.459 75.0646C229.433 74.767 229.303 74.516 229.071 74.3114C228.849 74.0953 228.584 74.0008 228.276 74.0277L226.331 74.1978ZM228.141 73.0437C228.45 73.0167 228.685 72.8944 228.848 72.6767C229.011 72.459 229.081 72.212 229.056 71.9357C229.031 71.6488 228.914 71.4128 228.705 71.2276C228.507 71.0415 228.254 70.962 227.946 70.9889L226.065 71.1535L226.245 73.2096L228.141 73.0437Z" fill="white"/>
	<path d="M219.557 78.1955C218.983 78.2457 218.453 78.1903 217.968 78.0293C217.483 77.8683 217.06 77.6269 216.7 77.3051C216.34 76.9832 216.05 76.6017 215.829 76.1606C215.608 75.7195 215.476 75.2439 215.431 74.7339C215.387 74.2238 215.435 73.7324 215.575 73.2597C215.715 72.7764 215.934 72.3449 216.233 71.9655C216.532 71.586 216.906 71.2748 217.356 71.032C217.806 70.7892 218.318 70.6427 218.891 70.5925C219.476 70.5414 220.011 70.5963 220.496 70.7573C220.981 70.9183 221.404 71.1597 221.764 71.4816C222.135 71.8025 222.431 72.1888 222.652 72.6406C222.873 73.0817 223.006 73.5573 223.05 74.0673C223.095 74.5774 223.047 75.0688 222.906 75.5415C222.765 76.0142 222.54 76.4408 222.231 76.8212C221.932 77.2007 221.558 77.5118 221.108 77.7546C220.658 77.9974 220.141 78.1444 219.557 78.1955ZM219.448 76.9522C219.82 76.9197 220.148 76.8213 220.434 76.6572C220.73 76.4921 220.975 76.2887 221.168 76.0469C221.36 75.7946 221.501 75.5092 221.59 75.1908C221.68 74.8724 221.71 74.5379 221.679 74.1872C221.649 73.8366 221.561 73.5123 221.418 73.2143C221.274 72.9164 221.085 72.6599 220.852 72.4447C220.619 72.2295 220.343 72.0663 220.023 71.9551C219.713 71.843 219.372 71.8032 219 71.8358C218.628 71.8683 218.3 71.9667 218.014 72.1308C217.729 72.295 217.49 72.5033 217.298 72.7556C217.116 73.0071 216.981 73.292 216.891 73.6104C216.801 73.9288 216.771 74.2633 216.802 74.614C216.833 74.9646 216.92 75.2889 217.064 75.5868C217.208 75.8848 217.391 76.1418 217.613 76.3579C217.845 76.5624 218.116 76.7208 218.426 76.8329C218.735 76.945 219.076 76.9848 219.448 76.9522Z" fill="white"/>
	<path d="M212.583 73.9873C212.49 73.5457 212.277 73.1896 211.943 72.919C211.619 72.6369 211.116 72.5255 210.436 72.585C210.064 72.6176 209.741 72.7155 209.466 72.8787C209.202 73.041 208.985 73.2527 208.815 73.5139C208.655 73.7634 208.54 74.0465 208.472 74.363C208.403 74.6795 208.384 75.0078 208.413 75.3479C208.443 75.6879 208.514 76.0083 208.626 76.309C208.748 76.6088 208.916 76.8672 209.127 77.0842C209.339 77.3013 209.594 77.4663 209.893 77.5794C210.203 77.6915 210.56 77.7299 210.964 77.6945C211.569 77.6415 212.004 77.475 212.269 77.1948C212.534 76.9147 212.705 76.5517 212.784 76.1058L214.171 75.9845C214.15 76.3611 214.069 76.7215 213.928 77.0658C213.786 77.3994 213.582 77.701 213.317 77.9705C213.061 78.2284 212.737 78.4442 212.345 78.6176C211.954 78.7911 211.497 78.9006 210.977 78.9461C210.382 78.9982 209.852 78.9375 209.387 78.764C208.922 78.5905 208.52 78.342 208.181 78.0183C207.842 77.6946 207.573 77.3112 207.374 76.8682C207.185 76.4243 207.069 75.958 207.027 75.4692C206.984 74.9804 207.017 74.501 207.126 74.0311C207.245 73.5602 207.438 73.1364 207.705 72.7597C207.982 72.3715 208.334 72.0516 208.761 71.8C209.2 71.5475 209.711 71.3957 210.296 71.3446C210.88 71.2934 211.387 71.3348 211.816 71.4685C212.255 71.5907 212.619 71.773 212.908 72.0154C213.207 72.2463 213.44 72.5257 213.608 72.8537C213.786 73.1807 213.907 73.5181 213.969 73.866L212.583 73.9873Z" fill="white"/>
	<path d="M202.373 83.6339C201.342 83.7241 200.501 83.5353 199.85 83.0676C199.209 82.599 198.832 81.8396 198.719 80.7895L200.121 80.6668C200.222 81.3219 200.456 81.794 200.824 82.083C201.203 82.3817 201.696 82.5046 202.301 82.4516C202.609 82.4246 202.882 82.3633 203.12 82.2675C203.37 82.1814 203.572 82.046 203.727 81.8611C203.894 81.6859 204.013 81.4559 204.084 81.1713C204.156 80.8867 204.174 80.5371 204.137 80.1227L203.959 78.0825C203.785 78.5474 203.492 78.9317 203.08 79.2355C202.678 79.5383 202.169 79.7167 201.553 79.7706C201.021 79.8171 200.568 79.7765 200.193 79.6487C199.828 79.52 199.521 79.3166 199.272 79.0386C199.046 78.78 198.876 78.4844 198.761 78.1518C198.656 77.8076 198.58 77.3646 198.532 76.8227L198.163 72.5988L199.55 72.4775L199.881 76.271C199.912 76.6216 199.967 76.9434 200.046 77.2363C200.135 77.5176 200.258 77.7585 200.415 77.9589C200.582 78.1584 200.788 78.3064 201.032 78.4029C201.276 78.4993 201.578 78.5317 201.94 78.5001C202.29 78.4694 202.587 78.3792 202.831 78.2293C203.074 78.0689 203.266 77.8701 203.406 77.633C203.555 77.3844 203.659 77.1076 203.718 76.8026C203.777 76.4976 203.792 76.1804 203.764 75.851L203.439 72.1372L204.825 72.0159L205.524 80.0014C205.625 81.1596 205.407 82.03 204.869 82.6124C204.331 83.1948 203.499 83.5353 202.373 83.6339Z" fill="white"/>
	<path d="M191.913 76.2775L192.137 76.2579C192.349 76.2393 192.54 76.1584 192.71 76.0151C192.879 75.8718 193.046 75.643 193.212 75.3287L194.032 73.8757C194.236 73.5152 194.453 73.2445 194.684 73.0638C194.914 72.883 195.215 72.7763 195.587 72.7438L196.321 72.6797L196.42 73.8113L195.989 73.849C195.777 73.8676 195.6 73.9259 195.458 74.0239C195.317 74.1219 195.181 74.2837 195.051 74.5092L194.54 75.4534C194.336 75.8245 194.118 76.0846 193.885 76.2335C193.651 76.3717 193.402 76.4684 193.14 76.5235L197.136 79.9804L195.462 80.1268L191.98 77.0425L192.275 80.4057L190.888 80.527L190.255 73.2907L191.641 73.1693L191.913 76.2775Z" fill="white"/>
	<path d="M182.503 73.9688L185.85 73.676C186.307 73.636 186.69 73.6668 186.999 73.7683C187.307 73.8591 187.554 73.9927 187.741 74.1691C187.937 74.334 188.077 74.5252 188.16 74.7427C188.242 74.9497 188.292 75.1541 188.31 75.356C188.347 75.781 188.22 76.1616 187.928 76.4976C187.646 76.8221 187.279 77.0309 186.827 77.124C187.061 77.1142 187.289 77.1425 187.509 77.2089C187.729 77.2753 187.925 77.3759 188.097 77.5108C188.27 77.6456 188.413 77.8151 188.527 78.0192C188.641 78.2234 188.71 78.4583 188.733 78.7239C188.751 78.9258 188.727 79.1474 188.663 79.3886C188.608 79.6183 188.494 79.8424 188.32 80.061C188.146 80.269 187.905 80.456 187.598 80.6221C187.291 80.7775 186.893 80.8766 186.404 80.9193L183.136 81.2052L182.503 73.9688ZM184.211 77.8829L184.405 80.0984L186.349 79.9283C186.657 79.9014 186.903 79.7728 187.086 79.5426C187.28 79.3115 187.364 79.0472 187.338 78.7496C187.312 78.4521 187.183 78.2011 186.951 77.9965C186.729 77.7804 186.463 77.6858 186.155 77.7128L184.211 77.8829ZM186.021 76.7287C186.329 76.7018 186.565 76.5794 186.728 76.3617C186.891 76.144 186.96 75.8971 186.936 75.6208C186.911 75.3339 186.794 75.0978 186.585 74.9127C186.387 74.7266 186.133 74.647 185.825 74.674L183.944 74.8385L184.124 76.8947L186.021 76.7287Z" fill="white"/>
	<path d="M177.6 81.6896L176.006 81.829L174.124 79.4079L172.69 82.1191L171.096 82.2585L173.232 78.3937L170.495 75.0194L172.089 74.8799L173.935 77.2561L175.341 74.5955L176.935 74.456L174.826 78.2543L177.6 81.6896Z" fill="white"/>
	<path d="M167.78 77.4734L164.423 82.2481L164.475 82.8379L163.088 82.9592L162.455 75.7228L163.841 75.6015L164.286 80.6861L167.64 75.8795L167.587 75.2738L168.958 75.1539L169.591 82.3902L168.22 82.5102L167.78 77.4734Z" fill="white"/>
	<path d="M155.301 78.9988C155.209 78.5571 154.996 78.201 154.662 77.9304C154.337 77.6483 153.835 77.537 153.155 77.5965C152.783 77.629 152.46 77.7269 152.185 77.8902C151.921 78.0525 151.704 78.2642 151.534 78.5253C151.374 78.7749 151.259 79.058 151.19 79.3745C151.122 79.691 151.102 80.0193 151.132 80.3593C151.162 80.6994 151.233 81.0197 151.345 81.3204C151.467 81.6202 151.634 81.8787 151.846 82.0957C152.058 82.3127 152.313 82.4778 152.612 82.5908C152.922 82.7029 153.279 82.7413 153.682 82.706C154.288 82.653 154.723 82.4864 154.988 82.2063C155.252 81.9262 155.424 81.5632 155.503 81.1173L156.889 80.996C156.869 81.3725 156.788 81.7329 156.647 82.0772C156.505 82.4109 156.301 82.7125 156.035 82.982C155.78 83.2399 155.456 83.4556 155.064 83.6291C154.672 83.8025 154.216 83.912 153.695 83.9576C153.1 84.0097 152.57 83.949 152.106 83.7755C151.641 83.602 151.239 83.3534 150.9 83.0297C150.561 82.706 150.292 82.3227 150.093 81.8797C149.904 81.4358 149.788 80.9694 149.745 80.4806C149.703 79.9918 149.736 79.5125 149.844 79.0425C149.964 78.5717 150.157 78.1479 150.424 77.7712C150.7 77.383 151.052 77.063 151.48 76.8115C151.919 76.559 152.43 76.4072 153.014 76.356C153.599 76.3049 154.106 76.3462 154.535 76.48C154.974 76.6022 155.338 76.7845 155.627 77.0269C155.925 77.2577 156.159 77.5372 156.326 77.8651C156.505 78.1921 156.626 78.5296 156.688 78.8774L155.301 78.9988Z" fill="white"/>
	<path d="M142.283 79.7041L138.927 84.4788L138.978 85.0685L137.591 85.1898L136.958 77.9535L138.345 77.8322L138.79 82.9167L142.144 78.1101L142.091 77.5045L143.462 77.3845L144.095 84.6209L142.724 84.7408L142.283 79.7041Z" fill="white"/>
	<path d="M133.286 80.4912L129.93 85.2659L129.981 85.8556L128.595 85.977L127.961 78.7406L129.348 78.6193L129.793 83.7039L133.147 78.8973L133.094 78.2916L134.465 78.1717L135.098 85.408L133.727 85.5279L133.286 80.4912Z" fill="white"/>
	<path d="M120.21 79.4188L123.557 79.1259C124.014 79.086 124.397 79.1167 124.705 79.2182C125.013 79.3091 125.26 79.4427 125.447 79.6191C125.644 79.7839 125.784 79.9751 125.867 80.1927C125.949 80.3996 125.999 80.6041 126.017 80.806C126.054 81.231 125.927 81.6115 125.635 81.9476C125.353 82.2721 124.986 82.4809 124.533 82.574C124.768 82.5642 124.995 82.5925 125.215 82.6589C125.435 82.7253 125.631 82.8259 125.804 82.9607C125.976 83.0955 126.12 83.265 126.234 83.4692C126.348 83.6733 126.417 83.9082 126.44 84.1739C126.458 84.3758 126.434 84.5973 126.37 84.8386C126.315 85.0682 126.201 85.2924 126.027 85.511C125.852 85.719 125.612 85.906 125.305 86.072C124.997 86.2274 124.599 86.3265 124.11 86.3693L120.843 86.6552L120.21 79.4188ZM121.917 83.3329L122.111 85.5484L124.056 85.3783C124.364 85.3513 124.61 85.2227 124.793 84.9926C124.987 84.7614 125.071 84.4971 125.045 84.1996C125.019 83.902 124.89 83.651 124.658 83.4465C124.435 83.2303 124.17 83.1358 123.862 83.1627L121.917 83.3329ZM123.728 82.1787C124.036 82.1517 124.271 82.0294 124.434 81.8117C124.597 81.594 124.667 81.347 124.643 81.0707C124.618 80.7838 124.501 80.5478 124.292 80.3626C124.093 80.1765 123.84 80.097 123.532 80.1239L121.651 80.2885L121.831 82.3446L123.728 82.1787Z" fill="white"/>
	<path d="M118.825 79.5399L118.927 80.7035L116.744 80.8945L117.275 86.9673L115.888 87.0886L115.357 81.0158L113.205 81.2041L113.103 80.0405L118.825 79.5399Z" fill="white"/>
	<path d="M111.391 82.8404C111.299 82.3988 111.086 82.0427 110.751 81.7721C110.427 81.49 109.925 81.3787 109.245 81.4382C108.873 81.4707 108.549 81.5686 108.275 81.7318C108.01 81.8941 107.793 82.1059 107.623 82.367C107.463 82.6166 107.349 82.8996 107.28 83.2161C107.211 83.5327 107.192 83.861 107.222 84.201C107.251 84.541 107.322 84.8614 107.434 85.1621C107.557 85.4619 107.724 85.7203 107.936 85.9374C108.147 86.1544 108.403 86.3194 108.702 86.4325C109.011 86.5446 109.368 86.583 109.772 86.5476C110.378 86.4947 110.813 86.3281 111.077 86.048C111.342 85.7678 111.514 85.4048 111.592 84.9589L112.979 84.8376C112.959 85.2142 112.878 85.5746 112.736 85.9189C112.594 86.2525 112.39 86.5541 112.125 86.8236C111.869 87.0816 111.545 87.2973 111.154 87.4707C110.762 87.6442 110.306 87.7537 109.785 87.7993C109.19 87.8513 108.66 87.7906 108.195 87.6171C107.73 87.4437 107.328 87.1951 106.99 86.8714C106.651 86.5477 106.382 86.1643 106.182 85.7214C105.994 85.2775 105.878 84.8111 105.835 84.3223C105.792 83.8335 105.825 83.3541 105.934 82.8842C106.053 82.4133 106.247 81.9895 106.513 81.6129C106.79 81.2246 107.142 80.9047 107.57 80.6531C108.008 80.4006 108.52 80.2488 109.104 80.1977C109.688 80.1466 110.195 80.1879 110.625 80.3216C111.064 80.4438 111.427 80.6261 111.716 80.8686C112.015 81.0994 112.248 81.3788 112.416 81.7068C112.595 82.0338 112.715 82.3712 112.778 82.7191L111.391 82.8404Z" fill="white"/>
	<path d="M105.019 80.7478L105.121 81.9114L102.937 82.1024L103.468 88.1752L102.081 88.2966L101.55 82.2238L99.3984 82.412L99.2966 81.2485L105.019 80.7478Z" fill="white"/>
	<path d="M93.509 85.7701C93.5466 86.0773 93.62 86.3654 93.7292 86.6342C93.8374 86.8924 93.9859 87.1203 94.1745 87.318C94.3728 87.5041 94.6156 87.6488 94.9031 87.7521C95.1896 87.8448 95.5347 87.8735 95.9385 87.8382C96.4805 87.7908 96.8798 87.6434 97.1366 87.3961C97.403 87.1372 97.5812 86.8486 97.6711 86.5302L99.0738 86.4075C99.0476 86.7203 98.9563 87.0228 98.7998 87.3148C98.6539 87.606 98.4522 87.8699 98.1945 88.1066C97.9368 88.3433 97.6276 88.5417 97.2668 88.7017C96.9061 88.8618 96.4972 88.9618 96.0403 89.0018C95.4346 89.0548 94.8945 89.0003 94.4199 88.8384C93.956 88.6755 93.5603 88.4371 93.2331 88.1231C92.9058 87.8091 92.6478 87.4301 92.459 86.9862C92.2694 86.5317 92.1517 86.0441 92.1062 85.5234C92.0588 84.9815 92.089 84.4702 92.1969 83.9897C92.3154 83.5082 92.5085 83.0844 92.7763 82.7183C93.0547 82.3513 93.4033 82.0532 93.8223 81.8238C94.2518 81.5935 94.7535 81.4532 95.3273 81.403C95.7949 81.3621 96.238 81.409 96.6566 81.5437C97.085 81.6668 97.461 81.8641 97.7845 82.1356C98.1187 82.4062 98.3885 82.7359 98.5938 83.1249C98.8089 83.5022 98.9364 83.9194 98.9764 84.3763C98.9857 84.4825 98.9915 84.6105 98.9939 84.7602C99.0069 84.909 99.0063 85.0857 98.9921 85.2904L93.509 85.7701ZM95.3889 82.4737C94.7619 82.5286 94.2677 82.7538 93.9061 83.1495C93.5437 83.5346 93.3806 84.0574 93.417 84.7181L97.609 84.3514C97.5532 83.7138 97.3129 83.2316 96.8881 82.9047C96.4731 82.5662 95.9733 82.4226 95.3889 82.4737Z" fill="white"/>
	<path d="M84.5959 82.5346L87.9431 82.2418C88.4 82.2018 88.7828 82.2325 89.0915 82.334C89.3993 82.4249 89.6465 82.5585 89.8333 82.7349C90.0297 82.8997 90.1696 83.0909 90.2528 83.3085C90.3352 83.5155 90.3852 83.7199 90.4029 83.9218C90.4401 84.3468 90.3127 84.7274 90.0209 85.0634C89.7388 85.3879 89.3716 85.5967 88.9193 85.6898C89.154 85.68 89.3814 85.7083 89.6013 85.7747C89.8213 85.8411 90.0175 85.9417 90.1899 86.0765C90.3623 86.2114 90.5056 86.3809 90.6198 86.585C90.734 86.7892 90.8028 87.0241 90.826 87.2897C90.8437 87.4916 90.8202 87.7132 90.7557 87.9544C90.7008 88.184 90.5866 88.4082 90.413 88.6268C90.2384 88.8348 89.9978 89.0218 89.6911 89.1878C89.3835 89.3432 88.9853 89.4423 88.4965 89.4851L85.229 89.771L84.5959 82.5346ZM86.3035 86.4487L86.4973 88.6642L88.4419 88.4941C88.7501 88.4671 88.9958 88.3386 89.1791 88.1084C89.373 87.8773 89.457 87.6129 89.4309 87.3154C89.4049 87.0179 89.2759 86.7668 89.0438 86.5623C88.8215 86.3462 88.5562 86.2516 88.2481 86.2786L86.3035 86.4487ZM88.1138 85.2945C88.422 85.2675 88.6575 85.1452 88.8205 84.9275C88.9835 84.7098 89.0529 84.4628 89.0287 84.1865C89.0036 83.8996 88.8866 83.6636 88.6777 83.4784C88.4794 83.2924 88.2261 83.2128 87.918 83.2398L86.0372 83.4043L86.217 85.4604L88.1138 85.2945Z" fill="white"/>
	<path d="M83.2114 82.6557L83.3132 83.8193L81.1295 84.0103L81.6608 90.0831L80.2741 90.2045L79.7428 84.1317L77.5911 84.3199L77.4893 83.1564L83.2114 82.6557Z" fill="white"/>
	<path d="M73.832 90.9447C73.2582 90.9949 72.7287 90.9396 72.2435 90.7786C71.7583 90.6176 71.3356 90.3762 70.9755 90.0543C70.6155 89.7325 70.3251 89.351 70.1045 88.9099C69.8839 88.4688 69.7512 87.9932 69.7066 87.4831C69.662 86.9731 69.71 86.4817 69.8507 86.009C69.9904 85.5256 70.2097 85.0942 70.5084 84.7147C70.8071 84.3352 71.1814 84.0241 71.6313 83.7813C72.0812 83.5385 72.593 83.392 73.1668 83.3418C73.7513 83.2907 74.2861 83.3456 74.7713 83.5066C75.2565 83.6676 75.6792 83.909 76.0393 84.2308C76.41 84.5517 76.7061 84.9381 76.9277 85.3898C77.1483 85.8309 77.2809 86.3065 77.3255 86.8166C77.3701 87.3266 77.3221 87.818 77.1815 88.2907C77.0408 88.7635 76.8158 89.19 76.5064 89.5704C76.2077 89.9499 75.8334 90.261 75.3835 90.5038C74.9336 90.7466 74.4165 90.8936 73.832 90.9447ZM73.7233 89.7015C74.0952 89.669 74.4238 89.5706 74.7093 89.4064C75.0054 89.2413 75.2499 89.0379 75.4429 88.7962C75.635 88.5438 75.776 88.2584 75.8659 87.94C75.9558 87.6217 75.9854 87.2871 75.9548 86.9365C75.9241 86.5858 75.8368 86.2615 75.693 85.9636C75.5491 85.6657 75.3607 85.4091 75.1277 85.1939C74.8948 84.9788 74.6182 84.8156 74.2979 84.7044C73.9883 84.5923 73.6475 84.5525 73.2756 84.585C72.9037 84.6176 72.575 84.7159 72.2896 84.8801C72.0041 85.0443 71.7654 85.2525 71.5733 85.5049C71.3919 85.7563 71.2562 86.0412 71.1663 86.3596C71.0763 86.678 71.0467 87.0125 71.0774 87.3632C71.1081 87.7139 71.1953 88.0382 71.3392 88.3361C71.483 88.634 71.6661 88.891 71.8885 89.1071C72.1205 89.3117 72.3913 89.47 72.701 89.5821C73.0106 89.6942 73.3513 89.734 73.7233 89.7015Z" fill="white"/>
	<path d="M64.913 91.7251C64.3392 91.7753 63.8097 91.7199 63.3244 91.5589C62.8392 91.3979 62.4166 91.1565 62.0565 90.8346C61.6964 90.5128 61.4061 90.1313 61.1854 89.6902C60.9648 89.2491 60.8322 88.7735 60.7876 88.2634C60.7429 87.7534 60.791 87.262 60.9316 86.7893C61.0714 86.3059 61.2906 85.8745 61.5893 85.495C61.8881 85.1155 62.2624 84.8044 62.7123 84.5616C63.1621 84.3188 63.674 84.1723 64.2478 84.1221C64.8322 84.071 65.3671 84.1259 65.8523 84.2869C66.3375 84.4479 66.7601 84.6893 67.1202 85.0111C67.4909 85.332 67.7871 85.7184 68.0086 86.1701C68.2292 86.6112 68.3618 87.0868 68.4065 87.5969C68.4511 88.1069 68.4031 88.5983 68.2624 89.071C68.1217 89.5438 67.8967 89.9703 67.5874 90.3507C67.2886 90.7302 66.9143 91.0414 66.4644 91.2842C66.0146 91.527 65.4974 91.6739 64.913 91.7251ZM64.8042 90.4818C65.1761 90.4493 65.5048 90.3509 65.7902 90.1867C66.0863 90.0217 66.3308 89.8182 66.5238 89.5765C66.7159 89.3241 66.8569 89.0387 66.9468 88.7204C67.0368 88.402 67.0664 88.0675 67.0357 87.7168C67.005 87.3661 66.9178 87.0418 66.7739 86.7439C66.6301 86.446 66.4417 86.1894 66.2087 85.9742C65.9757 85.7591 65.6991 85.5959 65.3789 85.4847C65.0692 85.3726 64.7285 85.3328 64.3566 85.3654C63.9847 85.3979 63.656 85.4962 63.3705 85.6604C63.0851 85.8246 62.8463 86.0329 62.6543 86.2852C62.4728 86.5367 62.3371 86.8216 62.2472 87.1399C62.1573 87.4583 62.1277 87.7929 62.1583 88.1435C62.189 88.4942 62.2763 88.8185 62.4201 89.1164C62.564 89.4143 62.7471 89.6714 62.9694 89.8875C63.2015 90.092 63.4723 90.2503 63.7819 90.3625C64.0915 90.4746 64.4323 90.5143 64.8042 90.4818Z" fill="white"/>
	<path d="M57.9389 87.5169C57.8467 87.0752 57.6336 86.7191 57.2994 86.4485C56.9749 86.1664 56.4726 86.0551 55.7925 86.1146C55.4206 86.1471 55.0973 86.245 54.8224 86.4083C54.5582 86.5706 54.3412 86.7823 54.1713 87.0434C54.0111 87.293 53.8967 87.5761 53.828 87.8926C53.7593 88.2091 53.7399 88.5374 53.7696 88.8774C53.7994 89.2175 53.8702 89.5378 53.9822 89.8386C54.1048 90.1384 54.272 90.3968 54.4837 90.6138C54.6954 90.8308 54.9508 90.9959 55.2498 91.1089C55.5594 91.221 55.9161 91.2594 56.3199 91.2241C56.9255 91.1711 57.3607 91.0045 57.6253 90.7244C57.8899 90.4443 58.0616 90.0813 58.1403 89.6354L59.527 89.5141C59.5064 89.8906 59.4255 90.2511 59.2843 90.5953C59.1422 90.929 58.9384 91.2306 58.6729 91.5001C58.417 91.758 58.0933 91.9737 57.7016 92.1472C57.3099 92.3206 56.8537 92.4302 56.333 92.4757C55.7379 92.5278 55.208 92.4671 54.7431 92.2936C54.2782 92.1201 53.8763 91.8715 53.5375 91.5478C53.1987 91.2241 52.9296 90.8408 52.7302 90.3978C52.5414 89.9539 52.4257 89.4876 52.3829 88.9988C52.3402 88.51 52.3732 88.0306 52.482 87.5606C52.6014 87.0898 52.7945 86.666 53.0614 86.2893C53.3379 85.9011 53.69 85.5812 54.1177 85.3296C54.5561 85.0771 55.0675 84.9253 55.6519 84.8741C56.2363 84.823 56.7432 84.8643 57.1725 84.9981C57.6115 85.1203 57.9754 85.3026 58.2643 85.545C58.5629 85.7759 58.7961 86.0553 58.964 86.3832C59.1425 86.7102 59.2631 87.0477 59.3256 87.3956L57.9389 87.5169Z" fill="white"/>
	<path d="M40.8411 86.3627L44.1883 86.0698C44.6453 86.0298 45.0281 86.0606 45.3368 86.1621C45.6445 86.2529 45.8918 86.3865 46.0785 86.5629C46.275 86.7278 46.4148 86.919 46.4981 87.1366C46.5805 87.3435 46.6305 87.5479 46.6481 87.7498C46.6853 88.1749 46.558 88.5554 46.2662 88.8915C45.984 89.2159 45.6169 89.4247 45.1646 89.5179C45.3993 89.508 45.6266 89.5363 45.8466 89.6027C46.0665 89.6691 46.2627 89.7698 46.4351 89.9046C46.6075 90.0394 46.7508 90.2089 46.8651 90.4131C46.9793 90.6172 47.048 90.8521 47.0713 91.1178C47.0889 91.3197 47.0655 91.5412 47.0009 91.7824C46.9461 92.0121 46.8318 92.2362 46.6582 92.4548C46.4837 92.6629 46.2431 92.8499 45.9364 93.0159C45.6288 93.1713 45.2305 93.2704 44.7418 93.3131L41.4742 93.599L40.8411 86.3627ZM42.5488 90.2767L42.7426 92.4923L44.6872 92.3221C44.9953 92.2952 45.2411 92.1666 45.4244 91.9364C45.6183 91.7053 45.7022 91.441 45.6762 91.1434C45.6502 90.8459 45.5211 90.5949 45.2891 90.3903C45.0667 90.1742 44.8015 90.0796 44.4933 90.1066L42.5488 90.2767ZM44.3591 89.1225C44.6672 89.0956 44.9028 88.9733 45.0658 88.7556C45.2287 88.5379 45.2981 88.2909 45.274 88.0146C45.2489 87.7277 45.1319 87.4917 44.9229 87.3065C44.7246 87.1204 44.4714 87.0408 44.1632 87.0678L42.2824 87.2323L42.4623 89.2885L44.3591 89.1225Z" fill="white"/>
	<path d="M255.312 52.8066L254.053 52.9168L253.523 46.8599L251.439 53.1455L250.498 53.2277L247.354 47.3996L247.884 53.4564L246.625 53.5666L245.992 46.3302L248.016 46.1531L250.813 51.321L252.671 45.7459L254.679 45.5702L255.312 52.8066Z" fill="white"/>
	<path d="M243.511 46.5473L244.144 53.7837L242.773 53.9036L242.663 52.6444C242.468 53.1112 242.148 53.4925 241.703 53.7884C241.268 54.0834 240.785 54.2542 240.254 54.3007C239.702 54.349 239.188 54.2922 238.713 54.1303C238.239 53.9684 237.821 53.7265 237.461 53.4047C237.112 53.0819 236.827 52.6999 236.606 52.2588C236.386 51.8177 236.253 51.3421 236.208 50.8321C236.164 50.322 236.212 49.8306 236.352 49.3579C236.492 48.8746 236.706 48.4436 236.994 48.0651C237.293 47.6856 237.662 47.3749 238.101 47.133C238.54 46.8912 239.036 46.746 239.589 46.6977C240.12 46.6512 240.625 46.7355 241.105 46.9506C241.595 47.1647 241.976 47.4847 242.249 47.9105L242.14 46.6673L243.511 46.5473ZM240.225 53.0504C240.597 53.0179 240.926 52.9196 241.211 52.7554C241.507 52.5903 241.752 52.3869 241.945 52.1451C242.137 51.8928 242.278 51.6074 242.368 51.289C242.458 50.9706 242.487 50.6361 242.456 50.2854C242.426 49.9348 242.339 49.6105 242.195 49.3125C242.051 49.0146 241.862 48.7581 241.629 48.5429C241.397 48.3277 241.12 48.1645 240.8 48.0533C240.49 47.9412 240.149 47.9014 239.777 47.934C239.405 47.9665 239.077 48.0649 238.791 48.229C238.506 48.3932 238.267 48.6015 238.075 48.8539C237.894 49.1053 237.758 49.3902 237.668 49.7086C237.578 50.027 237.548 50.3615 237.579 50.7121C237.61 51.0628 237.697 51.3871 237.841 51.685C237.985 51.983 238.168 52.24 238.39 52.4561C238.622 52.6606 238.893 52.819 239.203 52.9311C239.512 53.0432 239.853 53.083 240.225 53.0504Z" fill="white"/>
	<path d="M232.983 51.6603L229.142 51.9964L229.411 55.0726L228.024 55.194L227.391 47.9576L228.778 47.8363L229.04 50.8328L232.881 50.4968L232.619 47.5002L233.99 47.3803L234.623 54.6166L233.252 54.7366L232.983 51.6603Z" fill="white"/>
	<path d="M220.194 52.6025C220.232 52.9098 220.305 53.1978 220.414 53.4666C220.523 53.7249 220.671 53.9528 220.86 54.1504C221.058 54.3365 221.301 54.4812 221.588 54.5846C221.875 54.6773 222.22 54.706 222.624 54.6707C223.166 54.6233 223.565 54.4759 223.822 54.2286C224.088 53.9697 224.266 53.6811 224.356 53.3627L225.759 53.24C225.733 53.5528 225.641 53.8552 225.485 54.1473C225.339 54.4385 225.137 54.7024 224.88 54.9391C224.622 55.1758 224.313 55.3741 223.952 55.5342C223.591 55.6942 223.182 55.7942 222.725 55.8342C222.12 55.8872 221.58 55.8328 221.105 55.6708C220.641 55.508 220.245 55.2696 219.918 54.9555C219.591 54.6415 219.333 54.2626 219.144 53.8187C218.954 53.3642 218.837 52.8765 218.791 52.3559C218.744 51.8139 218.774 51.3027 218.882 50.8221C219 50.3406 219.194 49.9169 219.461 49.5508C219.74 49.1838 220.088 48.8856 220.507 48.6562C220.937 48.4259 221.439 48.2857 222.012 48.2354C222.48 48.1945 222.923 48.2414 223.342 48.3761C223.77 48.4993 224.146 48.6966 224.47 48.9681C224.804 49.2386 225.074 49.5684 225.279 49.9573C225.494 50.3347 225.621 50.7518 225.661 51.2087C225.671 51.315 225.677 51.443 225.679 51.5927C225.692 51.7414 225.691 51.9182 225.677 52.1228L220.194 52.6025ZM222.074 49.3062C221.447 49.361 220.953 49.5863 220.591 49.982C220.229 50.367 220.066 50.8899 220.102 51.5506L224.294 51.1838C224.238 50.5462 223.998 50.064 223.573 49.7371C223.158 49.3987 222.658 49.255 222.074 49.3062Z" fill="white"/>
	<path d="M216.689 57.5027L216.575 56.1957L210.326 56.7423L209.693 49.506L211.08 49.3846L211.611 55.4575L215.277 55.1367L214.746 49.0639L216.133 48.9426L216.664 55.0154L217.843 54.9122L218.06 57.3828L216.689 57.5027Z" fill="white"/>
	<path d="M203.806 57.3128L202.546 57.423L202.017 51.3661L199.932 57.6517L198.992 57.734L195.848 51.9058L196.378 57.9627L195.119 58.0728L194.486 50.8365L196.51 50.6594L199.307 55.8272L201.164 50.2522L203.173 50.0765L203.806 57.3128Z" fill="white"/>
	<path d="M190.635 51.1733L192.006 51.0534L192.639 58.2898L191.268 58.4097L190.635 51.1733ZM184.244 51.7325L185.551 51.6182L185.77 54.1206L187.714 53.9505C188.086 53.918 188.416 53.9534 188.703 54.0567C189 54.1485 189.254 54.2976 189.465 54.504C189.675 54.6998 189.84 54.9369 189.961 55.2155C190.092 55.4931 190.172 55.7966 190.201 56.126C190.229 56.4448 190.202 56.7523 190.121 57.0485C190.051 57.3437 189.929 57.606 189.756 57.8353C189.584 58.0645 189.36 58.2555 189.084 58.4081C188.808 58.5607 188.484 58.6533 188.112 58.6858L184.877 58.9689L184.244 51.7325ZM185.867 55.2364L186.086 57.7388L187.776 57.591C188.179 57.5557 188.477 57.4118 188.669 57.1594C188.871 56.8955 188.957 56.5882 188.926 56.2376C188.894 55.8657 188.761 55.5721 188.528 55.3569C188.295 55.1417 187.976 55.0518 187.573 55.0871L185.867 55.2364Z" fill="white"/>
	<path d="M180.745 56.2305L176.904 56.5666L177.173 59.6429L175.786 59.7642L175.153 52.5278L176.54 52.4065L176.802 55.4031L180.644 55.067L180.381 52.0704L181.752 51.9505L182.385 59.1869L181.014 59.3068L180.745 56.2305Z" fill="white"/>
	<path d="M166.069 62.2847L165.828 59.5272L166.083 59.5049C166.678 59.4529 167.105 59.196 167.364 58.7343C167.634 58.261 167.736 57.6525 167.671 56.9087L167.347 53.2108L172.687 52.7436L173.224 58.8802L173.957 58.816L174.198 61.5735L172.955 61.6823L172.81 60.0246L167.167 60.5183L167.312 62.1759L166.069 62.2847ZM171.932 58.9931L171.49 53.9404L168.733 54.1817L168.939 56.5407C169.001 57.242 168.961 57.829 168.82 58.3018C168.69 58.7735 168.426 59.1179 168.027 59.3348L171.932 58.9931Z" fill="white"/>
	<path d="M161.292 61.209C160.718 61.2592 160.189 61.2038 159.703 61.0428C159.218 60.8818 158.796 60.6404 158.435 60.3185C158.075 59.9967 157.785 59.6152 157.564 59.1741C157.344 58.733 157.211 58.2574 157.167 57.7473C157.122 57.2373 157.17 56.7459 157.311 56.2732C157.45 55.7898 157.67 55.3584 157.968 54.9789C158.267 54.5994 158.641 54.2883 159.091 54.0455C159.541 53.8027 160.053 53.6562 160.627 53.606C161.211 53.5549 161.746 53.6098 162.231 53.7708C162.716 53.9318 163.139 54.1732 163.499 54.495C163.87 54.8159 164.166 55.2023 164.388 55.654C164.608 56.0951 164.741 56.5707 164.785 57.0808C164.83 57.5908 164.782 58.0822 164.641 58.5549C164.501 59.0277 164.276 59.4542 163.966 59.8346C163.668 60.2141 163.293 60.5253 162.843 60.7681C162.394 61.0109 161.876 61.1578 161.292 61.209ZM161.183 59.9657C161.555 59.9332 161.884 59.8348 162.169 59.6706C162.465 59.5055 162.71 59.3021 162.903 59.0604C163.095 58.808 163.236 58.5226 163.326 58.2043C163.416 57.8859 163.445 57.5514 163.415 57.2007C163.384 56.85 163.297 56.5257 163.153 56.2278C163.009 55.9299 162.821 55.6733 162.588 55.4581C162.355 55.243 162.078 55.0798 161.758 54.9686C161.448 54.8565 161.107 54.8167 160.736 54.8492C160.364 54.8818 160.035 54.9801 159.749 55.1443C159.464 55.3085 159.225 55.5167 159.033 55.7691C158.852 56.0206 158.716 56.3055 158.626 56.6238C158.536 56.9422 158.507 57.2767 158.537 57.6274C158.568 57.9781 158.655 58.3024 158.799 58.6003C158.943 58.8982 159.126 59.1552 159.348 59.3714C159.58 59.5759 159.851 59.7342 160.161 59.8464C160.47 59.9585 160.811 59.9982 161.183 59.9657Z" fill="white"/>
	<path d="M156.514 54.1585L156.616 55.3221L153.652 55.5814L154.183 61.6543L152.796 61.7756L152.163 54.5392L156.514 54.1585Z" fill="white"/>
	<path d="M148.312 54.8761L149.683 54.7562L150.316 61.9925L148.946 62.1125L148.312 54.8761ZM141.921 55.4353L143.228 55.3209L143.447 57.8234L145.391 57.6532C145.763 57.6207 146.093 57.6561 146.38 57.7595C146.678 57.8512 146.932 58.0003 147.142 58.2068C147.352 58.4025 147.517 58.6397 147.638 58.9182C147.77 59.1958 147.85 59.4994 147.878 59.8288C147.906 60.1475 147.88 60.455 147.799 60.7512C147.728 61.0465 147.606 61.3088 147.434 61.538C147.261 61.7673 147.037 61.9582 146.761 62.1108C146.485 62.2634 146.162 62.356 145.79 62.3886L142.554 62.6716L141.921 55.4353ZM143.544 58.9391L143.763 61.4416L145.453 61.2937C145.857 61.2584 146.155 61.1146 146.347 60.8622C146.548 60.5983 146.634 60.291 146.603 59.9403C146.571 59.5684 146.438 59.2749 146.205 59.0597C145.972 58.8445 145.654 58.7546 145.25 58.7899L143.544 58.9391Z" fill="white"/>
	<path d="M134.169 56.1135L137.516 55.8206C137.973 55.7806 138.356 55.8114 138.665 55.9129C138.973 56.0037 139.22 56.1374 139.407 56.3138C139.603 56.4786 139.743 56.6698 139.826 56.8874C139.909 57.0943 139.959 57.2987 139.976 57.5006C140.013 57.9257 139.886 58.3062 139.594 58.6423C139.312 58.9668 138.945 59.1756 138.493 59.2687C138.727 59.2588 138.955 59.2871 139.175 59.3535C139.395 59.42 139.591 59.5206 139.763 59.6554C139.936 59.7902 140.079 59.9597 140.193 60.1639C140.307 60.368 140.376 60.6029 140.399 60.8686C140.417 61.0705 140.394 61.292 140.329 61.5332C140.274 61.7629 140.16 61.987 139.986 62.2057C139.812 62.4137 139.571 62.6007 139.265 62.7667C138.957 62.9221 138.559 63.0212 138.07 63.064L134.802 63.3498L134.169 56.1135ZM135.877 60.0275L136.071 62.2431L138.015 62.0729C138.323 62.046 138.569 61.9174 138.752 61.6872C138.946 61.4561 139.03 61.1918 139.004 60.8942C138.978 60.5967 138.849 60.3457 138.617 60.1411C138.395 59.925 138.13 59.8304 137.821 59.8574L135.877 60.0275ZM137.687 58.8734C137.995 58.8464 138.231 58.7241 138.394 58.5064C138.557 58.2887 138.626 58.0417 138.602 57.7654C138.577 57.4785 138.46 57.2425 138.251 57.0573C138.053 56.8712 137.8 56.7916 137.491 56.8186L135.611 56.9832L135.79 59.0393L137.687 58.8734Z" fill="white"/>
	<path d="M125.071 64.3779C124.497 64.4281 123.968 64.3727 123.482 64.2117C122.997 64.0507 122.575 63.8093 122.214 63.4875C121.854 63.1656 121.564 62.7841 121.343 62.343C121.123 61.9019 120.99 61.4263 120.946 60.9163C120.901 60.4062 120.949 59.9148 121.09 59.4421C121.229 58.9587 121.449 58.5273 121.747 58.1479C122.046 57.7684 122.42 57.4572 122.87 57.2144C123.32 56.9716 123.832 56.8251 124.406 56.7749C124.99 56.7238 125.525 56.7787 126.01 56.9397C126.495 57.1007 126.918 57.3421 127.278 57.664C127.649 57.9849 127.945 58.3712 128.167 58.8229C128.387 59.2641 128.52 59.7396 128.564 60.2497C128.609 60.7597 128.561 61.2511 128.42 61.7239C128.28 62.1966 128.055 62.6232 127.745 63.0036C127.447 63.383 127.072 63.6942 126.622 63.937C126.173 64.1798 125.655 64.3268 125.071 64.3779ZM124.962 63.1346C125.334 63.1021 125.663 63.0037 125.948 62.8396C126.244 62.6745 126.489 62.4711 126.682 62.2293C126.874 61.9769 127.015 61.6916 127.105 61.3732C127.195 61.0548 127.224 60.7203 127.194 60.3696C127.163 60.019 127.076 59.6947 126.932 59.3967C126.788 59.0988 126.6 58.8423 126.367 58.6271C126.134 58.4119 125.857 58.2487 125.537 58.1375C125.227 58.0254 124.886 57.9856 124.515 58.0182C124.143 58.0507 123.814 58.1491 123.528 58.3132C123.243 58.4774 123.004 58.6857 122.812 58.938C122.631 59.1895 122.495 59.4744 122.405 59.7928C122.315 60.1112 122.286 60.4457 122.316 60.7963C122.347 61.147 122.434 61.4713 122.578 61.7692C122.722 62.0672 122.905 62.3242 123.127 62.5403C123.359 62.7448 123.63 62.9032 123.94 63.0153C124.249 63.1274 124.59 63.1672 124.962 63.1346Z" fill="white"/>
	<path d="M119.359 64.7009L117.973 64.8222L117.441 58.7494L113.664 59.0799L114.195 65.1527L112.808 65.2741L112.175 58.0377L118.726 57.4646L119.359 64.7009Z" fill="white"/>
	<path d="M100.688 59.0427L101.995 58.9284L102.214 61.4308L104.158 61.2607C104.53 61.2281 104.86 61.2635 105.147 61.3669C105.444 61.4587 105.698 61.6078 105.909 61.8142C106.119 62.01 106.284 62.2471 106.405 62.5257C106.536 62.8033 106.617 63.1068 106.645 63.4362C106.673 63.755 106.647 64.0625 106.565 64.3587C106.495 64.6539 106.373 64.9162 106.201 65.1455C106.028 65.3747 105.804 65.5656 105.528 65.7183C105.252 65.8709 104.928 65.9635 104.557 65.996L101.321 66.2791L100.688 59.0427ZM102.311 62.5465L102.53 65.049L104.22 64.9012C104.624 64.8658 104.922 64.722 105.114 64.4696C105.315 64.2057 105.401 63.8984 105.37 63.5478C105.338 63.1758 105.205 62.8823 104.972 62.6671C104.739 62.4519 104.421 62.362 104.017 62.3973L102.311 62.5465Z" fill="white"/>
	<path d="M91.3337 66.0446L91.7162 66.0112C91.9712 65.9888 92.1685 65.918 92.308 65.7988C92.4474 65.6795 92.5023 65.4498 92.4725 65.1098L92.0082 59.8021L98.2085 59.2596L98.8416 66.496L97.4549 66.6173L96.9236 60.5445L93.4967 60.8443L93.8718 65.1319C93.9294 65.7908 93.7916 66.2954 93.4582 66.6457C93.1345 66.9846 92.6857 67.1791 92.1119 67.2293L91.4425 67.2879L91.3337 66.0446Z" fill="white"/>
	<path d="M86.6863 67.7361C86.1125 67.7863 85.583 67.7309 85.0978 67.5699C84.6126 67.4089 84.1899 67.1675 83.8298 66.8457C83.4697 66.5238 83.1794 66.1424 82.9588 65.7012C82.7381 65.2601 82.6055 64.7845 82.5609 64.2745C82.5163 63.7644 82.5643 63.273 82.705 62.8003C82.8447 62.317 83.0639 61.8856 83.3627 61.5061C83.6614 61.1266 84.0357 60.8154 84.4856 60.5726C84.9355 60.3298 85.4473 60.1833 86.0211 60.1331C86.6056 60.082 87.1404 60.1369 87.6256 60.2979C88.1108 60.4589 88.5335 60.7003 88.8935 61.0222C89.2643 61.3431 89.5604 61.7294 89.7819 62.1812C90.0026 62.6223 90.1352 63.0979 90.1798 63.6079C90.2244 64.118 90.1764 64.6094 90.0357 65.0821C89.8951 65.5548 89.6701 65.9814 89.3607 66.3618C89.062 66.7413 88.6877 67.0524 88.2378 67.2952C87.7879 67.538 87.2707 67.685 86.6863 67.7361ZM86.5775 66.4929C86.9494 66.4603 87.2781 66.362 87.5636 66.1978C87.8596 66.0327 88.1042 65.8293 88.2972 65.5875C88.4892 65.3352 88.6302 65.0498 88.7202 64.7314C88.8101 64.413 88.8397 64.0785 88.809 63.7278C88.7784 63.3772 88.6911 63.0529 88.5472 62.755C88.4034 62.457 88.215 62.2005 87.982 61.9853C87.749 61.7701 87.4724 61.6069 87.1522 61.4958C86.8426 61.3836 86.5018 61.3439 86.1299 61.3764C85.758 61.4089 85.4293 61.5073 85.1439 61.6715C84.8584 61.8356 84.6197 62.0439 84.4276 62.2963C84.2462 62.5477 84.1105 62.8326 84.0205 63.151C83.9306 63.4694 83.901 63.8039 83.9317 64.1546C83.9623 64.5052 84.0496 64.8295 84.1935 65.1274C84.3373 65.4254 84.5204 65.6824 84.7427 65.8985C84.9748 66.1031 85.2456 66.2614 85.5552 66.3735C85.8649 66.4856 86.2056 66.5254 86.5775 66.4929Z" fill="white"/>
	<path d="M81.9088 60.6857L82.0106 61.8492L79.0459 62.1086L79.5772 68.1814L78.1905 68.3027L77.5574 61.0664L81.9088 60.6857Z" fill="white"/>
	<path d="M72.4905 68.9781C71.9167 69.0283 71.3872 68.9729 70.902 68.8119C70.4168 68.6509 69.9941 68.4095 69.634 68.0876C69.274 67.7658 68.9836 67.3843 68.763 66.9432C68.5424 66.5021 68.4097 66.0265 68.3651 65.5165C68.3205 65.0064 68.3685 64.515 68.5092 64.0423C68.6489 63.5589 68.8682 63.1275 69.1669 62.748C69.4656 62.3686 69.8399 62.0574 70.2898 61.8146C70.7397 61.5718 71.2516 61.4253 71.8254 61.3751C72.4098 61.324 72.9446 61.3789 73.4298 61.5399C73.915 61.7009 74.3377 61.9423 74.6978 62.2642C75.0685 62.5851 75.3646 62.9714 75.5862 63.4231C75.8068 63.8642 75.9394 64.3398 75.984 64.8499C76.0286 65.3599 75.9806 65.8513 75.84 66.3241C75.6993 66.7968 75.4743 67.2233 75.1649 67.6038C74.8662 67.9832 74.4919 68.2944 74.042 68.5372C73.5921 68.78 73.075 68.9269 72.4905 68.9781ZM72.3818 67.7348C72.7537 67.7023 73.0823 67.6039 73.3678 67.4398C73.6639 67.2747 73.9084 67.0712 74.1014 66.8295C74.2935 66.5771 74.4345 66.2918 74.5244 65.9734C74.6143 65.655 74.6439 65.3205 74.6133 64.9698C74.5826 64.6192 74.4953 64.2949 74.3515 63.9969C74.2076 63.699 74.0192 63.4424 73.7862 63.2273C73.5533 63.0121 73.2767 62.8489 72.9564 62.7377C72.6468 62.6256 72.306 62.5858 71.9341 62.6184C71.5622 62.6509 71.2335 62.7493 70.9481 62.9134C70.6626 63.0776 70.4239 63.2859 70.2318 63.5382C70.0504 63.7897 69.9147 64.0746 69.8248 64.393C69.7348 64.7113 69.7052 65.0459 69.7359 65.3965C69.7666 65.7472 69.8538 66.0715 69.9977 66.3694C70.1415 66.6673 70.3246 66.9244 70.547 67.1405C70.779 67.345 71.0498 67.5034 71.3595 67.6155C71.6691 67.7276 72.0098 67.7674 72.3818 67.7348Z" fill="white"/>
	<path d="M62.7321 65.4953L62.9552 65.4758C63.1678 65.4572 63.3588 65.3763 63.5283 65.2329C63.6977 65.0896 63.8651 64.8608 64.0303 64.5466L64.8508 63.0935C65.0549 62.733 65.2721 62.4624 65.5025 62.2816C65.733 62.1009 66.0342 61.9942 66.4061 61.9617L67.1393 61.8975L67.2383 63.0292L66.808 63.0669C66.5954 63.0854 66.4185 63.1438 66.2772 63.2418C66.1359 63.3398 66.0001 63.5016 65.8699 63.7271L65.3583 64.6713C65.1552 65.0424 64.937 65.3024 64.7038 65.4513C64.4696 65.5896 64.2211 65.6863 63.9582 65.7414L67.9547 69.1982L66.2811 69.3447L62.799 66.2604L63.0933 69.6236L61.7066 69.7449L61.0735 62.5085L62.4602 62.3872L62.7321 65.4953Z" fill="white"/>
	<path d="M51.7194 69.5104L52.1019 69.477C52.357 69.4546 52.5542 69.3838 52.6937 69.2646C52.8331 69.1453 52.888 68.9156 52.8582 68.5756L52.3939 63.2679L58.5942 62.7254L59.2273 69.9618L57.8406 70.0831L57.3093 64.0103L53.8824 64.3101L54.2575 68.5977C54.3151 69.2566 54.1773 69.7612 53.8439 70.1116C53.5202 70.4504 53.0714 70.6449 52.4976 70.6951L51.8282 70.7537L51.7194 69.5104Z" fill="white"/>
	<path d="M49.6575 63.5073L50.2906 70.7436L48.9198 70.8636L48.8096 69.6044C48.6149 70.0711 48.2949 70.4525 47.8497 70.7484C47.4151 71.0434 46.9321 71.2141 46.4008 71.2606C45.8483 71.309 45.3347 71.2522 44.8601 71.0903C44.3855 70.9283 43.9682 70.6865 43.6081 70.3646C43.2586 70.0418 42.9736 69.6599 42.753 69.2188C42.5324 68.7777 42.3997 68.3021 42.3551 67.792C42.3105 67.282 42.3585 66.7906 42.4992 66.3179C42.6389 65.8345 42.8528 65.4036 43.1409 65.025C43.4397 64.6455 43.8087 64.3349 44.2479 64.093C44.6872 63.8511 45.1831 63.706 45.7356 63.6577C46.2669 63.6112 46.7722 63.6955 47.2514 63.9105C47.7413 64.1246 48.1226 64.4446 48.3955 64.8705L48.2867 63.6272L49.6575 63.5073ZM46.3717 70.0104C46.7436 69.9779 47.0723 69.8795 47.3578 69.7153C47.6538 69.5502 47.8984 69.3468 48.0914 69.1051C48.2834 68.8527 48.4244 68.5673 48.5144 68.249C48.6043 67.9306 48.6339 67.5961 48.6032 67.2454C48.5726 66.8947 48.4853 66.5704 48.3415 66.2725C48.1976 65.9746 48.0092 65.718 47.7762 65.5028C47.5432 65.2877 47.2666 65.1245 46.9464 65.0133C46.6368 64.9012 46.296 64.8614 45.9241 64.8939C45.5522 64.9265 45.2235 65.0248 44.9381 65.189C44.6526 65.3532 44.4139 65.5614 44.2218 65.8138C44.0404 66.0653 43.9047 66.3502 43.8147 66.6685C43.7248 66.9869 43.6952 67.3214 43.7259 67.6721C43.7565 68.0228 43.8438 68.3471 43.9877 68.645C44.1315 68.9429 44.3146 69.1999 44.537 69.4161C44.769 69.6206 45.0398 69.7789 45.3494 69.8911C45.6591 70.0032 45.9998 70.0429 46.3717 70.0104Z" fill="white"/>
	<path d="M253.251 23.6112L254.558 23.4968L254.777 25.9993L256.721 25.8291C257.093 25.7966 257.423 25.832 257.71 25.9353C258.007 26.0271 258.261 26.1762 258.472 26.3826C258.682 26.5784 258.847 26.8156 258.968 27.0941C259.099 27.3717 259.179 27.6752 259.208 28.0046C259.236 28.3234 259.209 28.6309 259.128 28.9271C259.058 29.2224 258.936 29.4847 258.763 29.7139C258.591 29.9432 258.367 30.1341 258.091 30.2867C257.815 30.4393 257.491 30.5319 257.119 30.5644L253.884 30.8475L253.251 23.6112ZM254.874 27.115L255.093 29.6174L256.783 29.4696C257.186 29.4343 257.484 29.2904 257.676 29.0381C257.878 28.7742 257.964 28.4669 257.933 28.1162C257.9 27.7443 257.768 27.4507 257.535 27.2356C257.302 27.0204 256.983 26.9305 256.58 26.9658L254.874 27.115Z" fill="white"/>
	<path d="M251.866 23.7323L251.968 24.8958L249.784 25.0869L250.316 31.1597L248.929 31.281L248.398 25.2082L246.246 25.3965L246.144 24.2329L251.866 23.7323Z" fill="white"/>
	<path d="M244.745 24.3553L245.378 31.5916L244.008 31.7116L243.897 30.4524C243.703 30.9191 243.383 31.3005 242.938 31.5964C242.503 31.8914 242.02 32.0621 241.489 32.1086C240.936 32.157 240.423 32.1002 239.948 31.9383C239.473 31.7763 239.056 31.5344 238.696 31.2126C238.346 30.8898 238.061 30.5079 237.841 30.0668C237.62 29.6257 237.488 29.1501 237.443 28.64C237.398 28.13 237.446 27.6386 237.587 27.1659C237.727 26.6825 237.941 26.2516 238.229 25.873C238.528 25.4935 238.897 25.1828 239.336 24.941C239.775 24.6991 240.271 24.554 240.823 24.5057C241.355 24.4592 241.86 24.5435 242.339 24.7585C242.829 24.9726 243.21 25.2926 243.483 25.7185L243.375 24.4752L244.745 24.3553ZM241.46 30.8584C241.832 30.8259 242.16 30.7275 242.446 30.5633C242.742 30.3982 242.986 30.1948 243.179 29.9531C243.371 29.7007 243.512 29.4153 243.602 29.0969C243.692 28.7786 243.722 28.444 243.691 28.0934C243.66 27.7427 243.573 27.4184 243.429 27.1205C243.285 26.8226 243.097 26.566 242.864 26.3508C242.631 26.1357 242.354 25.9725 242.034 25.8613C241.725 25.7492 241.384 25.7094 241.012 25.7419C240.64 25.7745 240.311 25.8728 240.026 26.037C239.74 26.2012 239.502 26.4094 239.31 26.6618C239.128 26.9132 238.993 27.1981 238.903 27.5165C238.813 27.8349 238.783 28.1694 238.814 28.5201C238.844 28.8708 238.932 29.1951 239.076 29.493C239.219 29.7909 239.402 30.0479 239.625 30.264C239.857 30.4686 240.128 30.6269 240.437 30.739C240.747 30.8511 241.088 30.8909 241.46 30.8584Z" fill="white"/>
	<path d="M229.67 26.927C229.865 26.4602 230.179 26.0793 230.614 25.7843C231.049 25.4893 231.532 25.3186 232.063 25.2721C232.615 25.2238 233.129 25.2806 233.604 25.4425C234.089 25.6035 234.506 25.8454 234.856 26.1681C235.216 26.49 235.506 26.8768 235.728 27.3285C235.949 27.7696 236.081 28.2452 236.126 28.7553C236.17 29.2653 236.122 29.7567 235.982 30.2294C235.841 30.7021 235.621 31.1283 235.323 31.5077C235.035 31.8863 234.666 32.197 234.216 32.4398C233.776 32.6816 233.281 32.8267 232.728 32.8751C232.197 32.9216 231.691 32.8373 231.212 32.6222C230.733 32.4072 230.357 32.0867 230.084 31.6609L230.537 36.8411L229.151 36.9624L228.174 25.805L229.561 25.6837L229.67 26.927ZM232.108 26.5209C231.736 26.5535 231.402 26.6523 231.106 26.8174C230.82 26.9816 230.582 27.1898 230.39 27.4422C230.198 27.6946 230.057 27.9799 229.967 28.2983C229.877 28.6167 229.847 28.9512 229.878 29.3019C229.908 29.6526 229.996 29.9769 230.14 30.2748C230.283 30.5727 230.472 30.8293 230.705 31.0444C230.937 31.249 231.208 31.4073 231.517 31.5194C231.837 31.6306 232.184 31.6699 232.555 31.6374C232.917 31.6058 233.24 31.5079 233.526 31.3437C233.811 31.1796 234.045 30.9771 234.227 30.7363C234.419 30.4839 234.56 30.1985 234.65 29.8801C234.74 29.5618 234.77 29.2272 234.739 28.8766C234.708 28.5259 234.621 28.2016 234.477 27.9037C234.334 27.6058 234.145 27.3492 233.912 27.134C233.69 26.9179 233.424 26.7538 233.114 26.6417C232.805 26.5296 232.469 26.4893 232.108 26.5209Z" fill="white"/>
	<path d="M224.502 28.3427L221.146 33.1175L221.197 33.7072L219.811 33.8285L219.178 26.5922L220.564 26.4708L221.009 31.5554L224.363 26.7488L224.31 26.1431L225.681 26.0232L226.314 33.2596L224.943 33.3795L224.502 28.3427Z" fill="white"/>
	<path d="M210.97 29.1894C211.037 28.8516 211.16 28.5463 211.34 28.2737C211.519 27.9903 211.728 27.7525 211.968 27.5602C212.219 27.3669 212.489 27.2148 212.779 27.1037C213.079 26.9811 213.383 26.9064 213.691 26.8794C214.255 26.8301 214.763 26.8874 215.216 27.0512C215.68 27.214 216.076 27.4578 216.404 27.7824C216.743 28.1061 217.013 28.4947 217.213 28.9483C217.412 29.3913 217.534 29.8678 217.579 30.3779C217.624 30.8879 217.576 31.3793 217.435 31.8521C217.294 32.3248 217.075 32.7509 216.776 33.1304C216.477 33.5098 216.103 33.821 215.653 34.0638C215.214 34.3057 214.718 34.4508 214.165 34.4991C213.496 34.5577 212.901 34.4866 212.38 34.2859C211.858 34.0746 211.413 33.7548 211.043 33.3267C210.674 32.8986 210.381 32.3675 210.165 31.7332C209.949 31.099 209.806 30.3834 209.736 29.5864C209.681 28.9595 209.67 28.3984 209.701 27.9031C209.743 27.3962 209.816 26.9454 209.92 26.5508C210.035 26.1446 210.175 25.795 210.343 25.502C210.509 25.1984 210.689 24.931 210.883 24.6999C211.35 24.1665 211.894 23.7762 212.515 23.5292C213.135 23.2715 213.854 23.1069 214.672 23.0353L216.123 22.9084L216.24 24.2473L214.407 24.4077C213.854 24.456 213.356 24.5745 212.912 24.7633C212.467 24.9414 212.1 25.2144 211.811 25.5823C211.475 26.0187 211.237 26.5427 211.097 27.1545C210.969 27.7654 210.927 28.4437 210.97 29.1894ZM213.977 33.2628C214.338 33.2312 214.661 33.1333 214.947 32.9692C215.243 32.8041 215.488 32.6006 215.681 32.3589C215.873 32.1065 216.014 31.8212 216.104 31.5028C216.193 31.1844 216.223 30.8499 216.192 30.4992C216.162 30.1485 216.074 29.8242 215.931 29.5263C215.787 29.2284 215.598 28.9718 215.365 28.7567C215.132 28.5415 214.856 28.3783 214.536 28.2671C214.226 28.155 213.89 28.1148 213.529 28.1464C213.157 28.1789 212.823 28.2724 212.526 28.4269C212.239 28.5804 212 28.7834 211.808 29.0357C211.616 29.2881 211.476 29.5788 211.387 29.9078C211.307 30.2253 211.283 30.5646 211.315 30.9259C211.346 31.2766 211.428 31.6013 211.561 31.9002C211.705 32.1981 211.893 32.4547 212.126 32.6699C212.359 32.885 212.63 33.0487 212.94 33.1608C213.259 33.2614 213.605 33.2954 213.977 33.2628Z" fill="white"/>
	<path d="M206.128 27.7339L207.499 27.6139L208.132 34.8503L206.761 34.9702L206.128 27.7339ZM199.736 28.2931L201.043 28.1787L201.262 30.6812L203.207 30.511C203.579 30.4785 203.908 30.5139 204.196 30.6172C204.493 30.709 204.747 30.8581 204.958 31.0645C205.168 31.2603 205.333 31.4975 205.454 31.776C205.585 32.0536 205.665 32.3571 205.694 32.6865C205.722 33.0053 205.695 33.3128 205.614 33.609C205.543 33.9043 205.422 34.1665 205.249 34.3958C205.076 34.6251 204.852 34.816 204.576 34.9686C204.301 35.1212 203.977 35.2138 203.605 35.2463L200.369 35.5294L199.736 28.2931ZM201.36 31.7969L201.579 34.2993L203.268 34.1515C203.672 34.1162 203.97 33.9723 204.162 33.72C204.364 33.4561 204.449 33.1488 204.419 32.7981C204.386 32.4262 204.253 32.1326 204.02 31.9175C203.787 31.7023 203.469 31.6124 203.065 31.6477L201.36 31.7969Z" fill="white"/>
	<path d="M191.985 28.9712L195.332 28.6784C195.789 28.6384 196.172 28.6692 196.48 28.7707C196.788 28.8615 197.035 28.9951 197.222 29.1715C197.418 29.3364 197.558 29.5276 197.642 29.7451C197.724 29.9521 197.774 30.1565 197.792 30.3584C197.829 30.7834 197.701 31.164 197.41 31.5C197.128 31.8245 196.76 32.0333 196.308 32.1264C196.543 32.1166 196.77 32.1449 196.99 32.2113C197.21 32.2777 197.406 32.3784 197.579 32.5132C197.751 32.648 197.894 32.8175 198.009 33.0216C198.123 33.2258 198.191 33.4607 198.215 33.7263C198.232 33.9282 198.209 34.1498 198.144 34.391C198.09 34.6207 197.975 34.8448 197.802 35.0634C197.627 35.2714 197.387 35.4584 197.08 35.6245C196.772 35.7799 196.374 35.879 195.885 35.9217L192.618 36.2076L191.985 28.9712ZM193.692 32.8853L193.886 35.1008L195.831 34.9307C196.139 34.9038 196.385 34.7752 196.568 34.545C196.762 34.3139 196.846 34.0496 196.82 33.752C196.794 33.4545 196.665 33.2035 196.433 32.9989C196.21 32.7828 195.945 32.6882 195.637 32.7152L193.692 32.8853ZM195.503 31.7311C195.811 31.7042 196.046 31.5818 196.209 31.3641C196.372 31.1464 196.442 30.8995 196.417 30.6232C196.392 30.3363 196.275 30.1002 196.066 29.9151C195.868 29.729 195.615 29.6494 195.307 29.6764L193.426 29.8409L193.606 31.8971L195.503 31.7311Z" fill="white"/>
	<path d="M186.097 36.7781L184.838 36.8883L184.308 30.8314L182.224 37.1169L181.283 37.1992L178.139 31.3711L178.669 37.4279L177.41 37.5381L176.777 30.3017L178.801 30.1246L181.598 35.2925L183.456 29.7174L185.464 29.5417L186.097 36.7781Z" fill="white"/>
	<path d="M170.335 38.1571L168.725 38.298L170.181 35.665C169.92 35.6236 169.672 35.5382 169.436 35.409C169.209 35.2682 169.013 35.1034 168.846 34.9145C168.679 34.715 168.542 34.4967 168.436 34.2598C168.328 34.0122 168.264 33.7609 168.241 33.5059C168.213 33.1764 168.244 32.8579 168.334 32.5501C168.425 32.2424 168.572 31.9671 168.776 31.7245C168.98 31.4818 169.23 31.2832 169.527 31.1288C169.824 30.9743 170.164 30.8803 170.546 30.8468L174.292 30.5191L174.925 37.7555L173.57 37.874L173.365 35.531L171.612 35.6844L170.335 38.1571ZM173.265 34.3834L173.036 31.7693L170.932 31.9534C170.497 31.9915 170.163 32.1546 169.931 32.4425C169.709 32.7189 169.613 33.0325 169.644 33.3831C169.675 33.7338 169.824 34.0313 170.091 34.2755C170.369 34.5083 170.725 34.6056 171.161 34.5674L173.265 34.3834Z" fill="white"/>
	<path d="M159.536 40.7722L159.295 38.0147L159.55 37.9924C160.145 37.9404 160.572 37.6835 160.832 37.2218C161.101 36.7485 161.203 36.14 161.138 35.3962L160.814 31.6983L166.154 31.2311L166.691 37.3677L167.424 37.3035L167.665 40.061L166.422 40.1698L166.277 38.5121L160.635 39.0058L160.78 40.6634L159.536 40.7722ZM165.4 37.4806L164.958 32.4279L162.2 32.6692L162.407 35.0282C162.468 35.7295 162.428 36.3165 162.288 36.7892C162.158 37.261 161.893 37.6054 161.495 37.8223L165.4 37.4806Z" fill="white"/>
	<path d="M154.645 38.4537C155.017 38.4211 155.346 38.3228 155.631 38.1586C155.927 37.9935 156.172 37.7901 156.365 37.5483C156.557 37.296 156.698 37.0106 156.788 36.6922C156.878 36.3738 156.907 36.0393 156.877 35.6887C156.846 35.338 156.759 35.0137 156.615 34.7158C156.471 34.4178 156.283 34.1613 156.05 33.9461C155.817 33.7309 155.54 33.5677 155.22 33.4566C154.91 33.3445 154.569 33.3047 154.198 33.3372C153.836 33.3688 153.513 33.4667 153.227 33.6309C152.942 33.795 152.703 34.0033 152.511 34.2557C152.33 34.5071 152.194 34.792 152.104 35.1104C152.014 35.4288 151.985 35.7633 152.015 36.114C152.046 36.4646 152.133 36.7889 152.277 37.0869C152.421 37.3848 152.604 37.6418 152.826 37.8579C153.058 38.0625 153.329 38.2208 153.639 38.3329C153.948 38.445 154.284 38.4853 154.645 38.4537ZM149.563 36.9067L149.829 39.9511L148.443 40.0724L147.81 32.8361L149.196 32.7147L149.461 35.7432L150.625 35.6414C150.65 35.1895 150.746 34.7635 150.915 34.3633C151.082 33.9524 151.313 33.5896 151.606 33.2748C151.91 32.9485 152.266 32.6817 152.677 32.4745C153.097 32.2664 153.568 32.1395 154.089 32.094C154.673 32.0428 155.208 32.0978 155.693 32.2587C156.189 32.4188 156.617 32.6598 156.977 32.9816C157.348 33.3025 157.644 33.6888 157.866 34.1406C158.086 34.5817 158.219 35.0573 158.263 35.5673C158.308 36.0774 158.26 36.5688 158.119 37.0415C157.979 37.5142 157.754 37.9408 157.444 38.3212C157.146 38.7007 156.766 39.0123 156.305 39.256C155.856 39.4988 155.338 39.6458 154.754 39.6969C154.233 39.7425 153.748 39.7046 153.299 39.5833C152.859 39.4505 152.461 39.255 152.107 38.997C151.762 38.7273 151.472 38.4048 151.235 38.0293C150.999 37.6537 150.829 37.2456 150.727 36.8049L149.563 36.9067Z" fill="white"/>
	<path d="M138.456 39.838L138.838 39.8045C139.093 39.7822 139.29 39.7114 139.43 39.5921C139.569 39.4728 139.624 39.2432 139.594 38.9031L139.13 33.5954L145.33 33.053L145.963 40.2893L144.577 40.4106L144.045 34.3378L140.619 34.6377L140.994 38.9253C141.051 39.5841 140.913 40.0887 140.58 40.4391C140.256 40.7779 139.808 40.9724 139.234 41.0226L138.564 41.0812L138.456 39.838Z" fill="white"/>
	<path d="M132.987 41.4246L131.728 41.5347L131.198 35.4779L129.114 41.7634L128.174 41.8457L125.03 36.0175L125.56 42.0744L124.301 42.1846L123.667 34.9482L125.692 34.7711L128.489 39.939L130.346 34.3639L132.354 34.1882L132.987 41.4246Z" fill="white"/>
	<path d="M116.47 39.5932C116.508 39.9004 116.581 40.1884 116.69 40.4573C116.799 40.7155 116.947 40.9434 117.136 41.1411C117.334 41.3272 117.577 41.4719 117.864 41.5752C118.151 41.6679 118.496 41.6966 118.9 41.6613C119.442 41.6139 119.841 41.4665 120.098 41.2192C120.364 40.9603 120.542 40.6717 120.632 40.3533L122.035 40.2306C122.009 40.5434 121.917 40.8458 121.761 41.1379C121.615 41.4291 121.413 41.693 121.156 41.9297C120.898 42.1664 120.589 42.3648 120.228 42.5248C119.867 42.6849 119.458 42.7849 119.002 42.8249C118.396 42.8778 117.856 42.8234 117.381 42.6615C116.917 42.4986 116.522 42.2602 116.194 41.9462C115.867 41.6322 115.609 41.2532 115.42 40.8093C115.231 40.3548 115.113 39.8672 115.067 39.3465C115.02 38.8046 115.05 38.2933 115.158 37.8128C115.277 37.3313 115.47 36.9075 115.737 36.5414C116.016 36.1744 116.365 35.8762 116.784 35.6469C117.213 35.4165 117.715 35.2763 118.289 35.2261C118.756 35.1852 119.199 35.2321 119.618 35.3668C120.046 35.4899 120.422 35.6872 120.746 35.9587C121.08 36.2293 121.35 36.559 121.555 36.9479C121.77 37.3253 121.898 37.7424 121.938 38.1994C121.947 38.3056 121.953 38.4336 121.955 38.5833C121.968 38.7321 121.968 38.9088 121.953 39.1135L116.47 39.5932ZM118.35 36.2968C117.723 36.3516 117.229 36.5769 116.867 36.9726C116.505 37.3576 116.342 37.8805 116.378 38.5412L120.57 38.1744C120.514 37.5369 120.274 37.0546 119.849 36.7278C119.434 36.3893 118.935 36.2457 118.35 36.2968Z" fill="white"/>
	<path d="M112.827 35.8966L113.46 43.133L112.09 43.2529L111.98 41.9937C111.785 42.4604 111.465 42.8418 111.02 43.1377C110.585 43.4327 110.102 43.6035 109.571 43.6499C109.018 43.6983 108.505 43.6415 108.03 43.4796C107.555 43.3177 107.138 43.0758 106.778 42.7539C106.429 42.4312 106.143 42.0492 105.923 41.6081C105.702 41.167 105.57 40.6914 105.525 40.1814C105.48 39.6713 105.528 39.1799 105.669 38.7072C105.809 38.2238 106.023 37.7929 106.311 37.4143C106.61 37.0349 106.979 36.7242 107.418 36.4823C107.857 36.2404 108.353 36.0953 108.906 36.047C109.437 36.0005 109.942 36.0848 110.421 36.2998C110.911 36.514 111.293 36.8339 111.565 37.2598L111.457 36.0165L112.827 35.8966ZM109.542 42.3997C109.914 42.3672 110.242 42.2688 110.528 42.1047C110.824 41.9396 111.068 41.7361 111.261 41.4944C111.453 41.242 111.594 40.9567 111.684 40.6383C111.774 40.3199 111.804 39.9854 111.773 39.6347C111.742 39.2841 111.655 38.9598 111.511 38.6618C111.367 38.3639 111.179 38.1073 110.946 37.8922C110.713 37.677 110.437 37.5138 110.116 37.4026C109.807 37.2905 109.466 37.2507 109.094 37.2833C108.722 37.3158 108.393 37.4142 108.108 37.5783C107.823 37.7425 107.584 37.9508 107.392 38.2031C107.21 38.4546 107.075 38.7395 106.985 39.0579C106.895 39.3762 106.865 39.7108 106.896 40.0614C106.926 40.4121 107.014 40.7364 107.158 41.0343C107.301 41.3322 107.484 41.5893 107.707 41.8054C107.939 42.0099 108.21 42.1683 108.519 42.2804C108.829 42.3925 109.17 42.4323 109.542 42.3997Z" fill="white"/>
	<path d="M104.873 36.5925L104.975 37.7561L102.01 38.0155L102.541 44.0883L101.155 44.2096L100.521 36.9732L104.873 36.5925Z" fill="white"/>
	<path d="M95.4546 44.8849C94.8808 44.9351 94.3513 44.8797 93.8661 44.7188C93.3809 44.5578 92.9582 44.3164 92.5981 43.9945C92.2381 43.6727 91.9477 43.2912 91.7271 42.8501C91.5065 42.409 91.3738 41.9334 91.3292 41.4233C91.2846 40.9133 91.3326 40.4219 91.4733 39.9492C91.613 39.4658 91.8323 39.0344 92.131 38.6549C92.4297 38.2754 92.804 37.9643 93.2539 37.7215C93.7038 37.4787 94.2156 37.3322 94.7894 37.282C95.3739 37.2308 95.9087 37.2858 96.3939 37.4468C96.8791 37.6078 97.3018 37.8492 97.6619 38.171C98.0326 38.4919 98.3287 38.8783 98.5502 39.33C98.7709 39.7711 98.9035 40.2467 98.9481 40.7568C98.9927 41.2668 98.9447 41.7582 98.804 42.2309C98.6634 42.7036 98.4384 43.1302 98.129 43.5106C97.8303 43.8901 97.456 44.2012 97.0061 44.444C96.5562 44.6868 96.0391 44.8338 95.4546 44.8849ZM95.3458 43.6417C95.7178 43.6092 96.0464 43.5108 96.3319 43.3466C96.628 43.1815 96.8725 42.9781 97.0655 42.7364C97.2576 42.484 97.3986 42.1986 97.4885 41.8802C97.5784 41.5619 97.608 41.2273 97.5774 40.8767C97.5467 40.526 97.4594 40.2017 97.3156 39.9038C97.1717 39.6059 96.9833 39.3493 96.7503 39.1341C96.5174 38.9189 96.2408 38.7558 95.9205 38.6446C95.6109 38.5325 95.2701 38.4927 94.8982 38.5252C94.5263 38.5578 94.1976 38.6561 93.9122 38.8203C93.6267 38.9845 93.388 39.1927 93.1959 39.4451C93.0145 39.6965 92.8788 39.9814 92.7889 40.2998C92.6989 40.6182 92.6693 40.9527 92.7 41.3034C92.7307 41.6541 92.8179 41.9783 92.9618 42.2763C93.1056 42.5742 93.2887 42.8312 93.5111 43.0473C93.7431 43.2519 94.0139 43.4102 94.3236 43.5223C94.6332 43.6344 94.9739 43.6742 95.3458 43.6417Z" fill="white"/>
	<path d="M89.7463 45.2077L88.4871 45.3178L87.9572 39.261L85.8731 45.5465L84.9327 45.6288L81.7887 39.8007L82.3186 45.8575L81.0595 45.9677L80.4264 38.7313L82.4506 38.5542L85.2477 43.7221L87.1048 38.147L89.1132 37.9713L89.7463 45.2077Z" fill="white"/>
	<path d="M75.3595 46.643C74.7857 46.6932 74.2562 46.6378 73.771 46.4769C73.2858 46.3159 72.8631 46.0744 72.503 45.7526C72.1429 45.4308 71.8526 45.0493 71.632 44.6082C71.4113 44.1671 71.2787 43.6915 71.2341 43.1814C71.1895 42.6714 71.2375 42.18 71.3782 41.7072C71.5179 41.2239 71.7371 40.7925 72.0359 40.413C72.3346 40.0335 72.7089 39.7224 73.1588 39.4796C73.6087 39.2368 74.1205 39.0903 74.6943 39.0401C75.2788 38.9889 75.8136 39.0439 76.2988 39.2049C76.784 39.3659 77.2067 39.6073 77.5667 39.9291C77.9375 40.25 78.2336 40.6363 78.4551 41.0881C78.6758 41.5292 78.8084 42.0048 78.853 42.5148C78.8976 43.0249 78.8496 43.5163 78.7089 43.989C78.5683 44.4617 78.3433 44.8883 78.0339 45.2687C77.7352 45.6482 77.3609 45.9593 76.911 46.2021C76.4611 46.4449 75.9439 46.5919 75.3595 46.643ZM75.2507 45.3998C75.6227 45.3672 75.9513 45.2689 76.2368 45.1047C76.5328 44.9396 76.7774 44.7362 76.9704 44.4945C77.1624 44.2421 77.3034 43.9567 77.3934 43.6383C77.4833 43.32 77.5129 42.9854 77.4822 42.6348C77.4516 42.2841 77.3643 41.9598 77.2204 41.6619C77.0766 41.364 76.8882 41.1074 76.6552 40.8922C76.4222 40.677 76.1456 40.5139 75.8254 40.4027C75.5158 40.2906 75.175 40.2508 74.8031 40.2833C74.4312 40.3159 74.1025 40.4142 73.8171 40.5784C73.5316 40.7426 73.2929 40.9508 73.1008 41.2032C72.9194 41.4546 72.7837 41.7395 72.6937 42.0579C72.6038 42.3763 72.5742 42.7108 72.6049 43.0615C72.6356 43.4121 72.7228 43.7364 72.8667 44.0344C73.0105 44.3323 73.1936 44.5893 73.416 44.8054C73.648 45.01 73.9188 45.1683 74.2284 45.2804C74.5381 45.3925 74.8788 45.4323 75.2507 45.3998Z" fill="white"/>
	<path d="M69.6478 46.9661L68.2611 47.0874L67.7298 41.0146L63.9522 41.3451L64.4835 47.4179L63.0968 47.5392L62.4637 40.3028L69.0147 39.7297L69.6478 46.9661Z" fill="white"/>
	<path d="M54.5817 40.9924L55.9525 40.8725L56.5856 48.1089L55.2148 48.2288L54.5817 40.9924ZM48.1901 41.5516L49.4971 41.4373L49.7161 43.9397L51.6606 43.7696C52.0326 43.7371 52.3622 43.7725 52.6497 43.8758C52.9468 43.9676 53.2007 44.1167 53.4115 44.3231C53.6214 44.5189 53.7867 44.756 53.9074 45.0346C54.0388 45.3122 54.1189 45.6157 54.1477 45.9451C54.1756 46.2639 54.149 46.5714 54.0678 46.8676C53.9973 47.1629 53.8757 47.4251 53.703 47.6544C53.5303 47.8836 53.3061 48.0746 53.0304 48.2272C52.7546 48.3798 52.4308 48.4724 52.0589 48.5049L48.8232 48.788L48.1901 41.5516ZM49.8137 45.0555L50.0326 47.5579L51.7222 47.4101C52.126 47.3748 52.4239 47.2309 52.6159 46.9785C52.8177 46.7146 52.9033 46.4073 52.8726 46.0567C52.84 45.6848 52.7073 45.3912 52.4743 45.176C52.2413 44.9608 51.923 44.8709 51.5192 44.9062L49.8137 45.0555Z" fill="white"/>
	<path d="M46.3443 49.0049L44.8779 49.1332L44.1974 41.3549L41.6742 49.4134L40.5584 49.5111L36.6582 42.0145L37.3387 49.7927L35.8883 49.9196L34.9121 38.7623L36.3148 38.6396L40.9211 47.2308L43.9655 37.9702L45.3682 37.8475L46.3443 49.0049Z" fill="white"/>
</svg>
