<svg viewBox="0 0 294 116" fill="none"
	xmlns="http://www.w3.org/2000/svg">
	<path d="M8.02407 9.63824C5.47962 13.7102 4.99151 19.2894 4.01527 30.4478L1.74922 56.3489C0.772986 67.5073 0.284868 73.0865 2.08357 77.5385C3.66575 81.4545 6.44706 84.7692 10.0289 87.0073C14.1008 89.5518 19.68 90.0399 30.8385 91.0161L109.397 97.8891C112.039 98.1202 114.481 99.3915 116.186 101.423L125.276 112.257C128.826 116.487 135.133 117.039 139.364 113.489L150.198 104.399C152.229 102.694 154.855 101.866 157.497 102.097L255.978 110.713C267.137 111.69 272.716 112.178 277.168 110.379C281.084 108.797 284.399 106.015 286.637 102.434C289.181 98.3617 289.669 92.7825 290.646 81.6241L292.912 55.723C293.888 44.5646 294.376 38.9854 292.577 34.5334C290.995 30.6174 288.214 27.3028 284.632 25.0646C280.56 22.5201 274.981 22.032 263.822 21.0558L38.6825 1.3586C27.5241 0.382361 21.9448 -0.105757 17.4929 1.69294C13.5769 3.27513 10.2622 6.05643 8.02407 9.63824Z" fill="#FFDD2D"/>
	<path d="M8.02407 9.63824C5.47962 13.7102 4.99151 19.2894 4.01527 30.4478L1.74922 56.3489C0.772986 67.5073 0.284868 73.0865 2.08357 77.5385C3.66575 81.4545 6.44706 84.7692 10.0289 87.0073C14.1008 89.5518 19.68 90.0399 30.8385 91.0161L109.397 97.8891C112.039 98.1202 114.481 99.3915 116.186 101.423L125.276 112.257C128.826 116.487 135.133 117.039 139.364 113.489L150.198 104.399C152.229 102.694 154.855 101.866 157.497 102.097L255.978 110.713C267.137 111.69 272.716 112.178 277.168 110.379C281.084 108.797 284.399 106.015 286.637 102.434C289.181 98.3617 289.669 92.7825 290.646 81.6241L292.912 55.723C293.888 44.5646 294.376 38.9854 292.577 34.5334C290.995 30.6174 288.214 27.3028 284.632 25.0646C280.56 22.5201 274.981 22.032 263.822 21.0558L38.6825 1.3586C27.5241 0.382361 21.9448 -0.105757 17.4929 1.69294C13.5769 3.27513 10.2622 6.05643 8.02407 9.63824Z" fill="url(#paint0_linear_1032_35078)"/>
	<path d="M267.161 85.3367L270.508 85.6296C270.965 85.6696 271.337 85.7663 271.623 85.9199C271.911 86.0628 272.131 86.2373 272.284 86.4435C272.449 86.6399 272.554 86.8525 272.598 87.0812C272.643 87.2993 272.657 87.5093 272.639 87.7112C272.602 88.1363 272.41 88.4889 272.065 88.7692C271.731 89.0397 271.333 89.1816 270.871 89.1948C271.104 89.2258 271.323 89.2932 271.528 89.3968C271.733 89.5004 271.909 89.6335 272.055 89.7962C272.202 89.959 272.313 90.1508 272.39 90.3717C272.467 90.5925 272.494 90.8358 272.471 91.1015C272.453 91.3034 272.392 91.5175 272.286 91.7438C272.192 91.9604 272.041 92.1614 271.832 92.3465C271.624 92.5211 271.355 92.6634 271.024 92.7737C270.694 92.8733 270.284 92.9017 269.796 92.859L266.528 92.5731L267.161 85.3367ZM268.163 89.4879L267.969 91.7034L269.914 91.8735C270.222 91.9005 270.486 91.8166 270.707 91.6217C270.938 91.4278 271.067 91.182 271.093 90.8845C271.119 90.587 271.035 90.3173 270.842 90.0756C270.661 89.8242 270.416 89.685 270.108 89.658L268.163 89.4879ZM270.146 88.6656C270.455 88.6926 270.708 88.613 270.906 88.4269C271.104 88.2408 271.216 88.0096 271.24 87.7333C271.265 87.4464 271.191 87.1937 271.017 86.975C270.854 86.7573 270.619 86.635 270.31 86.6081L268.43 86.4435L268.25 88.4996L270.146 88.6656Z" fill="white"/>
	<path d="M260.798 92.2484C260.224 92.1982 259.712 92.0517 259.262 91.8089C258.812 91.5661 258.438 91.255 258.139 90.8755C257.84 90.496 257.621 90.0699 257.48 89.5972C257.339 89.1245 257.291 88.6331 257.336 88.123C257.38 87.613 257.513 87.1374 257.734 86.6963C257.955 86.2445 258.246 85.8577 258.606 85.5359C258.966 85.2141 259.389 84.9726 259.874 84.8116C260.359 84.6507 260.889 84.5953 261.463 84.6455C262.047 84.6966 262.564 84.8436 263.014 85.0864C263.464 85.3291 263.838 85.6403 264.137 86.0198C264.446 86.4002 264.671 86.8321 264.811 87.3154C264.951 87.7881 264.999 88.2795 264.955 88.7896C264.91 89.2996 264.778 89.7752 264.557 90.2163C264.336 90.6575 264.041 91.0385 263.67 91.3594C263.31 91.6812 262.887 91.9226 262.402 92.0836C261.917 92.2446 261.382 92.2995 260.798 92.2484ZM260.906 91.0052C261.278 91.0377 261.619 90.9979 261.929 90.8858C262.249 90.7746 262.525 90.6168 262.757 90.4122C262.99 90.197 263.178 89.9405 263.322 89.6425C263.466 89.3446 263.553 89.0203 263.584 88.6697C263.615 88.319 263.585 87.9845 263.495 87.6661C263.405 87.3477 263.264 87.0623 263.072 86.81C262.88 86.5576 262.636 86.3489 262.34 86.1838C262.055 86.0196 261.726 85.9212 261.354 85.8887C260.982 85.8562 260.641 85.896 260.332 86.0081C260.022 86.1202 259.751 86.2838 259.518 86.499C259.295 86.7151 259.112 86.9721 258.968 87.2701C258.825 87.568 258.737 87.8923 258.707 88.2429C258.676 88.5936 258.706 88.9281 258.796 89.2465C258.885 89.5649 259.021 89.8498 259.203 90.1012C259.396 90.343 259.635 90.5459 259.92 90.7101C260.206 90.8743 260.534 90.9726 260.906 91.0052Z" fill="white"/>
	<path d="M257.185 84.4639L257.083 85.6275L254.899 85.4364L254.368 91.5092L252.981 91.3879L253.512 85.3151L251.361 85.1268L251.462 83.9633L257.185 84.4639Z" fill="white"/>
	<path d="M248.319 87.8802L244.478 87.5441L244.209 90.6204L242.822 90.4991L243.455 83.2627L244.842 83.384L244.579 86.3806L248.421 86.7167L248.683 83.7201L250.054 83.84L249.421 91.0764L248.05 90.9565L248.319 87.8802Z" fill="white"/>
	<path d="M235.56 86.5873C235.544 86.8964 235.566 87.1928 235.627 87.4765C235.689 87.7496 235.796 87.9999 235.947 88.2272C236.11 88.4449 236.324 88.6296 236.589 88.7813C236.855 88.9224 237.19 89.0106 237.594 89.0459C238.136 89.0933 238.555 89.0175 238.851 88.8186C239.158 88.6099 239.383 88.3566 239.527 88.0587L240.93 88.1814C240.85 88.4849 240.707 88.7669 240.503 89.0273C240.308 89.2888 240.064 89.5136 239.769 89.702C239.474 89.8903 239.135 90.032 238.752 90.127C238.369 90.2219 237.949 90.2494 237.492 90.2095C236.886 90.1565 236.364 90.009 235.925 89.7672C235.496 89.5262 235.148 89.2227 234.88 88.8567C234.612 88.4906 234.424 88.0726 234.315 87.6027C234.207 87.1221 234.176 86.6215 234.222 86.1008C234.269 85.5589 234.388 85.0606 234.577 84.6061C234.778 84.1525 235.042 83.7687 235.369 83.4547C235.707 83.1416 236.102 82.9085 236.554 82.7553C237.017 82.6031 237.536 82.5521 238.109 82.6023C238.577 82.6432 239.005 82.7663 239.394 82.9717C239.795 83.1673 240.131 83.4269 240.402 83.7505C240.684 84.075 240.893 84.4466 241.027 84.8652C241.174 85.2742 241.227 85.7072 241.187 86.1641C241.177 86.2703 241.161 86.3974 241.137 86.5452C241.124 86.694 241.093 86.8679 241.044 87.067L235.56 86.5873ZM237.984 83.6675C237.357 83.6126 236.831 83.7486 236.407 84.0755C235.983 84.3918 235.731 84.8784 235.653 85.5353L239.845 85.9021C239.9 85.2645 239.747 84.7479 239.386 84.3522C239.036 83.9468 238.569 83.7186 237.984 83.6675Z" fill="white"/>
	<path d="M231.039 84.3929L226.905 88.5122L226.853 89.102L225.466 88.9807L226.099 81.7443L227.486 81.8656L227.041 86.9502L231.179 82.799L231.232 82.1933L232.602 82.3132L231.969 89.5496L230.599 89.4297L231.039 84.3929Z" fill="white"/>
	<path d="M215.671 87.0155L216.054 87.049C216.309 87.0713 216.516 87.0358 216.674 86.9426C216.832 86.8493 216.926 86.6327 216.955 86.2927L217.42 80.9849L223.62 81.5274L222.987 88.7637L221.6 88.6424L222.132 82.5696L218.705 82.2698L218.33 86.5574C218.272 87.2162 218.048 87.6892 217.659 87.9764C217.282 88.2539 216.806 88.3675 216.232 88.3173L215.563 88.2588L215.671 87.0155Z" fill="white"/>
	<path d="M210.403 83.503L210.626 83.5225C210.839 83.5411 211.041 83.4946 211.233 83.3828C211.425 83.2711 211.629 83.0749 211.847 82.7941L212.907 81.5056C213.17 81.186 213.431 80.9572 213.69 80.8192C213.948 80.6812 214.263 80.6285 214.635 80.661L215.368 80.7251L215.269 81.8568L214.839 81.8192C214.626 81.8006 214.442 81.8273 214.286 81.8993C214.13 81.9713 213.968 82.107 213.801 82.3065L213.133 83.1475C212.868 83.4777 212.608 83.6959 212.353 83.802C212.098 83.8975 211.837 83.9496 211.568 83.9582L214.904 88.0565L213.23 87.9101L210.336 84.2681L210.042 87.6312L208.655 87.5099L209.289 80.2735L210.675 80.3949L210.403 83.503Z" fill="white"/>
	<path d="M203.119 87.0255L201.525 86.8861L200.092 84.1748L198.21 86.596L196.616 86.4566L199.39 83.0212L197.281 79.223L198.875 79.3624L200.28 82.0231L202.126 79.6469L203.72 79.7864L200.984 83.1607L203.119 87.0255Z" fill="white"/>
	<path d="M194.386 78.9698L195.757 79.0897L195.124 86.3261L193.753 86.2061L194.386 78.9698ZM187.995 78.4106L189.302 78.5249L189.083 81.0274L191.028 81.1975C191.399 81.23 191.718 81.3222 191.983 81.4738C192.26 81.6158 192.484 81.8068 192.656 82.0466C192.828 82.2759 192.95 82.5382 193.021 82.8334C193.102 83.1296 193.128 83.4424 193.099 83.7719C193.071 84.0906 192.992 84.3888 192.86 84.6664C192.739 84.945 192.574 85.1821 192.364 85.3779C192.154 85.5737 191.9 85.7228 191.602 85.8252C191.304 85.9276 190.969 85.9626 190.597 85.93L187.362 85.647L187.995 78.4106ZM188.985 82.1431L188.766 84.6456L190.456 84.7934C190.86 84.8287 191.178 84.7388 191.411 84.5236C191.656 84.2987 191.793 84.0109 191.824 83.6603C191.856 83.2884 191.777 82.9762 191.585 82.7239C191.393 82.4715 191.095 82.3277 190.691 82.2923L188.985 82.1431Z" fill="white"/>
	<path d="M183.769 82.2328L179.927 81.8967L179.658 84.973L178.271 84.8517L178.905 77.6153L180.291 77.7366L180.029 80.7332L183.87 81.0692L184.133 78.0727L185.503 78.1926L184.87 85.429L183.5 85.309L183.769 82.2328Z" fill="white"/>
	<path d="M170.371 78.7479C170.495 78.4268 170.67 78.1476 170.894 77.9102C171.119 77.6623 171.367 77.4644 171.637 77.3167C171.917 77.1699 172.21 77.0671 172.515 77.0081C172.831 76.9394 173.144 76.9185 173.452 76.9455C174.015 76.9948 174.506 77.1394 174.924 77.3794C175.352 77.6204 175.7 77.9292 175.967 78.3059C176.244 78.6835 176.442 79.1131 176.561 79.5946C176.68 80.0654 176.718 80.5559 176.673 81.0659C176.628 81.576 176.496 82.0516 176.275 82.4927C176.055 82.9338 175.764 83.3153 175.404 83.6371C175.044 83.959 174.621 84.2004 174.136 84.3614C173.662 84.5233 173.148 84.5801 172.595 84.5317C171.926 84.4732 171.352 84.2998 170.874 84.0117C170.397 83.713 170.014 83.3208 169.724 82.835C169.435 82.3493 169.239 81.7754 169.136 81.1132C169.034 80.4511 169.017 79.7216 169.087 78.9246C169.142 78.2977 169.228 77.743 169.345 77.2608C169.473 76.7688 169.624 76.3375 169.795 75.9671C169.978 75.5869 170.178 75.2671 170.393 75.0075C170.609 74.7374 170.833 74.5053 171.064 74.3114C171.617 73.8672 172.221 73.5774 172.875 73.4419C173.53 73.2958 174.267 73.2585 175.085 73.3301L176.536 73.457L176.418 74.7959L174.585 74.6355C174.033 74.5872 173.522 74.6174 173.052 74.7262C172.583 74.8244 172.174 75.0295 171.825 75.3417C171.418 75.7129 171.093 76.1877 170.85 76.766C170.617 77.3453 170.457 78.0059 170.371 78.7479ZM172.624 83.2815C172.986 83.3131 173.321 83.2729 173.631 83.1608C173.951 83.0496 174.227 82.8917 174.459 82.6872C174.692 82.472 174.881 82.2154 175.025 81.9175C175.168 81.6196 175.256 81.2953 175.286 80.9446C175.317 80.5939 175.287 80.2594 175.197 79.941C175.107 79.6227 174.966 79.3373 174.774 79.0849C174.582 78.8326 174.338 78.6238 174.042 78.4587C173.757 78.2945 173.433 78.1967 173.072 78.1651C172.7 78.1325 172.355 78.1665 172.035 78.2671C171.727 78.3686 171.456 78.5269 171.223 78.7421C170.99 78.9572 170.801 79.2191 170.656 79.5277C170.523 79.8265 170.441 80.1566 170.409 80.5179C170.378 80.8686 170.403 81.2026 170.482 81.5201C170.572 81.8384 170.713 82.1238 170.905 82.3762C171.097 82.6285 171.336 82.8368 171.621 83.001C171.918 83.1555 172.253 83.249 172.624 83.2815Z" fill="white"/>
	<path d="M163.342 83.7221C162.768 83.6719 162.256 83.5254 161.806 83.2826C161.356 83.0398 160.982 82.7287 160.683 82.3492C160.384 81.9697 160.165 81.5436 160.024 81.0709C159.883 80.5982 159.835 80.1068 159.88 79.5967C159.925 79.0867 160.057 78.6111 160.278 78.17C160.499 77.7182 160.79 77.3314 161.15 77.0096C161.51 76.6878 161.933 76.4463 162.418 76.2854C162.904 76.1244 163.433 76.069 164.007 76.1192C164.591 76.1703 165.108 76.3173 165.558 76.5601C166.008 76.8029 166.382 77.114 166.681 77.4935C166.991 77.8739 167.215 78.3058 167.355 78.7891C167.496 79.2619 167.544 79.7533 167.499 80.2633C167.454 80.7734 167.322 81.2489 167.101 81.69C166.88 82.1312 166.585 82.5122 166.214 82.8331C165.854 83.1549 165.431 83.3964 164.946 83.5573C164.461 83.7183 163.926 83.7733 163.342 83.7221ZM163.45 82.4789C163.822 82.5114 164.163 82.4716 164.473 82.3595C164.793 82.2483 165.069 82.0905 165.301 81.8859C165.534 81.6707 165.723 81.4142 165.866 81.1163C166.01 80.8183 166.097 80.494 166.128 80.1434C166.159 79.7927 166.129 79.4582 166.039 79.1398C165.949 78.8214 165.808 78.536 165.616 78.2837C165.424 78.0313 165.18 77.8226 164.884 77.6575C164.599 77.4933 164.27 77.395 163.898 77.3624C163.526 77.3299 163.185 77.3697 162.876 77.4818C162.566 77.5939 162.295 77.7575 162.062 77.9727C161.84 78.1888 161.656 78.4458 161.513 78.7438C161.369 79.0417 161.281 79.366 161.251 79.7167C161.22 80.0673 161.25 80.4018 161.34 80.7202C161.43 81.0386 161.565 81.3235 161.747 81.575C161.94 81.8167 162.179 82.0196 162.464 82.1838C162.75 82.348 163.079 82.4463 163.45 82.4789Z" fill="white"/>
	<path d="M157.204 78.3668C157.19 77.9159 157.042 77.5282 156.76 77.2037C156.489 76.8695 156.014 76.6727 155.334 76.6132C154.962 76.5806 154.627 76.6209 154.328 76.7339C154.039 76.8479 153.789 77.0187 153.576 77.2464C153.375 77.4643 153.213 77.7232 153.091 78.023C152.968 78.3228 152.892 78.6427 152.862 78.9827C152.832 79.3228 152.846 79.6506 152.905 79.9662C152.973 80.2827 153.093 80.5662 153.264 80.8167C153.435 81.0672 153.657 81.2741 153.932 81.4373C154.218 81.6015 154.562 81.7013 154.966 81.7366C155.572 81.7896 156.029 81.7011 156.338 81.4712C156.648 81.2413 156.88 80.9136 157.035 80.4881L158.421 80.6095C158.336 80.9767 158.194 81.3176 157.995 81.6322C157.797 81.9361 157.544 82.1977 157.235 82.417C156.939 82.6266 156.582 82.7828 156.167 82.8856C155.751 82.9884 155.282 83.017 154.762 82.9715C154.167 82.9194 153.655 82.7676 153.228 82.516C152.8 82.2645 152.447 81.9499 152.17 81.5723C151.892 81.1946 151.694 80.7704 151.574 80.2995C151.466 79.8296 151.433 79.3502 151.475 78.8614C151.518 78.3726 151.634 77.9063 151.823 77.4624C152.022 77.0194 152.286 76.6356 152.614 76.311C152.954 75.9766 153.356 75.7227 153.821 75.5492C154.296 75.3767 154.826 75.316 155.411 75.3671C155.995 75.4183 156.487 75.547 156.887 75.7532C157.298 75.9498 157.625 76.1925 157.867 76.4814C158.121 76.7606 158.302 77.0763 158.411 77.4284C158.53 77.7815 158.59 78.1347 158.591 78.4882L157.204 78.3668Z" fill="white"/>
	<path d="M145.986 82.2037C145.412 82.1535 144.9 82.007 144.451 81.7642C144.001 81.5214 143.626 81.2103 143.328 80.8308C143.029 80.4513 142.809 80.0252 142.669 79.5525C142.528 79.0798 142.48 78.5884 142.524 78.0783C142.569 77.5683 142.702 77.0927 142.922 76.6516C143.144 76.1998 143.435 75.813 143.795 75.4912C144.155 75.1693 144.577 74.9279 145.063 74.7669C145.548 74.6059 146.077 74.5506 146.651 74.6008C147.236 74.6519 147.753 74.7989 148.203 75.0416C148.653 75.2844 149.027 75.5956 149.326 75.9751C149.635 76.3555 149.86 76.7874 149.999 77.2707C150.14 77.7434 150.188 78.2348 150.143 78.7449C150.099 79.2549 149.966 79.7305 149.745 80.1716C149.525 80.6127 149.229 80.9938 148.858 81.3147C148.498 81.6365 148.076 81.8779 147.591 82.0389C147.105 82.1999 146.57 82.2548 145.986 82.2037ZM146.095 80.9605C146.467 80.993 146.807 80.9532 147.117 80.8411C147.437 80.7299 147.714 80.5721 147.946 80.3675C148.179 80.1523 148.367 79.8958 148.511 79.5978C148.655 79.2999 148.742 78.9756 148.773 78.625C148.803 78.2743 148.774 77.9398 148.684 77.6214C148.594 77.303 148.453 77.0176 148.261 76.7653C148.069 76.5129 147.825 76.3042 147.528 76.1391C147.243 75.9749 146.914 75.8765 146.542 75.844C146.171 75.8115 145.83 75.8513 145.52 75.9634C145.211 76.0755 144.939 76.2391 144.706 76.4543C144.484 76.6704 144.301 76.9274 144.157 77.2253C144.013 77.5233 143.926 77.8476 143.895 78.1982C143.865 78.5489 143.894 78.8834 143.984 79.2018C144.074 79.5202 144.21 79.8051 144.391 80.0565C144.584 80.2983 144.823 80.5012 145.109 80.6654C145.394 80.8296 145.723 80.9279 146.095 80.9605Z" fill="white"/>
	<path d="M140.305 81.53L138.918 81.4087L139.45 75.3359L135.672 75.0054L135.141 81.0782L133.754 80.9569L134.387 73.7205L140.938 74.2937L140.305 81.53Z" fill="white"/>
	<path d="M130.805 76.0572C130.791 75.6063 130.643 75.2186 130.361 74.8941C130.09 74.5599 129.615 74.363 128.935 74.3035C128.563 74.271 128.227 74.3112 127.928 74.4243C127.64 74.5383 127.39 74.7091 127.177 74.9367C126.976 75.1547 126.814 75.4136 126.691 75.7134C126.569 76.0132 126.493 76.3331 126.463 76.6731C126.433 77.0131 126.447 77.341 126.505 77.6566C126.574 77.9731 126.694 78.2566 126.865 78.5071C127.035 78.7576 127.258 78.9645 127.533 79.1277C127.818 79.2919 128.163 79.3916 128.567 79.427C129.173 79.48 129.63 79.3915 129.939 79.1616C130.248 78.9316 130.481 78.604 130.636 78.1785L132.022 78.2998C131.937 78.6671 131.794 79.008 131.596 79.3225C131.398 79.6264 131.145 79.888 130.836 80.1073C130.54 80.3169 130.183 80.4731 129.767 80.576C129.351 80.6788 128.883 80.7074 128.362 80.6619C127.767 80.6098 127.256 80.458 126.828 80.2064C126.401 79.9548 126.048 79.6403 125.771 79.2626C125.493 78.885 125.295 78.4608 125.175 77.9899C125.066 77.52 125.033 77.0406 125.076 76.5518C125.119 76.063 125.235 75.5966 125.423 75.1527C125.623 74.7098 125.887 74.326 126.215 74.0013C126.555 73.667 126.957 73.4131 127.422 73.2396C127.897 73.0671 128.427 73.0064 129.012 73.0575C129.596 73.1086 130.088 73.2373 130.488 73.4436C130.899 73.6402 131.226 73.8829 131.468 74.1718C131.722 74.451 131.903 74.7667 132.011 75.1188C132.131 75.4718 132.191 75.8251 132.192 76.1785L130.805 76.0572Z" fill="white"/>
	<path d="M118.056 76.307C118.04 76.6161 118.062 76.9125 118.123 77.1962C118.185 77.4693 118.291 77.7196 118.443 77.947C118.606 78.1647 118.82 78.3493 119.085 78.501C119.351 78.6421 119.686 78.7303 120.09 78.7656C120.632 78.813 121.05 78.7372 121.346 78.5383C121.654 78.3296 121.879 78.0763 122.023 77.7784L123.426 77.9011C123.346 78.2046 123.203 78.4866 122.998 78.747C122.804 79.0085 122.56 79.2333 122.265 79.4217C121.97 79.61 121.631 79.7517 121.248 79.8467C120.865 79.9416 120.445 79.9691 119.988 79.9292C119.382 79.8762 118.86 79.7287 118.42 79.4869C117.992 79.2459 117.644 78.9424 117.376 78.5764C117.108 78.2103 116.92 77.7923 116.811 77.3224C116.703 76.8418 116.672 76.3412 116.718 75.8205C116.765 75.2786 116.883 74.7803 117.073 74.3258C117.273 73.8722 117.537 73.4884 117.865 73.1744C118.202 72.8613 118.598 72.6282 119.05 72.4751C119.513 72.3228 120.031 72.2718 120.605 72.322C121.073 72.3629 121.501 72.4861 121.89 72.6914C122.29 72.887 122.626 73.1466 122.898 73.4702C123.18 73.7947 123.388 74.1663 123.523 74.5849C123.669 74.9939 123.722 75.4269 123.683 75.8838C123.673 75.99 123.657 76.1171 123.633 76.2649C123.62 76.4137 123.589 76.5876 123.539 76.7867L118.056 76.307ZM120.48 73.3872C119.853 73.3323 119.327 73.4683 118.902 73.7952C118.479 74.1115 118.227 74.5981 118.148 75.255L122.34 75.6218C122.396 74.9842 122.243 74.4676 121.882 74.0719C121.532 73.6665 121.064 73.4383 120.48 73.3872Z" fill="white"/>
	<path d="M107.197 78.6334L105.603 78.494L109.294 75.0425C108.977 74.9934 108.682 74.8819 108.408 74.708C108.146 74.5245 107.948 74.2716 107.816 73.9495L107.468 73.1482C107.37 72.9255 107.252 72.7438 107.114 72.6033C106.978 72.4521 106.803 72.3673 106.591 72.3487L106.192 72.3138L106.291 71.1821L106.881 71.2337C107.221 71.2635 107.522 71.3701 107.784 71.5537C108.058 71.7276 108.299 72.0377 108.506 72.4841L109.085 73.7555C109.23 74.0572 109.376 74.2842 109.524 74.4363C109.683 74.5786 109.9 74.6619 110.176 74.6861L110.416 74.707L110.683 71.6467L111.99 71.761L111.723 74.8214L111.962 74.8423C112.238 74.8664 112.461 74.8218 112.632 74.7082C112.814 74.5849 113.003 74.3873 113.198 74.1152L113.973 72.9624C114.255 72.5588 114.54 72.2946 114.829 72.1701C115.13 72.0358 115.451 71.9835 115.791 72.0132L116.396 72.0662L116.297 73.1979L115.899 73.163C115.686 73.1445 115.5 73.1977 115.339 73.3228C115.179 73.4373 115.031 73.5957 114.896 73.798L114.414 74.5269C114.218 74.8201 113.974 75.0344 113.684 75.1696C113.394 75.2942 113.089 75.3532 112.769 75.3465L115.804 79.3865L114.21 79.247L111.656 75.5864L111.357 78.9974L110.05 78.8831L110.349 75.4721L107.197 78.6334Z" fill="white"/>
	<path d="M99.6733 74.6987C99.657 75.0078 99.6792 75.3042 99.7401 75.5879C99.8018 75.861 99.9084 76.1113 100.06 76.3387C100.223 76.5564 100.437 76.7411 100.702 76.8927C100.968 77.0338 101.303 77.122 101.707 77.1573C102.249 77.2047 102.668 77.1289 102.963 76.93C103.271 76.7213 103.496 76.468 103.64 76.1701L105.043 76.2928C104.963 76.5963 104.82 76.8783 104.615 77.1387C104.421 77.4002 104.177 77.625 103.882 77.8134C103.587 78.0017 103.248 78.1434 102.865 78.2384C102.482 78.3334 102.062 78.3608 101.605 78.3209C100.999 78.2679 100.477 78.1205 100.038 77.8786C99.6089 77.6376 99.2607 77.3341 98.9929 76.9681C98.7251 76.602 98.5369 76.184 98.4281 75.7141C98.3202 75.2335 98.2891 74.7329 98.3346 74.2122C98.382 73.6703 98.5006 73.172 98.6902 72.7175C98.8905 72.2639 99.1543 71.8801 99.4816 71.5661C99.8195 71.253 100.215 71.0199 100.667 70.8668C101.13 70.7145 101.649 70.6635 102.222 70.7137C102.69 70.7546 103.118 70.8778 103.507 71.0831C103.907 71.2787 104.243 71.5384 104.515 71.8619C104.797 72.1864 105.006 72.558 105.14 72.9766C105.286 73.3856 105.34 73.8186 105.3 74.2755C105.29 74.3817 105.274 74.5088 105.25 74.6566C105.237 74.8054 105.206 74.9793 105.156 75.1784L99.6733 74.6987ZM102.097 71.7789C101.47 71.724 100.944 71.86 100.519 72.1869C100.096 72.5032 99.8442 72.9898 99.7653 73.6468L103.957 74.0135C104.013 73.3759 103.86 72.8593 103.499 72.4636C103.149 72.0582 102.681 71.83 102.097 71.7789Z" fill="white"/>
	<path d="M98.1514 70.5503L98.0496 71.7139L95.866 71.5228L95.3347 77.5956L93.948 77.4743L94.4793 71.4015L92.3275 71.2132L92.4293 70.0497L98.1514 70.5503Z" fill="white"/>
	<path d="M91.0306 69.9273L90.3975 77.1637L89.0268 77.0437L89.1369 75.7846C88.8641 76.2104 88.4828 76.5304 87.9929 76.7445C87.5137 76.9595 87.0084 77.0438 86.4771 76.9974C85.9246 76.949 85.4286 76.8039 84.9894 76.562C84.5501 76.3202 84.1811 76.0095 83.8824 75.63C83.5943 75.2515 83.3799 74.8258 83.2393 74.3531C83.0986 73.8804 83.0506 73.389 83.0952 72.8789C83.1398 72.3689 83.2724 71.8933 83.4931 71.4522C83.7146 71.0004 84.0001 70.6132 84.3496 70.2904C84.7097 69.9686 85.127 69.7267 85.6016 69.5648C86.0762 69.4028 86.5897 69.3461 87.1423 69.3944C87.6736 69.4409 88.1566 69.6116 88.5912 69.9066C89.0364 70.2026 89.3564 70.5839 89.5511 71.0506L89.6599 69.8074L91.0306 69.9273ZM86.6656 75.7611C87.0375 75.7936 87.3783 75.7538 87.6879 75.6417C88.0081 75.5305 88.2843 75.3727 88.5163 75.1681C88.7493 74.9529 88.9377 74.6964 89.0815 74.3985C89.2254 74.1005 89.3127 73.7762 89.3433 73.4256C89.374 73.0749 89.3444 72.7404 89.2545 72.422C89.1645 72.1036 89.0235 71.8182 88.8315 71.5659C88.6394 71.3135 88.3953 71.1048 88.0993 70.9397C87.8138 70.7755 87.4851 70.6772 87.1132 70.6446C86.7413 70.6121 86.4005 70.6519 86.0909 70.764C85.7813 70.8761 85.51 71.0397 85.277 71.2549C85.0547 71.471 84.8716 71.728 84.7277 72.026C84.5839 72.3239 84.4966 72.6482 84.466 72.9989C84.4353 73.3495 84.4649 73.684 84.5548 74.0024C84.6448 74.3208 84.7804 74.6057 84.9619 74.8571C85.1549 75.0989 85.3941 75.3018 85.6796 75.466C85.965 75.6302 86.2937 75.7285 86.6656 75.7611Z" fill="white"/>
	<path d="M73.5736 74.5836L73.9562 74.617C74.2112 74.6393 74.4178 74.6039 74.5758 74.5106C74.7339 74.4174 74.8278 74.2007 74.8575 73.8607L75.3219 68.553L81.5222 69.0954L80.8891 76.3318L79.5024 76.2105L80.0337 70.1377L76.6068 69.8379L76.2317 74.1255C76.174 74.7843 75.9506 75.2573 75.5615 75.5445C75.1838 75.8219 74.7081 75.9356 74.1343 75.8854L73.4649 75.8268L73.5736 74.5836Z" fill="white"/>
	<path d="M71.9412 75.549L70.5545 75.4276L71.0858 69.3548L67.3082 69.0243L66.7769 75.0971L65.3902 74.9758L66.0233 67.7395L72.5743 68.3126L71.9412 75.549Z" fill="white"/>
	<path d="M59.8536 74.4914L58.2597 74.352L56.8265 71.6407L54.9443 74.0619L53.3504 73.9225L56.1244 70.4872L54.0154 66.6889L55.6093 66.8284L57.0148 69.489L58.8609 67.1128L60.4548 67.2523L57.7183 70.6266L59.8536 74.4914Z" fill="white"/>
	<path d="M51.1212 66.4357L52.492 66.5556L51.8589 73.792L50.4881 73.6721L51.1212 66.4357ZM44.7296 65.8765L46.0366 65.9909L45.8177 68.4933L47.7623 68.6634C48.1342 68.696 48.4527 68.7881 48.7178 68.9398C48.9945 69.0817 49.2187 69.2727 49.3905 69.5126C49.5631 69.7418 49.6847 70.0041 49.7553 70.2993C49.8364 70.5956 49.8626 70.9084 49.8338 71.2378C49.8059 71.5565 49.7263 71.8547 49.5949 72.1323C49.4742 72.4109 49.3089 72.648 49.099 72.8438C48.8892 73.0396 48.6352 73.1887 48.3371 73.2911C48.0391 73.3935 47.7041 73.4285 47.3322 73.3959L44.0965 73.1129L44.7296 65.8765ZM45.7201 69.609L45.5012 72.1115L47.1907 72.2593C47.5945 72.2946 47.9129 72.2047 48.1458 71.9895C48.3904 71.7646 48.528 71.4769 48.5587 71.1262C48.5912 70.7543 48.5114 70.4421 48.3194 70.1898C48.1273 69.9374 47.8294 69.7936 47.4256 69.7582L45.7201 69.609Z" fill="white"/>
	<path d="M36.978 65.1983L40.3252 65.4912C40.7821 65.5311 41.1538 65.6279 41.4402 65.7814C41.7275 65.9244 41.9477 66.0989 42.101 66.305C42.2659 66.5015 42.3704 66.7141 42.4146 66.9428C42.4598 67.1609 42.4736 67.3709 42.4559 67.5728C42.4187 67.9978 42.2272 68.3505 41.8815 68.6308C41.5473 68.9013 41.1494 69.0432 40.6879 69.0563C40.9207 69.0874 41.1397 69.1548 41.3448 69.2584C41.5498 69.362 41.7256 69.4951 41.8719 69.6578C42.0183 69.8205 42.13 70.0123 42.2071 70.2332C42.2841 70.4541 42.311 70.6974 42.2878 70.963C42.2701 71.1649 42.2085 71.3791 42.1031 71.6054C42.0092 71.822 41.8578 72.0229 41.6488 72.2081C41.4408 72.3826 41.1714 72.525 40.8405 72.6353C40.5106 72.7349 40.1012 72.7633 39.6124 72.7206L36.3449 72.4347L36.978 65.1983ZM37.98 69.3494L37.7862 71.565L39.7308 71.7351C40.0389 71.7621 40.3032 71.6781 40.5237 71.4833C40.7548 71.2893 40.8834 71.0436 40.9094 70.7461C40.9355 70.4485 40.852 70.1789 40.659 69.9372C40.4775 69.6857 40.2327 69.5465 39.9246 69.5196L37.98 69.3494ZM39.9632 68.5272C40.2714 68.5541 40.5246 68.4746 40.7229 68.2885C40.9212 68.1024 41.0325 67.8712 41.0566 67.5949C41.0817 67.308 41.0075 67.0552 40.8339 66.8366C40.6709 66.6189 40.4353 66.4966 40.1272 66.4696L38.2464 66.3051L38.0665 68.3612L39.9632 68.5272Z" fill="white"/>
	<path d="M30.6143 72.11C30.0404 72.0598 29.5286 71.9133 29.0787 71.6705C28.6288 71.4277 28.2545 71.1165 27.9558 70.7371C27.6571 70.3576 27.4374 69.9315 27.2967 69.4588C27.156 68.986 27.108 68.4946 27.1526 67.9846C27.1973 67.4745 27.3299 66.9989 27.5505 66.5578C27.772 66.1061 28.0629 65.7193 28.423 65.3975C28.783 65.0756 29.2057 64.8342 29.6909 64.6732C30.1761 64.5122 30.7056 64.4568 31.2794 64.507C31.8639 64.5582 32.381 64.7051 32.8309 64.9479C33.2808 65.1907 33.6551 65.5019 33.9538 65.8813C34.2632 66.2618 34.4877 66.6936 34.6275 67.177C34.7681 67.6497 34.8162 68.1411 34.7715 68.6512C34.7269 69.1612 34.5943 69.6368 34.3737 70.0779C34.1531 70.519 33.8574 70.9 33.4867 71.221C33.1266 71.5428 32.7039 71.7842 32.2187 71.9452C31.7335 72.1062 31.1987 72.1611 30.6143 72.11ZM30.723 70.8667C31.0949 70.8993 31.4357 70.8595 31.7453 70.7474C32.0656 70.6362 32.3417 70.4783 32.5737 70.2738C32.8067 70.0586 32.9951 69.802 33.139 69.5041C33.2828 69.2062 33.3701 68.8819 33.4008 68.5312C33.4314 68.1806 33.4018 67.846 33.3119 67.5277C33.222 67.2093 33.081 66.9239 32.8889 66.6715C32.6968 66.4192 32.4528 66.2104 32.1567 66.0453C31.8713 65.8812 31.5426 65.7828 31.1707 65.7503C30.7987 65.7177 30.458 65.7575 30.1484 65.8696C29.8388 65.9817 29.5675 66.1454 29.3345 66.3606C29.1121 66.5767 28.929 66.8337 28.7852 67.1316C28.6413 67.4296 28.5541 67.7539 28.5234 68.1045C28.4927 68.4552 28.5223 68.7897 28.6123 69.1081C28.7022 69.4265 28.8379 69.7114 29.0193 69.9628C29.2123 70.2045 29.4515 70.4075 29.737 70.5717C30.0224 70.7358 30.3511 70.8342 30.723 70.8667Z" fill="white"/>
	<path d="M23.8327 68.2402L19.9914 67.9041L19.7223 70.9804L18.3356 70.8591L18.9687 63.6227L20.3554 63.744L20.0932 66.7406L23.9345 67.0767L24.1967 64.0801L25.5675 64.2L24.9344 71.4364L23.5636 71.3165L23.8327 68.2402Z" fill="white"/>
	<path d="M256.418 65.4447L256.641 65.4642C256.854 65.4828 257.056 65.4363 257.248 65.3246C257.439 65.2128 257.644 65.0166 257.861 64.7358L258.922 63.4473C259.185 63.1277 259.446 62.8989 259.704 62.7609C259.963 62.6229 260.278 62.5702 260.65 62.6027L261.383 62.6669L261.284 63.7985L260.854 63.7609C260.641 63.7423 260.457 63.769 260.3 63.841C260.144 63.913 259.982 64.0487 259.815 64.2482L259.147 65.0892C258.883 65.4194 258.623 65.6376 258.367 65.7437C258.113 65.8392 257.851 65.8913 257.583 65.9L260.918 69.9983L259.245 69.8518L256.351 66.2098L256.057 69.5729L254.67 69.4516L255.303 62.2153L256.69 62.3366L256.418 65.4447Z" fill="white"/>
	<path d="M248.939 69.1269C248.366 69.0767 247.854 68.9302 247.404 68.6874C246.954 68.4446 246.58 68.1335 246.281 67.754C245.982 67.3745 245.763 66.9484 245.622 66.4757C245.481 66.003 245.433 65.5116 245.478 65.0015C245.522 64.4915 245.655 64.0159 245.876 63.5748C246.097 63.123 246.388 62.7362 246.748 62.4144C247.108 62.0926 247.531 61.8511 248.016 61.6902C248.501 61.5292 249.031 61.4738 249.605 61.524C250.189 61.5751 250.706 61.7221 251.156 61.9649C251.606 62.2077 251.98 62.5188 252.279 62.8983C252.588 63.2787 252.813 63.7106 252.953 64.1939C253.093 64.6667 253.141 65.1581 253.097 65.6681C253.052 66.1782 252.919 66.6537 252.699 67.0948C252.478 67.536 252.183 67.917 251.812 68.2379C251.452 68.5597 251.029 68.8012 250.544 68.9621C250.059 69.1231 249.524 69.1781 248.939 69.1269ZM249.048 67.8837C249.42 67.9162 249.761 67.8764 250.07 67.7643C250.391 67.6531 250.667 67.4953 250.899 67.2907C251.132 67.0755 251.32 66.819 251.464 66.5211C251.608 66.2231 251.695 65.8988 251.726 65.5482C251.757 65.1975 251.727 64.863 251.637 64.5446C251.547 64.2262 251.406 63.9408 251.214 63.6885C251.022 63.4361 250.778 63.2274 250.482 63.0623C250.196 62.8981 249.868 62.7998 249.496 62.7672C249.124 62.7347 248.783 62.7745 248.474 62.8866C248.164 62.9987 247.893 63.1623 247.66 63.3775C247.437 63.5936 247.254 63.8506 247.11 64.1486C246.967 64.4465 246.879 64.7708 246.849 65.1215C246.818 65.4721 246.848 65.8066 246.937 66.125C247.027 66.4434 247.163 66.7283 247.345 66.9798C247.538 67.2215 247.777 67.4244 248.062 67.5886C248.348 67.7528 248.676 67.8511 249.048 67.8837Z" fill="white"/>
	<path d="M245.327 61.3424L245.225 62.506L243.041 62.3149L242.51 68.3877L241.123 68.2664L241.654 62.1936L239.503 62.0053L239.604 60.8418L245.327 61.3424Z" fill="white"/>
	<path d="M234.65 67.8768C234.076 67.8266 233.565 67.6801 233.115 67.4373C232.665 67.1945 232.291 66.8833 231.992 66.5039C231.693 66.1244 231.473 65.6983 231.333 65.2256C231.192 64.7528 231.144 64.2614 231.189 63.7514C231.233 63.2413 231.366 62.7657 231.587 62.3246C231.808 61.8729 232.099 61.4861 232.459 61.1643C232.819 60.8424 233.242 60.601 233.727 60.44C234.212 60.279 234.742 60.2236 235.315 60.2738C235.9 60.325 236.417 60.4719 236.867 60.7147C237.317 60.9575 237.691 61.2687 237.99 61.6481C238.299 62.0286 238.524 62.4604 238.663 62.9438C238.804 63.4165 238.852 63.9079 238.808 64.418C238.763 64.928 238.63 65.4036 238.41 65.8447C238.189 66.2858 237.893 66.6668 237.523 66.9878C237.163 67.3096 236.74 67.551 236.255 67.712C235.77 67.873 235.235 67.9279 234.65 67.8768ZM234.759 66.6335C235.131 66.6661 235.472 66.6263 235.781 66.5142C236.102 66.403 236.378 66.2451 236.61 66.0406C236.843 65.8254 237.031 65.5688 237.175 65.2709C237.319 64.973 237.406 64.6487 237.437 64.298C237.467 63.9474 237.438 63.6128 237.348 63.2945C237.258 62.9761 237.117 62.6907 236.925 62.4383C236.733 62.186 236.489 61.9772 236.193 61.8121C235.907 61.648 235.579 61.5496 235.207 61.5171C234.835 61.4845 234.494 61.5243 234.184 61.6364C233.875 61.7485 233.603 61.9122 233.37 62.1274C233.148 62.3435 232.965 62.6005 232.821 62.8984C232.677 63.1964 232.59 63.5206 232.559 63.8713C232.529 64.222 232.558 64.5565 232.648 64.8749C232.738 65.1933 232.874 65.4782 233.055 65.7296C233.248 65.9713 233.488 66.1743 233.773 66.3385C234.058 66.5026 234.387 66.601 234.759 66.6335Z" fill="white"/>
	<path d="M228.969 67.2031L227.583 67.0818L228.114 61.009L224.336 60.6785L223.805 66.7513L222.418 66.63L223.051 59.3936L229.602 59.9667L228.969 67.2031Z" fill="white"/>
	<path d="M214.963 60.9024L210.828 65.0217L210.777 65.6114L209.39 65.4901L210.023 58.2538L211.41 58.3751L210.965 63.4597L215.102 59.3085L215.155 58.7028L216.526 58.8227L215.893 66.0591L214.522 65.9391L214.963 60.9024ZM213.598 55.9485C214.054 55.9885 214.442 55.9046 214.76 55.6969C215.079 55.4785 215.314 55.1725 215.467 54.779L216.758 54.8919C216.663 55.237 216.513 55.5504 216.306 55.8321C216.111 56.1042 215.866 56.3344 215.571 56.5227C215.287 56.712 214.964 56.855 214.602 56.9519C214.252 57.039 213.885 57.0658 213.503 57.0324C213.11 56.998 212.748 56.9075 212.418 56.7608C212.089 56.6036 211.796 56.4066 211.538 56.1699C211.291 55.9341 211.09 55.6649 210.934 55.3622C210.79 55.0498 210.702 54.7155 210.669 54.3592L211.976 54.4736C212.047 54.8867 212.22 55.2284 212.497 55.4989C212.784 55.7596 213.151 55.9095 213.598 55.9485Z" fill="white"/>
	<path d="M206.172 57.9169L207.543 58.0368L206.91 65.2732L205.539 65.1532L206.172 57.9169ZM199.781 57.3577L201.088 57.472L200.869 59.9745L202.813 60.1446C203.185 60.1771 203.504 60.2693 203.769 60.4209C204.046 60.5629 204.27 60.7539 204.442 60.9937C204.614 61.223 204.736 61.4853 204.807 61.7805C204.888 62.0767 204.914 62.3895 204.885 62.7189C204.857 63.0377 204.778 63.3359 204.646 63.6135C204.525 63.8921 204.36 64.1292 204.15 64.325C203.94 64.5208 203.686 64.6699 203.388 64.7723C203.09 64.8747 202.755 64.9097 202.383 64.8771L199.148 64.594L199.781 57.3577ZM200.771 61.0902L200.552 63.5927L202.242 63.7405C202.646 63.7758 202.964 63.6859 203.197 63.4707C203.442 63.2458 203.579 62.9581 203.61 62.6074C203.642 62.2355 203.563 61.9233 203.371 61.671C203.179 61.4186 202.881 61.2748 202.477 61.2394L200.771 61.0902Z" fill="white"/>
	<path d="M195.555 61.1799L191.713 60.8438L191.444 63.9201L190.057 63.7988L190.691 56.5624L192.077 56.6837L191.815 59.6803L195.656 60.0163L195.919 57.0198L197.289 57.1397L196.656 64.3761L195.286 64.2561L195.555 61.1799Z" fill="white"/>
	<path d="M183.235 55.9101L184.542 56.0244L184.323 58.5269L186.267 58.697C186.639 58.7295 186.958 58.8217 187.223 58.9733C187.5 59.1153 187.724 59.3063 187.896 59.5461C188.068 59.7754 188.19 60.0377 188.26 60.3329C188.341 60.6291 188.368 60.9419 188.339 61.2713C188.311 61.5901 188.231 61.8883 188.1 62.1659C187.979 62.4445 187.814 62.6816 187.604 62.8774C187.394 63.0732 187.14 63.2223 186.842 63.3247C186.544 63.4271 186.209 63.4621 185.837 63.4295L182.602 63.1464L183.235 55.9101ZM184.225 59.6426L184.006 62.1451L185.696 62.2929C186.1 62.3282 186.418 62.2383 186.651 62.0231C186.895 61.7982 187.033 61.5104 187.064 61.1598C187.096 60.7879 187.016 60.4757 186.824 60.2234C186.632 59.971 186.334 59.8272 185.931 59.7918L184.225 59.6426Z" fill="white"/>
	<path d="M172.807 61.1813L173.189 61.2148C173.444 61.2371 173.651 61.2016 173.809 61.1084C173.967 61.0151 174.061 60.7985 174.091 60.4584L174.555 55.1507L180.755 55.6932L180.122 62.9295L178.736 62.8082L179.267 56.7354L175.84 56.4356L175.465 60.7232C175.407 61.382 175.184 61.855 174.795 62.1422C174.417 62.4197 173.941 62.5333 173.368 62.4831L172.698 62.4245L172.807 61.1813Z" fill="white"/>
	<path d="M170.243 56.9899L166.108 61.1092L166.057 61.699L164.67 61.5776L165.303 54.3413L166.69 54.4626L166.245 59.5472L170.383 55.396L170.436 54.7903L171.806 54.9102L171.173 62.1466L169.802 62.0267L170.243 56.9899Z" fill="white"/>
	<path d="M156.77 55.4738C156.894 55.1528 157.068 54.8736 157.293 54.6362C157.518 54.3882 157.765 54.1904 158.035 54.0427C158.316 53.8959 158.608 53.793 158.913 53.7341C159.23 53.6654 159.542 53.6445 159.85 53.6715C160.414 53.7208 160.904 53.8654 161.322 54.1054C161.751 54.3464 162.099 54.6552 162.365 55.0319C162.643 55.4095 162.841 55.839 162.959 56.3205C163.079 56.7914 163.116 57.2819 163.072 57.7919C163.027 58.302 162.894 58.7776 162.674 59.2187C162.453 59.6598 162.163 60.0413 161.803 60.3631C161.443 60.6849 161.02 60.9264 160.535 61.0874C160.06 61.2493 159.547 61.3061 158.994 61.2577C158.325 61.1992 157.751 61.0258 157.273 60.7377C156.796 60.439 156.412 60.0468 156.123 59.561C155.834 59.0753 155.637 58.5014 155.535 57.8392C155.432 57.1771 155.416 56.4475 155.485 55.6506C155.54 55.0236 155.626 54.469 155.743 53.9867C155.872 53.4947 156.022 53.0635 156.194 52.6931C156.377 52.3129 156.576 51.9931 156.792 51.7335C157.008 51.4634 157.232 51.2313 157.463 51.0374C158.016 50.5932 158.619 50.3034 159.274 50.1679C159.929 50.0218 160.666 49.9845 161.484 50.0561L162.934 50.183L162.817 51.5219L160.984 51.3615C160.432 51.3132 159.92 51.3434 159.45 51.4522C158.981 51.5503 158.573 51.7555 158.224 52.0676C157.817 52.4389 157.492 52.9137 157.248 53.492C157.015 54.0713 156.856 54.7319 156.77 55.4738ZM159.023 60.0075C159.384 60.0391 159.72 59.9989 160.029 59.8867C160.35 59.7756 160.626 59.6177 160.858 59.4131C161.091 59.198 161.279 58.9414 161.423 58.6435C161.567 58.3456 161.654 58.0213 161.685 57.6706C161.716 57.3199 161.686 56.9854 161.596 56.667C161.506 56.3486 161.365 56.0633 161.173 55.8109C160.981 55.5585 160.737 55.3498 160.441 55.1847C160.155 55.0205 159.832 54.9226 159.471 54.891C159.099 54.8585 158.753 54.8925 158.434 54.9931C158.125 55.0945 157.854 55.2529 157.621 55.4681C157.388 55.6832 157.2 55.9451 157.055 56.2537C156.922 56.5525 156.839 56.8826 156.808 57.2439C156.777 57.5945 156.801 57.9286 156.88 58.2461C156.97 58.5644 157.111 58.8498 157.303 59.1022C157.495 59.3545 157.734 59.5628 158.02 59.727C158.317 59.8815 158.651 59.975 159.023 60.0075Z" fill="white"/>
	<path d="M153.623 53.3194L152.989 60.5557L151.619 60.4358L151.729 59.1766C151.456 59.6024 151.075 59.9224 150.585 60.1365C150.106 60.3516 149.6 60.4359 149.069 60.3894C148.516 60.3411 148.021 60.1959 147.581 59.9541C147.142 59.7122 146.773 59.4015 146.474 59.0221C146.186 58.6435 145.972 58.2179 145.831 57.7451C145.691 57.2724 145.642 56.781 145.687 56.271C145.732 55.7609 145.864 55.2853 146.085 54.8442C146.307 54.3925 146.592 54.0052 146.941 53.6824C147.302 53.3606 147.719 53.1187 148.193 52.9568C148.668 52.7949 149.182 52.7381 149.734 52.7864C150.266 52.8329 150.748 53.0037 151.183 53.2987C151.628 53.5946 151.948 53.9759 152.143 54.4427L152.252 53.1994L153.623 53.3194ZM149.258 59.1531C149.629 59.1857 149.97 59.1459 150.28 59.0338C150.6 58.9226 150.876 58.7647 151.108 58.5602C151.341 58.345 151.53 58.0884 151.673 57.7905C151.817 57.4926 151.905 57.1683 151.935 56.8176C151.966 56.4669 151.936 56.1324 151.846 55.814C151.756 55.4957 151.615 55.2103 151.423 54.9579C151.231 54.7056 150.987 54.4968 150.691 54.3317C150.406 54.1676 150.077 54.0692 149.705 54.0367C149.333 54.0041 148.992 54.0439 148.683 54.156C148.373 54.2681 148.102 54.4318 147.869 54.647C147.647 54.8631 147.464 55.1201 147.32 55.418C147.176 55.7159 147.089 56.0402 147.058 56.3909C147.027 56.7416 147.057 57.0761 147.147 57.3945C147.237 57.7128 147.372 57.9978 147.554 58.2492C147.747 58.4909 147.986 58.6939 148.271 58.8581C148.557 59.0222 148.886 59.1206 149.258 59.1531Z" fill="white"/>
	<path d="M145.536 52.6119L145.434 53.7754L143.25 53.5844L142.719 59.6572L141.332 59.5359L141.864 53.4631L139.712 53.2748L139.814 52.1112L145.536 52.6119Z" fill="white"/>
	<path d="M137.641 54.5713C137.627 54.1203 137.479 53.7326 137.197 53.4081C136.926 53.0739 136.451 52.8771 135.771 52.8176C135.399 52.785 135.064 52.8253 134.765 52.9383C134.476 53.0523 134.226 53.2231 134.013 53.4508C133.812 53.6688 133.65 53.9276 133.528 54.2274C133.405 54.5272 133.329 54.8471 133.299 55.1872C133.269 55.5272 133.283 55.855 133.341 56.1706C133.41 56.4871 133.53 56.7706 133.701 57.0211C133.872 57.2717 134.094 57.4785 134.369 57.6418C134.655 57.8059 134.999 57.9057 135.403 57.941C136.009 57.994 136.466 57.9055 136.775 57.6756C137.085 57.4457 137.317 57.118 137.472 56.6926L138.858 56.8139C138.773 57.1811 138.631 57.522 138.432 57.8366C138.234 58.1405 137.981 58.4021 137.672 58.6214C137.376 58.831 137.019 58.9872 136.603 59.09C136.188 59.1928 135.719 59.2214 135.199 59.1759C134.604 59.1238 134.092 58.972 133.664 58.7205C133.237 58.4689 132.884 58.1543 132.607 57.7767C132.329 57.399 132.131 56.9748 132.011 56.5039C131.903 56.034 131.87 55.5546 131.912 55.0658C131.955 54.577 132.071 54.1107 132.26 53.6668C132.459 53.2238 132.723 52.84 133.051 52.5154C133.391 52.181 133.793 51.9271 134.258 51.7537C134.733 51.5811 135.263 51.5204 135.848 51.5715C136.432 51.6227 136.924 51.7514 137.324 51.9576C137.735 52.1542 138.062 52.397 138.304 52.6859C138.558 52.9651 138.739 53.2807 138.848 53.6328C138.967 53.9859 139.027 54.3391 139.028 54.6926L137.641 54.5713Z" fill="white"/>
	<path d="M121.047 57.7611L119.437 57.6202L121.328 55.2802C121.079 55.1941 120.849 55.0669 120.639 54.8986C120.44 54.7206 120.275 54.5242 120.144 54.3093C120.014 54.0838 119.917 53.8451 119.853 53.5932C119.791 53.3308 119.771 53.072 119.793 52.817C119.822 52.4876 119.908 52.1792 120.05 51.8919C120.193 51.6046 120.386 51.3592 120.629 51.1555C120.872 50.9519 121.152 50.7998 121.472 50.6993C121.791 50.5987 122.142 50.5652 122.525 50.5986L126.27 50.9263L125.637 58.1627L124.282 58.0442L124.487 55.7011L122.734 55.5477L121.047 57.7611ZM124.588 54.5535L124.816 51.9395L122.712 51.7554C122.277 51.7173 121.92 51.8199 121.642 52.0633C121.375 52.2969 121.226 52.589 121.195 52.9397C121.165 53.2904 121.26 53.6092 121.481 53.8963C121.714 54.1736 122.048 54.3313 122.484 54.3694L124.588 54.5535Z" fill="white"/>
	<path d="M118.242 50.224L117.609 57.4603L116.238 57.3404L116.348 56.0812C116.076 56.5071 115.694 56.827 115.204 57.0412C114.725 57.2562 114.22 57.3405 113.689 57.294C113.136 57.2457 112.64 57.1006 112.201 56.8587C111.762 56.6168 111.393 56.3061 111.094 55.9267C110.806 55.5481 110.591 55.1225 110.451 54.6497C110.31 54.177 110.262 53.6856 110.307 53.1756C110.351 52.6655 110.484 52.1899 110.704 51.7488C110.926 51.2971 111.212 50.9098 111.561 50.5871C111.921 50.2652 112.338 50.0233 112.813 49.8614C113.288 49.6995 113.801 49.6427 114.354 49.691C114.885 49.7375 115.368 49.9083 115.803 50.2033C116.248 50.4992 116.568 50.8805 116.763 51.3473L116.871 50.104L118.242 50.224ZM113.877 56.0577C114.249 56.0903 114.59 56.0505 114.899 55.9384C115.22 55.8272 115.496 55.6693 115.728 55.4648C115.961 55.2496 116.149 54.993 116.293 54.6951C116.437 54.3972 116.524 54.0729 116.555 53.7222C116.585 53.3716 116.556 53.037 116.466 52.7187C116.376 52.4003 116.235 52.1149 116.043 51.8625C115.851 51.6102 115.607 51.4014 115.311 51.2363C115.025 51.0722 114.697 50.9738 114.325 50.9413C113.953 50.9087 113.612 50.9485 113.302 51.0606C112.993 51.1727 112.721 51.3364 112.488 51.5516C112.266 51.7677 112.083 52.0247 111.939 52.3226C111.795 52.6206 111.708 52.9448 111.677 53.2955C111.647 53.6462 111.676 53.9807 111.766 54.2991C111.856 54.6175 111.992 54.9024 112.173 55.1538C112.366 55.3955 112.606 55.5985 112.891 55.7627C113.176 55.9268 113.505 56.0252 113.877 56.0577Z" fill="white"/>
	<path d="M103.461 48.9308L106.809 49.2237C107.265 49.2636 107.637 49.3604 107.923 49.5139C108.211 49.6569 108.431 49.8314 108.584 50.0375C108.749 50.234 108.854 50.4466 108.898 50.6753C108.943 50.8934 108.957 51.1034 108.939 51.3053C108.902 51.7303 108.711 52.083 108.365 52.3632C108.031 52.6338 107.633 52.7757 107.171 52.7888C107.404 52.8199 107.623 52.8873 107.828 52.9909C108.033 53.0945 108.209 53.2276 108.355 53.3903C108.502 53.553 108.613 53.7448 108.69 53.9657C108.767 54.1866 108.794 54.4299 108.771 54.6955C108.753 54.8974 108.692 55.1115 108.586 55.3379C108.492 55.5545 108.341 55.7554 108.132 55.9406C107.924 56.1151 107.655 56.2575 107.324 56.3678C106.994 56.4674 106.585 56.4958 106.096 56.453L102.828 56.1672L103.461 48.9308ZM104.463 53.0819L104.269 55.2975L106.214 55.4676C106.522 55.4946 106.787 55.4106 107.007 55.2158C107.238 55.0218 107.367 54.7761 107.393 54.4786C107.419 54.181 107.335 53.9114 107.142 53.6697C106.961 53.4182 106.716 53.279 106.408 53.2521L104.463 53.0819ZM106.447 52.2597C106.755 52.2866 107.008 52.2071 107.206 52.021C107.405 51.8349 107.516 51.6037 107.54 51.3274C107.565 51.0405 107.491 50.7877 107.317 50.5691C107.154 50.3514 106.919 50.2291 106.61 50.2021L104.73 50.0376L104.55 52.0937L106.447 52.2597Z" fill="white"/>
	<path d="M99.4044 50.7923L95.2696 54.9116L95.218 55.5014L93.8313 55.3801L94.4644 48.1437L95.8511 48.265L95.4063 53.3496L99.5438 49.1984L99.5968 48.5927L100.968 48.7126L100.334 55.949L98.9637 55.8291L99.4044 50.7923Z" fill="white"/>
	<path d="M89.9654 55.0418L90.1593 52.8263L88.39 52.6715C87.5825 52.6008 86.9732 52.3441 86.5622 51.9013C86.1628 51.4487 85.9994 50.8081 86.0719 49.9792L86.295 47.429L87.6817 47.5503L87.4614 50.0687C87.3833 50.9613 87.7958 51.4471 88.699 51.5261L90.2611 51.6627L90.5985 47.8055L91.9852 47.9268L91.3521 55.1632L89.9654 55.0418Z" fill="white"/>
	<path d="M78.9584 50.8024C78.9421 51.1115 78.9643 51.4079 79.0252 51.6916C79.0869 51.9647 79.1935 52.2149 79.345 52.4423C79.5079 52.66 79.722 52.8447 79.9871 52.9964C80.2532 53.1374 80.5881 53.2256 80.9919 53.261C81.5338 53.3084 81.9527 53.2326 82.2485 53.0336C82.5558 52.8249 82.7814 52.5716 82.9253 52.2737L84.3279 52.3964C84.2478 52.6999 84.1054 52.9819 83.9006 53.2424C83.7064 53.5038 83.4618 53.7287 83.167 53.917C82.8721 54.1054 82.5331 54.247 82.1501 54.342C81.767 54.437 81.347 54.4645 80.8901 54.4245C80.2844 54.3715 79.7619 54.2241 79.3227 53.9822C78.894 53.7413 78.5458 53.4378 78.278 53.0717C78.0103 52.7056 77.822 52.2876 77.7132 51.8177C77.6053 51.3371 77.5742 50.8365 77.6197 50.3158C77.6671 49.7739 77.7857 49.2757 77.9754 48.8212C78.1757 48.3676 78.4394 47.9837 78.7667 47.6697C79.1046 47.3567 79.4998 47.1236 79.9522 46.9704C80.4152 46.8182 80.9336 46.7672 81.5074 46.8174C81.975 46.8583 82.4032 46.9814 82.7921 47.1867C83.1926 47.3824 83.5286 47.642 83.8001 47.9656C84.0822 48.29 84.2906 48.6616 84.4253 49.0803C84.5716 49.4893 84.6247 49.9222 84.5847 50.3791C84.5754 50.4854 84.559 50.6124 84.5353 50.7603C84.5223 50.909 84.491 51.083 84.4415 51.2821L78.9584 50.8024ZM81.3821 47.8825C80.7552 47.8277 80.2293 47.9637 79.8046 48.2906C79.3807 48.6068 79.1293 49.0934 79.0505 49.7504L83.2424 50.1171C83.2982 49.4796 83.1453 48.963 82.7838 48.5673C82.4338 48.1619 81.9666 47.9336 81.3821 47.8825Z" fill="white"/>
	<path d="M75.3685 53.7648L73.9818 53.6434L74.513 47.5706L70.7355 47.2401L70.2042 53.3129L68.8175 53.1916L69.4506 45.9553L76.0016 46.5284L75.3685 53.7648Z" fill="white"/>
	<path d="M65.8685 48.292C65.8545 47.841 65.7064 47.4533 65.4242 47.1288C65.1537 46.7946 64.6783 46.5978 63.9983 46.5383C63.6264 46.5057 63.2909 46.546 62.9919 46.659C62.7035 46.773 62.453 46.9438 62.2404 47.1715C62.0393 47.3895 61.8774 47.6483 61.7549 47.9481C61.6323 48.2479 61.5561 48.5678 61.5263 48.9079C61.4966 49.2479 61.5107 49.5757 61.5688 49.8913C61.6375 50.2078 61.7572 50.4913 61.928 50.7418C62.0988 50.9924 62.3217 51.1992 62.5965 51.3625C62.8819 51.5266 63.2265 51.6264 63.6303 51.6617C64.236 51.7147 64.6935 51.6262 65.0027 51.3963C65.3119 51.1664 65.544 50.8387 65.699 50.4133L67.0857 50.5346C67 50.9018 66.8578 51.2427 66.659 51.5573C66.4611 51.8612 66.208 52.1228 65.8997 52.3421C65.6029 52.5517 65.2466 52.7079 64.8308 52.8107C64.4149 52.9135 63.9466 52.9422 63.4259 52.8966C62.8309 52.8445 62.3195 52.6927 61.8918 52.4412C61.4641 52.1896 61.1115 51.875 60.834 51.4974C60.5565 51.1198 60.3581 50.6955 60.2387 50.2246C60.1299 49.7547 60.0969 49.2753 60.1396 48.7865C60.1824 48.2977 60.2981 47.8314 60.4869 47.3875C60.6863 46.9445 60.95 46.5607 61.2783 46.2361C61.618 45.9017 62.0203 45.6478 62.4852 45.4744C62.9607 45.3018 63.4907 45.2411 64.0752 45.2922C64.6596 45.3434 65.1516 45.4721 65.5511 45.6784C65.9622 45.8749 66.289 46.1177 66.5314 46.4066C66.7854 46.6858 66.9665 47.0014 67.0749 47.3535C67.1939 47.7066 67.254 48.0598 67.2552 48.4133L65.8685 48.292Z" fill="white"/>
	<path d="M53.1196 48.5418C53.1033 48.8509 53.1255 49.1473 53.1864 49.431C53.2481 49.7041 53.3547 49.9543 53.5062 50.1817C53.6691 50.3994 53.8832 50.5841 54.1483 50.7358C54.4144 50.8768 54.7493 50.965 55.1531 51.0004C55.695 51.0478 56.1139 50.972 56.4097 50.773C56.717 50.5643 56.9426 50.311 57.0865 50.0131L58.4891 50.1358C58.409 50.4393 58.2666 50.7213 58.0618 50.9818C57.8676 51.2432 57.6231 51.4681 57.3282 51.6564C57.0333 51.8448 56.6943 51.9864 56.3113 52.0814C55.9282 52.1764 55.5082 52.2039 55.0513 52.1639C54.4456 52.1109 53.9231 51.9635 53.4839 51.7216C53.0552 51.4807 52.707 51.1772 52.4393 50.8111C52.1715 50.445 51.9832 50.027 51.8744 49.5571C51.7665 49.0765 51.7354 48.5759 51.7809 48.0552C51.8283 47.5133 51.9469 47.0151 52.1366 46.5606C52.3369 46.107 52.6006 45.7231 52.9279 45.4091C53.2658 45.0961 53.661 44.863 54.1134 44.7098C54.5764 44.5576 55.0948 44.5066 55.6686 44.5568C56.1362 44.5977 56.5644 44.7208 56.9533 44.9261C57.3538 45.1218 57.6898 45.3814 57.9613 45.705C58.2434 46.0294 58.4518 46.401 58.5865 46.8197C58.7328 47.2287 58.7859 47.6616 58.7459 48.1185C58.7366 48.2248 58.7202 48.3518 58.6965 48.4997C58.6835 48.6484 58.6522 48.8224 58.6027 49.0215L53.1196 48.5418ZM55.5433 45.6219C54.9164 45.5671 54.3905 45.7031 53.9658 46.03C53.5419 46.3462 53.2906 46.8328 53.2117 47.4898L57.4036 47.8565C57.4594 47.219 57.3065 46.7024 56.945 46.3067C56.595 45.9013 56.1278 45.673 55.5433 45.6219Z" fill="white"/>
	<path d="M44.1218 45.6184C44.2463 45.2974 44.4206 45.0182 44.6448 44.7808C44.8699 44.5328 45.1175 44.335 45.3874 44.1873C45.6679 44.0405 45.9606 43.9376 46.2656 43.8787C46.5821 43.81 46.8945 43.7891 47.2026 43.8161C47.7658 43.8654 48.2564 44.01 48.6744 44.25C49.103 44.491 49.4508 44.7998 49.7176 45.1765C49.9951 45.5541 50.1931 45.9836 50.3116 46.4651C50.431 46.936 50.4684 47.4265 50.4237 47.9365C50.3791 48.4466 50.2465 48.9221 50.0259 49.3633C49.8053 49.8044 49.5149 50.1859 49.1548 50.5077C48.7947 50.8295 48.3721 51.071 47.8869 51.2319C47.4123 51.3939 46.8987 51.4507 46.3462 51.4023C45.6767 51.3437 45.103 51.1704 44.6249 50.8823C44.1478 50.5836 43.7646 50.1914 43.4751 49.7056C43.1857 49.2199 42.9896 48.6459 42.8869 47.9838C42.7843 47.3217 42.7678 46.5921 42.8375 45.7952C42.8924 45.1682 42.9784 44.6136 43.0955 44.1313C43.2242 43.6393 43.3744 43.2081 43.546 42.8377C43.7291 42.4575 43.9284 42.1377 44.1439 41.8781C44.3602 41.608 44.584 41.3759 44.8151 41.182C45.3679 40.7378 45.9715 40.448 46.6258 40.3125C47.281 40.1664 48.0177 40.1291 48.8359 40.2007L50.2864 40.3276L50.1693 41.6665L48.3363 41.5061C47.7837 41.4578 47.2724 41.488 46.8025 41.5968C46.3335 41.6949 45.9247 41.9001 45.5762 42.2122C45.169 42.5835 44.8437 43.0583 44.6004 43.6366C44.3676 44.2159 44.2081 44.8765 44.1218 45.6184ZM46.3752 50.1521C46.7365 50.1837 47.072 50.1435 47.3816 50.0313C47.7018 49.9202 47.978 49.7623 48.21 49.5577C48.443 49.3426 48.6314 49.086 48.7753 48.7881C48.9191 48.4901 49.0064 48.1658 49.037 47.8152C49.0677 47.4645 49.0381 47.13 48.9482 46.8116C48.8582 46.4932 48.7173 46.2079 48.5252 45.9555C48.3331 45.7031 48.089 45.4944 47.793 45.3293C47.5075 45.1651 47.1842 45.0672 46.8229 45.0356C46.451 45.0031 46.1054 45.0371 45.786 45.1377C45.4774 45.2391 45.2065 45.3975 44.9735 45.6126C44.7406 45.8278 44.5517 46.0897 44.4069 46.3983C44.2737 46.6971 44.1913 47.0272 44.1597 47.3885C44.129 47.7391 44.1533 48.0732 44.2326 48.3906C44.3225 48.709 44.4635 48.9944 44.6556 49.2468C44.8477 49.4991 45.0864 49.7074 45.3719 49.8716C45.6689 50.026 46.0033 50.1196 46.3752 50.1521Z" fill="white"/>
	<path d="M37.0924 50.5927C36.5186 50.5425 36.0067 50.396 35.5569 50.1532C35.107 49.9104 34.7327 49.5993 34.4339 49.2198C34.1352 48.8403 33.9155 48.4142 33.7748 47.9415C33.6342 47.4688 33.5861 46.9774 33.6308 46.4673C33.6754 45.9573 33.808 45.4817 34.0286 45.0406C34.2502 44.5888 34.541 44.202 34.9011 43.8802C35.2612 43.5583 35.6838 43.3169 36.169 43.1559C36.6542 42.9949 37.1838 42.9396 37.7576 42.9898C38.342 43.0409 38.8592 43.1878 39.309 43.4306C39.7589 43.6735 40.1332 43.9846 40.432 44.3641C40.7413 44.7445 40.9659 45.1764 41.1056 45.6597C41.2463 46.1324 41.2943 46.6238 41.2497 47.1339C41.205 47.6439 41.0724 48.1195 40.8518 48.5606C40.6312 49.0018 40.3355 49.3828 39.9648 49.7037C39.6047 50.0255 39.1821 50.2669 38.6969 50.4279C38.2116 50.5889 37.6768 50.6438 37.0924 50.5927ZM37.2012 49.3495C37.5731 49.382 37.9138 49.3422 38.2234 49.2301C38.5437 49.1189 38.8198 48.9611 39.0519 48.7565C39.2849 48.5413 39.4733 48.2848 39.6171 47.9868C39.761 47.6889 39.8482 47.3646 39.8789 47.014C39.9096 46.6633 39.88 46.3288 39.79 46.0104C39.7001 45.692 39.5591 45.4066 39.367 45.1543C39.175 44.9019 38.9309 44.6932 38.6348 44.5281C38.3494 44.3639 38.0207 44.2655 37.6488 44.233C37.2769 44.2005 36.9361 44.2402 36.6265 44.3524C36.3169 44.4645 36.0456 44.6281 35.8126 44.8433C35.5903 45.0594 35.4072 45.3164 35.2633 45.6144C35.1195 45.9123 35.0322 46.2366 35.0015 46.5872C34.9709 46.9379 35.0005 47.2724 35.0904 47.5908C35.1803 47.9092 35.316 48.1941 35.4975 48.4455C35.6905 48.6873 35.9297 48.8902 36.2151 49.0544C36.5006 49.2186 36.8292 49.3169 37.2012 49.3495Z" fill="white"/>
	<path d="M229.601 44.1464C229.628 43.8382 229.757 43.5819 229.989 43.3773C230.221 43.1728 230.502 43.0849 230.831 43.1137C231.235 43.1491 231.546 43.3262 231.765 43.6451C231.983 43.964 232.071 44.3625 232.03 44.8407C231.991 45.2764 231.901 45.6379 231.758 45.9252C231.625 46.224 231.443 46.4598 231.214 46.6325C230.996 46.8061 230.734 46.9224 230.429 46.9814C230.135 47.0413 229.801 47.0549 229.429 47.0224L229.489 46.337C229.776 46.3621 230.02 46.3352 230.219 46.2563C230.418 46.188 230.572 46.0837 230.68 45.9433C230.86 45.7235 230.96 45.4967 230.981 45.2629C230.946 45.292 230.891 45.3139 230.814 45.3287C230.748 45.355 230.677 45.3649 230.603 45.3584C230.263 45.3286 230.001 45.1986 229.818 44.9684C229.646 44.7286 229.574 44.4545 229.601 44.1464Z" fill="white"/>
	<path d="M223.588 48.7599C222.557 48.6697 221.762 48.3378 221.202 47.7641C220.652 47.1914 220.413 46.3781 220.484 45.3243L221.886 45.447C221.871 46.1095 222.02 46.615 222.332 46.9636C222.654 47.3237 223.117 47.5302 223.723 47.5832C224.031 47.6101 224.311 47.5971 224.562 47.5441C224.822 47.5027 225.045 47.4044 225.23 47.2492C225.424 47.1057 225.582 46.8999 225.701 46.632C225.821 46.3641 225.899 46.0229 225.936 45.6085L226.114 43.5683C225.862 43.996 225.507 44.3236 225.048 44.5512C224.6 44.7796 224.068 44.8669 223.451 44.813C222.92 44.7665 222.481 44.6478 222.133 44.4568C221.797 44.2667 221.53 44.0131 221.333 43.6961C221.155 43.4021 221.038 43.0814 220.983 42.734C220.94 42.3768 220.941 41.9272 220.989 41.3853L221.358 37.1614L222.745 37.2828L222.413 41.0763C222.382 41.4269 222.381 41.7533 222.408 42.0555C222.446 42.348 222.526 42.6066 222.645 42.8312C222.775 43.0567 222.952 43.2381 223.176 43.3755C223.399 43.5128 223.692 43.5973 224.053 43.6289C224.404 43.6596 224.712 43.6223 224.978 43.5171C225.245 43.4013 225.468 43.2388 225.647 43.0296C225.838 42.8107 225.988 42.5562 226.099 42.2661C226.211 41.976 226.28 41.6662 226.309 41.3368L226.634 37.623L228.021 37.7443L227.322 45.7298C227.221 46.8881 226.855 47.7073 226.224 48.1875C225.593 48.6676 224.714 48.8584 223.588 48.7599Z" fill="white"/>
	<path d="M217.744 39.4953C217.73 39.0444 217.582 38.6567 217.3 38.3322C217.03 37.998 216.554 37.8012 215.874 37.7417C215.502 37.7091 215.167 37.7494 214.868 37.8624C214.579 37.9764 214.329 38.1472 214.116 38.3749C213.915 38.5928 213.753 38.8517 213.631 39.1515C213.508 39.4513 213.432 39.7712 213.402 40.1112C213.372 40.4513 213.387 40.7791 213.445 41.0947C213.513 41.4112 213.633 41.6947 213.804 41.9452C213.975 42.1957 214.198 42.4026 214.472 42.5658C214.758 42.73 215.102 42.8298 215.506 42.8651C216.112 42.9181 216.569 42.8296 216.879 42.5997C217.188 42.3698 217.42 42.0421 217.575 41.6166L218.962 41.738C218.876 42.1052 218.734 42.4461 218.535 42.7607C218.337 43.0646 218.084 43.3262 217.776 43.5455C217.479 43.7551 217.122 43.9113 216.707 44.0141C216.291 44.1169 215.822 44.1455 215.302 44.1C214.707 44.0479 214.195 43.8961 213.768 43.6445C213.34 43.393 212.987 43.0784 212.71 42.7008C212.432 42.3231 212.234 41.8989 212.115 41.428C212.006 40.9581 211.973 40.4787 212.016 39.9899C212.058 39.5011 212.174 39.0348 212.363 38.5909C212.562 38.1479 212.826 37.7641 213.154 37.4394C213.494 37.1051 213.896 36.8512 214.361 36.6777C214.837 36.5052 215.367 36.4445 215.951 36.4956C216.535 36.5468 217.027 36.6755 217.427 36.8817C217.838 37.0783 218.165 37.321 218.407 37.6099C218.661 37.8891 218.842 38.2048 218.951 38.5569C219.07 38.91 219.13 39.2632 219.131 39.6167L217.744 39.4953Z" fill="white"/>
	<path d="M204.995 39.7452C204.979 40.0542 205.001 40.3506 205.062 40.6344C205.124 40.9074 205.231 41.1577 205.382 41.3851C205.545 41.6028 205.759 41.7875 206.024 41.9392C206.29 42.0802 206.625 42.1684 207.029 42.2037C207.571 42.2511 207.99 42.1754 208.286 41.9764C208.593 41.7677 208.818 41.5144 208.962 41.2165L210.365 41.3392C210.285 41.6427 210.142 41.9247 209.938 42.1852C209.743 42.4466 209.499 42.6715 209.204 42.8598C208.909 43.0482 208.57 43.1898 208.187 43.2848C207.804 43.3798 207.384 43.4073 206.927 43.3673C206.321 43.3143 205.799 43.1669 205.36 42.925C204.931 42.6841 204.583 42.3806 204.315 42.0145C204.047 41.6484 203.859 41.2304 203.75 40.7605C203.642 40.2799 203.611 39.7793 203.657 39.2586C203.704 38.7167 203.823 38.2185 204.012 37.7639C204.213 37.3103 204.477 36.9265 204.804 36.6125C205.142 36.2995 205.537 36.0663 205.989 35.9132C206.452 35.761 206.971 35.7099 207.544 35.7602C208.012 35.8011 208.44 35.9242 208.829 36.1295C209.23 36.3252 209.566 36.5848 209.837 36.9083C210.119 37.2328 210.328 37.6044 210.462 38.0231C210.609 38.432 210.662 38.865 210.622 39.3219C210.613 39.4282 210.596 39.5552 210.572 39.7031C210.559 39.8518 210.528 40.0257 210.479 40.2249L204.995 39.7452ZM207.419 36.8253C206.792 36.7704 206.266 36.9065 205.842 37.2333C205.418 37.5496 205.166 38.0362 205.088 38.6932L209.28 39.0599C209.335 38.4224 209.182 37.9057 208.821 37.51C208.471 37.1047 208.004 36.8764 207.419 36.8253Z" fill="white"/>
	<path d="M200.305 39.5115L196.464 39.1754L196.195 42.2516L194.808 42.1303L195.441 34.894L196.828 35.0153L196.565 38.0118L200.407 38.3479L200.669 35.3514L202.04 35.4713L201.407 42.7076L200.036 42.5877L200.305 39.5115Z" fill="white"/>
	<path d="M188.784 39.4351C188.753 39.7964 188.86 40.1002 189.106 40.3466C189.353 40.5824 189.732 40.7226 190.242 40.7672C190.646 40.8025 190.983 40.7463 191.252 40.5986C191.523 40.4403 191.674 40.1911 191.703 39.8511C191.733 39.511 191.635 39.2241 191.409 38.9902C191.194 38.7572 190.842 38.6193 190.353 38.5765L189.572 38.5082L189.659 37.52L190.36 37.5814C190.849 37.6241 191.208 37.5538 191.438 37.3705C191.68 37.1775 191.816 36.911 191.846 36.571C191.873 36.2628 191.778 36.0029 191.561 35.7912C191.344 35.5688 191.035 35.44 190.631 35.4047C190.153 35.3628 189.792 35.4437 189.549 35.6474C189.318 35.8413 189.188 36.1083 189.158 36.4483L187.819 36.3312C187.879 35.6511 188.171 35.1252 188.696 34.7536C189.233 34.3722 189.915 34.2178 190.744 34.2903C191.541 34.36 192.157 34.6013 192.592 35.0141C193.038 35.4279 193.235 35.927 193.184 36.5114C193.14 37.0108 192.968 37.3919 192.666 37.6546C192.365 37.9174 191.983 38.0659 191.519 38.1004C191.993 38.1953 192.37 38.4104 192.651 38.7455C192.944 39.0709 193.068 39.4939 193.022 40.0146C192.993 40.344 192.893 40.6351 192.721 40.8877C192.55 41.1297 192.328 41.3352 192.057 41.5041C191.786 41.6625 191.476 41.7746 191.128 41.8405C190.79 41.9073 190.43 41.924 190.047 41.8905C189.155 41.8124 188.483 41.5395 188.031 41.0716C187.579 40.6038 187.384 40.0193 187.446 39.318L188.784 39.4351Z" fill="white"/>
	<path d="M184.551 36.1576L180.416 40.2769L180.364 40.8667L178.978 40.7454L179.611 33.509L180.997 33.6303L180.553 38.7149L184.69 34.5637L184.743 33.958L186.114 34.078L185.481 41.3143L184.11 41.1944L184.551 36.1576Z" fill="white"/>
	<path d="M171.077 34.6416C171.202 34.3205 171.376 34.0413 171.6 33.804C171.825 33.556 172.073 33.3581 172.343 33.2104C172.623 33.0636 172.916 32.9608 173.221 32.9018C173.538 32.8331 173.85 32.8123 174.158 32.8392C174.721 32.8885 175.212 33.0331 175.63 33.2731C176.058 33.5141 176.406 33.8229 176.673 34.1996C176.951 34.5772 177.149 35.0068 177.267 35.4883C177.386 35.9591 177.424 36.4496 177.379 36.9596C177.335 37.4697 177.202 37.9453 176.981 38.3864C176.761 38.8275 176.47 39.209 176.11 39.5308C175.75 39.8527 175.328 40.0941 174.842 40.2551C174.368 40.417 173.854 40.4738 173.302 40.4254C172.632 40.3669 172.058 40.1935 171.58 39.9054C171.103 39.6067 170.72 39.2145 170.431 38.7288C170.141 38.243 169.945 37.6691 169.842 37.0069C169.74 36.3448 169.723 35.6153 169.793 34.8183C169.848 34.1914 169.934 33.6367 170.051 33.1545C170.18 32.6625 170.33 32.2312 170.501 31.8608C170.685 31.4806 170.884 31.1608 171.099 30.9013C171.316 30.6311 171.539 30.399 171.771 30.2051C172.323 29.7609 172.927 29.4711 173.581 29.3356C174.236 29.1895 174.973 29.1522 175.791 29.2238L177.242 29.3507L177.125 30.6896L175.292 30.5292C174.739 30.4809 174.228 30.5111 173.758 30.6199C173.289 30.7181 172.88 30.9232 172.532 31.2354C172.124 31.6066 171.799 32.0814 171.556 32.6597C171.323 33.239 171.164 33.8996 171.077 34.6416ZM173.331 39.1752C173.692 39.2068 174.027 39.1666 174.337 39.0545C174.657 38.9433 174.933 38.7854 175.165 38.5809C175.398 38.3657 175.587 38.1091 175.731 37.8112C175.875 37.5133 175.962 37.189 175.992 36.8383C176.023 36.4877 175.994 36.1531 175.904 35.8347C175.814 35.5164 175.673 35.231 175.481 34.9786C175.289 34.7263 175.044 34.5175 174.748 34.3524C174.463 34.1883 174.14 34.0904 173.778 34.0588C173.406 34.0262 173.061 34.0602 172.741 34.1608C172.433 34.2623 172.162 34.4206 171.929 34.6358C171.696 34.851 171.507 35.1128 171.362 35.4214C171.229 35.7202 171.147 36.0503 171.115 36.4116C171.084 36.7623 171.109 37.0963 171.188 37.4138C171.278 37.7322 171.419 38.0175 171.611 38.2699C171.803 38.5223 172.042 38.7305 172.327 38.8947C172.624 39.0492 172.959 39.1427 173.331 39.1752Z" fill="white"/>
	<path d="M163.258 39.37L161.999 39.2599L162.528 33.203L159.385 39.0312L158.444 38.9489L156.36 32.6633L155.83 38.7202L154.571 38.61L155.204 31.3737L157.228 31.5508L159.085 37.1259L161.882 31.958L163.891 32.1337L163.258 39.37Z" fill="white"/>
	<path d="M147.31 34.6983C147.293 35.0074 147.315 35.3038 147.376 35.5875C147.438 35.8606 147.545 36.1108 147.696 36.3382C147.859 36.5559 148.073 36.7406 148.338 36.8923C148.604 37.0334 148.939 37.1215 149.343 37.1569C149.885 37.2043 150.304 37.1285 150.6 36.9295C150.907 36.7209 151.133 36.4676 151.276 36.1696L152.679 36.2923C152.599 36.5958 152.457 36.8778 152.252 37.1383C152.058 37.3997 151.813 37.6246 151.518 37.8129C151.223 38.0013 150.884 38.143 150.501 38.2379C150.118 38.3329 149.698 38.3604 149.241 38.3204C148.636 38.2674 148.113 38.12 147.674 37.8781C147.245 37.6372 146.897 37.3337 146.629 36.9676C146.361 36.6016 146.173 36.1836 146.064 35.7136C145.956 35.2331 145.925 34.7324 145.971 34.2118C146.018 33.6698 146.137 33.1716 146.327 32.7171C146.527 32.2635 146.791 31.8797 147.118 31.5657C147.456 31.2526 147.851 31.0195 148.303 30.8663C148.766 30.7141 149.285 30.6631 149.859 30.7133C150.326 30.7542 150.754 30.8773 151.143 31.0827C151.544 31.2783 151.88 31.5379 152.151 31.8615C152.433 32.186 152.642 32.5575 152.776 32.9762C152.923 33.3852 152.976 33.8181 152.936 34.275C152.927 34.3813 152.91 34.5084 152.886 34.6562C152.873 34.805 152.842 34.9789 152.793 35.178L147.31 34.6983ZM149.733 31.7784C149.106 31.7236 148.58 31.8596 148.156 32.1865C147.732 32.5027 147.481 32.9894 147.402 33.6463L151.594 34.0131C151.649 33.3755 151.496 32.8589 151.135 32.4632C150.785 32.0578 150.318 31.8296 149.733 31.7784Z" fill="white"/>
	<path d="M144.364 30.4253L143.731 37.6617L142.36 37.5417L142.47 36.2825C142.197 36.7084 141.816 37.0284 141.326 37.2425C140.847 37.4575 140.342 37.5418 139.81 37.4953C139.258 37.447 138.762 37.3019 138.323 37.06C137.883 36.8181 137.514 36.5075 137.216 36.128C136.928 35.7494 136.713 35.3238 136.573 34.8511C136.432 34.3783 136.384 33.887 136.428 33.3769C136.473 32.8669 136.606 32.3913 136.826 31.9502C137.048 31.4984 137.333 31.1112 137.683 30.7884C138.043 30.4665 138.46 30.2247 138.935 30.0627C139.409 29.9008 139.923 29.844 140.476 29.8924C141.007 29.9389 141.49 30.1096 141.924 30.4046C142.37 30.7005 142.69 31.0819 142.884 31.5486L142.993 30.3054L144.364 30.4253ZM139.999 36.2591C140.371 36.2916 140.712 36.2518 141.021 36.1397C141.341 36.0285 141.618 35.8707 141.85 35.6661C142.083 35.4509 142.271 35.1944 142.415 34.8964C142.559 34.5985 142.646 34.2742 142.677 33.9235C142.707 33.5729 142.678 33.2384 142.588 32.92C142.498 32.6016 142.357 32.3162 142.165 32.0639C141.973 31.8115 141.729 31.6028 141.433 31.4377C141.147 31.2735 140.818 31.1751 140.447 31.1426C140.075 31.1101 139.734 31.1498 139.424 31.262C139.115 31.3741 138.843 31.5377 138.61 31.7529C138.388 31.969 138.205 32.226 138.061 32.5239C137.917 32.8219 137.83 33.1462 137.799 33.4968C137.769 33.8475 137.798 34.182 137.888 34.5004C137.978 34.8188 138.114 35.1037 138.295 35.3551C138.488 35.5969 138.727 35.7998 139.013 35.964C139.298 36.1282 139.627 36.2265 139.999 36.2591Z" fill="white"/>
	<path d="M136.409 29.7294L136.308 30.8929L133.343 30.6336L132.812 36.7064L131.425 36.585L132.058 29.3487L136.409 29.7294Z" fill="white"/>
	<path d="M125.694 36.2603C125.121 36.2101 124.609 36.0636 124.159 35.8208C123.709 35.578 123.335 35.2669 123.036 34.8874C122.737 34.5079 122.517 34.0818 122.377 33.6091C122.236 33.1364 122.188 32.645 122.233 32.1349C122.277 31.6249 122.41 31.1493 122.631 30.7082C122.852 30.2564 123.143 29.8697 123.503 29.5478C123.863 29.226 124.286 28.9846 124.771 28.8236C125.256 28.6626 125.786 28.6072 126.359 28.6574C126.944 28.7085 127.461 28.8555 127.911 29.0983C128.361 29.3411 128.735 29.6522 129.034 30.0317C129.343 30.4121 129.568 30.844 129.708 31.3273C129.848 31.8001 129.896 32.2915 129.852 32.8015C129.807 33.3116 129.674 33.7871 129.454 34.2283C129.233 34.6694 128.937 35.0504 128.567 35.3713C128.207 35.6931 127.784 35.9346 127.299 36.0956C126.814 36.2565 126.279 36.3115 125.694 36.2603ZM125.803 35.0171C126.175 35.0496 126.516 35.0098 126.825 34.8977C127.146 34.7866 127.422 34.6287 127.654 34.4241C127.887 34.209 128.075 33.9524 128.219 33.6545C128.363 33.3565 128.45 33.0322 128.481 32.6816C128.512 32.3309 128.482 31.9964 128.392 31.678C128.302 31.3596 128.161 31.0743 127.969 30.8219C127.777 30.5695 127.533 30.3608 127.237 30.1957C126.951 30.0315 126.623 29.9332 126.251 29.9006C125.879 29.8681 125.538 29.9079 125.228 30.02C124.919 30.1321 124.648 30.2957 124.415 30.5109C124.192 30.727 124.009 30.9841 123.865 31.282C123.721 31.5799 123.634 31.9042 123.603 32.2549C123.573 32.6055 123.602 32.94 123.692 33.2584C123.782 33.5768 123.918 33.8617 124.099 34.1132C124.292 34.3549 124.532 34.5579 124.817 34.722C125.103 34.8862 125.431 34.9845 125.803 35.0171Z" fill="white"/>
	<path d="M120.017 35.5869L118.757 35.4768L119.287 29.4199L116.143 35.2481L115.203 35.1658L113.119 28.8802L112.589 34.9371L111.33 34.8269L111.963 27.5906L113.987 27.7677L115.844 33.3428L118.641 28.1749L120.65 28.3506L120.017 35.5869Z" fill="white"/>
	<path d="M105.599 34.5022C105.025 34.452 104.514 34.3055 104.064 34.0627C103.614 33.8199 103.239 33.5088 102.941 33.1293C102.642 32.7498 102.422 32.3237 102.282 31.851C102.141 31.3783 102.093 30.8869 102.138 30.3768C102.182 29.8668 102.315 29.3912 102.535 28.9501C102.757 28.4983 103.048 28.1116 103.408 27.7897C103.768 27.4679 104.191 27.2265 104.676 27.0655C105.161 26.9045 105.691 26.8491 106.264 26.8993C106.849 26.9504 107.366 27.0974 107.816 27.3402C108.266 27.583 108.64 27.8941 108.939 28.2736C109.248 28.654 109.473 29.0859 109.612 29.5692C109.753 30.042 109.801 30.5334 109.756 31.0434C109.712 31.5535 109.579 32.029 109.359 32.4702C109.138 32.9113 108.842 33.2923 108.472 33.6132C108.112 33.9351 107.689 34.1765 107.204 34.3375C106.718 34.4984 106.184 34.5534 105.599 34.5022ZM105.708 33.259C106.08 33.2915 106.421 33.2517 106.73 33.1396C107.051 33.0285 107.327 32.8706 107.559 32.666C107.792 32.4509 107.98 32.1943 108.124 31.8964C108.268 31.5984 108.355 31.2741 108.386 30.9235C108.416 30.5728 108.387 30.2383 108.297 29.9199C108.207 29.6015 108.066 29.3162 107.874 29.0638C107.682 28.8114 107.438 28.6027 107.142 28.4376C106.856 28.2734 106.528 28.1751 106.156 28.1425C105.784 28.11 105.443 28.1498 105.133 28.2619C104.824 28.374 104.552 28.5376 104.319 28.7528C104.097 28.9689 103.914 29.226 103.77 29.5239C103.626 29.8218 103.539 30.1461 103.508 30.4968C103.478 30.8474 103.507 31.182 103.597 31.5003C103.687 31.8187 103.823 32.1036 104.004 32.3551C104.197 32.5968 104.436 32.7998 104.722 32.9639C105.007 33.1281 105.336 33.2265 105.708 33.259Z" fill="white"/>
	<path d="M99.9182 33.8285L98.5315 33.7072L99.0628 27.6344L95.2852 27.3039L94.7539 33.3767L93.3672 33.2554L94.0003 26.0191L100.551 26.5922L99.9182 33.8285Z" fill="white"/>
	<path d="M86.1183 25.3295L87.489 25.4494L86.8559 32.6857L85.4852 32.5658L86.1183 25.3295ZM79.7267 24.7703L81.0337 24.8846L80.8148 27.3871L82.7593 27.5572C83.1312 27.5897 83.4498 27.6818 83.7149 27.8335C83.9916 27.9755 84.2158 28.1664 84.3875 28.4063C84.5602 28.6356 84.6818 28.8978 84.7523 29.1931C84.8335 29.4893 84.8597 29.8021 84.8309 30.1315C84.803 30.4503 84.7233 30.7485 84.592 31.0261C84.4712 31.3047 84.3059 31.5418 84.0961 31.7376C83.8862 31.9334 83.6323 32.0825 83.3342 32.1849C83.0361 32.2873 82.7011 32.3223 82.3292 32.2897L79.0936 32.0066L79.7267 24.7703ZM80.7172 28.5028L80.4982 31.0052L82.1878 31.1531C82.5916 31.1884 82.9099 31.0985 83.1429 30.8833C83.3874 30.6584 83.525 30.3706 83.5557 30.02C83.5883 29.6481 83.5085 29.3359 83.3164 29.0836C83.1244 28.8312 82.8264 28.6873 82.4226 28.652L80.7172 28.5028Z" fill="white"/>
	<path d="M76.6147 31.7898L75.1483 31.6615L75.8288 23.8832L71.9445 31.3812L70.8288 31.2836L68.2896 23.2236L67.6091 31.0019L66.1586 30.875L67.1348 19.7176L68.5374 19.8403L71.5819 29.1009L76.1882 20.5097L77.5908 20.6324L76.6147 31.7898Z" fill="white"/>
	<defs>
		<linearGradient id="paint0_linear_1032_35078" x1="2.19163" y1="51.2978" x2="291.078" y2="76.5721" gradientUnits="userSpaceOnUse">
			<stop stop-color="#FF660A"/>
			<stop offset="1" stop-color="#F11969"/>
		</linearGradient>
	</defs>
</svg>
