<svg width="25" height="25" viewBox="0 0 25 25" fill="none"
  xmlns="http://www.w3.org/2000/svg">
  <path d="M16.8873 9.54799C16.9571 9.61764 17.0124 9.70036 17.0501 9.79141C17.0879 9.88246 17.1073 9.98005 17.1073 10.0786C17.1073 10.1772 17.0879 10.2748 17.0501 10.3658C17.0124 10.4569 16.9571 10.5396 16.8873 10.6092L11.6373 15.8592C11.5677 15.929 11.4849 15.9843 11.3939 16.022C11.3029 16.0598 11.2053 16.0792 11.1067 16.0792C11.0081 16.0792 10.9105 16.0598 10.8195 16.022C10.7284 15.9843 10.6457 15.929 10.5761 15.8592L8.32607 13.6092C8.18534 13.4685 8.10628 13.2776 8.10628 13.0786C8.10628 12.8796 8.18534 12.6887 8.32607 12.548C8.4668 12.4073 8.65767 12.3282 8.85669 12.3282C9.05572 12.3282 9.24659 12.4073 9.38732 12.548L11.1067 14.2683L15.8261 9.54799C15.8957 9.47826 15.9784 9.42294 16.0695 9.38519C16.1605 9.34745 16.2581 9.32802 16.3567 9.32802C16.4553 9.32802 16.5529 9.34745 16.6439 9.38519C16.7349 9.42294 16.8177 9.47826 16.8873 9.54799ZM22.3567 12.3286C22.3567 14.257 21.7849 16.142 20.7135 17.7454C19.6422 19.3488 18.1194 20.5985 16.3379 21.3364C14.5563 22.0744 12.5959 22.2675 10.7046 21.8913C8.81325 21.5151 7.07596 20.5865 5.7124 19.2229C4.34884 17.8593 3.42024 16.1221 3.04404 14.2307C2.66783 12.3394 2.86091 10.379 3.59887 8.59745C4.33682 6.81587 5.5865 5.29313 7.18988 4.22178C8.79326 3.15044 10.6783 2.57861 12.6067 2.57861C15.1917 2.58134 17.6701 3.60945 19.498 5.43734C21.3259 7.26523 22.354 9.74359 22.3567 12.3286ZM20.8567 12.3286C20.8567 10.6969 20.3728 9.10186 19.4663 7.74516C18.5598 6.38845 17.2713 5.33103 15.7638 4.70661C14.2563 4.08218 12.5975 3.91881 10.9972 4.23713C9.39686 4.55546 7.92685 5.3412 6.77306 6.49498C5.61928 7.64877 4.83354 9.11878 4.51522 10.7191C4.19689 12.3195 4.36026 13.9783 4.98469 15.4858C5.60911 16.9932 6.66653 18.2817 8.02324 19.1882C9.37994 20.0948 10.975 20.5786 12.6067 20.5786C14.794 20.5761 16.8909 19.7061 18.4376 18.1595C19.9842 16.6129 20.8542 14.5159 20.8567 12.3286Z" fill="#439F6E"/>
</svg>
