<svg viewBox="0 0 16 16" fill="none" xmlns="http://www.w3.org/2000/svg">
<path d="M3.41882 12.9993H12.5801C12.6976 12.9994 12.8114 12.958 12.9015 12.8824C12.9916 12.8069 13.0521 12.702 13.0726 12.5862L14.4913 6.08622C14.5091 5.97926 14.4917 5.8694 14.4416 5.77322C14.3916 5.67703 14.3116 5.59972 14.2138 5.55296C14.1159 5.50619 14.0055 5.4925 13.8992 5.51394C13.7929 5.53539 13.6965 5.59081 13.6244 5.67185L10.9994 8.49935L8.4532 2.78997C8.41312 2.70338 8.34909 2.63007 8.26869 2.57868C8.18829 2.5273 8.09486 2.5 7.99945 2.5C7.90403 2.5 7.8106 2.5273 7.7302 2.57868C7.6498 2.63007 7.58578 2.70338 7.5457 2.78997L4.99945 8.49935L2.37445 5.67185C2.30255 5.58963 2.20571 5.53321 2.09873 5.51122C1.99174 5.48922 1.8805 5.50287 1.782 5.55006C1.6835 5.59726 1.60316 5.6754 1.55327 5.77256C1.50337 5.86972 1.48666 5.98055 1.5057 6.0881L2.92445 12.5881C2.94532 12.7038 3.00633 12.8085 3.09675 12.8837C3.18717 12.959 3.30121 12.9999 3.41882 12.9993Z" fill="#FB5322"/>
</svg>
