<svg width="25" height="25" viewBox="0 0 25 25" fill="none" xmlns="http://www.w3.org/2000/svg">
<g clip-path="url(#clip0_14_1777)">
<path d="M24.1638 11.7977C24.131 11.7236 23.3369 9.96207 21.5716 8.19675C19.2194 5.84457 16.2485 4.60144 12.9785 4.60144C9.70851 4.60144 6.73757 5.84457 4.38538 8.19675C2.62007 9.96207 1.82226 11.7264 1.79319 11.7977C1.75055 11.8936 1.72852 11.9974 1.72852 12.1024C1.72852 12.2073 1.75055 12.3111 1.79319 12.4071C1.82601 12.4811 2.62007 14.2418 4.38538 16.0071C6.73757 18.3583 9.70851 19.6014 12.9785 19.6014C16.2485 19.6014 19.2194 18.3583 21.5716 16.0071C23.3369 14.2418 24.131 12.4811 24.1638 12.4071C24.2065 12.3111 24.2285 12.2073 24.2285 12.1024C24.2285 11.9974 24.2065 11.8936 24.1638 11.7977ZM12.9785 18.1014C10.0929 18.1014 7.57194 17.0524 5.48507 14.9843C4.6288 14.1327 3.90031 13.1617 3.32226 12.1014C3.90015 11.0411 4.62866 10.07 5.48507 9.21863C7.57194 7.1505 10.0929 6.10144 12.9785 6.10144C15.8641 6.10144 18.3851 7.1505 20.4719 9.21863C21.3299 10.0698 22.06 11.0409 22.6394 12.1014C21.9635 13.3633 19.0188 18.1014 12.9785 18.1014ZM12.9785 7.60144C12.0885 7.60144 11.2185 7.86536 10.4784 8.35983C9.73842 8.85429 9.16164 9.5571 8.82105 10.3794C8.48045 11.2016 8.39134 12.1064 8.56497 12.9793C8.73861 13.8523 9.16719 14.6541 9.79653 15.2834C10.4259 15.9128 11.2277 16.3413 12.1006 16.515C12.9735 16.6886 13.8783 16.5995 14.7006 16.2589C15.5229 15.9183 16.2257 15.3415 16.7201 14.6015C17.2146 13.8615 17.4785 12.9915 17.4785 12.1014C17.4773 10.9083 17.0028 9.76448 16.1591 8.92083C15.3155 8.07719 14.1716 7.60268 12.9785 7.60144ZM12.9785 15.1014C12.3852 15.1014 11.8051 14.9255 11.3118 14.5958C10.8184 14.2662 10.4339 13.7977 10.2069 13.2495C9.9798 12.7013 9.92039 12.0981 10.0362 11.5162C10.1519 10.9342 10.4376 10.3997 10.8572 9.98012C11.2767 9.56056 11.8113 9.27484 12.3932 9.15908C12.9752 9.04333 13.5784 9.10274 14.1266 9.3298C14.6747 9.55686 15.1433 9.94138 15.4729 10.4347C15.8026 10.9281 15.9785 11.5081 15.9785 12.1014C15.9785 12.8971 15.6624 13.6602 15.0998 14.2228C14.5372 14.7854 13.7742 15.1014 12.9785 15.1014Z" fill="#9499A2"/>
</g>
<defs>
<clipPath id="clip0_14_1777">
<rect width="24" height="24" fill="white" transform="translate(0.978516 0.10144)"/>
</clipPath>
</defs>
</svg>
