<svg width="25" height="24" viewBox="0 0 25 24" fill="none" xmlns="http://www.w3.org/2000/svg">
<g clip-path="url(#clip0_14_1456)">
<path d="M6.03351 3.24557C5.96764 3.17132 5.8877 3.11089 5.79831 3.06777C5.70892 3.02465 5.61185 2.9997 5.51275 2.99437C5.41364 2.98904 5.31447 3.00343 5.22097 3.03671C5.12746 3.06999 5.0415 3.1215 4.96805 3.18825C4.8946 3.255 4.83513 3.33566 4.79308 3.42556C4.75104 3.51546 4.72726 3.61282 4.72311 3.71198C4.71897 3.81114 4.73455 3.91014 4.76895 4.00323C4.80335 4.09633 4.85588 4.18167 4.92351 4.25432L6.72726 6.239C3.32226 8.32869 1.85788 11.5499 1.79319 11.6962C1.75055 11.7921 1.72852 11.8959 1.72852 12.0009C1.72852 12.1058 1.75055 12.2096 1.79319 12.3056C1.82601 12.3796 2.62007 14.1403 4.38538 15.9056C6.73757 18.2568 9.70851 19.4999 12.9785 19.4999C14.6591 19.5095 16.3227 19.1635 17.8601 18.4846L19.9226 20.7543C19.9884 20.8286 20.0684 20.889 20.1578 20.9321C20.2472 20.9752 20.3442 21.0002 20.4433 21.0055C20.5424 21.0108 20.6416 20.9965 20.7351 20.9632C20.8286 20.9299 20.9146 20.8784 20.988 20.8116C21.0615 20.7449 21.1209 20.6642 21.163 20.5743C21.205 20.4844 21.2288 20.3871 21.233 20.2879C21.2371 20.1887 21.2215 20.0897 21.1871 19.9966C21.1527 19.9036 21.1002 19.8182 21.0326 19.7456L6.03351 3.24557ZM10.4707 10.3556L14.3773 14.654C13.789 14.9635 13.1146 15.0688 12.4599 14.9535C11.8053 14.8381 11.2075 14.5086 10.7604 14.0167C10.3133 13.5248 10.0423 12.8983 9.98985 12.2356C9.93742 11.573 10.1066 10.9117 10.4707 10.3556ZM12.9785 17.9999C10.0929 17.9999 7.57194 16.9509 5.48507 14.8828C4.62849 14.0315 3.89996 13.0604 3.32226 11.9999C3.76194 11.1759 5.16538 8.86963 7.76132 7.37057L9.44882 9.22213C8.79551 10.0589 8.45904 11.0996 8.49888 12.1604C8.53872 13.2212 8.95231 14.2338 9.66654 15.0192C10.3808 15.8045 11.3497 16.3121 12.4019 16.4522C13.4542 16.5923 14.5221 16.3558 15.4169 15.7846L16.7979 17.3034C15.5791 17.771 14.2839 18.0072 12.9785 17.9999ZM13.541 9.05338C13.3456 9.01608 13.173 8.90268 13.0611 8.73812C12.9493 8.57355 12.9075 8.37131 12.9448 8.17588C12.9821 7.98045 13.0955 7.80784 13.26 7.69602C13.4246 7.5842 13.6268 7.54233 13.8223 7.57963C14.7781 7.76494 15.6485 8.2543 16.3035 8.97471C16.9586 9.69512 17.3631 10.608 17.4569 11.5771C17.4755 11.7752 17.4146 11.9725 17.2876 12.1256C17.1607 12.2787 16.9781 12.3752 16.7801 12.3937C16.7567 12.3951 16.7332 12.3951 16.7098 12.3937C16.5223 12.3945 16.3413 12.3251 16.2025 12.1991C16.0637 12.0731 15.9771 11.8997 15.9598 11.7131C15.8966 11.0684 15.6271 10.4614 15.1914 9.9822C14.7556 9.50301 14.1768 9.17725 13.541 9.05338ZM24.161 12.3056C24.1216 12.3937 23.1719 14.4965 21.0335 16.4118C20.9604 16.4793 20.8747 16.5317 20.7812 16.5657C20.6877 16.5998 20.5884 16.6149 20.489 16.6102C20.3896 16.6055 20.2921 16.581 20.2023 16.5383C20.1125 16.4956 20.032 16.4354 19.9656 16.3612C19.8993 16.2871 19.8483 16.2005 19.8158 16.1065C19.7832 16.0125 19.7697 15.9129 19.776 15.8136C19.7823 15.7143 19.8082 15.6173 19.8524 15.5281C19.8966 15.439 19.958 15.3595 20.0332 15.2943C21.0823 14.3518 21.9636 13.2378 22.6394 11.9999C22.0605 10.9385 21.3303 9.96677 20.4719 9.11525C18.3851 7.049 15.8641 5.99994 12.9785 5.99994C12.3705 5.9992 11.7635 6.04843 11.1635 6.14713C11.0659 6.16438 10.9659 6.16213 10.8692 6.14051C10.7726 6.11889 10.6811 6.07833 10.6002 6.02117C10.5193 5.96401 10.4505 5.89138 10.3978 5.80747C10.3451 5.72357 10.3095 5.63006 10.2932 5.53234C10.2768 5.43463 10.28 5.33464 10.3025 5.23815C10.325 5.14167 10.3664 5.0506 10.4244 4.97021C10.4823 4.88982 10.5555 4.8217 10.6399 4.76979C10.7243 4.71787 10.8181 4.6832 10.916 4.66775C11.5977 4.55519 12.2876 4.49906 12.9785 4.49994C16.2485 4.49994 19.2194 5.74307 21.5716 8.09525C23.3369 9.86057 24.131 11.6221 24.1638 11.6962C24.2065 11.7921 24.2285 11.8959 24.2285 12.0009C24.2285 12.1058 24.2065 12.2096 24.1638 12.3056H24.161Z" fill="#9499A2"/>
</g>
<defs>
<clipPath id="clip0_14_1456">
<rect width="24" height="24" fill="white" transform="translate(0.978516)"/>
</clipPath>
</defs>
</svg>
