<svg width="25" height="24" viewBox="0 0 25 24" fill="none" xmlns="http://www.w3.org/2000/svg">
<path d="M23.4786 8.27134C23.4409 9.57695 22.9041 10.8184 21.9786 11.7401L18.7207 14.9998C18.2463 15.4769 17.6819 15.8551 17.0602 16.1126C16.4386 16.37 15.772 16.5016 15.0992 16.4998H15.0945C14.4102 16.4993 13.7329 16.3617 13.1026 16.095C12.4723 15.8284 11.9019 15.4381 11.425 14.9473C10.9481 14.4565 10.5744 13.8751 10.326 13.2375C10.0775 12.5998 9.9594 11.9188 9.97856 11.2348C9.98416 11.0359 10.0685 10.8473 10.2131 10.7106C10.3578 10.5739 10.5507 10.5003 10.7497 10.5059C10.9486 10.5115 11.1371 10.5958 11.2738 10.7405C11.4105 10.8851 11.4842 11.0781 11.4786 11.277C11.4649 11.7606 11.5483 12.2422 11.7239 12.693C11.8995 13.1439 12.1637 13.5551 12.5009 13.9021C12.8381 14.2492 13.2414 14.5251 13.687 14.7136C14.1327 14.9022 14.6116 14.9995 15.0954 14.9998C15.5711 15.001 16.0423 14.9079 16.4817 14.7259C16.9212 14.5439 17.3202 14.2766 17.6557 13.9395L20.9136 10.6817C21.5857 10.001 21.9613 9.08213 21.9583 8.12556C21.9553 7.169 21.574 6.25246 20.8976 5.57606C20.2212 4.89967 19.3047 4.51834 18.3481 4.51535C17.3915 4.51236 16.4726 4.88794 15.792 5.56009L14.7607 6.59134C14.619 6.72605 14.4301 6.80005 14.2346 6.79754C14.039 6.79504 13.8521 6.71624 13.7138 6.57793C13.5755 6.43963 13.4967 6.25278 13.4942 6.05721C13.4917 5.86163 13.5657 5.67282 13.7004 5.53103L14.7317 4.49978C15.2075 4.02383 15.7723 3.64629 16.3941 3.3887C17.0158 3.13111 17.6822 2.99854 18.3551 2.99854C19.0281 2.99854 19.6945 3.13111 20.3162 3.3887C20.9379 3.64629 21.5028 4.02383 21.9786 4.49978C22.4714 4.9938 22.8585 5.58293 23.1164 6.23133C23.3742 6.87972 23.4975 7.5738 23.4786 8.27134ZM11.1973 17.4054L10.1661 18.4367C9.82971 18.7752 9.4294 19.0436 8.98842 19.2261C8.54743 19.4086 8.07457 19.5016 7.59731 19.4998C6.88134 19.4992 6.18161 19.2864 5.58653 18.8883C4.99144 18.4902 4.52771 17.9247 4.25392 17.2631C3.98013 16.6016 3.90857 15.8737 4.04828 15.1715C4.188 14.4693 4.53271 13.8243 5.03887 13.3179L8.29106 10.0601C8.8033 9.54515 9.45854 9.19613 10.1717 9.05836C10.8848 8.92059 11.6229 9.00043 12.2901 9.28752C12.9573 9.57461 13.5227 10.0557 13.913 10.6683C14.3032 11.2808 14.5003 11.9966 14.4786 12.7226C14.473 12.9215 14.5466 13.1145 14.6833 13.2591C14.82 13.4037 15.0086 13.4881 15.2075 13.4937C15.4064 13.4993 15.5994 13.4256 15.744 13.2889C15.8886 13.1522 15.973 12.9637 15.9786 12.7648C15.9966 12.0683 15.8729 11.3755 15.615 10.7283C15.3572 10.0811 14.9706 9.49303 14.4786 8.99978C13.5178 8.03943 12.215 7.49994 10.8565 7.49994C9.4981 7.49994 8.19527 8.03943 7.2345 8.99978L3.97856 12.2576C3.26253 12.9733 2.77473 13.8853 2.57682 14.8782C2.37891 15.871 2.47977 16.9003 2.86664 17.8359C3.25352 18.7715 3.90905 19.5714 4.7504 20.1345C5.59174 20.6977 6.58114 20.9988 7.59356 20.9998C8.26657 21.0017 8.93327 20.8701 9.55508 20.6127C10.1769 20.3552 10.7414 19.9769 11.2161 19.4998L12.2473 18.4685C12.3687 18.3256 12.4321 18.1423 12.425 17.9549C12.418 17.7675 12.341 17.5895 12.2092 17.4561C12.0774 17.3227 11.9004 17.2435 11.7131 17.2341C11.5258 17.2247 11.3418 17.2858 11.1973 17.4054Z" fill="#9499A2"/>
</svg>
