<svg viewBox="0 0 17 16" fill="none"
  xmlns="http://www.w3.org/2000/svg">
  <path d="M13 14H9.90875C10.428 13.5363 10.9177 13.0406 11.375 12.5156C13.0906 10.5425 14 8.4625 14 6.5C14 5.04131 13.4205 3.64236 12.3891 2.61091C11.3576 1.57946 9.95869 1 8.5 1C7.04131 1 5.64236 1.57946 4.61091 2.61091C3.57946 3.64236 3 5.04131 3 6.5C3 8.4625 3.90688 10.5425 5.625 12.5156C6.08226 13.0406 6.57197 13.5363 7.09125 14H4C3.86739 14 3.74021 14.0527 3.64645 14.1464C3.55268 14.2402 3.5 14.3674 3.5 14.5C3.5 14.6326 3.55268 14.7598 3.64645 14.8536C3.74021 14.9473 3.86739 15 4 15H13C13.1326 15 13.2598 14.9473 13.3536 14.8536C13.4473 14.7598 13.5 14.6326 13.5 14.5C13.5 14.3674 13.4473 14.2402 13.3536 14.1464C13.2598 14.0527 13.1326 14 13 14ZM4 6.5C4 5.30653 4.47411 4.16193 5.31802 3.31802C6.16193 2.47411 7.30653 2 8.5 2C9.69347 2 10.8381 2.47411 11.682 3.31802C12.5259 4.16193 13 5.30653 13 6.5C13 10.0769 9.53312 13.0625 8.5 13.875C7.46688 13.0625 4 10.0769 4 6.5ZM11 6.5C11 6.00555 10.8534 5.5222 10.5787 5.11107C10.304 4.69995 9.91352 4.37952 9.45671 4.1903C8.99989 4.00108 8.49723 3.95157 8.01227 4.04804C7.52732 4.1445 7.08186 4.3826 6.73223 4.73223C6.3826 5.08186 6.1445 5.52732 6.04804 6.01227C5.95157 6.49723 6.00108 6.99989 6.1903 7.45671C6.37952 7.91352 6.69995 8.30397 7.11107 8.57867C7.5222 8.85338 8.00555 9 8.5 9C9.16304 9 9.79893 8.73661 10.2678 8.26777C10.7366 7.79893 11 7.16304 11 6.5ZM7 6.5C7 6.20333 7.08797 5.91332 7.2528 5.66664C7.41762 5.41997 7.65189 5.22771 7.92597 5.11418C8.20006 5.00065 8.50166 4.97094 8.79264 5.02882C9.08361 5.0867 9.35088 5.22956 9.56066 5.43934C9.77044 5.64912 9.9133 5.91639 9.97118 6.20736C10.0291 6.49834 9.99935 6.79994 9.88582 7.07403C9.77229 7.34811 9.58003 7.58238 9.33335 7.7472C9.08668 7.91203 8.79667 8 8.5 8C8.10218 8 7.72064 7.84196 7.43934 7.56066C7.15804 7.27936 7 6.89782 7 6.5Z" fill="currentColor"/>
</svg>
