<svg width="21" height="20" viewBox="0 0 21 20" fill="none" xmlns="http://www.w3.org/2000/svg">
<path d="M18.4785 10C18.4785 10.1658 18.4127 10.3247 18.2955 10.4419C18.1782 10.5592 18.0193 10.625 17.8535 10.625H11.6035V16.875C11.6035 17.0408 11.5377 17.1997 11.4205 17.3169C11.3032 17.4342 11.1443 17.5 10.9785 17.5C10.8128 17.5 10.6538 17.4342 10.5366 17.3169C10.4194 17.1997 10.3535 17.0408 10.3535 16.875V10.625H4.10352C3.93776 10.625 3.77878 10.5592 3.66157 10.4419C3.54436 10.3247 3.47852 10.1658 3.47852 10C3.47852 9.83424 3.54436 9.67527 3.66157 9.55806C3.77878 9.44085 3.93776 9.375 4.10352 9.375H10.3535V3.125C10.3535 2.95924 10.4194 2.80027 10.5366 2.68306C10.6538 2.56585 10.8128 2.5 10.9785 2.5C11.1443 2.5 11.3032 2.56585 11.4205 2.68306C11.5377 2.80027 11.6035 2.95924 11.6035 3.125V9.375H17.8535C18.0193 9.375 18.1782 9.44085 18.2955 9.55806C18.4127 9.67527 18.4785 9.83424 18.4785 10Z" fill="currentColor"/>
</svg>
