<svg width="25" height="24" viewBox="0 0 25 24" fill="currentColor" xmlns="http://www.w3.org/2000/svg">
<path d="M5.02609 17.0157L5.64847 16.5972L5.02609 17.0157ZM19.9739 17.0157L19.3515 16.5972L19.9739 17.0157ZM5.66602 17.8564L4.94722 17.6424L4.83049 18.0343L5.09674 18.3447L5.66602 17.8564ZM19.3343 17.8564L19.9036 18.3447L20.1698 18.0343L20.0531 17.6424L19.3343 17.8564ZM4.25 12C4.25 7.44365 7.94365 3.75 12.5 3.75V2.25C7.11522 2.25 2.75 6.61522 2.75 12H4.25ZM12.5 3.75C17.0563 3.75 20.75 7.44365 20.75 12H22.25C22.25 6.61522 17.8848 2.25 12.5 2.25V3.75ZM12.5 20.25C9.64654 20.25 7.13101 18.802 5.64847 16.5972L4.40371 17.4342C6.15304 20.0357 9.12619 21.75 12.5 21.75V20.25ZM5.64847 16.5972C4.76533 15.2838 4.25 13.7032 4.25 12H2.75C2.75 14.0106 3.35941 15.8812 4.40371 17.4342L5.64847 16.5972ZM20.75 12C20.75 13.7032 20.2347 15.2838 19.3515 16.5972L20.5963 17.4342C21.6406 15.8812 22.25 14.0106 22.25 12H20.75ZM19.3515 16.5972C17.869 18.802 15.3535 20.25 12.5 20.25V21.75C15.8738 21.75 18.847 20.0357 20.5963 17.4342L19.3515 16.5972ZM13.75 9C13.75 9.69036 13.1904 10.25 12.5 10.25V11.75C14.0188 11.75 15.25 10.5188 15.25 9H13.75ZM12.5 10.25C11.8096 10.25 11.25 9.69036 11.25 9H9.75C9.75 10.5188 10.9812 11.75 12.5 11.75V10.25ZM11.25 9C11.25 8.30964 11.8096 7.75 12.5 7.75V6.25C10.9812 6.25 9.75 7.48122 9.75 9H11.25ZM12.5 7.75C13.1904 7.75 13.75 8.30964 13.75 9H15.25C15.25 7.48122 14.0188 6.25 12.5 6.25V7.75ZM9.50016 15.75H15.5002V14.25H9.50016V15.75ZM9.50016 14.25C7.34759 14.25 5.53127 15.6812 4.94722 17.6424L6.38482 18.0705C6.7847 16.7278 8.02922 15.75 9.50016 15.75V14.25ZM12.5 20.25C9.99389 20.25 7.74951 19.1335 6.23529 17.3681L5.09674 18.3447C6.88376 20.4281 9.53783 21.75 12.5 21.75V20.25ZM15.5002 15.75C16.9711 15.75 18.2156 16.7278 18.6155 18.0705L20.0531 17.6424C19.469 15.6812 17.6527 14.25 15.5002 14.25V15.75ZM18.765 17.3681C17.2508 19.1335 15.0061 20.25 12.5 20.25V21.75C15.4621 21.75 18.1165 20.4282 19.9036 18.3447L18.765 17.3681Z" fill="currentColor"/>
</svg>
