<svg viewBox="0 0 16 16" fill="none" xmlns="http://www.w3.org/2000/svg">
<path d="M8.00035 11.8182L11.4204 13.9213C11.5091 13.9752 11.6118 14.0015 11.7155 13.997C11.8192 13.9925 11.9193 13.9574 12.003 13.8961C12.0868 13.8347 12.1504 13.7499 12.186 13.6524C12.2216 13.5549 12.2274 13.449 12.2029 13.3482L11.2729 9.42379L14.3166 6.79879C14.3942 6.73064 14.4502 6.64127 14.4775 6.54169C14.5049 6.44211 14.5026 6.33669 14.4707 6.23845C14.4389 6.14021 14.379 6.05344 14.2984 5.98885C14.2178 5.92427 14.1201 5.8847 14.0172 5.87504L10.0229 5.55004L8.4841 1.82504C8.44488 1.72893 8.37791 1.6467 8.29176 1.58881C8.2056 1.53092 8.10415 1.5 8.00035 1.5C7.89655 1.5 7.79511 1.53092 7.70895 1.58881C7.62279 1.6467 7.55583 1.72893 7.5166 1.82504L5.97785 5.55004L1.98348 5.87504C1.87996 5.88413 1.78141 5.92352 1.70015 5.98829C1.61888 6.05307 1.55851 6.14035 1.52657 6.23924C1.49463 6.33813 1.49254 6.44424 1.52056 6.54431C1.54857 6.64439 1.60546 6.73398 1.6841 6.80191L4.72785 9.42691L3.79785 13.3482C3.77327 13.449 3.77913 13.5549 3.8147 13.6524C3.85027 13.7499 3.91395 13.8347 3.9977 13.8961C4.08144 13.9574 4.18149 13.9925 4.2852 13.997C4.38891 14.0015 4.49162 13.9752 4.58035 13.9213L8.00035 11.8182Z" fill="#FF9D00"/>
</svg>
