<svg width="15" height="14" viewBox="0 0 15 14" fill="none" xmlns="http://www.w3.org/2000/svg">
<path d="M2.5 7.72438V12.5H12.5V7.72438M13.5 5L12.6056 1.8625C12.5758 1.75807 12.5127 1.66621 12.426 1.60081C12.3393 1.53541 12.2336 1.50002 12.125 1.5H2.875C2.76671 1.50043 2.66148 1.536 2.57514 1.60137C2.48881 1.66675 2.42603 1.75838 2.39625 1.8625L1.5 5M13.5 5H1.5M13.5 5V6C13.5 6.53043 13.2893 7.03914 12.9142 7.41421C12.5391 7.78929 12.0304 8 11.5 8C10.9696 8 10.4609 7.78929 10.0858 7.41421C9.71071 7.03914 9.5 6.53043 9.5 6M1.5 5V6C1.5 6.53043 1.71071 7.03914 2.08579 7.41421C2.46086 7.78929 2.96957 8 3.5 8C4.03043 8 4.53914 7.78929 4.91421 7.41421C5.28929 7.03914 5.5 6.53043 5.5 6M5.5 5V6M5.5 6C5.5 6.53043 5.71071 7.03914 6.08579 7.41421C6.46086 7.78929 6.96957 8 7.5 8C8.03043 8 8.53914 7.78929 8.91421 7.41421C9.28929 7.03914 9.5 6.53043 9.5 6M9.5 5V6" stroke="#9499A2" stroke-width="1.25" stroke-linecap="round" stroke-linejoin="round"/>
</svg>
