<svg viewBox="0 0 25 25" fill="none" xmlns="http://www.w3.org/2000/svg">
<path d="M20.4313 4.60144H16.6813V3.85144C16.6813 3.2547 16.4443 2.68241 16.0223 2.26045C15.6004 1.83849 15.0281 1.60144 14.4313 1.60144H9.93134C9.3346 1.60144 8.7623 1.83849 8.34034 2.26045C7.91839 2.68241 7.68134 3.2547 7.68134 3.85144V4.60144H3.93134C3.73242 4.60144 3.54166 4.68046 3.40101 4.82111C3.26035 4.96176 3.18134 5.15253 3.18134 5.35144C3.18134 5.55035 3.26035 5.74112 3.40101 5.88177C3.54166 6.02242 3.73242 6.10144 3.93134 6.10144H4.68134V19.6014C4.68134 19.9993 4.83937 20.3808 5.12068 20.6621C5.40198 20.9434 5.78351 21.1014 6.18134 21.1014H18.1813C18.5792 21.1014 18.9607 20.9434 19.242 20.6621C19.5233 20.3808 19.6813 19.9993 19.6813 19.6014V6.10144H20.4313C20.6302 6.10144 20.821 6.02242 20.9617 5.88177C21.1023 5.74112 21.1813 5.55035 21.1813 5.35144C21.1813 5.15253 21.1023 4.96176 20.9617 4.82111C20.821 4.68046 20.6302 4.60144 20.4313 4.60144ZM9.18134 3.85144C9.18134 3.65253 9.26035 3.46176 9.40101 3.32111C9.54166 3.18046 9.73242 3.10144 9.93134 3.10144H14.4313C14.6302 3.10144 14.821 3.18046 14.9617 3.32111C15.1023 3.46176 15.1813 3.65253 15.1813 3.85144V4.60144H9.18134V3.85144ZM18.1813 19.6014H6.18134V6.10144H18.1813V19.6014ZM10.6813 9.85144V15.8514C10.6813 16.0504 10.6023 16.2411 10.4617 16.3818C10.321 16.5224 10.1302 16.6014 9.93134 16.6014C9.73242 16.6014 9.54166 16.5224 9.40101 16.3818C9.26035 16.2411 9.18134 16.0504 9.18134 15.8514V9.85144C9.18134 9.65253 9.26035 9.46176 9.40101 9.32111C9.54166 9.18046 9.73242 9.10144 9.93134 9.10144C10.1302 9.10144 10.321 9.18046 10.4617 9.32111C10.6023 9.46176 10.6813 9.65253 10.6813 9.85144ZM15.1813 9.85144V15.8514C15.1813 16.0504 15.1023 16.2411 14.9617 16.3818C14.821 16.5224 14.6302 16.6014 14.4313 16.6014C14.2324 16.6014 14.0417 16.5224 13.901 16.3818C13.7604 16.2411 13.6813 16.0504 13.6813 15.8514V9.85144C13.6813 9.65253 13.7604 9.46176 13.901 9.32111C14.0417 9.18046 14.2324 9.10144 14.4313 9.10144C14.6302 9.10144 14.821 9.18046 14.9617 9.32111C15.1023 9.46176 15.1813 9.65253 15.1813 9.85144Z" fill="currentColor"/>
</svg>
