<svg width="26" height="25" viewBox="0 0 26 25" fill="none" xmlns="http://www.w3.org/2000/svg">
<path d="M2.06512 12.9933C2.07245 12.7985 2.15527 12.6143 2.29605 12.4796L4.24796 10.5605C4.28907 10.5076 4.3371 10.4603 4.39076 10.4201L4.56507 10.2487C4.70692 10.1093 4.89832 10.032 5.09719 10.0337C5.29606 10.0354 5.48612 10.116 5.62558 10.2577L7.8564 12.5268C7.92779 12.5965 7.98455 12.6797 8.02336 12.7717C8.06217 12.8636 8.08224 12.9624 8.08241 13.0621C8.08258 13.1619 8.06283 13.2607 8.02433 13.3528C7.98583 13.4449 7.92935 13.5283 7.8582 13.5983C7.78704 13.6682 7.70265 13.7233 7.60995 13.7602C7.51725 13.7971 7.41811 13.8152 7.31835 13.8133C7.21858 13.8115 7.12019 13.7897 7.02893 13.7494C6.93767 13.709 6.85539 13.6508 6.78689 13.5783L5.59208 12.363C5.65211 14.0373 6.27202 15.5546 7.25488 16.7767L18.3498 5.86852C18.3979 5.80267 18.4565 5.74511 18.5231 5.69811L21.8823 2.39544C21.9521 2.32405 22.0353 2.26729 22.1273 2.22849C22.2192 2.18968 22.3179 2.1696 22.4177 2.16943C22.5175 2.16927 22.6163 2.18901 22.7084 2.22751C22.8004 2.26601 22.8839 2.32249 22.9538 2.39364C23.0238 2.4648 23.0789 2.5492 23.1158 2.6419C23.1527 2.7346 23.1708 2.83373 23.1689 2.9335C23.1671 3.03327 23.1453 3.13166 23.1049 3.22292C23.0646 3.31417 23.0064 3.39646 22.9339 3.46495L19.9725 6.37645C21.1296 7.76853 21.8971 9.49843 22.05 11.4031L22.8123 10.6536C22.882 10.5822 22.9653 10.5255 23.0572 10.4867C23.1491 10.4479 23.2479 10.4278 23.3477 10.4276C23.4474 10.4275 23.5463 10.4472 23.6383 10.4857C23.7304 10.5242 23.8138 10.5807 23.8838 10.6518C23.9537 10.723 24.0088 10.8074 24.0457 10.9001C24.0827 10.9928 24.1007 11.0919 24.0989 11.1917C24.097 11.2915 24.0753 11.3899 24.0349 11.4811C23.9945 11.5724 23.9364 11.6546 23.8638 11.7231L21.9119 13.6422C21.8708 13.6952 21.8228 13.7424 21.7691 13.7826L21.5948 13.954C21.4529 14.0934 21.2615 14.1707 21.0627 14.169C20.8638 14.1674 20.6737 14.0868 20.5343 13.945L18.3035 11.676C18.2321 11.6054 18.1755 11.5213 18.1372 11.4286C18.0989 11.3358 18.0796 11.2363 18.0805 11.136C18.0818 10.9867 18.1276 10.8412 18.212 10.7181C18.2965 10.5951 18.4157 10.5 18.5545 10.4451C18.6933 10.3901 18.8453 10.3779 18.9911 10.4098C19.1369 10.4418 19.2699 10.5165 19.373 10.6244L20.5678 11.8397C20.5075 10.1655 19.8859 8.64963 18.903 7.42796L4.2775 21.8073C4.17121 21.9146 4.035 21.9873 3.8867 22.0159C3.7384 22.0445 3.58492 22.0277 3.44634 21.9676C3.30776 21.9076 3.19054 21.8071 3.11002 21.6793C3.0295 21.5515 2.98944 21.4024 2.99507 21.2514C3.0024 21.0567 3.08522 20.8725 3.226 20.7378L6.18143 17.8321C5.02413 16.4398 4.2615 14.7057 4.10981 12.7997L3.34756 13.5491C3.24127 13.6564 3.10506 13.7291 2.95676 13.7577C2.80846 13.7863 2.65497 13.7695 2.5164 13.7094C2.37782 13.6494 2.2606 13.5489 2.18008 13.4211C2.09956 13.2933 2.05949 13.1442 2.06512 12.9933ZM5.62604 7.32698C5.62052 7.15813 5.67217 6.99237 5.77262 6.85653C7.42034 4.56466 10.1214 3.07592 13.1563 3.10168C14.5915 3.11386 15.9504 3.46226 17.1511 4.07215C17.3286 4.16223 17.463 4.31912 17.5247 4.50828C17.5865 4.69745 17.5706 4.9034 17.4805 5.08084C17.3904 5.25827 17.2335 5.39265 17.0444 5.45441C16.8552 5.51618 16.6492 5.50027 16.4718 5.41018C15.472 4.90235 14.3443 4.61182 13.1436 4.60163C10.6057 4.58009 8.36588 5.81951 6.99081 7.73214C6.90064 7.86134 6.77208 7.95886 6.62335 8.01088C6.47463 8.06289 6.3133 8.06676 6.16226 8.02192C6.01122 7.97708 5.87814 7.88582 5.78188 7.76108C5.68563 7.63634 5.63111 7.48446 5.62604 7.32698ZM8.54287 19.4391C8.5417 19.309 8.57441 19.1808 8.63777 19.0671C8.70114 18.9534 8.79299 18.8582 8.90429 18.7908C9.01559 18.7234 9.14252 18.6861 9.27261 18.6825C9.40269 18.679 9.53145 18.7094 9.64624 18.7707C10.6565 19.2919 11.7988 19.5908 13.0163 19.6011C15.5542 19.6226 17.794 18.3832 19.169 16.4706C19.2265 16.3906 19.2992 16.3227 19.3829 16.2708C19.4667 16.2189 19.5598 16.184 19.657 16.168C19.7542 16.1521 19.8536 16.1555 19.9496 16.178C20.0455 16.2005 20.136 16.2417 20.216 16.2992C20.296 16.3567 20.3639 16.4294 20.4158 16.5131C20.4677 16.5969 20.5026 16.69 20.5185 16.7872C20.5344 16.8844 20.531 16.9839 20.5085 17.0798C20.4859 17.1757 20.4447 17.2662 20.3872 17.3462C18.7395 19.6381 16.0384 21.1268 13.0035 21.101C11.5481 21.0887 10.1712 20.7295 8.95815 20.1038C8.83437 20.042 8.73008 19.9473 8.65679 19.83C8.58351 19.7127 8.54408 19.5774 8.54287 19.4391Z" fill="#9499A2"/>
</svg>
