<svg viewBox="0 0 20 21" fill="none"
	xmlns="http://www.w3.org/2000/svg">
	<g clip-path="url(#clip0_44_17062)">
		<g clip-path="url(#clip1_44_17062)">
			<path d="M9.34293 1.22118C9.69551 0.834203 10.3045 0.834202 10.6571 1.22118L11.6868 2.35135C11.9207 2.60807 12.2826 2.70506 12.6135 2.59968L14.0704 2.13578C14.5692 1.97693 15.0966 2.28142 15.2084 2.79284L15.5351 4.28645C15.6093 4.62571 15.8743 4.8907 16.2136 4.9649L17.7072 5.29155C18.2186 5.4034 18.5231 5.9308 18.3642 6.42963L17.9003 7.88646C17.7949 8.21737 17.8919 8.57935 18.1486 8.81324L19.2788 9.84293C19.6658 10.1955 19.6658 10.8045 19.2788 11.1571L18.1486 12.1868C17.8919 12.4207 17.7949 12.7826 17.9003 13.1135L18.3642 14.5704C18.5231 15.0692 18.2186 15.5966 17.7072 15.7084L16.2136 16.0351C15.8743 16.1093 15.6093 16.3743 15.5351 16.7136L15.2084 18.2072C15.0966 18.7186 14.5692 19.0231 14.0704 18.8642L12.6135 18.4003C12.2826 18.2949 11.9207 18.3919 11.6868 18.6486L10.6571 19.7788C10.3045 20.1658 9.69551 20.1658 9.34293 19.7788L8.31324 18.6486C8.07935 18.3919 7.71737 18.2949 7.38646 18.4003L5.92963 18.8642C5.4308 19.0231 4.9034 18.7186 4.79155 18.2072L4.4649 16.7136C4.3907 16.3743 4.12571 16.1093 3.78645 16.0351L2.29284 15.7084C1.78142 15.5966 1.47693 15.0692 1.63578 14.5704L2.09968 13.1135C2.20506 12.7826 2.10807 12.4207 1.85135 12.1868L0.721184 11.1571C0.334203 10.8045 0.334202 10.1955 0.721184 9.84293L1.85135 8.81324C2.10807 8.57935 2.20506 8.21737 2.09968 7.88646L1.63578 6.42963C1.47693 5.9308 1.78142 5.4034 2.29284 5.29155L3.78645 4.9649C4.12571 4.8907 4.3907 4.62571 4.4649 4.28645L4.79155 2.79284C4.9034 2.28142 5.4308 1.97693 5.92963 2.13578L7.38646 2.59968C7.71737 2.70506 8.07935 2.60807 8.31324 2.35135L9.34293 1.22118Z" fill="#FB5322"/>
			<path d="M10.0426 14.8175L6.78333 13.0482V10.2545L4.9209 9.23017L10.0426 6.43652L15.1643 9.23017V12.955H14.2331V9.74234L13.3018 10.2545V13.0482L10.0426 14.8175ZM10.0426 10.9529L13.232 9.23017L10.0426 7.50742L6.85317 9.23017L10.0426 10.9529ZM10.0426 13.7582L12.3706 12.5011V10.7434L10.0426 12.0238L7.71455 10.7434V12.5011L10.0426 13.7582Z" fill="white"/>
		</g>
	</g>
	<defs>
		<clipPath id="clip0_44_17062">
			<rect width="20" height="20" fill="white" transform="translate(0 0.5)"/>
		</clipPath>
		<clipPath id="clip1_44_17062">
			<rect width="20" height="20" fill="white" transform="translate(0 0.5)"/>
		</clipPath>
	</defs>
</svg>
