<svg width="25" height="25" viewBox="0 0 25 25" fill="none"
  xmlns="http://www.w3.org/2000/svg">
  <path d="M12.6067 2.57861C10.6783 2.57861 8.79326 3.15044 7.18988 4.22178C5.5865 5.29313 4.33682 6.81587 3.59887 8.59745C2.86091 10.379 2.66783 12.3394 3.04404 14.2307C3.42024 16.1221 4.34884 17.8593 5.7124 19.2229C7.07596 20.5865 8.81325 21.5151 10.7046 21.8913C12.5959 22.2675 14.5563 22.0744 16.3379 21.3364C18.1194 20.5985 19.6422 19.3488 20.7135 17.7454C21.7849 16.142 22.3567 14.257 22.3567 12.3286C22.354 9.74359 21.3259 7.26523 19.498 5.43734C17.6701 3.60945 15.1917 2.58134 12.6067 2.57861ZM12.6067 20.5786C10.975 20.5786 9.37994 20.0948 8.02324 19.1882C6.66653 18.2817 5.60911 16.9932 4.98469 15.4858C4.36026 13.9783 4.19689 12.3195 4.51522 10.7191C4.83354 9.11878 5.61928 7.64877 6.77306 6.49498C7.92685 5.3412 9.39686 4.55546 10.9972 4.23713C12.5975 3.91881 14.2563 4.08218 15.7638 4.70661C17.2713 5.33103 18.5598 6.38845 19.4663 7.74516C20.3728 9.10186 20.8567 10.6969 20.8567 12.3286C20.8542 14.5159 19.9842 16.6129 18.4376 18.1595C16.8909 19.7061 14.794 20.5761 12.6067 20.5786ZM11.8567 13.0786V7.82861C11.8567 7.6297 11.9357 7.43894 12.0764 7.29828C12.217 7.15763 12.4078 7.07861 12.6067 7.07861C12.8056 7.07861 12.9964 7.15763 13.137 7.29828C13.2777 7.43894 13.3567 7.6297 13.3567 7.82861V13.0786C13.3567 13.2775 13.2777 13.4683 13.137 13.6089C12.9964 13.7496 12.8056 13.8286 12.6067 13.8286C12.4078 13.8286 12.217 13.7496 12.0764 13.6089C11.9357 13.4683 11.8567 13.2775 11.8567 13.0786ZM13.7317 16.4536C13.7317 16.6761 13.6657 16.8936 13.5421 17.0786C13.4185 17.2636 13.2428 17.4078 13.0372 17.493C12.8316 17.5781 12.6054 17.6004 12.3872 17.557C12.169 17.5136 11.9685 17.4064 11.8112 17.2491C11.6539 17.0918 11.5467 16.8913 11.5033 16.6731C11.4599 16.4549 11.4822 16.2287 11.5673 16.0231C11.6525 15.8175 11.7967 15.6418 11.9817 15.5182C12.1667 15.3946 12.3842 15.3286 12.6067 15.3286C12.9051 15.3286 13.1912 15.4471 13.4022 15.6581C13.6132 15.8691 13.7317 16.1552 13.7317 16.4536Z" fill="#FFAD0D"/>
</svg>
