<svg viewBox="0 0 48 48" fill="none"
	xmlns="http://www.w3.org/2000/svg">
	<rect width="48" height="48" rx="24" fill="#F5304D"/>
	<path d="M22.1679 29.4453C21.8616 29.9048 21.9858 30.5257 22.4453 30.8321C22.9048 31.1384 23.5257 31.0142 23.8321 30.5547L22.1679 29.4453ZM27 24L27.8321 24.5547C28.056 24.2188 28.056 23.7812 27.8321 23.4453L27 24ZM23.8321 17.4453C23.5257 16.9858 22.9048 16.8616 22.4453 17.1679C21.9858 17.4743 21.8616 18.0952 22.1679 18.5547L23.8321 17.4453ZM23.8321 30.5547L27.8321 24.5547L26.1679 23.4453L22.1679 29.4453L23.8321 30.5547ZM27.8321 23.4453L23.8321 17.4453L22.1679 18.5547L26.1679 24.5547L27.8321 23.4453Z" fill="white"/>
</svg>
