<svg viewBox="0 0 64 64" fill="none"
	xmlns="http://www.w3.org/2000/svg">
	<path d="M59.94 41.515L54.32 19.03C54.1036 18.1642 53.6039 17.3957 52.9004 16.8466C52.1968 16.2976 51.3299 15.9996 50.4375 16H34V12C34 10.9391 33.5786 9.92172 32.8284 9.17157C32.0783 8.42143 31.0609 8 30 8H20C18.9391 8 17.9217 8.42143 17.1716 9.17157C16.4214 9.92172 16 10.9391 16 12V16H13.5625C12.6701 15.9996 11.8032 16.2976 11.0996 16.8466C10.3961 17.3957 9.89641 18.1642 9.68 19.03L4.06 41.515C4.02007 41.6736 3.99992 41.8365 4 42V50C4 51.0609 4.42143 52.0783 5.17157 52.8284C5.92172 53.5786 6.93913 54 8 54H56C57.0609 54 58.0783 53.5786 58.8284 52.8284C59.5786 52.0783 60 51.0609 60 50V42C60.0001 41.8365 59.9799 41.6736 59.94 41.515ZM20 12H30V16H20V12ZM13.5625 20H50.4375L55.4375 40H8.5625L13.5625 20ZM8 50V44H56V50H8ZM16 26C16 25.4696 16.2107 24.9609 16.5858 24.5858C16.9609 24.2107 17.4696 24 18 24H22C22.5304 24 23.0391 24.2107 23.4142 24.5858C23.7893 24.9609 24 25.4696 24 26C24 26.5304 23.7893 27.0391 23.4142 27.4142C23.0391 27.7893 22.5304 28 22 28H18C17.4696 28 16.9609 27.7893 16.5858 27.4142C16.2107 27.0391 16 26.5304 16 26ZM28 26C28 25.4696 28.2107 24.9609 28.5858 24.5858C28.9609 24.2107 29.4696 24 30 24H34C34.5304 24 35.0391 24.2107 35.4142 24.5858C35.7893 24.9609 36 25.4696 36 26C36 26.5304 35.7893 27.0391 35.4142 27.4142C35.0391 27.7893 34.5304 28 34 28H30C29.4696 28 28.9609 27.7893 28.5858 27.4142C28.2107 27.0391 28 26.5304 28 26ZM40 26C40 25.4696 40.2107 24.9609 40.5858 24.5858C40.9609 24.2107 41.4696 24 42 24H46C46.5304 24 47.0391 24.2107 47.4142 24.5858C47.7893 24.9609 48 25.4696 48 26C48 26.5304 47.7893 27.0391 47.4142 27.4142C47.0391 27.7893 46.5304 28 46 28H42C41.4696 28 40.9609 27.7893 40.5858 27.4142C40.2107 27.0391 40 26.5304 40 26ZM16 34C16 33.4696 16.2107 32.9609 16.5858 32.5858C16.9609 32.2107 17.4696 32 18 32H22C22.5304 32 23.0391 32.2107 23.4142 32.5858C23.7893 32.9609 24 33.4696 24 34C24 34.5304 23.7893 35.0391 23.4142 35.4142C23.0391 35.7893 22.5304 36 22 36H18C17.4696 36 16.9609 35.7893 16.5858 35.4142C16.2107 35.0391 16 34.5304 16 34ZM28 34C28 33.4696 28.2107 32.9609 28.5858 32.5858C28.9609 32.2107 29.4696 32 30 32H34C34.5304 32 35.0391 32.2107 35.4142 32.5858C35.7893 32.9609 36 33.4696 36 34C36 34.5304 35.7893 35.0391 35.4142 35.4142C35.0391 35.7893 34.5304 36 34 36H30C29.4696 36 28.9609 35.7893 28.5858 35.4142C28.2107 35.0391 28 34.5304 28 34ZM40 34C40 33.4696 40.2107 32.9609 40.5858 32.5858C40.9609 32.2107 41.4696 32 42 32H46C46.5304 32 47.0391 32.2107 47.4142 32.5858C47.7893 32.9609 48 33.4696 48 34C48 34.5304 47.7893 35.0391 47.4142 35.4142C47.0391 35.7893 46.5304 36 46 36H42C41.4696 36 40.9609 35.7893 40.5858 35.4142C40.2107 35.0391 40 34.5304 40 34Z" fill="url(#paint0_linear_92_6352)"/>
	<defs>
		<linearGradient id="paint0_linear_92_6352" x1="4" y1="31" x2="59.998" y2="31" gradientUnits="userSpaceOnUse">
			<stop stop-color="#FF660A"/>
			<stop offset="1" stop-color="#F11969"/>
		</linearGradient>
	</defs>
</svg>
