<svg viewBox="0 0 64 64" fill="none"
	xmlns="http://www.w3.org/2000/svg">
	<g clip-path="url(#clip0_92_6392)">
		<path d="M62 28.0005H55.02L43.145 11.648C42.7851 11.1539 42.3168 10.7489 41.7761 10.464C41.2353 10.1791 40.6364 10.0219 40.0254 10.0045C39.4145 9.98717 38.8076 10.11 38.2515 10.3637C37.6954 10.6174 37.2049 10.9952 36.8175 11.468L33.605 15.193L33.555 15.2505C33.3689 15.4843 33.1324 15.6732 32.8631 15.803C32.5939 15.9328 32.2989 16.0002 32 16.0002C31.7011 16.0002 31.4061 15.9328 31.1369 15.803C30.8676 15.6732 30.6311 15.4843 30.445 15.2505L30.395 15.193L27.1825 11.468C26.7951 10.9952 26.3046 10.6174 25.7485 10.3637C25.1924 10.11 24.5855 9.98717 23.9746 10.0045C23.3636 10.0219 22.7647 10.1791 22.2239 10.464C21.6831 10.7489 21.2149 11.1539 20.855 11.648L8.98 28.0005H2C1.46957 28.0005 0.960859 28.2112 0.585786 28.5863C0.210714 28.9613 0 29.4701 0 30.0005C0 30.5309 0.210714 31.0396 0.585786 31.4147C0.960859 31.7898 1.46957 32.0005 2 32.0005H62C62.5304 32.0005 63.0391 31.7898 63.4142 31.4147C63.7893 31.0396 64 30.5309 64 30.0005C64 29.4701 63.7893 28.9613 63.4142 28.5863C63.0391 28.2112 62.5304 28.0005 62 28.0005ZM24.085 14.0005L24.1325 14.058L27.345 17.7805C27.9076 18.4723 28.6173 19.03 29.4226 19.4131C30.2278 19.7961 31.1083 19.9949 32 19.9949C32.8917 19.9949 33.7722 19.7961 34.5774 19.4131C35.3827 19.03 36.0924 18.4723 36.655 17.7805L39.8675 14.058C39.8825 14.038 39.8925 14.0205 39.91 14.0005L50.075 28.0005H13.9225L24.085 14.0005ZM45 36.0005C42.7865 36.0009 40.6508 36.817 39.0011 38.2929C37.3514 39.7687 36.3034 41.8007 36.0575 44.0005H27.9425C27.696 41.8027 26.6489 39.7727 25.001 38.2977C23.3532 36.8227 21.22 36.0061 19.0084 36.0037C16.7969 36.0013 14.6618 36.8132 13.0108 38.2846C11.3597 39.756 10.3082 41.7838 10.0569 43.981C9.80558 46.1782 10.3721 48.391 11.6483 50.1972C12.9245 52.0034 14.821 53.2765 16.976 53.7735C19.131 54.2705 21.3935 53.9566 23.3318 52.8918C25.2702 51.827 26.7486 50.0858 27.485 48.0005H36.515C37.065 49.5561 38.0321 50.9306 39.3105 51.9738C40.5889 53.0169 42.1295 53.6885 43.7639 53.9152C45.3982 54.1418 47.0635 53.9148 48.5775 53.259C50.0916 52.6032 51.3962 51.5438 52.3488 50.1965C53.3014 48.8493 53.8654 47.2661 53.9789 45.62C54.0925 43.9739 53.7514 42.3283 52.9928 40.863C52.2343 39.3977 51.0875 38.1691 49.6779 37.3115C48.2683 36.454 46.65 36.0004 45 36.0005ZM19 50.0005C18.0111 50.0005 17.0444 49.7072 16.2221 49.1578C15.3999 48.6084 14.759 47.8275 14.3806 46.9139C14.0022 46.0003 13.9031 44.9949 14.0961 44.025C14.289 43.0551 14.7652 42.1642 15.4645 41.465C16.1637 40.7657 17.0546 40.2895 18.0245 40.0966C18.9945 39.9036 19.9998 40.0027 20.9134 40.3811C21.827 40.7595 22.6079 41.4004 23.1573 42.2226C23.7068 43.0449 24 44.0116 24 45.0005C24 45.6571 23.8707 46.3073 23.6194 46.9139C23.3681 47.5205 22.9998 48.0717 22.5355 48.536C22.0712 49.0003 21.52 49.3686 20.9134 49.6199C20.3068 49.8712 19.6566 50.0005 19 50.0005ZM45 50.0005C44.0111 50.0005 43.0444 49.7072 42.2221 49.1578C41.3999 48.6084 40.759 47.8275 40.3806 46.9139C40.0022 46.0003 39.9031 44.9949 40.0961 44.025C40.289 43.0551 40.7652 42.1642 41.4645 41.465C42.1637 40.7657 43.0546 40.2895 44.0245 40.0966C44.9945 39.9036 45.9998 40.0027 46.9134 40.3811C47.827 40.7595 48.6079 41.4004 49.1573 42.2226C49.7068 43.0449 50 44.0116 50 45.0005C50 46.3266 49.4732 47.5983 48.5355 48.536C47.5979 49.4737 46.3261 50.0005 45 50.0005Z" fill="url(#paint0_linear_92_6392)"/>
	</g>
	<defs>
		<linearGradient id="paint0_linear_92_6392" x1="0" y1="32.0033" x2="63.9978" y2="32.0033" gradientUnits="userSpaceOnUse">
			<stop stop-color="#FF660A"/>
			<stop offset="1" stop-color="#F11969"/>
		</linearGradient>
		<clipPath id="clip0_92_6392">
			<rect width="64" height="64" fill="white"/>
		</clipPath>
	</defs>
</svg>
