<svg width="311" height="116" viewBox="0 0 311 116" fill="none"
	xmlns="http://www.w3.org/2000/svg">
	<path d="M310.766 7.57285C311.083 7.12017 310.972 6.49672 310.52 6.18034L303.143 1.02465C302.69 0.70827 302.067 0.818766 301.75 1.27145C301.434 1.72413 301.544 2.34758 301.997 2.66396L308.554 7.2468L303.971 13.8041C303.655 14.2567 303.766 14.8802 304.218 15.1966C304.671 15.5129 305.294 15.4024 305.611 14.9498L310.766 7.57285ZM0.5271 113.344C0.0404733 113.605 -0.142292 114.212 0.118884 114.698C0.380059 115.185 0.986272 115.368 1.4729 115.106L0.5271 113.344ZM1.4729 115.106C96.4847 64.1132 200.33 27.4436 310.121 7.98465L309.772 6.01535C199.768 25.5119 95.7222 62.2526 0.5271 113.344L1.4729 115.106Z" fill="#262626"/>
</svg>

