<svg width="101" height="50" viewBox="0 0 101 50" fill="none"
	xmlns="http://www.w3.org/2000/svg">
	<path d="M0.5271 48.091C0.0404733 48.3522 -0.142292 48.9584 0.118884 49.4451C0.380059 49.9317 0.986272 50.1145 1.4729 49.8533L0.5271 48.091ZM100.904 5.44769C101.14 4.94859 100.927 4.3523 100.428 4.11583L92.2948 0.262365C91.7957 0.025898 91.1994 0.238804 90.963 0.737905C90.7265 1.23701 90.9394 1.8333 91.4385 2.06977L98.6681 5.49507L95.2428 12.7247C95.0064 13.2238 95.2193 13.8201 95.7184 14.0565C96.2175 14.293 96.8138 14.0801 97.0502 13.581L100.904 5.44769ZM1.4729 49.8533C33.0997 32.879 66.1268 18.1757 100.336 5.9613L99.6637 4.07776C65.3595 16.326 32.2411 31.07 0.5271 48.091L1.4729 49.8533Z" fill="#262626"/>
</svg>
