<svg width="52" height="29" viewBox="0 0 52 29" fill="none"
	xmlns="http://www.w3.org/2000/svg">
	<path d="M0.5271 26.2587C0.0404733 26.5199 -0.142292 27.1261 0.118884 27.6127C0.380059 28.0993 0.986273 28.2821 1.4729 28.0209L0.5271 26.2587ZM51.9042 5.33737C52.1401 4.83802 51.9266 4.24195 51.4272 4.00601L43.2899 0.161078C42.7905 -0.0748653 42.1944 0.138666 41.9585 0.638015C41.7226 1.13736 41.9361 1.73344 42.4354 1.96938L49.6686 5.38709L46.2509 12.6203C46.015 13.1196 46.2285 13.7157 46.7279 13.9517C47.2272 14.1876 47.8233 13.9741 48.0592 13.4747L51.9042 5.33737ZM1.4729 28.0209C17.429 19.4572 34.0866 12.0313 51.3372 5.85157L50.6628 3.96874C33.318 10.1822 16.5698 17.6485 0.5271 26.2587L1.4729 28.0209Z" fill="#262626"/>
</svg>
