<svg width="429" height="156" viewBox="0 0 429 156" fill="none" xmlns="http://www.w3.org/2000/svg">
<path d="M428.819 6.7252C429.136 6.27251 429.025 5.64907 428.572 5.33269L421.196 0.176992C420.743 -0.139387 420.119 -0.0288897 419.803 0.423794C419.487 0.876478 419.597 1.49993 420.05 1.81631L426.607 6.39915L422.024 12.9564C421.708 13.4091 421.818 14.0325 422.271 14.3489C422.724 14.6653 423.347 14.5548 423.664 14.1021L428.819 6.7252ZM0.5271 153.469C0.0404733 153.73 -0.142292 154.336 0.118884 154.823C0.380059 155.31 0.986272 155.492 1.4729 155.231L0.5271 153.469ZM1.4729 155.231C132.825 84.7338 276.389 34.0386 428.174 7.137L427.825 5.16769C275.827 32.107 132.063 82.8732 0.5271 153.469L1.4729 155.231Z" fill="#262626"/>
</svg>
