<svg width="6" height="14" viewBox="0 0 6 14" xmlns="http://www.w3.org/2000/svg">
    <path d="M5.83205 12.4453C6.1384 12.9048 6.01423 13.5257 5.5547 13.8321C5.09517 14.1384 4.4743 14.0142 4.16795 13.5547L5.83205 12.4453ZM1 7L0.16795 7.5547C-0.0559831 7.2188 -0.0559831 6.7812 0.16795 6.4453L1 7ZM4.16795 0.4453C4.4743 -0.0142289 5.09517 -0.138403 5.5547 0.16795C6.01423 0.474302 6.1384 1.09517 5.83205 1.5547L4.16795 0.4453ZM4.16795 13.5547L0.16795 7.5547L1.83205 6.4453L5.83205 12.4453L4.16795 13.5547ZM0.16795 6.4453L4.16795 0.4453L5.83205 1.5547L1.83205 7.5547L0.16795 6.4453Z" fill="#262626"/>
</svg>
