<svg width="429" height="153" viewBox="0 0 429 153" fill="none" xmlns="http://www.w3.org/2000/svg">
<path d="M1.17451 0.167689C0.630705 0.0713073 0.111727 0.434019 0.0153455 0.977829C-0.0810364 1.52164 0.281676 2.04062 0.825485 2.137L1.17451 0.167689ZM428.289 150.307C428.817 150.148 429.117 149.59 428.957 149.061L426.36 140.444C426.2 139.916 425.642 139.616 425.113 139.776C424.585 139.935 424.285 140.493 424.445 141.022L426.754 148.681L419.094 150.99C418.566 151.15 418.266 151.708 418.426 152.237C418.585 152.765 419.143 153.065 419.672 152.905L428.289 150.307ZM0.825485 2.137C152.611 29.0386 296.175 79.7339 427.527 150.231L428.473 148.469C296.938 77.8733 153.172 27.1069 1.17451 0.167689L0.825485 2.137Z" fill="#262626"/>
</svg>
