<svg width="52" height="28" viewBox="0 0 52 28" fill="none"
	xmlns="http://www.w3.org/2000/svg">
	<path d="M51.2887 25.0973C51.8175 24.9378 52.1169 24.3799 51.9575 23.8512L49.3596 15.2343C49.2002 14.7055 48.6423 14.4061 48.1135 14.5655C47.5848 14.7249 47.2853 15.2828 47.4447 15.8116L49.754 23.471L42.0945 25.7803C41.5657 25.9397 41.2663 26.4976 41.4257 27.0264C41.5851 27.5551 42.143 27.8546 42.6718 27.6951L51.2887 25.0973ZM1.33724 0.968739C0.817314 0.782484 0.244838 1.05298 0.058583 1.57291C-0.127672 2.09284 0.142825 2.66532 0.662755 2.85157L1.33724 0.968739ZM0.662755 2.85157C17.9135 9.03131 34.5711 16.4572 50.5272 25.0209L51.473 23.2587C35.4303 14.6485 18.682 7.18218 1.33724 0.968739L0.662755 2.85157Z" fill="#262626"/>
</svg>
