<svg width="311" height="112" viewBox="0 0 311 112" fill="none"
	xmlns="http://www.w3.org/2000/svg">
	<path d="M1.2292 0.0153455C0.685393 -0.0810364 0.166415 0.281676 0.070033 0.825485C-0.0263489 1.36929 0.336363 1.88827 0.880173 1.98465L1.2292 0.0153455ZM310.29 109.183C310.819 109.023 311.119 108.465 310.959 107.937L308.361 99.3198C308.202 98.791 307.644 98.4916 307.115 98.651C306.586 98.8105 306.287 99.3683 306.446 99.8971L308.756 107.557L301.096 109.866C300.567 110.025 300.268 110.583 300.427 111.112C300.587 111.641 301.145 111.94 301.673 111.781L310.29 109.183ZM0.880173 1.98465C110.672 21.4435 214.517 58.1133 309.529 109.106L310.475 107.344C215.28 56.2527 111.233 19.5119 1.2292 0.0153455L0.880173 1.98465Z" fill="#262626"/>
</svg>
