<svg width="101" height="49" viewBox="0 0 101 49" fill="none"
	xmlns="http://www.w3.org/2000/svg">
	<path d="M100.289 45.9296C100.817 45.7702 101.117 45.2123 100.957 44.6835L98.3596 36.0666C98.2002 35.5378 97.6423 35.2384 97.1135 35.3978C96.5848 35.5572 96.2853 36.1151 96.4447 36.6439L98.754 44.3034L91.0945 46.6126C90.5657 46.772 90.2663 47.3299 90.4257 47.8587C90.5851 48.3874 91.143 48.6869 91.6718 48.5275L100.289 45.9296ZM1.33626 0.0777609C0.816131 -0.107949 0.243939 0.163149 0.0582296 0.683275C-0.12748 1.2034 0.143618 1.77559 0.663743 1.9613L1.33626 0.0777609ZM0.663743 1.9613C34.8733 14.1757 67.9004 28.879 99.5272 45.8533L100.473 44.091C68.759 27.07 35.6406 12.326 1.33626 0.0777609L0.663743 1.9613Z" fill="#262626"/>
</svg>
