<svg viewBox="0 0 43 42" fill="none"
	xmlns="http://www.w3.org/2000/svg">
	<path d="M41.8256 6.21664L36.0334 0.424365C35.7616 0.152649 35.3931 -8.09778e-09 35.0089 0C34.6246 8.09778e-09 34.2561 0.152649 33.9843 0.424365C33.7126 0.696082 33.56 1.06461 33.56 1.44887C33.56 1.83314 33.7126 2.20166 33.9843 2.47338L34.2522 2.73946L24.266 10.2296L17.3479 11.6143C17.0677 11.6704 16.8103 11.8076 16.6075 12.0089L1.52229 27.0905C0.707652 27.9052 0.25 29.0101 0.25 30.1623C0.25 31.3144 0.707652 32.4193 1.52229 33.234L9.01604 40.7277C9.83073 41.5424 10.9356 42 12.0878 42C13.2399 42 14.3448 41.5424 15.1595 40.7277L30.2411 25.6479C30.4428 25.4455 30.5801 25.1879 30.6357 24.9076L32.0204 17.9894L39.5105 8.00319L39.7766 8.27108C39.9112 8.40562 40.0709 8.51235 40.2467 8.58516C40.4225 8.65797 40.6109 8.69545 40.8011 8.69545C40.9914 8.69545 41.1798 8.65797 41.3556 8.58516C41.5314 8.51235 41.6911 8.40562 41.8256 8.27108C41.9602 8.13654 42.0669 7.97682 42.1397 7.80103C42.2125 7.62525 42.25 7.43684 42.25 7.24657C42.25 7.05631 42.2125 6.8679 42.1397 6.69212C42.0669 6.51633 41.9602 6.35661 41.8256 6.22207V6.21664ZM14.7359 17.9768L24.2732 27.5141L16.184 35.6034L6.64664 26.066L14.7359 17.9768ZM12.0878 39.0986C11.8977 39.0991 11.7095 39.062 11.534 38.9893C11.3584 38.9166 11.1991 38.8098 11.0651 38.6751L3.57492 31.1849C3.30356 30.9134 3.15113 30.5452 3.15113 30.1613C3.15113 29.7775 3.30356 29.4093 3.57492 29.1377L4.59943 28.1132L14.1368 37.6506L13.1068 38.6751C12.8364 38.9452 12.47 39.0975 12.0878 39.0986ZM29.5062 16.5088C29.3764 16.6815 29.2873 16.8814 29.2455 17.0934L27.8826 23.9048L26.3204 25.4669L16.7831 15.9296L18.3452 14.3674L25.1566 13.0045C25.3686 12.9627 25.5685 12.8736 25.7412 12.7438L36.3212 4.80839L37.4416 5.92883L29.5062 16.5088Z" fill="url(#paint0_linear_92_6181)"/>
	<defs>
		<linearGradient id="paint0_linear_92_6181" x1="0.25" y1="21" x2="42.2485" y2="21" gradientUnits="userSpaceOnUse">
			<stop stop-color="#FF660A"/>
			<stop offset="1" stop-color="#F11969"/>
		</linearGradient>
	</defs>
</svg>
