<svg viewBox="0 0 48 48" fill="none"
	xmlns="http://www.w3.org/2000/svg">
	<path d="M25.5 19.3504V33.0004C25.5 33.3982 25.342 33.7798 25.0607 34.0611C24.7794 34.3424 24.3978 34.5004 24 34.5004C23.6022 34.5004 23.2206 34.3424 22.9393 34.0611C22.658 33.7798 22.5 33.3982 22.5 33.0004V19.3504C20.6789 18.9787 19.0608 17.944 17.9592 16.447C16.8576 14.95 16.3512 13.0973 16.538 11.2481C16.7248 9.39893 17.5916 7.68496 18.9703 6.43852C20.349 5.19207 22.1414 4.50195 24 4.50195C25.8586 4.50195 27.651 5.19207 29.0297 6.43852C30.4084 7.68496 31.2752 9.39893 31.462 11.2481C31.6488 13.0973 31.1424 14.95 30.0408 16.447C28.9392 17.944 27.3211 18.9787 25.5 19.3504ZM24 7.50042C23.11 7.50042 22.24 7.76434 21.4999 8.25881C20.7599 8.75328 20.1831 9.45608 19.8425 10.2783C19.5019 11.1006 19.4128 12.0054 19.5865 12.8783C19.7601 13.7512 20.1887 14.5531 20.818 15.1824C21.4474 15.8117 22.2492 16.2403 23.1221 16.414C23.995 16.5876 24.8998 16.4985 25.7221 16.1579C26.5443 15.8173 27.2471 15.2405 27.7416 14.5005C28.2361 13.7605 28.5 12.8904 28.5 12.0004C28.5 10.8069 28.0259 9.66236 27.182 8.81844C26.3381 7.97453 25.1935 7.50042 24 7.50042ZM3 33.0004C3 38.8467 13.8206 42.0004 24 42.0004C34.1794 42.0004 45 38.8467 45 33.0004C45 31.5492 44.2856 29.4135 40.875 27.486C38.5763 26.1848 35.415 25.1854 31.7306 24.5948C31.5357 24.564 31.3367 24.5719 31.1449 24.6181C30.953 24.6642 30.7722 24.7477 30.6126 24.8637C30.453 24.9798 30.3179 25.1261 30.2148 25.2944C30.1118 25.4627 30.043 25.6496 30.0122 25.8445C29.9814 26.0394 29.9893 26.2384 30.0355 26.4303C30.0816 26.6221 30.1651 26.8029 30.2811 26.9625C30.3972 27.1221 30.5435 27.2572 30.7118 27.3603C30.8801 27.4633 31.067 27.5321 31.2619 27.5629C34.5506 28.0917 37.4494 28.9935 39.4031 30.1035C41.0531 31.0317 42 32.0892 42 33.0004C42 35.5054 35.1525 39.0004 24 39.0004C12.8475 39.0004 6 35.5054 6 33.0004C6 32.0892 6.94688 31.0317 8.59688 30.096C10.5581 28.986 13.4494 28.0842 16.7381 27.5554C16.9372 27.5294 17.1289 27.4637 17.3021 27.3623C17.4753 27.2608 17.6264 27.1256 17.7463 26.9647C17.8663 26.8038 17.9528 26.6204 18.0006 26.4255C18.0485 26.2306 18.0567 26.028 18.0248 25.8298C17.9929 25.6317 17.9216 25.4419 17.815 25.2718C17.7085 25.1017 17.5689 24.9547 17.4045 24.8395C17.2401 24.7244 17.0543 24.6434 16.858 24.6013C16.6617 24.5593 16.459 24.5571 16.2619 24.5948C12.5775 25.1854 9.41625 26.1848 7.1175 27.486C3.71437 29.4135 3 31.5492 3 33.0004Z" fill="url(#paint0_linear_92_6174)"/>
	<defs>
		<linearGradient id="paint0_linear_92_6174" x1="45" y1="23.2512" x2="3.00147" y2="23.2512" gradientUnits="userSpaceOnUse">
			<stop stop-color="#FF660A"/>
			<stop offset="1" stop-color="#F11969"/>
		</linearGradient>
	</defs>
</svg>
