<svg viewBox="0 0 48 48" fill="none"
	xmlns="http://www.w3.org/2000/svg">
	<path d="M42.3488 19.2787C41.6419 18.54 40.9106 17.7788 40.635 17.1094C40.38 16.4963 40.365 15.48 40.35 14.4956C40.3219 12.6656 40.2919 10.5919 38.85 9.15C37.4081 7.70812 35.3344 7.67812 33.5044 7.65C32.52 7.635 31.5037 7.62 30.8906 7.365C30.2231 7.08937 29.46 6.35812 28.7212 5.65125C27.4275 4.40812 25.9575 3 24 3C22.0425 3 20.5744 4.40812 19.2787 5.65125C18.54 6.35812 17.7788 7.08937 17.1094 7.365C16.5 7.62 15.48 7.635 14.4956 7.65C12.6656 7.67812 10.5919 7.70812 9.15 9.15C7.70812 10.5919 7.6875 12.6656 7.65 14.4956C7.635 15.48 7.62 16.4963 7.365 17.1094C7.08937 17.7769 6.35812 18.54 5.65125 19.2787C4.40812 20.5744 3 22.0425 3 24C3 25.9575 4.40812 27.4256 5.65125 28.7212C6.35812 29.46 7.08937 30.2213 7.365 30.8906C7.62 31.5037 7.635 32.52 7.65 33.5044C7.67812 35.3344 7.70812 37.4081 9.15 38.85C10.5919 40.2919 12.6656 40.3219 14.4956 40.35C15.48 40.365 16.4963 40.38 17.1094 40.635C17.7769 40.9106 18.54 41.6419 19.2787 42.3488C20.5725 43.5919 22.0425 45 24 45C25.9575 45 27.4256 43.5919 28.7212 42.3488C29.46 41.6419 30.2213 40.9106 30.8906 40.635C31.5037 40.38 32.52 40.365 33.5044 40.35C35.3344 40.3219 37.4081 40.2919 38.85 38.85C40.2919 37.4081 40.3219 35.3344 40.35 33.5044C40.365 32.52 40.38 31.5037 40.635 30.8906C40.9106 30.2231 41.6419 29.46 42.3488 28.7212C43.5919 27.4256 45 25.9575 45 24C45 22.0425 43.5919 20.5744 42.3488 19.2787ZM40.1831 26.6456C39.285 27.5831 38.355 28.5525 37.8619 29.7431C37.3894 30.8869 37.3687 32.1937 37.35 33.4594C37.3312 34.7719 37.3106 36.1463 36.7275 36.7275C36.1444 37.3088 34.7794 37.3312 33.4594 37.35C32.1937 37.3687 30.8869 37.3894 29.7431 37.8619C28.5525 38.355 27.5831 39.285 26.6456 40.1831C25.7081 41.0812 24.75 42 24 42C23.25 42 22.2844 41.0775 21.3544 40.1831C20.4244 39.2887 19.4475 38.355 18.2569 37.8619C17.1131 37.3894 15.8063 37.3687 14.5406 37.35C13.2281 37.3312 11.8538 37.3106 11.2725 36.7275C10.6912 36.1444 10.6687 34.7794 10.65 33.4594C10.6312 32.1937 10.6106 30.8869 10.1381 29.7431C9.645 28.5525 8.715 27.5831 7.81687 26.6456C6.91875 25.7081 6 24.75 6 24C6 23.25 6.9225 22.2862 7.81687 21.3544C8.71125 20.4225 9.645 19.4475 10.1381 18.2569C10.6106 17.1131 10.6312 15.8063 10.65 14.5406C10.6687 13.2281 10.6894 11.8538 11.2725 11.2725C11.8556 10.6912 13.2206 10.6687 14.5406 10.65C15.8063 10.6312 17.1131 10.6106 18.2569 10.1381C19.4475 9.645 20.4169 8.715 21.3544 7.81687C22.2919 6.91875 23.25 6 24 6C24.75 6 25.7156 6.9225 26.6456 7.81687C27.5756 8.71125 28.5525 9.645 29.7431 10.1381C30.8869 10.6106 32.1937 10.6312 33.4594 10.65C34.7719 10.6687 36.1463 10.6894 36.7275 11.2725C37.3088 11.8556 37.3312 13.2206 37.35 14.5406C37.3687 15.8063 37.3894 17.1131 37.8619 18.2569C38.355 19.4475 39.285 20.4169 40.1831 21.3544C41.0812 22.2919 42 23.25 42 24C42 24.75 41.0775 25.7138 40.1831 26.6456ZM22.5 18C22.5 17.11 22.2361 16.24 21.7416 15.4999C21.2471 14.7599 20.5443 14.1831 19.7221 13.8425C18.8998 13.5019 17.995 13.4128 17.1221 13.5865C16.2492 13.7601 15.4474 14.1887 14.818 14.818C14.1887 15.4474 13.7601 16.2492 13.5865 17.1221C13.4128 17.995 13.5019 18.8998 13.8425 19.7221C14.1831 20.5443 14.7599 21.2471 15.4999 21.7416C16.24 22.2361 17.11 22.5 18 22.5C19.1935 22.5 20.3381 22.0259 21.182 21.182C22.0259 20.3381 22.5 19.1935 22.5 18ZM16.5 18C16.5 17.7033 16.588 17.4133 16.7528 17.1666C16.9176 16.92 17.1519 16.7277 17.426 16.6142C17.7001 16.5006 18.0017 16.4709 18.2926 16.5288C18.5836 16.5867 18.8509 16.7296 19.0607 16.9393C19.2704 17.1491 19.4133 17.4164 19.4712 17.7074C19.5291 17.9983 19.4994 18.2999 19.3858 18.574C19.2723 18.8481 19.08 19.0824 18.8334 19.2472C18.5867 19.412 18.2967 19.5 18 19.5C17.6022 19.5 17.2206 19.342 16.9393 19.0607C16.658 18.7794 16.5 18.3978 16.5 18ZM30 25.5C29.11 25.5 28.24 25.7639 27.4999 26.2584C26.7599 26.7529 26.1831 27.4557 25.8425 28.2779C25.5019 29.1002 25.4128 30.005 25.5865 30.8779C25.7601 31.7508 26.1887 32.5526 26.818 33.182C27.4474 33.8113 28.2492 34.2399 29.1221 34.4135C29.995 34.5872 30.8998 34.4981 31.7221 34.1575C32.5443 33.8169 33.2471 33.2401 33.7416 32.5001C34.2361 31.76 34.5 30.89 34.5 30C34.5 28.8065 34.0259 27.6619 33.182 26.818C32.3381 25.9741 31.1935 25.5 30 25.5ZM30 31.5C29.7033 31.5 29.4133 31.412 29.1666 31.2472C28.92 31.0824 28.7277 30.8481 28.6142 30.574C28.5006 30.2999 28.4709 29.9983 28.5288 29.7074C28.5867 29.4164 28.7296 29.1491 28.9393 28.9393C29.1491 28.7296 29.4164 28.5867 29.7074 28.5288C29.9983 28.4709 30.2999 28.5006 30.574 28.6142C30.8481 28.7277 31.0824 28.92 31.2472 29.1666C31.412 29.4133 31.5 29.7033 31.5 30C31.5 30.3978 31.342 30.7794 31.0607 31.0607C30.7794 31.342 30.3978 31.5 30 31.5ZM32.5613 17.5613L17.5613 32.5613C17.4219 32.7006 17.2564 32.8112 17.0743 32.8866C16.8923 32.962 16.6971 33.0008 16.5 33.0008C16.3029 33.0008 16.1077 32.962 15.9257 32.8866C15.7436 32.8112 15.5781 32.7006 15.4387 32.5613C15.2994 32.4219 15.1888 32.2564 15.1134 32.0743C15.038 31.8923 14.9992 31.6971 14.9992 31.5C14.9992 31.3029 15.038 31.1077 15.1134 30.9257C15.1888 30.7436 15.2994 30.5781 15.4387 30.4387L30.4387 15.4387C30.5781 15.2994 30.7436 15.1888 30.9257 15.1134C31.1077 15.038 31.3029 14.9992 31.5 14.9992C31.6971 14.9992 31.8923 15.038 32.0743 15.1134C32.2564 15.1888 32.4219 15.2994 32.5613 15.4387C32.7006 15.5781 32.8112 15.7436 32.8866 15.9257C32.962 16.1077 33.0008 16.3029 33.0008 16.5C33.0008 16.6971 32.962 16.8923 32.8866 17.0743C32.8112 17.2564 32.7006 17.4219 32.5613 17.5613Z" fill="url(#paint0_linear_92_6186)"/>
	<defs>
		<linearGradient id="paint0_linear_92_6186" x1="3" y1="24" x2="44.9985" y2="24" gradientUnits="userSpaceOnUse">
			<stop stop-color="#FF660A"/>
			<stop offset="1" stop-color="#F11969"/>
		</linearGradient>
	</defs>
</svg>
