<svg viewBox="0 0 32 32" fill="none" xmlns="http://www.w3.org/2000/svg">
<g clip-path="url(#clip0_748_24371)">
<path d="M16 32C24.8366 32 32 24.8366 32 16C32 7.16344 24.8366 0 16 0C7.16344 0 0 7.16344 0 16C0 24.8366 7.16344 32 16 32Z" fill="white"/>
<path d="M16.0003 0C9.65689 0 4.17589 3.69156 1.58789 9.0435H30.4126C27.8246 3.69156 22.3436 0 16.0003 0Z" fill="#338AF3"/>
<path d="M16.0003 32.0005C22.3436 32.0005 27.8246 28.309 30.4126 22.957H1.58789C4.17589 28.309 9.65689 32.0005 16.0003 32.0005Z" fill="#338AF3"/>
<path d="M20.7831 16.0004L18.8291 16.9195L19.8696 18.812L17.7478 18.406L17.4789 20.5495L16.0009 18.973L14.5229 20.5495L14.2541 18.406L12.1322 18.8119L13.1727 16.9195L11.2188 16.0004L13.1728 15.0812L12.1322 13.1888L14.2541 13.5947L14.523 11.4512L16.0009 13.0277L17.4789 11.4512L17.7478 13.5947L19.8697 13.1888L18.8291 15.0812L20.7831 16.0004Z" fill="#FFDA44"/>
</g>
<defs>
<clipPath id="clip0_748_24371">
<rect width="32" height="32" rx="16" fill="white"/>
</clipPath>
</defs>
</svg>
