<svg viewBox="0 0 32 32" fill="none" xmlns="http://www.w3.org/2000/svg">
<g clip-path="url(#clip0_748_24397)">
<path d="M32 16C32 24.8365 24.8365 32 16 32C7.1635 32 0 24.8365 0 16C0 16.0037 16 0.0018125 16 0C24.8365 0 32 7.1635 32 16Z" fill="#0052B4"/>
<path d="M15.957 15.9998H15.9998C15.9998 15.9853 15.9998 15.9715 15.9998 15.957C15.9856 15.9713 15.9713 15.9856 15.957 15.9998Z" fill="white"/>
<path d="M16 8.34781C16 5.5325 16 3.68769 16 0H15.9973C7.162 0.0014375 0 7.16425 0 15.9999H8.34781V11.2992L13.0486 15.9999H15.9573C15.9716 15.9857 15.9858 15.9714 16.0001 15.9571C16.0001 14.8792 16.0001 13.9174 16.0001 13.0486L11.2993 8.34781H16Z" fill="white"/>
<path d="M8.09564 2.08789C5.5932 3.51283 3.51283 5.5932 2.08789 8.09564V16.001H6.26183V6.26189V6.26183H16.001C16.001 4.94539 16.001 3.69127 16.001 2.08789H8.09564Z" fill="#D80027"/>
<path d="M16.0017 14.0341L10.3172 8.34964H8.34961C8.34961 8.34957 8.34961 8.34964 8.34961 8.34964L16.0017 16.0017H16.0017C16.0017 16.0017 16.0017 14.6451 16.0017 14.0341Z" fill="#D80027"/>
<path d="M9.64972 18.7832L10.5278 20.6193L12.5108 20.161L11.6228 21.9924L13.2174 23.257L11.232 23.7045L11.2375 25.7397L9.64972 24.4664L8.06197 25.7397L8.06753 23.7045L6.08203 23.257L7.67672 21.9924L6.78859 20.161L8.77166 20.6193L9.64972 18.7832Z" fill="white"/>
<path d="M23.9557 22.2617L24.3947 23.1798L25.3862 22.9506L24.9422 23.8663L25.7396 24.4986L24.7468 24.7223L24.7496 25.74L23.9557 25.1033L23.1618 25.74L23.1646 24.7223L22.1719 24.4986L22.9692 23.8663L22.5252 22.9506L23.5166 23.1798L23.9557 22.2617Z" fill="white"/>
<path d="M19.8718 12.5215L20.3108 13.4396L21.3023 13.2104L20.8583 14.126L21.6556 14.7584L20.6629 14.9821L20.6656 15.9997L19.8718 15.363L19.0779 15.9997L19.0806 14.9821L18.0879 14.7584L18.8852 14.126L18.4412 13.2104L19.4327 13.4396L19.8718 12.5215Z" fill="white"/>
<path d="M23.9557 6.95703L24.3947 7.87516L25.3862 7.64597L24.9422 8.56166L25.7395 9.19391L24.7468 9.41772L24.7496 10.4353L23.9557 9.79866L23.1618 10.4353L23.1646 9.41772L22.1719 9.19391L22.9691 8.56166L22.5252 7.64597L23.5166 7.87516L23.9557 6.95703Z" fill="white"/>
<path d="M27.5222 11.1309L27.9612 12.049L28.9527 11.8197L28.5087 12.7354L29.306 13.3677L28.3132 13.5915L28.316 14.6091L27.5222 13.9725L26.7283 14.6091L26.731 13.5915L25.7383 13.3677L26.5356 12.7354L26.0916 11.8197L27.083 12.049L27.5222 11.1309Z" fill="white"/>
<path d="M24.9727 16L25.318 17.0629H26.4356L25.5315 17.7198L25.8769 18.7826L24.9727 18.1257L24.0686 18.7826L24.4139 17.7198L23.5098 17.0629H24.6273L24.9727 16Z" fill="white"/>
</g>
<defs>
<clipPath id="clip0_748_24397">
<rect width="32" height="32" rx="16" fill="white"/>
</clipPath>
</defs>
</svg>
