<svg viewBox="0 0 32 32" fill="none" xmlns="http://www.w3.org/2000/svg">
<g clip-path="url(#clip0_748_24413)">
<path d="M16 32C24.8366 32 32 24.8366 32 16C32 7.16344 24.8366 0 16 0C7.16344 0 0 7.16344 0 16C0 24.8366 7.16344 32 16 32Z" fill="white"/>
<path d="M32 15.9996C32 24.8361 24.8365 31.9996 16 31.9996C7.1635 31.9996 0 24.8361 0 15.9996C0 7.1631 16 15.9996 16 15.9996C16 15.9996 28.1101 15.9996 32 15.9996Z" fill="#D80027"/>
<path d="M0 16C0 7.1635 7.1635 0 16 0V16C16 16 5.56519 16 0 16Z" fill="#0052B4"/>
<path d="M9.52352 5.56445L10.5596 8.75308H13.9123L11.1999 10.7237L12.2359 13.9123L9.52352 11.9416L6.81114 13.9123L7.84714 10.7237L5.13477 8.75308H8.48745L9.52352 5.56445Z" fill="white"/>
</g>
<defs>
<clipPath id="clip0_748_24413">
<rect width="32" height="32" rx="16" fill="white"/>
</clipPath>
</defs>
</svg>
