<svg viewBox="0 0 80 36" fill="none" xmlns="http://www.w3.org/2000/svg">
<g clip-path="url(#clip0_748_24199)">
<path d="M18 34C26.8366 34 34 26.8366 34 18C34 9.16344 26.8366 2 18 2C9.16344 2 2 9.16344 2 18C2 26.8366 9.16344 34 18 34Z" fill="white"/>
<path d="M34 17.9996C34 26.8361 26.8365 33.9996 18 33.9996C9.1635 33.9996 2 26.8361 2 17.9996C2 9.1631 18 17.9996 18 17.9996C18 17.9996 30.1101 17.9996 34 17.9996Z" fill="#D80027"/>
<path d="M2 18C2 9.1635 9.1635 2 18 2V18C18 18 7.56519 18 2 18Z" fill="#0052B4"/>
<path d="M11.5235 7.56445L12.5596 10.7531H15.9123L13.1999 12.7237L14.2359 15.9123L11.5235 13.9416L8.81114 15.9123L9.84714 12.7237L7.13477 10.7531H10.4875L11.5235 7.56445Z" fill="white"/>
</g>
<rect x="1" y="1" width="34" height="34" rx="17" stroke="#F5F7FA" stroke-width="2"/>
<g clip-path="url(#clip1_748_24199)">
<path d="M40 34C48.8366 34 56 26.8366 56 18C56 9.16344 48.8366 2 40 2C31.1634 2 24 9.16344 24 18C24 26.8366 31.1634 34 40 34Z" fill="white"/>
<path d="M39.3047 18.0001H56.0003C56.0003 16.556 55.8078 15.157 55.4491 13.8262H39.3047V18.0001Z" fill="#D80027"/>
<path d="M39.3047 9.65245H53.6519C52.6725 8.0542 51.4202 6.64152 49.9601 5.47852H39.3047V9.65245Z" fill="#D80027"/>
<path d="M39.9988 33.9997C43.7644 33.9997 47.2254 32.6982 49.9586 30.5215H30.0391C32.7722 32.6982 36.2333 33.9997 39.9988 33.9997Z" fill="#D80027"/>
<path d="M26.348 26.3478H53.6512C54.4375 25.0647 55.0473 23.6622 55.4484 22.1738H24.5508C24.9518 23.6622 25.5617 25.0647 26.348 26.3478Z" fill="#D80027"/>
<path d="M31.4115 4.49863H32.8696L31.5133 5.48394L32.0314 7.07825L30.6752 6.09294L29.319 7.07825L29.7665 5.70094C28.5724 6.69562 27.5257 7.861 26.6632 9.1595H27.1304L26.2671 9.78669C26.1326 10.0111 26.0036 10.239 25.88 10.4703L26.2922 11.7391L25.5231 11.1803C25.3319 11.5854 25.1571 11.9996 24.9999 12.4224L25.4541 13.8204H27.1304L25.7742 14.8057L26.2922 16.4L24.9361 15.4147L24.1237 16.0049C24.0424 16.6586 24 17.3243 24 18H40C40 9.1635 40 8.12175 40 2C36.8393 2 33.8928 2.91688 31.4115 4.49863ZM32.0314 16.4L30.6752 15.4147L29.319 16.4L29.8371 14.8057L28.4808 13.8204H30.1572L30.6752 12.2261L31.1932 13.8204H32.8696L31.5133 14.8057L32.0314 16.4ZM31.5133 10.1448L32.0314 11.7391L30.6752 10.7538L29.319 11.7391L29.8371 10.1448L28.4808 9.1595H30.1572L30.6752 7.56519L31.1932 9.1595H32.8696L31.5133 10.1448ZM37.7705 16.4L36.4143 15.4147L35.0581 16.4L35.5762 14.8057L34.2199 13.8204H35.8963L36.4143 12.2261L36.9323 13.8204H38.6087L37.2524 14.8057L37.7705 16.4ZM37.2524 10.1448L37.7705 11.7391L36.4143 10.7538L35.0581 11.7391L35.5762 10.1448L34.2199 9.1595H35.8963L36.4143 7.56519L36.9323 9.1595H38.6087L37.2524 10.1448ZM37.2524 5.48394L37.7705 7.07825L36.4143 6.09294L35.0581 7.07825L35.5762 5.48394L34.2199 4.49863H35.8963L36.4143 2.90431L36.9323 4.49863H38.6087L37.2524 5.48394Z" fill="#0052B4"/>
</g>
<rect x="23" y="1" width="34" height="34" rx="17" stroke="#F5F7FA" stroke-width="2"/>
<g clip-path="url(#clip2_748_24199)">
<path d="M62 34C70.8366 34 78 26.8366 78 18C78 9.16344 70.8366 2 62 2C53.1634 2 46 9.16344 46 18C46 26.8366 53.1634 34 62 34Z" fill="white"/>
<path d="M50.6863 29.315C44.4379 23.0666 44.4379 12.9359 50.6863 6.6875C50.6858 6.68819 59.9131 18.0012 59.9131 18.0012L50.6863 29.315Z" fill="black"/>
<path d="M59.9122 17.9992L48.1212 10.0312C47.7556 10.6667 47.4333 11.3299 47.1562 12.0164L53.1256 17.9993L47.1564 23.9824C47.4332 24.6684 47.7553 25.3312 48.1206 25.9662L59.9122 17.9992Z" fill="#FFDA44"/>
<path d="M77.8642 15.9141H59.9123L50.6858 6.6875C49.6915 7.68175 48.8277 8.80619 48.1217 10.0331L56.0742 18.001L48.1211 25.9679C48.8271 27.1951 49.6913 28.3199 50.6858 29.3144L59.9123 20.0879H77.8642C77.9532 19.4048 77.9997 18.7083 77.9997 18.001C77.9997 17.2937 77.9532 16.5972 77.8642 15.9141Z" fill="#6DA544"/>
<path d="M52.2578 30.6922C54.9559 32.7661 58.3332 33.9999 61.9992 33.9999C69.3916 33.9999 75.612 28.9861 77.448 22.1738H60.7762L52.2578 30.6922Z" fill="#0052B4"/>
<path d="M77.448 13.8261C75.612 7.01381 69.3916 2 61.9992 2C58.3332 2 54.9559 3.23381 52.2578 5.30769L60.7762 13.8261H77.448Z" fill="#D80027"/>
</g>
<rect x="45" y="1" width="34" height="34" rx="17" stroke="#F5F7FA" stroke-width="2"/>
<defs>
<clipPath id="clip0_748_24199">
<rect x="2" y="2" width="32" height="32" rx="16" fill="white"/>
</clipPath>
<clipPath id="clip1_748_24199">
<rect x="24" y="2" width="32" height="32" rx="16" fill="white"/>
</clipPath>
<clipPath id="clip2_748_24199">
<rect x="46" y="2" width="32" height="32" rx="16" fill="white"/>
</clipPath>
</defs>
</svg>
