<svg viewBox="0 0 80 36" fill="none" xmlns="http://www.w3.org/2000/svg">
<g clip-path="url(#clip0_748_23997)">
<path d="M2 17.9995C2 19.9566 2.35206 21.8313 2.99519 23.5647L18 24.956L33.0048 23.5647C33.6479 21.8313 34 19.9566 34 17.9995C34 16.0423 33.6479 14.1676 33.0048 12.4343L18 11.043L2.99519 12.4343C2.35206 14.1676 2 16.0423 2 17.9995V17.9995Z" fill="#FFDA44"/>
<path d="M33.0057 12.4348C30.745 6.34206 24.8803 2 18.0009 2C11.1215 2 5.25678 6.34206 2.99609 12.4348H33.0057Z" fill="#D80027"/>
<path d="M2.99609 23.5645C5.25678 29.6572 11.1215 33.9993 18.0009 33.9993C24.8803 33.9993 30.745 29.6572 33.0057 23.5645H2.99609Z" fill="#D80027"/>
</g>
<rect x="1" y="1" width="34" height="34" rx="17" stroke="#F5F7FA" stroke-width="2"/>
<g clip-path="url(#clip1_748_23997)">
<path d="M40 34C48.8366 34 56 26.8366 56 18C56 9.16344 48.8366 2 40 2C31.1634 2 24 9.16344 24 18C24 26.8366 31.1634 34 40 34Z" fill="white"/>
<path d="M55.9993 17.999C55.9993 11.1195 51.6573 5.25483 45.5645 2.99414V33.0038C51.6573 30.7431 55.9993 24.8784 55.9993 17.999Z" fill="#D80027"/>
<path d="M24 17.999C24 24.8784 28.342 30.7431 34.4348 33.0038V2.99414C28.342 5.25483 24 11.1195 24 17.999Z" fill="#6DA544"/>
</g>
<rect x="23" y="1" width="34" height="34" rx="17" stroke="#F5F7FA" stroke-width="2"/>
<g clip-path="url(#clip2_748_23997)">
<path d="M62 34C70.8366 34 78 26.8366 78 18C78 9.16344 70.8366 2 62 2C53.1634 2 46 9.16344 46 18C46 26.8366 53.1634 34 62 34Z" fill="white"/>
<path d="M77.9993 17.999C77.9993 11.1195 73.6573 5.25483 67.5645 2.99414V33.0038C73.6573 30.7431 77.9993 24.8784 77.9993 17.999Z" fill="#D80027"/>
<path d="M46 17.999C46 24.8784 50.3421 30.7431 56.4348 33.0038V2.99414C50.3421 5.25483 46 11.1195 46 17.999Z" fill="#0052B4"/>
</g>
<rect x="45" y="1" width="34" height="34" rx="17" stroke="#F5F7FA" stroke-width="2"/>
<defs>
<clipPath id="clip0_748_23997">
<rect x="2" y="2" width="32" height="32" rx="16" fill="white"/>
</clipPath>
<clipPath id="clip1_748_23997">
<rect x="24" y="2" width="32" height="32" rx="16" fill="white"/>
</clipPath>
<clipPath id="clip2_748_23997">
<rect x="46" y="2" width="32" height="32" rx="16" fill="white"/>
</clipPath>
</defs>
</svg>
