<svg viewBox="0 0 72 72" fill="none"
	xmlns="http://www.w3.org/2000/svg">
	<path d="M65.25 13.5V24.75C65.25 25.3467 65.0129 25.919 64.591 26.341C64.169 26.7629 63.5967 27 63 27C62.4033 27 61.831 26.7629 61.409 26.341C60.9871 25.919 60.75 25.3467 60.75 24.75V15.75H51.75C51.1533 15.75 50.581 15.5129 50.159 15.091C49.7371 14.669 49.5 14.0967 49.5 13.5C49.5 12.9033 49.7371 12.331 50.159 11.909C50.581 11.4871 51.1533 11.25 51.75 11.25H63C63.5967 11.25 64.169 11.4871 64.591 11.909C65.0129 12.331 65.25 12.9033 65.25 13.5ZM20.25 56.25H11.25V47.25C11.25 46.6533 11.0129 46.081 10.591 45.659C10.169 45.2371 9.59674 45 9 45C8.40326 45 7.83097 45.2371 7.40901 45.659C6.98705 46.081 6.75 46.6533 6.75 47.25V58.5C6.75 59.0967 6.98705 59.669 7.40901 60.091C7.83097 60.5129 8.40326 60.75 9 60.75H20.25C20.8467 60.75 21.419 60.5129 21.841 60.091C22.2629 59.669 22.5 59.0967 22.5 58.5C22.5 57.9033 22.2629 57.331 21.841 56.909C21.419 56.4871 20.8467 56.25 20.25 56.25ZM63 45C62.4033 45 61.831 45.2371 61.409 45.659C60.9871 46.081 60.75 46.6533 60.75 47.25V56.25H51.75C51.1533 56.25 50.581 56.4871 50.159 56.909C49.7371 57.331 49.5 57.9033 49.5 58.5C49.5 59.0967 49.7371 59.669 50.159 60.091C50.581 60.5129 51.1533 60.75 51.75 60.75H63C63.5967 60.75 64.169 60.5129 64.591 60.091C65.0129 59.669 65.25 59.0967 65.25 58.5V47.25C65.25 46.6533 65.0129 46.081 64.591 45.659C64.169 45.2371 63.5967 45 63 45ZM9 27C9.59674 27 10.169 26.7629 10.591 26.341C11.0129 25.919 11.25 25.3467 11.25 24.75V15.75H20.25C20.8467 15.75 21.419 15.5129 21.841 15.091C22.2629 14.669 22.5 14.0967 22.5 13.5C22.5 12.9033 22.2629 12.331 21.841 11.909C21.419 11.4871 20.8467 11.25 20.25 11.25H9C8.40326 11.25 7.83097 11.4871 7.40901 11.909C6.98705 12.331 6.75 12.9033 6.75 13.5V24.75C6.75 25.3467 6.98705 25.919 7.40901 26.341C7.83097 26.7629 8.40326 27 9 27ZM22.5 22.5C21.9033 22.5 21.331 22.7371 20.909 23.159C20.4871 23.581 20.25 24.1533 20.25 24.75V47.25C20.25 47.8467 20.4871 48.419 20.909 48.841C21.331 49.2629 21.9033 49.5 22.5 49.5C23.0967 49.5 23.669 49.2629 24.091 48.841C24.5129 48.419 24.75 47.8467 24.75 47.25V24.75C24.75 24.1533 24.5129 23.581 24.091 23.159C23.669 22.7371 23.0967 22.5 22.5 22.5ZM51.75 47.25V24.75C51.75 24.1533 51.5129 23.581 51.091 23.159C50.669 22.7371 50.0967 22.5 49.5 22.5C48.9033 22.5 48.331 22.7371 47.909 23.159C47.4871 23.581 47.25 24.1533 47.25 24.75V47.25C47.25 47.8467 47.4871 48.419 47.909 48.841C48.331 49.2629 48.9033 49.5 49.5 49.5C50.0967 49.5 50.669 49.2629 51.091 48.841C51.5129 48.419 51.75 47.8467 51.75 47.25ZM40.5 22.5C39.9033 22.5 39.331 22.7371 38.909 23.159C38.4871 23.581 38.25 24.1533 38.25 24.75V47.25C38.25 47.8467 38.4871 48.419 38.909 48.841C39.331 49.2629 39.9033 49.5 40.5 49.5C41.0967 49.5 41.669 49.2629 42.091 48.841C42.5129 48.419 42.75 47.8467 42.75 47.25V24.75C42.75 24.1533 42.5129 23.581 42.091 23.159C41.669 22.7371 41.0967 22.5 40.5 22.5ZM31.5 22.5C30.9033 22.5 30.331 22.7371 29.909 23.159C29.4871 23.581 29.25 24.1533 29.25 24.75V47.25C29.25 47.8467 29.4871 48.419 29.909 48.841C30.331 49.2629 30.9033 49.5 31.5 49.5C32.0967 49.5 32.669 49.2629 33.091 48.841C33.5129 48.419 33.75 47.8467 33.75 47.25V24.75C33.75 24.1533 33.5129 23.581 33.091 23.159C32.669 22.7371 32.0967 22.5 31.5 22.5Z" fill="url(#paint0_linear_1032_35241)"/>
	<defs>
		<linearGradient id="paint0_linear_1032_35241" x1="6.75" y1="36" x2="65.248" y2="36" gradientUnits="userSpaceOnUse">
			<stop stop-color="#FF660A"/>
			<stop offset="1" stop-color="#F11969"/>
		</linearGradient>
	</defs>
</svg>
