<svg viewBox="0 0 72 72" fill="none"
	xmlns="http://www.w3.org/2000/svg">
	<path d="M69.0922 11.9082L60.0922 2.90816C59.67 2.48596 59.0974 2.24878 58.5003 2.24878C57.9032 2.24878 57.3306 2.48596 56.9084 2.90816C56.4862 3.33035 56.2491 3.90296 56.2491 4.50003C56.2491 5.0971 56.4862 5.66971 56.9084 6.09191L57.3247 6.50534L41.8081 18.1435L31.0587 20.295C30.6235 20.3822 30.2235 20.5954 29.9084 20.9082L6.46906 44.3419C5.20328 45.6078 4.49219 47.3246 4.49219 49.1147C4.49219 50.9049 5.20328 52.6217 6.46906 53.8875L18.1128 65.5313C19.3787 66.7971 21.0955 67.5081 22.8856 67.5081C24.6758 67.5081 26.3926 66.7971 27.6584 65.5313L51.0922 42.1003C51.4056 41.7858 51.6189 41.3856 51.7053 40.95L53.8569 30.2007L65.495 14.6841L65.9084 15.1003C66.1175 15.3094 66.3657 15.4752 66.6388 15.5884C66.9119 15.7015 67.2047 15.7597 67.5003 15.7597C67.7959 15.7597 68.0887 15.7015 68.3618 15.5884C68.6349 15.4752 68.8831 15.3094 69.0922 15.1003C69.3012 14.8913 69.467 14.6431 69.5802 14.37C69.6933 14.0968 69.7516 13.8041 69.7516 13.5085C69.7516 13.2128 69.6933 12.9201 69.5802 12.647C69.467 12.3738 69.3012 12.1256 69.0922 11.9166V11.9082ZM27.0003 30.181L41.8194 45L29.2503 57.5691L14.4312 42.75L27.0003 30.181ZM22.8856 63C22.5904 63.0008 22.2979 62.9431 22.0252 62.8301C21.7524 62.7171 21.5048 62.5512 21.2966 62.3419L9.65843 50.7038C9.23679 50.2819 8.99995 49.7098 8.99995 49.1133C8.99995 48.5168 9.23679 47.9448 9.65843 47.5228L11.2503 45.931L26.0694 60.75L24.4691 62.3419C24.0488 62.7617 23.4796 62.9983 22.8856 63ZM49.9503 27.9C49.7486 28.1684 49.6101 28.479 49.5453 28.8085L47.4275 39.3919L45.0003 41.8191L30.1812 27L32.6084 24.5728L43.1919 22.455C43.5213 22.3902 43.8319 22.2518 44.1003 22.05L60.5394 9.72003L62.2803 11.461L49.9503 27.9Z" fill="url(#paint0_linear_1032_35229)"/>
	<defs>
		<linearGradient id="paint0_linear_1032_35229" x1="4.49219" y1="34.8785" x2="69.7493" y2="34.8785" gradientUnits="userSpaceOnUse">
			<stop stop-color="#FF660A"/>
			<stop offset="1" stop-color="#F11969"/>
		</linearGradient>
	</defs>
</svg>
