<svg viewBox="0 0 72 72" fill="none"
	xmlns="http://www.w3.org/2000/svg">
	<path d="M69.6375 41.9708C69.4317 41.3965 69.19 40.8358 68.9136 40.292L56.1024 11.1457C55.9812 10.8649 55.8077 10.6099 55.5911 10.394C54.6757 9.47849 53.589 8.75222 52.3929 8.25671C51.1968 7.7612 49.9149 7.50616 48.6202 7.50616C47.3256 7.50616 46.0436 7.7612 44.8475 8.25671C43.6515 8.75222 42.5647 9.47849 41.6494 10.394C41.1889 10.8551 40.9297 11.4797 40.9286 12.1314V19.8323H31.0714V12.1314C31.0717 11.8077 31.0082 11.4871 30.8845 11.1879C30.7608 10.8888 30.5794 10.6169 30.3506 10.3879C29.4353 9.47233 28.3485 8.74605 27.1525 8.25055C25.9564 7.75504 24.6744 7.5 23.3798 7.5C22.0851 7.5 20.8032 7.75504 19.6071 8.25055C18.411 8.74605 17.3243 9.47233 16.4089 10.3879C16.1923 10.6037 16.0188 10.8588 15.8976 11.1395L3.08639 40.2858C2.81004 40.8297 2.56826 41.3904 2.3625 41.9646C1.63708 43.9944 1.36422 46.1582 1.56303 48.3045C1.76185 50.4508 2.42754 52.5277 3.51346 54.3897C4.59938 56.2516 6.07928 57.8537 7.84948 59.0835C9.61968 60.3134 11.6374 61.1413 13.7612 61.5093C15.8851 61.8774 18.0637 61.7766 20.1445 61.214C22.2253 60.6515 24.1579 59.6408 25.807 58.2528C27.4561 56.8647 28.7818 55.1329 29.6911 53.1787C30.6005 51.2244 31.0716 49.0949 31.0714 46.9394V24.7608H40.9286V46.9394C40.9275 49.0952 41.3978 51.2251 42.3066 53.1799C43.2153 55.1348 44.5406 56.8672 46.1895 58.256C47.8383 59.6447 49.7709 60.656 51.8518 61.2192C53.9327 61.7823 56.1116 61.8836 58.2357 61.516C60.3599 61.1484 62.378 60.3207 64.1486 59.091C65.9192 57.8613 67.3995 56.2592 68.4858 54.3972C69.572 52.5351 70.2379 50.458 70.4369 48.3114C70.6358 46.1649 70.363 44.0008 69.6375 41.9708ZM20.2008 13.5945C21.0224 12.9028 22.0475 12.4983 23.1201 12.4427C24.1927 12.3871 25.2541 12.6834 26.1429 13.2865V35.9302C24.2189 34.2026 21.8746 33.0109 19.3451 32.4746C16.8155 31.9383 14.1894 32.0762 11.7299 32.8745L20.2008 13.5945ZM16.2857 56.7966C14.3362 56.7966 12.4304 56.2184 10.8094 55.1353C9.18838 54.0522 7.92497 52.5127 7.1789 50.7116C6.43284 48.9104 6.23764 46.9285 6.61798 45.0164C6.99831 43.1043 7.93712 41.3479 9.31566 39.9694C10.6942 38.5908 12.4506 37.652 14.3627 37.2717C16.2748 36.8913 18.2567 37.0865 20.0579 37.8326C21.859 38.5787 23.3985 39.8421 24.4816 41.4631C25.5647 43.0841 26.1429 44.9899 26.1429 46.9394C26.1429 49.5537 25.1043 52.0609 23.2558 53.9095C21.4072 55.758 18.9 56.7966 16.2857 56.7966ZM45.8571 13.2834C46.7459 12.6803 47.8073 12.384 48.8799 12.4396C49.9525 12.4952 50.9776 12.8997 51.7991 13.5915L60.2701 32.8683C57.8104 32.0705 55.1841 31.9331 52.6545 32.4699C50.1249 33.0068 47.7808 34.199 45.8571 35.9271V13.2834ZM55.7143 56.7966C53.7647 56.7966 51.8589 56.2184 50.2379 55.1353C48.6169 54.0522 47.3535 52.5127 46.6075 50.7116C45.8614 48.9104 45.6662 46.9285 46.0465 45.0164C46.4269 43.1043 47.3657 41.3479 48.7442 39.9694C50.1228 38.5908 51.8791 37.652 53.7912 37.2717C55.7033 36.8913 57.6853 37.0865 59.4864 37.8326C61.2876 38.5787 62.8271 39.8421 63.9102 41.4631C64.9933 43.0841 65.5714 44.9899 65.5714 46.9394C65.5714 49.5537 64.5329 52.0609 62.6843 53.9095C60.8358 55.758 58.3286 56.7966 55.7143 56.7966Z" fill="url(#paint0_linear_1032_35247)"/>
	<defs>
		<linearGradient id="paint0_linear_1032_35247" x1="1.5" y1="34.6163" x2="70.4976" y2="34.6163" gradientUnits="userSpaceOnUse">
			<stop stop-color="#FF660A"/>
			<stop offset="1" stop-color="#F11969"/>
		</linearGradient>
	</defs>
</svg>
