<svg viewBox="0 0 72 72" fill="none"
	xmlns="http://www.w3.org/2000/svg">
	<path d="M58.5 9H51.75V6.75C51.75 6.15326 51.5129 5.58097 51.091 5.15901C50.669 4.73705 50.0967 4.5 49.5 4.5C48.9033 4.5 48.331 4.73705 47.909 5.15901C47.4871 5.58097 47.25 6.15326 47.25 6.75V9H24.75V6.75C24.75 6.15326 24.5129 5.58097 24.091 5.15901C23.669 4.73705 23.0967 4.5 22.5 4.5C21.9033 4.5 21.331 4.73705 20.909 5.15901C20.4871 5.58097 20.25 6.15326 20.25 6.75V9H13.5C12.3065 9 11.1619 9.47411 10.318 10.318C9.47411 11.1619 9 12.3065 9 13.5V58.5C9 59.6935 9.47411 60.8381 10.318 61.682C11.1619 62.5259 12.3065 63 13.5 63H58.5C59.6935 63 60.8381 62.5259 61.682 61.682C62.5259 60.8381 63 59.6935 63 58.5V13.5C63 12.3065 62.5259 11.1619 61.682 10.318C60.8381 9.47411 59.6935 9 58.5 9ZM58.5 58.5H13.5V13.5H20.25V15.75C20.25 16.3467 20.4871 16.919 20.909 17.341C21.331 17.7629 21.9033 18 22.5 18C23.0967 18 23.669 17.7629 24.091 17.341C24.5129 16.919 24.75 16.3467 24.75 15.75V13.5H47.25V15.75C47.25 16.3467 47.4871 16.919 47.909 17.341C48.331 17.7629 48.9033 18 49.5 18C50.0967 18 50.669 17.7629 51.091 17.341C51.5129 16.919 51.75 16.3467 51.75 15.75V13.5H58.5V58.5ZM42.75 24.75C41.4723 24.7493 40.2092 25.0214 39.0451 25.5481C37.881 26.0749 36.8429 26.8441 36 27.8044C34.7912 26.4338 33.1939 25.4636 31.4203 25.0229C29.6468 24.5822 27.7811 24.6919 26.0714 25.3373C24.3617 25.9827 22.889 27.1333 21.8491 28.6361C20.8093 30.1388 20.2515 31.9225 20.25 33.75C20.25 44.0213 34.3912 51.21 34.9931 51.5138C35.3057 51.6702 35.6505 51.7516 36 51.7516C36.3495 51.7516 36.6943 51.6702 37.0069 51.5138C37.6088 51.21 51.75 44.0213 51.75 33.75C51.75 31.3631 50.8018 29.0739 49.114 27.386C47.4261 25.6982 45.1369 24.75 42.75 24.75ZM36 46.9491C32.1216 44.7581 24.75 39.4256 24.75 33.75C24.75 32.5565 25.2241 31.4119 26.068 30.568C26.9119 29.7241 28.0565 29.25 29.25 29.25C30.4435 29.25 31.5881 29.7241 32.432 30.568C33.2759 31.4119 33.75 32.5565 33.75 33.75C33.75 34.3467 33.9871 34.919 34.409 35.341C34.831 35.7629 35.4033 36 36 36C36.5967 36 37.169 35.7629 37.591 35.341C38.0129 34.919 38.25 34.3467 38.25 33.75C38.25 32.5565 38.7241 31.4119 39.568 30.568C40.4119 29.7241 41.5565 29.25 42.75 29.25C43.9435 29.25 45.0881 29.7241 45.932 30.568C46.7759 31.4119 47.25 32.5565 47.25 33.75C47.25 39.4284 39.8784 44.7609 36 46.9491Z" fill="url(#paint0_linear_1032_35259)"/>
	<defs>
		<linearGradient id="paint0_linear_1032_35259" x1="9" y1="33.75" x2="62.9981" y2="33.75" gradientUnits="userSpaceOnUse">
			<stop stop-color="#FF660A"/>
			<stop offset="1" stop-color="#F11969"/>
		</linearGradient>
	</defs>
</svg>
