<svg viewBox="0 0 72 72" fill="none"
	xmlns="http://www.w3.org/2000/svg">
	<path d="M65.8125 22.5338C65.1789 21.8158 64.3998 21.2408 63.527 20.8471C62.6542 20.4533 61.7075 20.2498 60.75 20.25H45V15.75C45 12.7663 43.8147 9.90483 41.705 7.79505C39.5952 5.68526 36.7337 4.5 33.75 4.5C33.332 4.4997 32.9222 4.61585 32.5665 4.83542C32.2108 5.055 31.9233 5.36931 31.7362 5.74313L21.1106 27H9C7.80653 27 6.66193 27.4741 5.81802 28.318C4.97411 29.1619 4.5 30.3065 4.5 31.5V56.25C4.5 57.4435 4.97411 58.5881 5.81802 59.432C6.66193 60.2759 7.80653 60.75 9 60.75H57.375C59.0195 60.7506 60.6076 60.1508 61.8412 59.0633C63.0747 57.9758 63.8688 56.4753 64.0744 54.8438L67.4494 27.8438C67.569 26.8932 67.4849 25.9281 67.2027 25.0125C66.9204 24.097 66.4465 23.252 65.8125 22.5338ZM9 31.5H20.25V56.25H9V31.5ZM62.9831 27.2812L59.6081 54.2812C59.5396 54.8251 59.2749 55.3253 58.8637 55.6878C58.4525 56.0503 57.9232 56.2502 57.375 56.25H24.75V29.7816L35.0747 9.12938C36.6049 9.43564 37.9818 10.2627 38.9709 11.4698C39.9601 12.6769 40.5004 14.1894 40.5 15.75V22.5C40.5 23.0967 40.7371 23.669 41.159 24.091C41.581 24.5129 42.1533 24.75 42.75 24.75H60.75C61.0693 24.7499 61.3849 24.8177 61.676 24.949C61.967 25.0803 62.2268 25.272 62.438 25.5115C62.6492 25.7509 62.8071 26.0325 62.9011 26.3377C62.9951 26.6428 63.023 26.9645 62.9831 27.2812Z" fill="url(#paint0_linear_1032_35253)"/>
	<defs>
		<linearGradient id="paint0_linear_1032_35253" x1="4.5" y1="32.625" x2="67.5" y2="32.625" gradientUnits="userSpaceOnUse">
			<stop stop-color="#FF660A"/>
			<stop offset="1" stop-color="#F11969"/>
		</linearGradient>
	</defs>
</svg>
