<svg viewBox="0 0 72 72" fill="none"
	xmlns="http://www.w3.org/2000/svg">
	<path d="M68.8508 42.3C68.6145 42.4773 68.3455 42.6063 68.0592 42.6796C67.773 42.753 67.4752 42.7692 67.1826 42.7274C66.8901 42.6856 66.6087 42.5866 66.3545 42.4361C66.1002 42.2855 65.8781 42.0864 65.7008 41.85C64.3447 40.0271 62.5795 38.5481 60.5473 37.532C58.5152 36.516 56.2729 35.9912 54.0008 36C53.5584 36 53.1258 35.8695 52.7571 35.6249C52.3884 35.3802 52.1 35.0324 51.928 34.6247C51.8112 34.3479 51.7511 34.0505 51.7511 33.75C51.7511 33.4496 51.8112 33.1522 51.928 32.8753C52.1 32.4677 52.3884 32.1198 52.7571 31.8752C53.1258 31.6305 53.5584 31.5001 54.0008 31.5C55.2633 31.4999 56.5004 31.1458 57.5717 30.4778C58.6429 29.8098 59.5054 28.8548 60.0611 27.7213C60.6168 26.5877 60.8435 25.321 60.7154 24.0651C60.5873 22.8091 60.1096 21.6143 59.3364 20.6163C58.5633 19.6182 57.5258 18.857 56.3417 18.4191C55.1576 17.9812 53.8745 17.8841 52.638 18.1389C51.4015 18.3937 50.2613 18.9901 49.3468 19.8605C48.4323 20.7308 47.7802 21.8401 47.4646 23.0625C47.3907 23.3488 47.2612 23.6176 47.0834 23.8538C46.9056 24.09 46.6831 24.2889 46.4284 24.439C46.1738 24.5892 45.8921 24.6877 45.5994 24.729C45.3066 24.7703 45.0087 24.7536 44.7224 24.6797C44.4362 24.6058 44.1673 24.4763 43.9311 24.2985C43.6949 24.1207 43.4961 23.8982 43.3459 23.6435C43.1957 23.3889 43.0972 23.1072 43.0559 22.8145C43.0146 22.5217 43.0314 22.2238 43.1052 21.9375C43.5433 20.2425 44.3709 18.673 45.5223 17.3541C46.6736 16.0352 48.1169 15.0032 49.7372 14.3402C51.3576 13.6773 53.1103 13.4016 54.856 13.5353C56.6016 13.6689 58.292 14.2081 59.7926 15.1099C61.2931 16.0118 62.5625 17.2514 63.4997 18.7302C64.4369 20.209 65.016 21.8861 65.191 23.628C65.366 25.37 65.132 27.1288 64.5077 28.7644C63.8833 30.4001 62.8858 31.8674 61.5946 33.0497C64.6541 34.3744 67.3137 36.4765 69.3093 39.1472C69.4866 39.3842 69.6153 39.6538 69.6883 39.9406C69.7612 40.2275 69.7768 40.5259 69.7342 40.8187C69.6916 41.1116 69.5917 41.3932 69.4401 41.6474C69.2885 41.9016 69.0883 42.1233 68.8508 42.3ZM53.6971 59.625C53.8599 59.8811 53.9692 60.1675 54.0185 60.4669C54.0677 60.7663 54.0559 61.0726 53.9837 61.3674C53.9115 61.6621 53.7804 61.9392 53.5984 62.182C53.4163 62.4248 53.187 62.6282 52.9243 62.7801C52.6616 62.9319 52.3708 63.0291 52.0696 63.0657C51.7684 63.1023 51.4628 63.0775 51.1714 62.993C50.88 62.9084 50.6086 62.7658 50.3737 62.5737C50.1389 62.3816 49.9453 62.1439 49.8046 61.875C48.3872 59.475 46.3686 57.4861 43.9479 56.1043C41.5272 54.7226 38.7881 53.9959 36.0009 53.9959C33.2136 53.9959 30.4745 54.7226 28.0538 56.1043C25.6331 57.4861 23.6145 59.475 22.1971 61.875C22.0564 62.1439 21.8628 62.3816 21.628 62.5737C21.3931 62.7658 21.1217 62.9084 20.8303 62.993C20.5389 63.0775 20.2333 63.1023 19.9321 63.0657C19.6309 63.0291 19.3401 62.9319 19.0774 62.7801C18.8147 62.6282 18.5854 62.4248 18.4033 62.182C18.2213 61.9392 18.0902 61.6621 18.018 61.3674C17.9458 61.0726 17.934 60.7663 17.9832 60.4669C18.0325 60.1675 18.1418 59.8811 18.3046 59.625C20.486 55.877 23.812 52.9275 27.794 51.21C25.5533 49.4945 23.9066 47.12 23.0853 44.4202C22.264 41.7204 22.3093 38.8311 23.215 36.1584C24.1207 33.4857 25.8411 31.164 28.1345 29.5197C30.4279 27.8753 33.1789 26.991 36.0009 26.991C38.8228 26.991 41.5738 27.8753 43.8672 29.5197C46.1606 31.164 47.881 33.4857 48.7867 36.1584C49.6924 38.8311 49.7377 41.7204 48.9164 44.4202C48.0951 47.12 46.4484 49.4945 44.2077 51.21C48.1897 52.9275 51.5157 55.877 53.6971 59.625ZM36.0009 49.5C37.7809 49.5 39.5209 48.9722 41.001 47.9832C42.481 46.9943 43.6346 45.5887 44.3158 43.9442C44.997 42.2996 45.1752 40.49 44.8279 38.7442C44.4807 36.9984 43.6235 35.3947 42.3648 34.1361C41.1061 32.8774 39.5025 32.0202 37.7567 31.6729C36.0108 31.3257 34.2012 31.5039 32.5567 32.1851C30.9122 32.8663 29.5066 34.0198 28.5176 35.4999C27.5287 36.9799 27.0009 38.72 27.0009 40.5C27.0009 42.887 27.9491 45.1761 29.6369 46.864C31.3247 48.5518 33.6139 49.5 36.0009 49.5ZM20.2509 33.75C20.2509 33.1533 20.0138 32.581 19.5918 32.159C19.1699 31.7371 18.5976 31.5 18.0009 31.5C16.7384 31.4999 15.5013 31.1458 14.43 30.4778C13.3587 29.8098 12.4963 28.8548 11.9406 27.7213C11.3849 26.5877 11.1582 25.321 11.2863 24.0651C11.4144 22.8091 11.8921 21.6143 12.6653 20.6163C13.4384 19.6182 14.4759 18.857 15.66 18.4191C16.8441 17.9812 18.1272 17.8841 19.3637 18.1389C20.6002 18.3937 21.7404 18.9901 22.6549 19.8605C23.5694 20.7308 24.2215 21.8401 24.5371 23.0625C24.6863 23.6406 25.059 24.1358 25.5733 24.439C26.0875 24.7423 26.7012 24.8289 27.2793 24.6797C27.8574 24.5305 28.3525 24.1578 28.6558 23.6435C28.9591 23.1293 29.0457 22.5156 28.8965 21.9375C28.4584 20.2425 27.6308 18.673 26.4794 17.3541C25.3281 16.0352 23.8848 15.0032 22.2645 14.3402C20.6441 13.6773 18.8914 13.4016 17.1457 13.5353C15.4001 13.6689 13.7097 14.2081 12.2091 15.1099C10.7086 16.0118 9.43917 17.2514 8.50197 18.7302C7.56478 20.209 6.98565 21.8861 6.81067 23.628C6.63569 25.37 6.86969 27.1288 7.49404 28.7644C8.11839 30.4001 9.11587 31.8674 10.4071 33.0497C7.35071 34.3756 4.69411 36.4776 2.70085 39.1472C2.34244 39.6246 2.18834 40.2248 2.27247 40.8158C2.3566 41.4068 2.67206 41.9402 3.14945 42.2986C3.62684 42.657 4.22705 42.8111 4.81806 42.727C5.40906 42.6429 5.94244 42.3274 6.30085 41.85C7.657 40.0271 9.4222 38.5481 11.4544 37.532C13.4865 36.516 15.7288 35.9912 18.0009 36C18.5976 36 19.1699 35.763 19.5918 35.341C20.0138 34.9191 20.2509 34.3468 20.2509 33.75Z" fill="url(#paint0_linear_1032_35235)"/>
	<defs>
		<linearGradient id="paint0_linear_1032_35235" x1="2.25" y1="38.2923" x2="69.7552" y2="38.2923" gradientUnits="userSpaceOnUse">
			<stop stop-color="#FF660A"/>
			<stop offset="1" stop-color="#F11969"/>
		</linearGradient>
	</defs>
</svg>
