<svg viewBox="0 0 72 72" fill="none"
	xmlns="http://www.w3.org/2000/svg">
	<path d="M69.7489 9C69.1522 9 68.5799 9.23705 68.1579 9.65901C67.736 10.081 67.4989 10.6533 67.4989 11.25C67.4434 12.9254 67.1039 14.5792 66.4949 16.1409C65.3558 18.9056 63.477 20.25 60.7489 20.25C57.6383 20.25 55.4474 17.505 52.4549 13.3172C49.4989 9.18562 46.1577 4.5 40.4989 4.5C35.8892 4.5 32.3427 7.00031 30.5342 11.5312C30.0044 12.8896 29.6362 14.3056 29.4374 15.75H24.7489C23.5554 15.75 22.4109 16.2241 21.5669 17.068C20.723 17.9119 20.2489 19.0565 20.2489 20.25V22.9472C15.2943 25.4715 11.334 29.5907 9.00661 34.6409C6.6792 39.691 6.12024 45.3778 7.41983 50.7844C8.71943 56.1911 11.8019 61.0025 16.1702 64.4432C20.5386 67.8839 25.9383 69.7533 31.4989 69.75H31.9461C37.4689 69.655 42.8012 67.7153 47.0943 64.2397C51.3873 60.764 54.3943 55.9521 55.6366 50.57C56.8788 45.1879 56.285 39.5449 53.9496 34.5392C51.6142 29.5336 47.6714 25.4531 42.7489 22.9472V20.25C42.7489 19.0565 42.2748 17.9119 41.4309 17.068C40.587 16.2241 39.4424 15.75 38.2489 15.75H33.9964C34.1561 14.8476 34.4097 13.9644 34.753 13.1147C35.892 10.3444 37.7708 9 40.4989 9C43.6095 9 45.8005 11.745 48.793 15.9328C51.7489 20.0644 55.0902 24.75 60.7489 24.75C65.3586 24.75 68.9052 22.2497 70.7136 17.7188C71.5096 15.6521 71.9444 13.464 71.9989 11.25C71.9989 10.6533 71.7619 10.081 71.3399 9.65901C70.918 9.23705 70.3457 9 69.7489 9ZM39.5989 26.4375C43.8628 28.2984 47.3558 31.5707 49.4908 35.7041C51.6257 39.8376 52.2723 44.5801 51.3218 49.1342C50.3713 53.6883 47.8817 57.7763 44.2716 60.7107C40.6615 63.6451 36.1512 65.2469 31.4989 65.2469C26.8467 65.2469 22.3363 63.6451 18.7262 60.7107C15.1162 57.7763 12.6266 53.6883 11.6761 49.1342C10.7256 44.5801 11.3722 39.8376 13.5071 35.7041C15.642 31.5707 19.1351 28.2984 23.3989 26.4375C23.8005 26.2622 24.1422 25.9735 24.382 25.6068C24.6218 25.2401 24.7494 24.8113 24.7489 24.3731V20.25H38.2489V24.3731C38.2485 24.8113 38.376 25.2401 38.6158 25.6068C38.8556 25.9735 39.1973 26.2622 39.5989 26.4375ZM31.468 58.8713C31.3801 59.3963 31.109 59.8732 30.7027 60.2172C30.2964 60.5612 29.7813 60.75 29.2489 60.75C29.1236 60.7495 28.9985 60.7391 28.8749 60.7191C25.613 60.1403 22.6075 58.5737 20.265 56.2311C17.9224 53.8886 16.3558 50.8832 15.777 47.6213C15.7253 47.3286 15.732 47.0285 15.7969 46.7385C15.8618 46.4484 15.9834 46.174 16.1549 45.9313C16.3264 45.6885 16.5443 45.4821 16.796 45.324C17.0477 45.166 17.3282 45.0593 17.6214 45.0103C17.9146 44.9612 18.2145 44.9707 18.504 45.0383C18.7934 45.1058 19.0666 45.2301 19.3078 45.4038C19.549 45.5775 19.7533 45.7973 19.9091 46.0505C20.0648 46.3036 20.1688 46.5852 20.2152 46.8787C20.6312 49.2201 21.7559 51.3772 23.4374 53.0587C25.1189 54.7402 27.2761 55.8649 29.6174 56.2809C29.909 56.3294 30.1883 56.4348 30.4392 56.5912C30.69 56.7477 30.9076 56.952 31.0795 57.1926C31.2514 57.4331 31.3741 57.7052 31.4408 57.9932C31.5075 58.2813 31.5167 58.5796 31.468 58.8713Z" fill="url(#paint0_linear_1032_34899)"/>
	<defs>
		<linearGradient id="paint0_linear_1032_34899" x1="6.73437" y1="37.125" x2="71.9966" y2="37.125" gradientUnits="userSpaceOnUse">
			<stop stop-color="#FF660A"/>
			<stop offset="1" stop-color="#F11969"/>
		</linearGradient>
	</defs>
</svg>
