<svg viewBox="0 0 72 72" fill="none"
	xmlns="http://www.w3.org/2000/svg">
	<path d="M48.8784 14.4787C45.3808 10.7929 41.445 7.5494 37.1587 4.82059C36.8088 4.61034 36.4082 4.49927 36 4.49927C35.5918 4.49927 35.1912 4.61034 34.8412 4.82059C30.555 7.5494 26.6192 10.7929 23.1216 14.4787C15.3534 22.635 11.25 31.6322 11.25 40.5C11.25 47.0641 13.8576 53.3593 18.4991 58.0009C23.1406 62.6424 29.4359 65.25 36 65.25C42.5641 65.25 48.8594 62.6424 53.5009 58.0009C58.1424 53.3593 60.75 47.0641 60.75 40.5C60.75 31.6322 56.6466 22.635 48.8784 14.4787ZM27 51.75C27 43.9678 33.3366 38.4525 36 36.4781C38.6663 38.4468 45 43.9678 45 51.75C45 54.1369 44.0518 56.4261 42.364 58.1139C40.6761 59.8018 38.3869 60.75 36 60.75C33.6131 60.75 31.3239 59.8018 29.636 58.1139C27.9482 56.4261 27 54.1369 27 51.75ZM48.7322 56.2303C49.2406 54.7913 49.5002 53.2762 49.5 51.75C49.5 39.375 37.6622 32.1215 37.1587 31.8206C36.8088 31.6103 36.4082 31.4993 36 31.4993C35.5918 31.4993 35.1912 31.6103 34.8412 31.8206C34.3378 32.1215 22.5 39.375 22.5 51.75C22.4998 53.2762 22.7594 54.7913 23.2678 56.2303C20.9204 54.3353 19.0269 51.9391 17.7261 49.2172C16.4252 46.4953 15.75 43.5167 15.75 40.5C15.75 30.8222 21.4875 22.739 26.3025 17.6653C29.2383 14.5897 32.4886 11.8306 36 9.43309C39.512 11.8299 42.7623 14.5891 45.6975 17.6653C54.4191 26.8593 56.25 35.1562 56.25 40.5C56.25 43.5167 55.5748 46.4953 54.2739 49.2172C52.9731 51.9391 51.0796 54.3353 48.7322 56.2303Z" fill="url(#paint0_linear_1032_34881)"/>
	<defs>
		<linearGradient id="paint0_linear_1032_34881" x1="11.25" y1="34.8746" x2="60.7483" y2="34.8746" gradientUnits="userSpaceOnUse">
			<stop stop-color="#FF660A"/>
			<stop offset="1" stop-color="#F11969"/>
		</linearGradient>
	</defs>
</svg>
