<svg viewBox="0 0 72 72" fill="none"
	xmlns="http://www.w3.org/2000/svg">
	<path d="M36 6.75C30.2149 6.75 24.5597 8.46548 19.7496 11.6795C14.9394 14.8935 11.1904 19.4618 8.97654 24.8065C6.76267 30.1512 6.18343 36.0324 7.31204 41.7064C8.44066 47.3803 11.2265 52.5922 15.3171 56.6829C19.4078 60.7736 24.6197 63.5593 30.2936 64.688C35.9676 65.8166 41.8488 65.2373 47.1935 63.0235C52.5382 60.8096 57.1065 57.0606 60.3205 52.2504C63.5345 47.4403 65.25 41.7851 65.25 36C65.2418 28.2449 62.1575 20.8098 56.6738 15.3262C51.1902 9.84251 43.7551 6.75819 36 6.75ZM36 60.75C31.1049 60.75 26.3198 59.2984 22.2496 56.5789C18.1795 53.8593 15.0073 49.9939 13.134 45.4714C11.2607 40.9489 10.7706 35.9725 11.7256 31.1715C12.6806 26.3705 15.0378 21.9605 18.4991 18.4991C21.9605 15.0378 26.3705 12.6805 31.1715 11.7256C35.9726 10.7706 40.949 11.2607 45.4714 13.134C49.9939 15.0072 53.8593 18.1795 56.5789 22.2496C59.2984 26.3197 60.75 31.1049 60.75 36C60.7426 42.5618 58.1326 48.8528 53.4927 53.4927C48.8528 58.1326 42.5618 60.7425 36 60.75ZM22.5 30.375C22.5 29.7075 22.698 29.055 23.0688 28.4999C23.4396 27.9449 23.9668 27.5124 24.5835 27.2569C25.2002 27.0015 25.8788 26.9346 26.5334 27.0648C27.1881 27.1951 27.7895 27.5165 28.2615 27.9885C28.7335 28.4605 29.0549 29.0619 29.1852 29.7166C29.3154 30.3713 29.2486 31.0499 28.9931 31.6666C28.7377 32.2833 28.3051 32.8104 27.7501 33.1812C27.195 33.5521 26.5425 33.75 25.875 33.75C24.9799 33.75 24.1215 33.3944 23.4885 32.7615C22.8556 32.1285 22.5 31.2701 22.5 30.375ZM49.5 30.375C49.5 31.0425 49.3021 31.695 48.9312 32.25C48.5604 32.8051 48.0333 33.2376 47.4166 33.4931C46.7999 33.7485 46.1213 33.8154 45.4666 33.6851C44.8119 33.5549 44.2105 33.2335 43.7385 32.7615C43.2665 32.2895 42.9451 31.6881 42.8149 31.0334C42.6846 30.3787 42.7515 29.7001 43.0069 29.0834C43.2624 28.4667 43.6949 27.9396 44.25 27.5688C44.805 27.1979 45.4575 27 46.125 27C47.0201 27 47.8786 27.3556 48.5115 27.9885C49.1444 28.6214 49.5 29.4799 49.5 30.375ZM49.1963 48.375C49.3591 48.6311 49.4684 48.9175 49.5176 49.2169C49.5669 49.5163 49.555 49.8226 49.4828 50.1174C49.4106 50.4121 49.2796 50.6892 49.0975 50.932C48.9155 51.1747 48.6862 51.3782 48.4234 51.53C48.1607 51.6819 47.87 51.7791 47.5688 51.8156C47.2675 51.8522 46.962 51.8275 46.6706 51.743C46.3791 51.6584 46.1078 51.5158 45.8729 51.3237C45.638 51.1315 45.4444 50.8939 45.3038 50.625C43.2028 46.9941 39.9009 45 36 45C32.0991 45 28.7972 46.9969 26.6963 50.625C26.5556 50.8939 26.362 51.1315 26.1271 51.3237C25.8922 51.5158 25.6209 51.6584 25.3295 51.743C25.038 51.8275 24.7325 51.8522 24.4313 51.8156C24.13 51.7791 23.8393 51.6819 23.5766 51.53C23.3139 51.3782 23.0846 51.1747 22.9025 50.932C22.7204 50.6892 22.5894 50.4121 22.5172 50.1174C22.445 49.8226 22.4332 49.5163 22.4824 49.2169C22.5317 48.9175 22.641 48.6311 22.8038 48.375C25.6978 43.3716 30.5072 40.5 36 40.5C41.4928 40.5 46.3022 43.3687 49.1963 48.375Z" fill="white"/>
</svg>
