<svg viewBox="0 0 136 136" fill="none"
	xmlns="http://www.w3.org/2000/svg">
	<rect width="136" height="136" rx="68" fill="url(#paint0_linear_1032_35310)" fill-opacity="0.1"/>
	<rect x="20" y="20" width="96" height="96" rx="48" fill="url(#paint1_linear_1032_35310)"/>
	<path d="M74.3183 57.5337C74.1956 56.5521 73.8275 55.6932 73.3367 54.9571C72.8459 54.2209 72.2324 53.6074 71.2508 53.1166C71.0054 52.9939 70.76 52.8712 70.5146 52.7485C70.5146 52.7485 69.7784 52.6258 69.9011 51.8896L70.0238 49.0675H70.1465C70.2692 49.0675 70.3919 48.9448 70.3919 48.8221V47.227C70.3919 47.1043 70.2692 46.9816 70.1465 46.9816V46.2454C70.1465 46.1227 70.0238 46 69.9011 46H65.852C65.7293 46 65.6066 46.1227 65.6066 46.2454V46.9816H65.4839C65.3612 46.9816 65.2385 47.1043 65.2385 47.227V48.8221C65.2385 48.9448 65.3612 49.0675 65.4839 49.0675H65.7293L65.852 52.0123C65.852 52.5031 65.3612 52.7485 65.2385 52.7485C64.9931 52.8712 64.625 52.9939 64.3796 53.1166C63.5207 53.6074 62.7845 54.0982 62.4164 54.9571C61.9256 55.6932 61.5576 56.6748 61.4349 57.6564C61.3122 58.7607 61.1895 59.865 61.1895 61.092V77.6564C61.1895 78.8834 61.3122 79.9877 61.4349 80.9693C61.5576 81.9509 61.9256 82.9325 62.4164 83.6687C62.9072 84.4049 63.5207 85.0184 64.5023 85.3865C65.3612 85.7546 66.4655 86 67.8152 86C69.1649 86 70.2692 85.7546 71.1281 85.3865C71.987 85.0184 72.7232 84.4049 73.214 83.6687C73.7048 82.9325 74.0729 82.0736 74.1956 81.092C74.3183 80.1104 74.441 79.1288 74.441 77.9018V72.8712L70.5146 73.7301V77.9018C70.5146 78.638 70.5146 79.2515 70.3919 79.7423C70.2692 80.2331 70.1465 80.7239 70.0238 81.092C69.7784 81.4601 69.533 81.7055 69.1649 81.9509C68.7968 82.1963 68.306 82.1963 67.8152 82.1963C67.2017 82.1963 66.7109 82.0736 66.3428 81.8282C65.9747 81.5828 65.7293 81.2147 65.4839 80.8466C65.4839 80.4785 65.3612 79.9877 65.3612 79.4969C65.3612 78.8834 65.2385 78.2699 65.2385 77.5337V60.9693C65.2385 60.2331 65.2385 59.6196 65.3612 59.0061C65.3612 58.3926 65.4839 57.9018 65.7293 57.5337C65.9747 57.1656 66.2201 56.7975 66.5882 56.6748C66.9563 56.4294 67.4471 56.4294 68.0606 56.4294C68.6741 56.4294 69.1649 56.5521 69.533 56.7975C69.9011 57.0429 70.1465 57.2883 70.3919 57.6564C70.6373 58.0245 70.76 58.5153 70.76 59.0061C70.76 59.4969 70.8827 60.1104 70.8827 60.8466V68.2086V70.4172L74.8091 69.5583V68.2086V60.8466C74.5637 59.4969 74.441 58.5153 74.3183 57.5337Z" fill="white"/>
	<defs>
		<linearGradient id="paint0_linear_1032_35310" x1="0" y1="68" x2="135.995" y2="68" gradientUnits="userSpaceOnUse">
			<stop stop-color="#FF660A"/>
			<stop offset="1" stop-color="#F11969"/>
		</linearGradient>
		<linearGradient id="paint1_linear_1032_35310" x1="20" y1="68" x2="115.997" y2="68" gradientUnits="userSpaceOnUse">
			<stop stop-color="#FF660A"/>
			<stop offset="1" stop-color="#F11969"/>
		</linearGradient>
	</defs>
</svg>
