<svg viewBox="0 0 92 92" fill="none"
	xmlns="http://www.w3.org/2000/svg">
	<rect width="92" height="92" rx="46" fill="url(#paint0_linear_1032_29569)" fill-opacity="0.1"/>
	<rect x="10" y="10" width="72" height="72" rx="36" fill="url(#paint1_linear_1032_29569)"/>
	<path d="M51.5676 36.3804C51.4595 35.4969 51.1351 34.7239 50.7027 34.0613C50.2703 33.3988 49.7297 32.8466 48.8649 32.4049C48.6487 32.2945 48.4324 32.184 48.2162 32.0736C48.2162 32.0736 47.5676 31.9632 47.6757 31.3006L47.7838 28.7607H47.8919C48 28.7607 48.1081 28.6503 48.1081 28.5399V27.1043C48.1081 26.9939 48 26.8834 47.8919 26.8834V26.2209C47.8919 26.1104 47.7838 26 47.6757 26H44.1081C44 26 43.8919 26.1104 43.8919 26.2209V26.8834H43.7838C43.6757 26.8834 43.5676 26.9939 43.5676 27.1043V28.5399C43.5676 28.6503 43.6757 28.7607 43.7838 28.7607H44L44.1081 31.411C44.1081 31.8528 43.6757 32.0736 43.5676 32.0736C43.3514 32.184 43.027 32.2945 42.8108 32.4049C42.0541 32.8466 41.4054 33.2883 41.0811 34.0613C40.6486 34.7239 40.3243 35.6074 40.2162 36.4908C40.1081 37.4847 40 38.4785 40 39.5828V54.4908C40 55.5951 40.1081 56.589 40.2162 57.4724C40.3243 58.3558 40.6486 59.2393 41.0811 59.9018C41.5135 60.5644 42.0541 61.1166 42.9189 61.4479C43.6757 61.7791 44.6487 62 45.8378 62C47.027 62 48 61.7791 48.7568 61.4479C49.5135 61.1166 50.1622 60.5644 50.5946 59.9018C51.027 59.2393 51.3514 58.4663 51.4595 57.5828C51.5676 56.6994 51.6757 55.8159 51.6757 54.7117V50.184L48.2162 50.9571V54.7117C48.2162 55.3742 48.2162 55.9264 48.1081 56.3681C48 56.8098 47.8919 57.2515 47.7838 57.5828C47.5676 57.9141 47.3514 58.135 47.027 58.3558C46.7027 58.5767 46.2703 58.5767 45.8378 58.5767C45.2973 58.5767 44.8649 58.4663 44.5405 58.2454C44.2162 58.0245 44 57.6932 43.7838 57.362C43.7838 57.0307 43.6757 56.589 43.6757 56.1472C43.6757 55.5951 43.5676 55.0429 43.5676 54.3804V39.4724C43.5676 38.8098 43.5676 38.2577 43.6757 37.7055C43.6757 37.1534 43.7838 36.7117 44 36.3804C44.2162 36.0491 44.4324 35.7178 44.7568 35.6074C45.0811 35.3865 45.5135 35.3865 46.0541 35.3865C46.5946 35.3865 47.027 35.4969 47.3514 35.7178C47.6757 35.9386 47.8919 36.1595 48.1081 36.4908C48.3243 36.8221 48.4324 37.2638 48.4324 37.7055C48.4324 38.1472 48.5405 38.6994 48.5405 39.362V45.9877V47.9755L52 47.2025V45.9877V39.362C51.7838 38.1472 51.6757 37.2638 51.5676 36.3804Z" fill="white"/>
	<defs>
		<linearGradient id="paint0_linear_1032_29569" x1="0" y1="46" x2="91.9968" y2="46" gradientUnits="userSpaceOnUse">
			<stop stop-color="#FF660A"/>
			<stop offset="1" stop-color="#F11969"/>
		</linearGradient>
		<linearGradient id="paint1_linear_1032_29569" x1="10" y1="46" x2="81.9975" y2="46" gradientUnits="userSpaceOnUse">
			<stop stop-color="#FF660A"/>
			<stop offset="1" stop-color="#F11969"/>
		</linearGradient>
	</defs>
</svg>
