<svg viewBox="0 0 24 24" fill="none"
	xmlns="http://www.w3.org/2000/svg">
	<path d="M12.0004 17.25V22.5M8.25041 22.5H15.7504M5.61229 9.43313C6.79635 8.92594 8.92542 8.56875 12.0004 10.125C15.3623 11.8275 17.5945 11.2397 18.696 10.6725M7.50885 3H16.492L18.5348 9.93094C18.8113 10.8602 18.8243 11.848 18.5724 12.7843C18.3204 13.7205 17.8134 14.5684 17.1079 15.2334C15.7225 16.53 13.896 17.2513 11.9985 17.2513C10.1011 17.2513 8.27457 16.53 6.88917 15.2334C6.18446 14.5679 5.6783 13.7198 5.42704 12.7836C5.17578 11.8474 5.18928 10.8599 5.46604 9.93094L7.50885 3Z" stroke="currentColor" stroke-width="1.5" stroke-linecap="round" stroke-linejoin="round"/>
</svg>
