<svg viewBox="0 0 17 16" fill="none" xmlns="http://www.w3.org/2000/svg">
<path d="M15.4786 3.50029V6.50029C15.4786 6.6329 15.4259 6.76008 15.3322 6.85385C15.2384 6.94761 15.1112 7.00029 14.9786 7.00029H11.9786C11.846 7.00029 11.7188 6.94761 11.625 6.85385C11.5313 6.76008 11.4786 6.6329 11.4786 6.50029C11.4786 6.36768 11.5313 6.24051 11.625 6.14674C11.7188 6.05297 11.846 6.00029 11.9786 6.00029H13.6911L12.0292 4.47779L12.0136 4.46279C11.3186 3.7681 10.4344 3.29358 9.47132 3.09851C8.50825 2.90344 7.50905 2.99647 6.59854 3.36598C5.68803 3.73549 4.90658 4.36509 4.35181 5.17614C3.79705 5.98719 3.49356 6.94373 3.47927 7.92626C3.46497 8.90878 3.7405 9.87374 4.27143 10.7006C4.80237 11.5274 5.56517 12.1795 6.46454 12.5754C7.36392 12.9712 8.35999 13.0933 9.32833 12.9263C10.2967 12.7593 11.1944 12.3107 11.9092 11.6365C12.0056 11.5454 12.1343 11.4962 12.2669 11.4999C12.3995 11.5036 12.5252 11.5598 12.6164 11.6562C12.7076 11.7526 12.7567 11.8813 12.753 12.0139C12.7493 12.1465 12.6931 12.2723 12.5967 12.3634C11.4851 13.4176 10.0106 14.0037 8.4786 14.0003H8.3961C7.41344 13.9868 6.44912 13.7322 5.58791 13.2588C4.7267 12.7854 3.99497 12.1077 3.45701 11.2852C2.91906 10.4628 2.59137 9.52076 2.50273 8.54201C2.41409 7.56326 2.56722 6.57772 2.94867 5.67202C3.33012 4.76631 3.9282 3.96816 4.69035 3.34773C5.45249 2.72729 6.35538 2.30356 7.31963 2.11379C8.28389 1.92401 9.28001 1.974 10.2204 2.25935C11.1608 2.5447 12.0168 3.05668 12.713 3.75029L14.4786 5.36279V3.50029C14.4786 3.36768 14.5313 3.24051 14.625 3.14674C14.7188 3.05297 14.846 3.00029 14.9786 3.00029C15.1112 3.00029 15.2384 3.05297 15.3322 3.14674C15.4259 3.24051 15.4786 3.36768 15.4786 3.50029Z" fill="currentColor"/>
</svg>
