<svg viewBox="0 0 133 133" fill="none" xmlns="http://www.w3.org/2000/svg">
<g clip-path="url(#clip0_108_10696)">
<g clip-path="url(#clip1_108_10696)">
<rect width="132" height="132" transform="translate(0.47998)" fill="black"/>
<g clip-path="url(#clip2_108_10696)">
<rect width="132" height="132" transform="translate(0.47998)" fill="#2196F3"/>
<path fill-rule="evenodd" clip-rule="evenodd" d="M91.23 0H91.7456V8.76563H123.35L123.532 8.58333L123.897 8.94793L123.714 9.13021V40.7344H132.48V41.25H123.714V65.7422H132.48V66.2578H123.714V90.75H132.48V91.2656H123.714V122.87L123.897 123.052L123.532 123.417L123.35 123.234H91.7456V132H91.23V123.234H66.7378V132H66.2222V123.234H41.73V132H41.2144V123.234H9.61019L9.4279 123.417L9.06329 123.052L9.24561 122.87V91.2656H0.47998V90.75H9.24561V66.2578H0.47998V65.7422H9.24561V41.25H0.47998V40.7344H9.24561V9.13024L9.06329 8.94793L9.4279 8.58333L9.61019 8.76563H41.2144V0H41.73V8.76563H66.2222V0H66.7378V8.76563H91.23V0ZM9.7618 66.2578C9.80087 75.036 11.8341 83.3433 15.4318 90.75H40.9214C34.7746 84.4036 30.9703 75.7749 30.9028 66.2578H9.7618ZM30.9028 65.7422H9.7618C9.80087 56.964 11.8341 48.6567 15.4318 41.25H40.9214C34.7746 47.5964 30.9703 56.2251 30.9028 65.7422ZM31.4184 66.2578C31.4857 75.5954 35.2029 84.0651 41.2144 90.3111V66.2578H31.4184ZM41.2144 65.7422H31.4184C31.4857 56.4046 35.2029 47.9348 41.2144 41.6889V65.7422ZM41.73 66.2578V90.3854L65.8576 66.2578H41.73ZM65.8576 65.7422H41.73V41.6146L65.8576 65.7422ZM67.1024 66.2578L91.23 90.3854V66.2578H67.1024ZM91.23 65.7422H67.1024L91.23 41.6146V65.7422ZM91.7456 66.2578V90.3111C97.757 84.0651 101.474 75.5954 101.542 66.2578H91.7456ZM101.542 65.7422H91.7456V41.6889C97.757 47.9348 101.474 56.4046 101.542 65.7422ZM102.057 66.2578C101.99 75.7749 98.1854 84.4036 92.0386 90.75H117.528C121.126 83.3433 123.159 75.036 123.198 66.2578H102.057ZM123.198 65.7422H102.057C101.99 56.2251 98.1854 47.5964 92.0386 41.25H117.528C121.126 48.6567 123.159 56.964 123.198 65.7422ZM91.23 117.048C83.8233 120.646 75.516 122.679 66.7378 122.718V101.577C76.2548 101.51 84.8836 97.7054 91.23 91.5586V117.048ZM90.7911 91.2656C84.5451 97.2771 76.0754 100.994 66.7378 101.062V91.2656H90.7911ZM66.2222 101.062V91.2656H42.1689C48.4148 97.2771 56.8846 100.994 66.2222 101.062ZM90.8654 90.75H66.7378V66.6224L90.8654 90.75ZM66.2222 90.75V66.6224L42.0946 90.75H66.2222ZM90.8654 41.25L66.7378 65.3776V41.25H90.8654ZM66.2222 65.3776V41.25H42.0946L66.2222 65.3776ZM90.7911 40.7344H66.7378V30.9384C76.0754 31.0057 84.5451 34.7229 90.7911 40.7344ZM66.2222 40.7344V30.9384C56.8846 31.0057 48.4148 34.7229 42.1689 40.7344H66.2222ZM91.23 40.4414C84.8836 34.2946 76.2548 30.4903 66.7378 30.4228V9.28182C75.516 9.32089 83.8233 11.3541 91.23 14.9518V40.4414ZM66.2222 30.4228V9.28182C57.4439 9.32089 49.1367 11.3541 41.73 14.9518V40.4414C48.0763 34.2946 56.7051 30.4903 66.2222 30.4228ZM66.2222 122.718V101.577C56.7051 101.51 48.0763 97.7054 41.73 91.5586V117.048C49.1367 120.646 57.4439 122.679 66.2222 122.718ZM9.76123 41.25V58.2844C10.5733 52.2583 12.3231 46.5296 14.859 41.25H9.76123ZM15.1099 40.7344H9.76123V9.64587L25.8273 25.7119C21.4935 30.0847 17.8602 35.1529 15.1099 40.7344ZM40.8497 40.7344H15.6855C18.3969 35.2937 21.9568 30.35 26.1919 26.0765L40.8497 40.7344ZM117.275 40.7344H92.1102L106.768 26.0765C111.003 30.35 114.563 35.2937 117.275 40.7344ZM118.101 41.25C120.637 46.5296 122.387 52.2583 123.199 58.2844V41.25H118.101ZM123.199 40.7344H117.85C115.1 35.1529 111.466 30.0847 107.133 25.7119L123.199 9.64584V40.7344ZM123.199 73.7157V90.75H118.101C120.637 85.4704 122.387 79.7417 123.199 73.7157ZM117.275 91.2656H92.1102L106.768 105.924C111.003 101.65 114.563 96.7063 117.275 91.2656ZM40.8497 91.2656H15.6855C18.3969 96.7063 21.9568 101.65 26.1919 105.923L40.8497 91.2656ZM9.76123 73.7157C10.5733 79.7417 12.3231 85.4704 14.859 90.75H9.76123V73.7157ZM15.1099 91.2656H9.76123V122.354L25.8273 106.288C21.4935 101.915 17.8602 96.8471 15.1099 91.2656ZM123.199 91.2656H117.85C115.1 96.8471 111.466 101.915 107.133 106.288L123.199 122.354V91.2656ZM41.2144 9.28125H10.1258L26.1919 25.3473C30.5646 21.0135 35.6329 17.3803 41.2144 14.6299V9.28125ZM41.73 14.379V9.28125H58.7643C52.7382 10.0933 47.0096 11.8431 41.73 14.379ZM41.2144 15.2055C35.7737 17.917 30.83 21.4768 26.5565 25.7119L41.2144 40.3698V15.2055ZM41.2144 91.6302V116.795C35.7737 114.083 30.83 110.523 26.5565 106.288L41.2144 91.6302ZM41.2144 117.37C35.6329 114.62 30.5646 110.987 26.1919 106.653L10.1258 122.719H41.2144V117.37ZM41.73 122.719V117.621C47.0096 120.157 52.7382 121.907 58.7643 122.719H41.73ZM74.1956 9.28125H91.23V14.379C85.9504 11.8431 80.2217 10.0933 74.1956 9.28125ZM91.7456 9.28125V14.6299C97.3271 17.3803 102.395 21.0135 106.768 25.3473L122.834 9.28125H91.7456ZM91.7456 15.2055V40.3698L106.403 25.7119C102.13 21.4768 97.1863 17.917 91.7456 15.2055ZM91.7456 91.6302V116.795C97.1863 114.083 102.13 110.523 106.403 106.288L91.7456 91.6302ZM74.1956 122.719C80.2217 121.907 85.9504 120.157 91.23 117.621V122.719H74.1956ZM91.7456 117.37V122.719H122.834L106.768 106.653C102.395 110.987 97.3271 114.62 91.7456 117.37Z" fill="white" fill-opacity="0.5"/>
<g clip-path="url(#clip3_108_10696)">
<path d="M132.48 0H0.47998V132H132.48V0Z" fill="#FFDA15"/>
<path d="M132.48 0H0.47998V132H132.48V0Z" fill="url(#paint0_radial_108_10696)"/>
</g>
</g>
</g>
<path d="M77.9577 52.0498C77.6527 50.296 77.0427 48.6947 76.2039 47.3984C75.3651 46.0259 74.1451 45.0347 72.6201 44.1959C72.1626 43.9671 71.7051 43.8146 71.2476 43.6621C71.2476 43.6621 70.0275 43.3571 70.0275 42.2134L70.2563 37.1045H70.5613C70.79 37.1045 70.9426 36.952 70.9426 36.7233V33.8257C70.9426 33.597 70.79 33.4445 70.5613 33.4445H70.485L70.5613 32.0719C70.5613 31.8432 70.4088 31.6907 70.18 31.6907H63.0887C62.8599 31.6907 62.7074 31.8432 62.7074 32.0719L62.7837 33.4445H62.7074C62.4787 33.4445 62.3261 33.597 62.3261 33.8257V36.7233C62.3261 36.952 62.4787 37.1045 62.7074 37.1045H63.0124L63.3174 42.2134C63.3174 43.1284 62.4786 43.5096 62.2499 43.5859C62.2499 43.5859 62.2499 43.5859 62.1736 43.5859H62.0974C61.5636 43.7384 61.1061 43.9671 60.6486 44.1959C59.1236 44.9584 57.9036 46.0259 57.0648 47.3984C56.226 48.771 55.616 50.3722 55.311 52.2023C55.006 54.0323 54.8535 56.0148 54.8535 58.2261V87.5829C54.8535 89.7179 55.006 91.7005 55.311 93.5305C55.616 95.3605 56.226 96.9618 57.0648 98.2581C57.9036 99.6306 59.1236 100.622 60.6486 101.384C62.1736 102.147 64.1562 102.528 66.5962 102.528C68.96 102.528 70.9426 102.147 72.4676 101.384C73.9926 100.622 75.2126 99.6306 76.0514 98.3343C76.8902 97.0381 77.5002 95.513 77.8052 93.8355C78.1102 92.0817 78.2627 90.2517 78.2627 88.2692V79.1953L71.2476 80.7965V88.1167C71.2476 89.3367 71.1713 90.4042 71.0951 91.3955C70.9425 92.3867 70.7138 93.1493 70.4088 93.8355C70.1038 94.4455 69.57 94.9793 68.96 95.3605C68.35 95.6655 67.5112 95.8943 66.52 95.8943C65.4525 95.8943 64.5374 95.6656 63.9274 95.2843C63.3174 94.903 62.7837 94.293 62.4786 93.5305C62.1736 92.768 61.9449 91.9292 61.8686 90.8617C61.7924 89.7942 61.7161 88.6504 61.7161 87.4304V58.0736C61.7161 56.7774 61.7924 55.5573 61.8686 54.5661C61.9449 53.5748 62.1736 52.736 62.5549 52.0498C62.8599 51.3635 63.3937 50.8298 64.0037 50.4485C64.6137 50.0672 65.4525 49.9147 66.52 49.9147C67.5875 49.9147 68.4263 50.0672 69.0363 50.4485C69.6463 50.8298 70.1038 51.3635 70.485 52.0498C70.79 52.736 71.0188 53.4986 71.0951 54.4898C71.1713 55.4048 71.2476 56.4724 71.2476 57.6924V70.5788V74.4677L78.2627 72.8664V70.5788V57.5399C78.4152 55.6336 78.2627 53.8036 77.9577 52.0498Z" fill="white"/>
</g>
<defs>
<radialGradient id="paint0_radial_108_10696" cx="0" cy="0" r="1" gradientUnits="userSpaceOnUse" gradientTransform="translate(20.94 1.31984e-05) rotate(52.8933) scale(159.721 187.494)">
<stop stop-color="#FD5E13"/>
<stop offset="0.670352" stop-color="#F42E4F"/>
<stop offset="0.892007" stop-color="#F0146F"/>
</radialGradient>
<clipPath id="clip0_108_10696">
<rect x="0.47998" width="132" height="133" rx="20.889" fill="white"/>
</clipPath>
<clipPath id="clip1_108_10696">
<rect width="132" height="132" fill="white" transform="translate(0.47998)"/>
</clipPath>
<clipPath id="clip2_108_10696">
<rect width="132" height="132" fill="white" transform="translate(0.47998)"/>
</clipPath>
<clipPath id="clip3_108_10696">
<rect width="132" height="132" fill="white" transform="translate(0.47998)"/>
</clipPath>
</defs>
</svg>
