<svg width="25" height="24" viewBox="0 0 25 24" fill="none" xmlns="http://www.w3.org/2000/svg">
<path fill-rule="evenodd" clip-rule="evenodd" d="M12.9775 1C6.90222 1 1.97751 5.92472 1.97751 12C1.97751 18.0753 6.90222 23 12.9775 23C19.0528 23 23.9775 18.0753 23.9775 12C23.9775 5.92472 19.0528 1 12.9775 1ZM3.97751 12C3.97751 7.02928 8.00679 3 12.9775 3C17.9482 3 21.9775 7.02928 21.9775 12C21.9775 16.9707 17.9482 21 12.9775 21C8.00679 21 3.97751 16.9707 3.97751 12ZM11.8843 8.27123C12.2915 8.03191 12.7702 7.94443 13.2357 8.02428C13.7013 8.10413 14.1235 8.34615 14.4277 8.70749C14.7319 9.06883 14.8983 9.52615 14.8976 9.99847L14.8976 9.99996C14.8976 10.4691 14.5325 10.9582 13.8429 11.4179C13.5286 11.6275 13.2071 11.7889 12.9602 11.8986C12.8382 11.9529 12.738 11.9929 12.6705 12.0186C12.6369 12.0314 12.6117 12.0406 12.5963 12.046L12.5804 12.0516C12.0571 12.2267 11.7744 12.7926 11.9489 13.3162C12.1236 13.8401 12.6899 14.1233 13.2139 13.9486L13.2151 13.9482L13.2166 13.9477L13.2205 13.9464L13.2316 13.9426L13.2663 13.9305C13.2949 13.9203 13.3341 13.906 13.3825 13.8876C13.4792 13.8508 13.6133 13.7971 13.7725 13.7263C14.0882 13.586 14.5167 13.3724 14.9523 13.082C15.7626 12.5419 16.8972 11.5312 16.8976 10.0009C16.8989 9.05644 16.566 8.14201 15.9577 7.41949C15.3494 6.69682 14.5049 6.21277 13.5739 6.05307C12.6428 5.89337 11.6853 6.06833 10.8709 6.54696C10.0565 7.02559 9.43776 7.77701 9.12429 8.66812C8.94102 9.18911 9.21479 9.76002 9.73578 9.9433C10.2568 10.1266 10.8277 9.85279 11.011 9.33181C11.1677 8.88625 11.4771 8.51054 11.8843 8.27123ZM12.9776 16C12.4253 16 11.9776 16.4477 11.9776 17C11.9776 17.5522 12.4253 18 12.9776 18H12.9876C13.5399 18 13.9876 17.5522 13.9876 17C13.9876 16.4477 13.5399 16 12.9876 16H12.9776Z" fill="#9499A2"/>
</svg>
