<svg viewBox="0 0 1440 1884" fill="none"
	xmlns="http://www.w3.org/2000/svg">
	<path fill-rule="evenodd" clip-rule="evenodd" d="M960 60C960 26.8629 933.137 0 900 0H540C506.863 0 480 26.8629 480 60V100C480 111.046 471.046 120 460 120C448.954 120 440 128.954 440 140V295.913C440 309.216 450.784 320 464.087 320C476.923 320 487.503 330.065 488.144 342.884L502.305 626.102C504.265 665.303 477.267 699.62 439.979 711.877C184.475 795.867 0 1036.39 0 1320V1884C0 1928.18 35.8172 1964 80 1964H1360C1404.18 1964 1440 1928.18 1440 1884V1320C1440 1036.39 1255.52 795.867 1000.02 711.877C962.733 699.62 935.735 665.303 937.695 626.102L951.856 342.884C952.497 330.065 963.077 320 975.913 320C989.216 320 1000 309.216 1000 295.913V140C1000 128.954 991.046 120 980 120C968.954 120 960 111.046 960 100V60Z" fill="url(#paint0_linear_1032_35192)"/>
	<defs>
		<linearGradient id="paint0_linear_1032_35192" x1="0" y1="982" x2="1439.95" y2="982" gradientUnits="userSpaceOnUse">
			<stop stop-color="#FF660A"/>
			<stop offset="1" stop-color="#F11969"/>
		</linearGradient>
	</defs>
</svg>
