<svg viewBox="0 0 72 72" fill="none"
	xmlns="http://www.w3.org/2000/svg">
	<path d="M67.5 58.5H63V27C63 25.8065 62.5259 24.6619 61.682 23.818C60.8381 22.9741 59.6935 22.5 58.5 22.5H40.5V9C40.5005 8.18511 40.2798 7.38538 39.8613 6.68615C39.4428 5.98693 38.8423 5.41446 38.1239 5.02984C37.4055 4.64523 36.5962 4.46291 35.7822 4.50234C34.9683 4.54178 34.1804 4.80148 33.5025 5.25375L11.0025 20.25C10.3853 20.6618 9.87944 21.2198 9.53006 21.8744C9.18068 22.529 8.99859 23.2599 9 24.0019V58.5H4.5C3.90326 58.5 3.33097 58.737 2.90901 59.159C2.48705 59.581 2.25 60.1533 2.25 60.75C2.25 61.3467 2.48705 61.919 2.90901 62.341C3.33097 62.7629 3.90326 63 4.5 63H67.5C68.0967 63 68.669 62.7629 69.091 62.341C69.5129 61.919 69.75 61.3467 69.75 60.75C69.75 60.1533 69.5129 59.581 69.091 59.159C68.669 58.737 68.0967 58.5 67.5 58.5ZM58.5 27V58.5H40.5V27H58.5ZM13.5 24.0019L36 9V58.5H13.5V24.0019ZM31.5 31.5V36C31.5 36.5967 31.2629 37.169 30.841 37.591C30.419 38.0129 29.8467 38.25 29.25 38.25C28.6533 38.25 28.081 38.0129 27.659 37.591C27.2371 37.169 27 36.5967 27 36V31.5C27 30.9033 27.2371 30.331 27.659 29.909C28.081 29.487 28.6533 29.25 29.25 29.25C29.8467 29.25 30.419 29.487 30.841 29.909C31.2629 30.331 31.5 30.9033 31.5 31.5ZM22.5 31.5V36C22.5 36.5967 22.2629 37.169 21.841 37.591C21.419 38.0129 20.8467 38.25 20.25 38.25C19.6533 38.25 19.081 38.0129 18.659 37.591C18.2371 37.169 18 36.5967 18 36V31.5C18 30.9033 18.2371 30.331 18.659 29.909C19.081 29.487 19.6533 29.25 20.25 29.25C20.8467 29.25 21.419 29.487 21.841 29.909C22.2629 30.331 22.5 30.9033 22.5 31.5ZM22.5 47.25V51.75C22.5 52.3467 22.2629 52.919 21.841 53.341C21.419 53.7629 20.8467 54 20.25 54C19.6533 54 19.081 53.7629 18.659 53.341C18.2371 52.919 18 52.3467 18 51.75V47.25C18 46.6533 18.2371 46.081 18.659 45.659C19.081 45.237 19.6533 45 20.25 45C20.8467 45 21.419 45.237 21.841 45.659C22.2629 46.081 22.5 46.6533 22.5 47.25ZM31.5 47.25V51.75C31.5 52.3467 31.2629 52.919 30.841 53.341C30.419 53.7629 29.8467 54 29.25 54C28.6533 54 28.081 53.7629 27.659 53.341C27.2371 52.919 27 52.3467 27 51.75V47.25C27 46.6533 27.2371 46.081 27.659 45.659C28.081 45.237 28.6533 45 29.25 45C29.8467 45 30.419 45.237 30.841 45.659C31.2629 46.081 31.5 46.6533 31.5 47.25Z" fill="url(#paint0_linear_1032_34869)"/>
	<defs>
		<linearGradient id="paint0_linear_1032_34869" x1="2.25" y1="33.7485" x2="69.7476" y2="33.7485" gradientUnits="userSpaceOnUse">
			<stop stop-color="#FF660A"/>
			<stop offset="1" stop-color="#F11969"/>
		</linearGradient>
	</defs>
</svg>
