<svg viewBox="0 0 48 48" fill="none"
	xmlns="http://www.w3.org/2000/svg">
	<path d="M43.5 9V16.5C43.5 16.8978 43.342 17.2794 43.0607 17.5607C42.7794 17.842 42.3978 18 42 18C41.6022 18 41.2206 17.842 40.9393 17.5607C40.658 17.2794 40.5 16.8978 40.5 16.5V10.5H34.5C34.1022 10.5 33.7206 10.342 33.4393 10.0607C33.158 9.77936 33 9.39782 33 9C33 8.60218 33.158 8.22064 33.4393 7.93934C33.7206 7.65804 34.1022 7.5 34.5 7.5H42C42.3978 7.5 42.7794 7.65804 43.0607 7.93934C43.342 8.22064 43.5 8.60218 43.5 9ZM13.5 37.5H7.5V31.5C7.5 31.1022 7.34196 30.7206 7.06066 30.4393C6.77936 30.158 6.39782 30 6 30C5.60218 30 5.22064 30.158 4.93934 30.4393C4.65804 30.7206 4.5 31.1022 4.5 31.5V39C4.5 39.3978 4.65804 39.7794 4.93934 40.0607C5.22064 40.342 5.60218 40.5 6 40.5H13.5C13.8978 40.5 14.2794 40.342 14.5607 40.0607C14.842 39.7794 15 39.3978 15 39C15 38.6022 14.842 38.2206 14.5607 37.9393C14.2794 37.658 13.8978 37.5 13.5 37.5ZM42 30C41.6022 30 41.2206 30.158 40.9393 30.4393C40.658 30.7206 40.5 31.1022 40.5 31.5V37.5H34.5C34.1022 37.5 33.7206 37.658 33.4393 37.9393C33.158 38.2206 33 38.6022 33 39C33 39.3978 33.158 39.7794 33.4393 40.0607C33.7206 40.342 34.1022 40.5 34.5 40.5H42C42.3978 40.5 42.7794 40.342 43.0607 40.0607C43.342 39.7794 43.5 39.3978 43.5 39V31.5C43.5 31.1022 43.342 30.7206 43.0607 30.4393C42.7794 30.158 42.3978 30 42 30ZM6 18C6.39782 18 6.77936 17.842 7.06066 17.5607C7.34196 17.2794 7.5 16.8978 7.5 16.5V10.5H13.5C13.8978 10.5 14.2794 10.342 14.5607 10.0607C14.842 9.77936 15 9.39782 15 9C15 8.60218 14.842 8.22064 14.5607 7.93934C14.2794 7.65804 13.8978 7.5 13.5 7.5H6C5.60218 7.5 5.22064 7.65804 4.93934 7.93934C4.65804 8.22064 4.5 8.60218 4.5 9V16.5C4.5 16.8978 4.65804 17.2794 4.93934 17.5607C5.22064 17.842 5.60218 18 6 18ZM15 15C14.6022 15 14.2206 15.158 13.9393 15.4393C13.658 15.7206 13.5 16.1022 13.5 16.5V31.5C13.5 31.8978 13.658 32.2794 13.9393 32.5607C14.2206 32.842 14.6022 33 15 33C15.3978 33 15.7794 32.842 16.0607 32.5607C16.342 32.2794 16.5 31.8978 16.5 31.5V16.5C16.5 16.1022 16.342 15.7206 16.0607 15.4393C15.7794 15.158 15.3978 15 15 15ZM34.5 31.5V16.5C34.5 16.1022 34.342 15.7206 34.0607 15.4393C33.7794 15.158 33.3978 15 33 15C32.6022 15 32.2206 15.158 31.9393 15.4393C31.658 15.7206 31.5 16.1022 31.5 16.5V31.5C31.5 31.8978 31.658 32.2794 31.9393 32.5607C32.2206 32.842 32.6022 33 33 33C33.3978 33 33.7794 32.842 34.0607 32.5607C34.342 32.2794 34.5 31.8978 34.5 31.5ZM27 15C26.6022 15 26.2206 15.158 25.9393 15.4393C25.658 15.7206 25.5 16.1022 25.5 16.5V31.5C25.5 31.8978 25.658 32.2794 25.9393 32.5607C26.2206 32.842 26.6022 33 27 33C27.3978 33 27.7794 32.842 28.0607 32.5607C28.342 32.2794 28.5 31.8978 28.5 31.5V16.5C28.5 16.1022 28.342 15.7206 28.0607 15.4393C27.7794 15.158 27.3978 15 27 15ZM21 15C20.6022 15 20.2206 15.158 19.9393 15.4393C19.658 15.7206 19.5 16.1022 19.5 16.5V31.5C19.5 31.8978 19.658 32.2794 19.9393 32.5607C20.2206 32.842 20.6022 33 21 33C21.3978 33 21.7794 32.842 22.0607 32.5607C22.342 32.2794 22.5 31.8978 22.5 31.5V16.5C22.5 16.1022 22.342 15.7206 22.0607 15.4393C21.7794 15.158 21.3978 15 21 15Z" fill="url(#paint0_linear_92_6193)"/>
	<defs>
		<linearGradient id="paint0_linear_92_6193" x1="4.5" y1="24" x2="43.4986" y2="24" gradientUnits="userSpaceOnUse">
			<stop stop-color="#FF660A"/>
			<stop offset="1" stop-color="#F11969"/>
		</linearGradient>
	</defs>
</svg>
