<svg viewBox="0 0 48 48" fill="none"
	xmlns="http://www.w3.org/2000/svg">
	<path d="M45 19.9069V13.5C45 12.7044 44.6839 11.9413 44.1213 11.3787C43.5587 10.8161 42.7957 10.5 42 10.5H6C5.20435 10.5 4.44129 10.8161 3.87868 11.3787C3.31607 11.9413 3 12.7044 3 13.5V19.9069C2.54467 20.1698 2.16642 20.5477 1.90316 21.0028C1.6399 21.4579 1.50087 21.9742 1.5 22.5V31.5C1.5 32.2956 1.81607 33.0587 2.37868 33.6213C2.94129 34.1839 3.70435 34.5 4.5 34.5H6V37.5C6 37.8978 6.15804 38.2794 6.43934 38.5607C6.72064 38.842 7.10218 39 7.5 39C7.89782 39 8.27936 38.842 8.56066 38.5607C8.84196 38.2794 9 37.8978 9 37.5V34.5H39V37.5C39 37.8978 39.158 38.2794 39.4393 38.5607C39.7206 38.842 40.1022 39 40.5 39C40.8978 39 41.2794 38.842 41.5607 38.5607C41.842 38.2794 42 37.8978 42 37.5V34.5H43.5C44.2957 34.5 45.0587 34.1839 45.6213 33.6213C46.1839 33.0587 46.5 32.2956 46.5 31.5V22.5C46.4991 21.9742 46.3601 21.4579 46.0968 21.0028C45.8336 20.5477 45.4553 20.1698 45 19.9069ZM42 19.5H40.5C39.7043 19.5 38.9413 19.8161 38.3787 20.3787C37.8161 20.9413 37.5 21.7044 37.5 22.5V25.5H25.5V13.5H42V19.5ZM22.5 13.5V25.5H10.5V22.5C10.5 21.7044 10.1839 20.9413 9.62132 20.3787C9.05871 19.8161 8.29565 19.5 7.5 19.5H6V13.5H22.5ZM43.5 31.5H4.5V22.5H7.5V27C7.5 27.3978 7.65804 27.7794 7.93934 28.0607C8.22064 28.342 8.60218 28.5 9 28.5H39C39.3978 28.5 39.7794 28.342 40.0607 28.0607C40.342 27.7794 40.5 27.3978 40.5 27V22.5H43.5V31.5Z" fill="url(#paint0_linear_92_6199)"/>
	<defs>
		<linearGradient id="paint0_linear_92_6199" x1="1.5" y1="24.75" x2="46.4984" y2="24.75" gradientUnits="userSpaceOnUse">
			<stop stop-color="#FF660A"/>
			<stop offset="1" stop-color="#F11969"/>
		</linearGradient>
	</defs>
</svg>
