<svg viewBox="0 0 48 48" fill="none"
	xmlns="http://www.w3.org/2000/svg">
	<path d="M43.875 15.0225C43.4526 14.5439 42.9332 14.1606 42.3513 13.8981C41.7694 13.6356 41.1384 13.4999 40.5 13.5H30V10.5C30 8.51088 29.2098 6.60322 27.8033 5.1967C26.3968 3.79018 24.4891 3 22.5 3C22.2213 2.9998 21.9481 3.07723 21.711 3.22362C21.4739 3.37 21.2822 3.57954 21.1575 3.82875L14.0738 18H6C5.20435 18 4.44129 18.3161 3.87868 18.8787C3.31607 19.4413 3 20.2044 3 21V37.5C3 38.2957 3.31607 39.0587 3.87868 39.6213C4.44129 40.1839 5.20435 40.5 6 40.5H38.25C39.3463 40.5004 40.4051 40.1005 41.2274 39.3755C42.0498 38.6505 42.5792 37.6502 42.7163 36.5625L44.9663 18.5625C45.046 17.9288 44.9899 17.2854 44.8018 16.675C44.6136 16.0646 44.2977 15.5013 43.875 15.0225ZM6 21H13.5V37.5H6V21ZM41.9888 18.1875L39.7388 36.1875C39.6931 36.5501 39.5166 36.8835 39.2425 37.1252C38.9684 37.3668 38.6154 37.5001 38.25 37.5H16.5V19.8544L23.3831 6.08625C24.4033 6.29043 25.3212 6.84179 25.9806 7.64652C26.6401 8.45124 27.0003 9.4596 27 10.5V15C27 15.3978 27.158 15.7794 27.4393 16.0607C27.7206 16.342 28.1022 16.5 28.5 16.5H40.5C40.7129 16.4999 40.9233 16.5452 41.1173 16.6327C41.3114 16.7202 41.4845 16.848 41.6253 17.0077C41.7662 17.1673 41.8714 17.355 41.9341 17.5585C41.9967 17.7619 42.0154 17.9763 41.9888 18.1875Z" fill="url(#paint0_linear_92_6205)"/>
	<defs>
		<linearGradient id="paint0_linear_92_6205" x1="3" y1="21.75" x2="45" y2="21.75" gradientUnits="userSpaceOnUse">
			<stop stop-color="#FF660A"/>
			<stop offset="1" stop-color="#F11969"/>
		</linearGradient>
	</defs>
</svg>
